<svg viewBox="0 0 1129 400" xmlns="http://www.w3.org/2000/svg"><g><g><g><g><g><line x1="41.171875" y1="377" x2="36.171875" y2="377" style="visibility: inherit;" fill="rgb(0, 0, 0)" stroke="rgb(204, 204, 204)" stroke-width="1px"></line><line x1="41.171875" y1="350.07142857142856" x2="36.171875" y2="350.07142857142856" style="visibility: inherit;" fill="rgb(0, 0, 0)" stroke="rgb(204, 204, 204)" stroke-width="1px"></line><line x1="41.171875" y1="323.14285714285717" x2="36.171875" y2="323.14285714285717" style="visibility: inherit;" fill="rgb(0, 0, 0)" stroke="rgb(204, 204, 204)" stroke-width="1px"></line><line x1="41.171875" y1="296.2142857142857" x2="36.171875" y2="296.2142857142857" style="visibility: inherit;" fill="rgb(0, 0, 0)" stroke="rgb(204, 204, 204)" stroke-width="1px"></line><line x1="41.171875" y1="269.2857142857143" x2="36.171875" y2="269.2857142857143" style="visibility: inherit;" fill="rgb(0, 0, 0)" stroke="rgb(204, 204, 204)" stroke-width="1px"></line><line x1="41.171875" y1="242.35714285714283" x2="36.171875" y2="242.35714285714283" style="visibility: inherit;" fill="rgb(0, 0, 0)" stroke="rgb(204, 204, 204)" stroke-width="1px"></line><line x1="41.171875" y1="215.42857142857142" x2="36.171875" y2="215.42857142857142" style="visibility: inherit;" fill="rgb(0, 0, 0)" stroke="rgb(204, 204, 204)" stroke-width="1px"></line><line x1="41.171875" y1="188.5" x2="36.171875" y2="188.5" style="visibility: inherit;" fill="rgb(0, 0, 0)" stroke="rgb(204, 204, 204)" stroke-width="1px"></line><line x1="41.171875" y1="161.57142857142858" x2="36.171875" y2="161.57142857142858" style="visibility: inherit;" fill="rgb(0, 0, 0)" stroke="rgb(204, 204, 204)" stroke-width="1px"></line><line x1="41.171875" y1="134.64285714285714" x2="36.171875" y2="134.64285714285714" style="visibility: inherit;" fill="rgb(0, 0, 0)" stroke="rgb(204, 204, 204)" stroke-width="1px"></line><line x1="41.171875" y1="107.71428571428571" x2="36.171875" y2="107.71428571428571" style="visibility: inherit;" fill="rgb(0, 0, 0)" stroke="rgb(204, 204, 204)" stroke-width="1px"></line><line x1="41.171875" y1="80.78571428571429" x2="36.171875" y2="80.78571428571429" style="visibility: inherit;" fill="rgb(0, 0, 0)" stroke="rgb(204, 204, 204)" stroke-width="1px"></line><line x1="41.171875" y1="53.857142857142875" x2="36.171875" y2="53.857142857142875" style="visibility: inherit;" fill="rgb(0, 0, 0)" stroke="rgb(204, 204, 204)" stroke-width="1px"></line><line x1="41.171875" y1="26.928571428571416" x2="36.171875" y2="26.928571428571416" style="visibility: inherit;" fill="rgb(0, 0, 0)" stroke="rgb(204, 204, 204)" stroke-width="1px"></line><line x1="41.171875" y1="0" x2="36.171875" y2="0" style="visibility: inherit;" fill="rgb(0, 0, 0)" stroke="rgb(204, 204, 204)" stroke-width="1px"></line></g><g transform="translate(31.171875, 0)"><text x="0" y="377" dx="0em" dy="0.3em" style="text-anchor: end; visibility: hidden; font-family: Roboto, sans-serif; font-size: 12px; font-weight: 200;" fill="rgb(33, 33, 33)" stroke="none" stroke-width="1px">-13</text><text x="0" y="350.07142857142856" dx="0em" dy="0.3em" style="text-anchor: end; visibility: inherit; font-family: Roboto, sans-serif; font-size: 12px; font-weight: 200;" fill="rgb(33, 33, 33)" stroke="none" stroke-width="1px">-12</text><text x="0" y="323.14285714285717" dx="0em" dy="0.3em" style="text-anchor: end; visibility: inherit; font-family: Roboto, sans-serif; font-size: 12px; font-weight: 200;" fill="rgb(33, 33, 33)" stroke="none" stroke-width="1px">-11</text><text x="0" y="296.2142857142857" dx="0em" dy="0.3em" style="text-anchor: end; visibility: inherit; font-family: Roboto, sans-serif; font-size: 12px; font-weight: 200;" fill="rgb(33, 33, 33)" stroke="none" stroke-width="1px">-10</text><text x="0" y="269.2857142857143" dx="0em" dy="0.3em" style="text-anchor: end; visibility: inherit; font-family: Roboto, sans-serif; font-size: 12px; font-weight: 200;" fill="rgb(33, 33, 33)" stroke="none" stroke-width="1px">-9</text><text x="0" y="242.35714285714283" dx="0em" dy="0.3em" style="text-anchor: end; visibility: inherit; font-family: Roboto, sans-serif; font-size: 12px; font-weight: 200;" fill="rgb(33, 33, 33)" stroke="none" stroke-width="1px">-8</text><text x="0" y="215.42857142857142" dx="0em" dy="0.3em" style="text-anchor: end; visibility: inherit; font-family: Roboto, sans-serif; font-size: 12px; font-weight: 200;" fill="rgb(33, 33, 33)" stroke="none" stroke-width="1px">-7</text><text x="0" y="188.5" dx="0em" dy="0.3em" style="text-anchor: end; visibility: inherit; font-family: Roboto, sans-serif; font-size: 12px; font-weight: 200;" fill="rgb(33, 33, 33)" stroke="none" stroke-width="1px">-6</text><text x="0" y="161.57142857142858" dx="0em" dy="0.3em" style="text-anchor: end; visibility: inherit; font-family: Roboto, sans-serif; font-size: 12px; font-weight: 200;" fill="rgb(33, 33, 33)" stroke="none" stroke-width="1px">-5</text><text x="0" y="134.64285714285714" dx="0em" dy="0.3em" style="text-anchor: end; visibility: inherit; font-family: Roboto, sans-serif; font-size: 12px; font-weight: 200;" fill="rgb(33, 33, 33)" stroke="none" stroke-width="1px">-4</text><text x="0" y="107.71428571428571" dx="0em" dy="0.3em" style="text-anchor: end; visibility: inherit; font-family: Roboto, sans-serif; font-size: 12px; font-weight: 200;" fill="rgb(33, 33, 33)" stroke="none" stroke-width="1px">-3</text><text x="0" y="80.78571428571429" dx="0em" dy="0.3em" style="text-anchor: end; visibility: inherit; font-family: Roboto, sans-serif; font-size: 12px; font-weight: 200;" fill="rgb(33, 33, 33)" stroke="none" stroke-width="1px">-2</text><text x="0" y="53.857142857142875" dx="0em" dy="0.3em" style="text-anchor: end; visibility: inherit; font-family: Roboto, sans-serif; font-size: 12px; font-weight: 200;" fill="rgb(33, 33, 33)" stroke="none" stroke-width="1px">-1</text><text x="0" y="26.928571428571416" dx="0em" dy="0.3em" style="text-anchor: end; visibility: inherit; font-family: Roboto, sans-serif; font-size: 12px; font-weight: 200;" fill="rgb(33, 33, 33)" stroke="none" stroke-width="1px">0</text><text x="0" y="0" dx="0em" dy="0.3em" style="text-anchor: end; visibility: hidden; font-family: Roboto, sans-serif; font-size: 12px; font-weight: 200;" fill="rgb(33, 33, 33)" stroke="none" stroke-width="1px">1</text></g><line x1="41.171875" y1="0" x2="41.171875" y2="377" fill="rgb(0, 0, 0)" stroke="rgb(204, 204, 204)" stroke-width="1px"></line></g></g><g transform="translate(41, 0)" clip-path="url(#clip_0)"><clipPath id="clip_0"><rect width="1087" height="377"></rect></clipPath><g><g><g><line x1="0" y1="0" x2="0" y2="377" fill="rgb(0, 0, 0)" stroke="rgb(66, 66, 66)" stroke-width="1px" opacity="0.25"></line><line x1="77.70200892857143" y1="0" x2="77.70200892857143" y2="377" fill="rgb(0, 0, 0)" stroke="rgb(66, 66, 66)" stroke-width="1px" opacity="0.25"></line><line x1="155.40401785714286" y1="0" x2="155.40401785714286" y2="377" fill="rgb(0, 0, 0)" stroke="rgb(66, 66, 66)" stroke-width="1px" opacity="0.25"></line><line x1="233.10602678571428" y1="0" x2="233.10602678571428" y2="377" fill="rgb(0, 0, 0)" stroke="rgb(66, 66, 66)" stroke-width="1px" opacity="0.25"></line><line x1="310.8080357142857" y1="0" x2="310.8080357142857" y2="377" fill="rgb(0, 0, 0)" stroke="rgb(66, 66, 66)" stroke-width="1px" opacity="0.25"></line><line x1="388.51004464285717" y1="0" x2="388.51004464285717" y2="377" fill="rgb(0, 0, 0)" stroke="rgb(66, 66, 66)" stroke-width="1px" opacity="0.25"></line><line x1="466.21205357142856" y1="0" x2="466.21205357142856" y2="377" fill="rgb(0, 0, 0)" stroke="rgb(66, 66, 66)" stroke-width="1px" opacity="0.25"></line><line x1="543.9140625" y1="0" x2="543.9140625" y2="377" fill="rgb(0, 0, 0)" stroke="rgb(66, 66, 66)" stroke-width="1px" opacity="0.25"></line><line x1="621.6160714285714" y1="0" x2="621.6160714285714" y2="377" fill="rgb(0, 0, 0)" stroke="rgb(66, 66, 66)" stroke-width="1px" opacity="0.25"></line><line x1="699.3180803571429" y1="0" x2="699.3180803571429" y2="377" fill="rgb(0, 0, 0)" stroke="rgb(66, 66, 66)" stroke-width="1px" opacity="0.25"></line><line x1="777.0200892857143" y1="0" x2="777.0200892857143" y2="377" fill="rgb(0, 0, 0)" stroke="rgb(66, 66, 66)" stroke-width="1px" opacity="0.25"></line><line x1="854.7220982142857" y1="0" x2="854.7220982142857" y2="377" fill="rgb(0, 0, 0)" stroke="rgb(66, 66, 66)" stroke-width="1px" opacity="0.25"></line><line x1="932.4241071428571" y1="0" x2="932.4241071428571" y2="377" fill="rgb(0, 0, 0)" stroke="rgb(66, 66, 66)" stroke-width="1px" opacity="0.25"></line><line x1="1010.1261160714286" y1="0" x2="1010.1261160714286" y2="377" fill="rgb(0, 0, 0)" stroke="rgb(66, 66, 66)" stroke-width="1px" opacity="0.25"></line><line x1="1087.828125" y1="0" x2="1087.828125" y2="377" fill="rgb(0, 0, 0)" stroke="rgb(66, 66, 66)" stroke-width="1px" opacity="0.25"></line></g><g><line x1="0" y1="377" x2="1087.828125" y2="377" fill="rgb(0, 0, 0)" stroke="rgb(66, 66, 66)" stroke-width="1px" opacity="0.25"></line><line x1="0" y1="350.07142857142856" x2="1087.828125" y2="350.07142857142856" fill="rgb(0, 0, 0)" stroke="rgb(66, 66, 66)" stroke-width="1px" opacity="0.25"></line><line x1="0" y1="323.14285714285717" x2="1087.828125" y2="323.14285714285717" fill="rgb(0, 0, 0)" stroke="rgb(66, 66, 66)" stroke-width="1px" opacity="0.25"></line><line x1="0" y1="296.2142857142857" x2="1087.828125" y2="296.2142857142857" fill="rgb(0, 0, 0)" stroke="rgb(66, 66, 66)" stroke-width="1px" opacity="0.25"></line><line x1="0" y1="269.2857142857143" x2="1087.828125" y2="269.2857142857143" fill="rgb(0, 0, 0)" stroke="rgb(66, 66, 66)" stroke-width="1px" opacity="0.25"></line><line x1="0" y1="242.35714285714283" x2="1087.828125" y2="242.35714285714283" fill="rgb(0, 0, 0)" stroke="rgb(66, 66, 66)" stroke-width="1px" opacity="0.25"></line><line x1="0" y1="215.42857142857142" x2="1087.828125" y2="215.42857142857142" fill="rgb(0, 0, 0)" stroke="rgb(66, 66, 66)" stroke-width="1px" opacity="0.25"></line><line x1="0" y1="188.5" x2="1087.828125" y2="188.5" fill="rgb(0, 0, 0)" stroke="rgb(66, 66, 66)" stroke-width="1px" opacity="0.25"></line><line x1="0" y1="161.57142857142858" x2="1087.828125" y2="161.57142857142858" fill="rgb(0, 0, 0)" stroke="rgb(66, 66, 66)" stroke-width="1px" opacity="0.25"></line><line x1="0" y1="134.64285714285714" x2="1087.828125" y2="134.64285714285714" fill="rgb(0, 0, 0)" stroke="rgb(66, 66, 66)" stroke-width="1px" opacity="0.25"></line><line x1="0" y1="107.71428571428571" x2="1087.828125" y2="107.71428571428571" fill="rgb(0, 0, 0)" stroke="rgb(66, 66, 66)" stroke-width="1px" opacity="0.25"></line><line x1="0" y1="80.78571428571429" x2="1087.828125" y2="80.78571428571429" fill="rgb(0, 0, 0)" stroke="rgb(66, 66, 66)" stroke-width="1px" opacity="0.25"></line><line x1="0" y1="53.857142857142875" x2="1087.828125" y2="53.857142857142875" fill="rgb(0, 0, 0)" stroke="rgb(66, 66, 66)" stroke-width="1px" opacity="0.25"></line><line x1="0" y1="26.928571428571416" x2="1087.828125" y2="26.928571428571416" fill="rgb(0, 0, 0)" stroke="rgb(66, 66, 66)" stroke-width="1px" opacity="0.25"></line><line x1="0" y1="0" x2="1087.828125" y2="0" fill="rgb(0, 0, 0)" stroke="rgb(66, 66, 66)" stroke-width="1px" opacity="0.25"></line></g></g></g><g><g><line x1="0" y1="26.928571428571416" x2="1087.828125" y2="26.928571428571416" fill="rgb(0, 0, 0)" stroke="rgb(153, 153, 153)" stroke-width="1.5px"></line></g></g><g><g><line x1="77.70200892857143" y1="0" x2="77.70200892857143" y2="377" fill="rgb(0, 0, 0)" stroke="rgb(153, 153, 153)" stroke-width="1.5px"></line></g></g><g><g><g><g><g><path stroke="rgb(255, 112, 67)" stroke-width="2px" d="M78.28741586383929,253.53622273036413L78.67592590848214,461.3425847764999L78.94244379910714,428.707811437111L80.52725397321429,373.48615089756913L81.34079400669643,413.3870727964185L82.340974265625,358.4990529251009L82.5517798158482,338.95913207095026L84.03293551004465,358.1942615709382L84.11949554799108,373.8910940379302L85.75830861830357,342.89885838182994L86.10983250669642,321.45660102205477L86.30385442299107,287.5178613692804L87.49961063839285,314.78014161572105L87.75983466629465,373.32899282101647L87.95059309821428,333.65072686663177L87.96108286941966,331.6226878426111L88.84517632700893,309.7555004256082L90.30543018080357,312.6447877199127L90.78780425223214,320.7969189323435L92.14999817075892,298.4537148448185L92.55622427343751,234.66643141513632L94.29659386941965,223.8285537806577L96.37520031026786,208.540830433925L97.52425761830358,269.16529155337514L97.61345952455358,284.4701535997385L97.68028325223214,263.30545392708535L98.21378524553572,259.1328015416353L100.72511417410715,242.2365201872084L100.79333653794643,247.85676544453463L100.94524396540179,317.741130320394L101.45341510379464,349.2409271279337L102.71148833035714,383.38552428840666L103.51679195089285,392.35482540702486L105.12102762723215,360.37281234828856L106.16868381361607,384.9610781160169L108.08504845982144,383.21147684215157L108.50339607589287,366.48531817406655L109.22835581919644,328.0501908979174L109.3555540078125,313.3988709130332L109.60319031026786,358.4887095908475L109.94344740736607,320.3955583184482L112.42268540625,285.8325751641598L113.67228911383928,310.46513823812313L114.40618458816965,364.6390365694322L114.50478843750001,420.1659042588266L126.05542517075892,414.9281998771622L126.89678252343751,354.7370639361478L127.0514872232143,306.7735282625364L127.13641551897322,282.68057110035704L127.70581584040178,281.24547584335625L128.05625190066965,286.70722946075267L129.103441875,254.80186850165762L129.4442428861607,255.6026046254475L130.36027186941965,290.2758323232985L131.54981192410713,363.6871884346192L132.88962766406252,339.6651632631302L133.19484115513393,347.33702254045073L133.87286888504465,328.77356346596184L134.39176290066965,297.30117281243116L134.76232378125002,329.7378485592595L135.574931390625,353.33466526157673L136.06313311272322,343.97235823183496L137.25873392410713,332.64352913891526L137.85090093415178,282.5985817201393L138.42480797209822,326.12779128469714L140.14054603124998,391.5240826439631L140.35857786830357,359.6414042073938L141.28657296093752,394.88510791953286L144.02704511383928,418.84330777217946L144.5377804185268,362.9506561590411L144.9332836439732,318.4414215067273L147.64617158370535,310.653528886727L149.90527979129462,323.08756641371826L151.1072521674107,315.91013900781223L152.9622322265625,277.3301223160799L152.98849550558037,269.49886739252844L153.2053618125,240.1694840161801L153.358745578125,220.66695630992703L154.1384852377232,243.79944548315652L156.50287966741072,264.3041701219325L158.50588205357144,253.9893032588734L158.5297365703125,265.41163657924983L159.50031236383927,253.54491137731364L159.65843595200892,324.4786708234925L160.38160854910714,316.38358919860076L162.13953879910716,286.755998323429L162.18950119084823,263.4331608078307L162.5316231361607,254.57071542491826L162.63978433258927,232.79152407574378L163.76149053348215,217.87265993710616L166.09604739174108,200.4246982908128L167.11316668861605,219.35508134760772L168.211950796875,250.37278545747213L168.22453852232144,239.4840667170001L169.78743672991072,260.0475765179781L170.47447789285715,238.82670802705064L171.05211462723216,222.12939007531998L171.864877640625,200.77947487889824L172.24623910044645,255.8038618706962L172.44430152120535,282.8321325830638L173.3125437689732,281.19316985677096L174.4136589375,312.96843863178964L175.78067038058037,302.3093921848054L177.61661344754467,305.2065509155557L178.61671600446428,411.4505673366867L182.72000369196428,381.4393334104202L183.35296425669642,328.80679486915255L184.0501843828125,284.82976074218834L184.57692630133928,292.72916991643797L186.05000098660716,252.68110698505404L186.68257304129463,244.52954985789142L187.87957248883927,243.94762306513266L190.96504156138394,299.3810506681523L191.05167930133928,278.3113358467935L192.0172044642857,275.23839790651596L192.46500114174108,285.7573787702931L192.87316979464285,362.22219466184873L194.4704899921875,393.0525724877773L194.84765554352677,341.0267301312886L196.800073921875,314.89520963467095L197.08329774441964,302.2598296972199L197.14196276116073,270.2429262683999L197.59644181138393,249.54431671645935L197.6143909754464,315.77077294670966L199.19671468526786,257.4456442028078L199.68320696316965,220.05715722422866L199.96106934709823,263.60195046614297L201.26459824888394,241.7121315611594L203.3189616629464,209.43924157213374L203.84904476785712,188.58156216909566L208.3642308046875,172.9249271964918L209.32866813950895,162.06286637114596L211.1547430513393,162.7785074766361L212.13876129241072,147.47829425779045L212.46246786160714,118.09348910210166L212.72245878348212,138.5715288708363L212.99169624441964,150.62025671832083L213.4031283816964,149.4700570894721L214.15466221205358,183.45289573163197L214.19125985825895,174.78393927714123L214.41511934598213,179.4441033164731L215.85416055133928,176.34445532299793L215.94794687611608,205.7513169799124L216.93818127790178,206.48747651778086L218.78818840848214,188.21810530482807L219.12145232477678,156.62291510922688L219.46155401785714,141.30299862698243L220.38076878348215,147.9765073155547L221.13789715848216,159.98565558781272L222.05882136830357,163.0539839396367L223.10336947433035,164.42214917122104L224.32624369084823,149.86495641509853L225.02369692299106,153.33189397707574L225.08539231808035,148.66623792714722L225.1698544017857,138.5602990612165L228.0680616328125,130.07339755550376L228.26317137723217,132.38318752219274L229.82342771651784,127.49012580802322L231.9222366796875,134.05454478153953L232.6140953671875,149.03090665048143L233.49616857254466,140.21660501518755L235.27049394642856,131.28517973685533L237.30007041964288,118.05922166830007L237.61421964174107,135.45981124500992L238.46948565401786,132.7951557468504L240.0401540625,149.83560957247772L241.70686215401787,152.365137338801L241.7692568671875,135.24353812264792L242.01059930691966,148.8783230700853L244.70266310825892,131.4969025189688L247.3174134107143,115.39768122769624L247.61780937723213,110.77245978282811L248.55730436718753,106.47303886001275L248.72630623660714,112.83209773415021L249.42251623660715,103.48758323487307L249.54272124441962,98.4753759707458L249.9167787154018,103.42442138805991L250.70187981361607,108.45286537999776L250.72386948214285,105.8833138029508L251.2681720546875,108.70607236300339L251.88178481919644,97.23634439584299L252.90869456919643,86.53819425008047L255.6817238638393,105.29091301839625L258.0213313526786,102.40065872211403L258.0932057109375,100.4695561951388L258.67907885825895,108.98559823696867L259.2191078203125,83.67134201918938L259.61196917745536,74.92249653142328L260.1216943560268,73.58269064915913L260.86794444977676,77.01153540049182L261.41069298214285,76.04018995312207L261.4502433046875,75.7799512483182L261.819560953125,96.63743779276119L262.32314767299107,104.19736386878165L262.8481024453125,96.68553673403615L263.4457862979911,99.23263953781137L263.54687661160716,86.08203316007861L263.6757065424107,75.15794465717666L263.67889232477677,85.3981631919758L267.88490206808035,88.06969787137979L267.97977622098216,110.1625503383374L268.35196884375,115.4738363535753L270.19925640401783,106.34554331621511L273.3729172566964,104.21419380034362L273.7115426116071,105.65687968444537L276.80532579910715,106.7677069661526L277.35421279017856,91.76643331039588L278.5915395803571,94.57555004451442L278.98020502901784,84.22867916931013L279.70889446875003,85.90664586494657L282.6926516116071,82.51273532480519L283.02474999776786,89.001201895752L283.0337634308036,78.84167041269362L285.6043789921875,76.35928358828673L285.64253067857146,57.86589052548813L290.51436893638396,55.35287662675905L292.09032108147323,62.75109124673722L293.1675817332589,70.25499367765381L294.5128366138393,88.35711385904334L294.64189965066964,81.23042082666221L295.77906855133926,81.4307949397133L296.8111843359375,77.70221686388383L301.20103703236606,80.01175196531534L304.29987085044644,77.1332311907744L304.7426168973214,73.15591589218486L305.1841197120536,80.72522471092176L305.30766590625,84.22994531471866L306.57871536830356,90.53099789954979L306.9246447120536,79.36303093650714L308.5304344285714,72.53907002503693L308.77744911495535,75.15685064277783L308.83502630357145,70.81628363418818L309.41981162276784,59.772575470371144L311.2730045357143,77.44804074967946L312.00153857142857,81.3730158876638L312.4435075982143,79.76153907320418L314.2939809408482,70.44746143036295L315.04636949330353,73.31212196678486L316.99513587723214,72.56091445402188L318.07907890178575,65.10497005866958L319.0646511830357,75.56625603563327L319.2276699977678,83.2572938493174L320.21541793526785,75.73873390230648L320.3210926674107,69.28997348440463L324.10238322991074,68.85599784152782L324.11792363169644,53.98389694370491L324.68817867522324,74.5397056295118L325.26534919754465,70.26987677444151L326.101500515625,64.40548833484185L327.4019213370536,59.312817978629795L328.0219833683036,52.22882724517982L328.4891278459821,67.63818433511916L330.4403806941964,62.53437350352676L330.5706092611607,57.836126535558186L330.6689800044643,70.89365830035028L331.3532238950893,76.87573811221931L331.7095653080357,72.72691136446646L332.7533363939732,80.49150598268211L333.3938340535714,78.10641920230897L333.52305249441963,84.96980271070889L333.59376132254465,74.57419523007283L333.8221275267857,68.29506402736197L336.91847488058033,59.635039315963986L338.52869361160714,65.84281703340622L338.54881843191964,60.707069544199896L338.6074834486607,63.75059921428436L339.05636795424107,69.77310996077641L339.2311197723214,73.55130290389663L339.50781662611604,84.58236939771314L340.4659600982143,87.29787177522225L340.76791010491075,89.41293294628993L341.90002837500003,83.80279593899566L343.3913630323661,89.67761869503543L343.91725022879467,90.87139475335894L344.53645753794643,89.88714812475334L344.6383248716518,90.05922833163991L345.6172924821429,76.10585423813681L347.9518493404018,66.85922880568104L348.650001890625,65.69322487534338L348.8325239095982,70.11440189764471L350.93568418526786,70.39385557469757L351.50834799107145,61.46456576981484L351.5887695703125,64.9810767658419L352.3920529386161,68.2043592329828L355.58513929352677,85.50516779731629L358.31185819084817,85.0210186295015L358.6654023314732,76.73783050254545L358.80005991294644,70.48585085264723L358.99851084374995,76.52715602868304L359.17380657589285,64.79210181772655L359.33900104687496,63.84768428141683L361.273159453125,53.991117324736784L361.4751069743304,53.72655119857896L361.7211892366072,55.093371861357866L363.54128109375,59.67046077390576L366.72481010156247,68.09393959088607L366.8966092433036,59.92349635124701L367.3239702924107,63.808998733388215L367.37875020870536,59.03100752545405L368.0419368549107,56.891864389454774L369.80041101897325,52.7004586170887L370.10344885379465,54.52335001145575L370.4568375904018,65.57286470141118L371.41156217410713,65.58247192648787L372.1718763314732,65.4748444899311L373.18223555357145,67.26137080545352L374.2971039776786,66.44855720802248L374.699134171875,63.2729367421113L375.3915367734375,62.713580856916955L377.1242138705357,63.42607617677778L377.4236774129464,63.9598736565575L377.65375306138395,74.85818544579523L378.1375257689732,77.00599621122319L380.9044943069197,68.88135142277729L381.15624881584824,66.36941708389617L381.63364995870535,68.8489685533681L382.56856053013394,70.91308334098169L383.4933698404018,72.48229199691201L384.4119629899553,65.41507816391909L384.7283655703125,70.00497119488497L385.90042267299106,71.21542341656371L386.0148000301339,66.59554439928215L386.9309844174107,70.5083536943056L387.0570170758929,75.58654239270578L387.67544736495535,67.89616397259283L390.20581328571427,69.38254951257201L390.6550863013393,68.20900821768764L390.87280733035715,52.97490663424524L391.28066517522325,49.94855766485732L393.8381490970982,50.77829961996327L394.76629959375,62.79618966482633L394.92131510156247,57.69550612278539L397.09759296763394,56.17383739886317L397.5617847689732,65.58324952552823L397.78517804464286,64.27530655453407L398.01261182477674,61.496096438826406L398.4478207767857,56.31362365800754L399.5692938716518,56.69146215385516L401.0687872399553,54.85252738426326L402.03174823660714,64.65650092875549L403.9694809352679,63.98067127433177L404.51860103236606,73.52726114859729L404.6530255078125,76.2511350410255L405.0111540669643,71.31772615091579L405.14946364285714,66.70526886387783L405.7014587142857,60.5917961936097L406.0739621450893,56.02574609247055L406.9701771160714,60.23094784724195L407.7775009888393,67.17401525582855L408.0036138348214,73.21333452456551L408.9618350089286,68.38970569826708L412.15204638950894,59.03019855181694L412.4747428325893,58.28046642635239L413.38408944308037,46.41796397283849L413.8231834955357,41.18771841120865L414.31558112611606,44.3428486965327L415.58530965401786,55.159433041023085L415.89192178125,50.80482501833758L416.3763161049107,64.35720815129943L417.0212427790179,56.449082140780696L417.4032258549107,66.56313167669664L420.24494372544643,79.64692612671632L420.2872913203125,72.12999759859859L422.0383060915179,70.91694556330403L423.4313477075893,76.49396125541793L426.0171928627232,74.51791854411837L426.57462707477674,72.78389155521089L426.63166034933033,65.99353025834179L427.00587322433034,72.79765333602873L427.2177666026786,65.30832589733072L427.9147536227678,64.32318029911433L428.15897103683034,64.14564578735015L428.3140642466518,57.14621325109375L428.7729723113839,56.00708616678804L430.70169157700894,52.556361257557924L433.70106682366077,61.94249213725885L434.10115446763393,56.13970565752919L434.3780067254464,55.81171987533246L434.6816661763393,47.77857653930949L435.59909379575896,46.61914975835729L437.4930802633928,45.637679656070674L437.7700102232143,51.04214245796833L438.7335151339286,42.926069290063964L438.7401198046875,54.34128594788543L438.8091191886161,52.84927578284453L439.48636989843754,54.74199499924834L440.59680930803574,42.35574789464928L441.0240926551339,43.35142317595166L441.30483001339286,44.8288110687898L442.02963435267856,41.99037643344024L443.06143932924107,36.823764837067124L445.6904090993304,40.92909376950103L445.98295716294643,43.54438578732497L447.6089494017857,52.187263744824044L448.73228734486605,51.99564305847833L448.95847789285716,66.0593702422342L449.3844403058036,59.94012896262272L449.50285816741075,70.52477703582518L451.0420572622768,67.27527614847696L451.9115427421875,68.0322564214878L452.7360387589286,71.99039354429803L453.04824543080355,60.75201481486289L453.2667434799107,56.24585992277745L453.78594830357144,52.84472522496339L454.06684106584817,59.48997070052977L454.268322375,66.05573172865739L454.39140235714285,62.59814150502452L456.1371333917411,63.50567883320217L456.43512059598214,54.2445127858695L457.4294732042411,43.88205078423403L457.4970739520089,52.943085447110114L459.61981513392857,52.67093946009612L459.88516749441965,47.30540128155905L460.16978995312496,56.802822333552136L460.32752503125,58.6702043900994L460.4614055926339,62.24817004692838L462.27916638950893,54.13039586224275L462.61351813392855,57.523797139606955L463.8513111361607,58.78736468560067L463.91673622767854,51.3217430880762L464.30050644977683,62.75822496752142L464.59056804910716,62.426329397452925L467.56531175892854,61.701299968566346L468.067422140625,63.46964618392682L468.46471251227683,60.835929002415924L468.62128206026784,75.60612067521895L470.0294755680804,64.22245002768037L470.59429147098217,59.65966403327802L471.60162031473214,65.97587954532187L472.65471564174106,71.73718384301951L474.0878514944196,76.76113220597905L475.23411153013393,73.06158276094622L476.8141818816964,67.1557154951838L477.64116436272326,62.47255088929255L479.1408908370536,58.523053228068854L479.69949057924106,60.73492023371058L480.19111118973217,60.62307133862722L481.0395394252232,65.56135003580982L481.982919515625,62.47883399378721L483.6382831138393,63.37618034494522L485.5996372232143,52.91216451058866L485.6516198671875,41.70566386087796L486.049298748884,44.631389559142335L488.1669115982143,42.808868820988295L489.74550561160714,56.67960411805904L490.9153093560268,58.818549616555906L492.0752449453125,53.55788879652179L493.1552251674107,69.60520752431721L493.5581100837054,66.41526886410077L494.6020365736607,56.71675408196554L495.1659977544643,68.06351931002565L495.74246895870533,66.88301808351311L496.2506400970982,62.47789224953678L497.5778681116072,63.37941458032082L497.72892081696426,64.63774660024063L498.26646331473216,62.54890644726422L499.35118335937506,60.97156965021958L501.102586640625,54.1624581528606L502.66564025223215,46.795517653826444L504.2256634854911,44.44605203914927L504.3555035424107,54.88034822842961L504.666311578125,53.26676150771594L505.2021446316964,59.581242343684984L505.3166773928571,61.56441543230632L507.82303339285716,58.24702515500446L508.37331902008924,71.4135947171661L508.5770536875,61.25012765782717L511.07975769308035,81.48482037408407L511.5578581540178,82.7511465274298L512.1204206986607,72.64268065831232L512.2466087611607,63.64126280952147L513.0867228816963,56.552772438878726L513.5021178214286,55.232081162871L513.65721103125,52.17412206679157L514.0907105390626,44.7664654079471L514.9582534687501,48.46027814960212L515.42819521875,54.16453492676655L516.0845440881697,54.88703846278423L517.5568417533482,57.83847386484877L520.4172858080357,54.01586523472553L521.5175462544643,53.78630961887612L521.7703885915179,67.11806262378241L522.4045146863839,63.884734933615185L523.4032963091518,61.84209482814965L524.0478344732143,57.158851560663756L524.4913575401786,57.63740824369941L525.1439767131696,53.277595647696685L525.1972802912946,59.39753648549807L525.3832211986607,55.74642728836587L526.3537969921875,57.30028635376834L527.9708535,54.957649272735935L529.2150180669643,48.89415793195559L529.7727630870536,50.436647981151346L530.0984122064732,48.39483921763002L531.7311645200894,51.07484182205298L532.2033596283482,50.96834573252483L532.2477274754464,53.445902728153854L532.2601597968751,53.71465900589119L533.3723086506697,54.59056359057611L533.3834977399554,63.893502470056056L533.4752638125,63.95569086113421L533.5451956205357,70.83612404581697L534.153990860491,66.07354986436883L535.884803109375,60.13140302286152L536.6782183225446,59.55561606906622L537.2988242678572,51.571546441327264L538.659930358259,49.647295448277696L540.9536159598214,49.54984723830906L542.0088869430804,54.65729272494184L542.0335961819196,57.23558055435613L542.1584633102678,59.17210127231621L542.2960735680804,45.622916962668974L543.4633131462053,49.543884667528204L545.5181427723214,47.192864472174406L547.9880565301339,48.874961102749786L548.988780703125,48.67827501986381L549.9965757589285,48.24766365875257L550.1991448962054,56.88773108814574L550.5383141651786,53.72029097427746L551.0357624263393,51.710552144446524L552.0028416294643,49.972142257155696L553.9633410167411,60.87825357857566L554.2971488470982,57.34837191400362L554.5089645234375,54.196745416586786L555.0215646763393,53.528007529174275L555.376507453125,52.85815459619992L555.7577135089285,42.344939161388325L556.4487951763392,41.44231925673006L557.8031411919643,48.27410383209392L557.8166613415179,50.116057245269964L560.7011930189732,44.702360143360494L561.177972545759,51.94157254590066L561.2503131160714,53.54762189473913L561.2811608136161,48.86272064924631L561.5557597131696,53.92643064608207L563.4365368392857,64.18467658184848L564.5254527924108,64.05432512812406L564.5649254129464,71.58945789242715L564.65459353125,64.58138981334879L566.1500463950892,59.65038629796687L569.6510658113839,61.785233002601444L570.0292414888394,60.49698655172627L571.4035569207589,62.594797768537305L571.9146030334821,62.34747049620134L573.3793636037947,55.17429534065321L575.8163317098214,46.01647654802817L576.2673918716519,43.33495450244751L576.2974625491072,44.765064291539446L577.77815203125,45.84094283486308L578.0377544430803,42.99597244259493L578.36122790625,47.216849108057254L578.7916193337054,48.26527837959011L579.1313325167412,45.27316250015391L580.3632978683036,45.002891531176395L580.7539835691964,62.44604242462309L582.1614000569197,60.84727701440167L582.6560510457589,63.47137386885482L585.3338176774553,76.08879442556744L585.3647430770089,76.64610931056832L585.6868956060267,69.240650074762L587.0609002299107,72.07890774517665L587.1107072176338,65.64453275072107L587.7860153772322,65.62699984990151L589.0961489497768,56.39262225897895L590.4219783281251,53.26879182963428L590.5288185904018,45.62368708061266L592.4885409575893,46.76192417366118L595.4252106830357,54.940723072187886L595.6673301428572,56.299360661833376L596.3406957522321,50.542994848558436L596.6002204620536,53.319018370955774L599.0330703616072,50.11930593003515L599.0462797031249,47.3144517341373L599.9404744218749,49.05256135229633L601.0617144107143,39.93807009884353L604.0748429129465,44.799972525324684L604.7564449352678,38.694048346945635L607.4892245892856,34.57527101699315L607.6593142868304,41.05894128100829L609.972347688616,43.34448382407972L610.3418207410715,44.868842232572305L610.497768672991,49.28412161990925L610.8837922533482,53.198470715198575L611.9382862165178,49.415024245023254L613.4059994631697,50.24356994511702L617.0310312857143,52.08366155837165L618.2536723962053,53.2126316751745L618.7315397511161,48.44872362945701L619.4689318158482,49.20414403193286L619.5701775334821,45.195873923647L620.9450368794643,50.22925359610524L621.0634547410715,50.363821679894905L621.5388356316964,47.297967447049615L622.373666015625,42.92919155951208L624.2590275602679,42.48345912861943L624.6528990435268,40.82383858712157L625.2883460725446,42.71643553445622L625.4653512488838,36.66457692797885L627.8346409051339,30.80523781732301L628.2987550044643,27.816960461978763L630.9943153962054,33.29798304311578L631.7927035379464,45.35330776930424L632.0507519095983,37.89296657406039L632.0957413727679,44.791481879142594L632.7938162209821,50.82067747712291L632.9407507198661,44.08155134431078L633.4237464073661,44.80860520519627L634.5947933839285,46.03251783288625L636.7772874107143,42.55513604670452L639.3705142566964,45.579398227110175L639.972549421875,44.93122910052507L639.9952384084821,51.85776417497203L641.8256646328125,53.948553299113485L642.5405231149554,59.803899183322216L642.8165983526786,53.31890025393106L643.3484686037947,49.99193356189449L643.6163074285714,50.915390189231324L644.2836122812499,52.17004743816581L645.3875247220982,48.731798770274274L645.5607225,50.33276788855949L646.4842108761161,54.37839211708879L646.9299095993305,49.72131795435408L647.493793078125,53.322003729848426L647.6524605803572,49.09838797083455L648.1680134095982,50.73466639463866L650.9300867209821,54.87072289354842L653.1035673147322,54.913738292819744L654.9870640111607,47.63164714110072L655.2125552410714,49.18413477049018L655.531832795759,48.92106872267972L656.4445982946429,48.87071049641673L656.6731199029018,52.701270590529816L657.8621937455357,61.34334514619528L657.9115345212053,59.39979789350299L658.0145673850446,61.26757581615117L659.2405496819197,66.95931852781845L661.1100600167412,71.33248796516206L661.5249887444196,76.08495523154716L662.745065688616,65.74512132320642L662.7902882578124,58.091509391236166L666.2805070948662,51.75155479190748L666.8495966082589,49.8296863653501L667.1283914162947,43.75848014130683L667.5180669910714,46.25082943192148L667.9281781941964,47.35372987583381L668.5587299966518,46.73460837161624L670.0610206372768,44.92882392002579L670.3330553705358,53.44716986741801L670.4248991450893,49.12287699852192L671.8494100747768,53.238297989500836L672.1468533649553,54.94916712485413L673.7826360569197,51.955567711533426L675.4830668203125,48.891463773033614L676.6433909196428,58.950735932994036L678.0539931897322,80.81922800028403L681.5027191540178,72.36546506105553L682.7479715491071,76.63640546382138L682.8888452912946,73.48678891325532L682.9847295703124,68.11454486392994L683.4296512734375,63.67163703759671L684.1849925022321,59.51619806850651L685.0383159642856,54.712848859319095L685.2287635881696,54.63079406545542L685.6406619375,52.468499102855695L685.6968404899553,55.730108852120246L686.846053202009,45.008305252679584L686.9146640758929,42.19476316679024L687.7723388504464,41.718951575426274L688.5389468705357,41.411849885727804L689.2185286406251,39.349068075909045L690.1697566339285,45.86016622310104L690.417159830357,41.519269086989965L692.0134699017857,38.57736628879445L692.0797497154017,35.745670793346406L692.4614219832589,31.46836334639991L692.6096774162946,32.53070883421036L694.1361333816965,34.66671636930598L695.778132234375,38.66358654342426L697.3288312265626,40.00238512356662L697.536062484375,37.28629857892457L698.5496851908482,38.1367385545375L702.0817854107142,40.977467353718744L703.1157660435268,39.36854269621385L704.4453251183036,39.11086433103913L704.5919488091517,38.493783639497565L704.7079579084822,44.40153191729832L705.4164448258929,52.2393267934789L709.4918374921875,48.55143616990692L709.62944775,45.935736195984504L710.5798987232142,47.07351523605993L710.5809865513393,49.817819421377756L711.1306505624999,49.44799825511755L712.5325502075892,50.24284372895863L715.1696009866072,51.98556885627262L716.0209818984374,53.40189440142708L716.52845371875,52.19276587468238L716.8905450803571,46.51246018550275L719.7735227176339,38.61003937424972L720.8984147008928,40.35377325978991L721.2504048013392,44.452047242516365L725.684625344866,42.76808079385286L725.9354474296875,46.28593467261074L726.4194532433036,45.103984638026525L726.6944406529018,34.92330206039953L727.8656430334821,33.90494271230001L728.5254107912946,36.38066087084619L729.9226483158482,37.00268599524187L730.0186879988839,40.40278382578191L731.682987328125,40.33550047346625L732.9791345390626,45.6863753889637L734.3874057488839,43.969856154776274L735.2400298928571,41.53669170295868L736.2412202779018,45.69091140632371L736.5423155625,34.85247167386532L736.802306484375,37.47259498983957L739.1832514419643,41.13433757731158L741.42666384375,40.108327906798024L743.676370108259,31.14428392538513L743.8520543504463,46.07417226566994L744.2435170714285,42.40057494507992L744.7087967008928,40.145021105371626L747.36402975,42.27311340819528L748.6130895435268,45.737263589195L749.0082042589286,46.06465432997442L750.234885873884,44.33339548785488L752.9731823705357,46.20720824031941L753.3412567868303,42.11751265316765L753.9722748013393,45.60452073747424L755.7263976529017,42.98504208678746L755.7448130290179,48.73770888372059L756.0476954598215,44.22228529950447L756.3681385446429,65.33341141008567L759.1694513705357,60.50194266749862L759.2114104553572,66.15185532137788L760.2740631294643,61.86344195139439L762.0768274386161,56.70570791519733L762.2150593125,52.24319796142051L763.4940343794642,49.855546117980715L764.8605796104911,53.96002236185935L765.4013855926339,57.40816776213108L767.2871356473215,51.92648287456593L768.0585611919644,52.18895658525913L769.9493618772321,53.59282874120039L771.3789234374999,48.14299320640018L771.8612198069196,45.014908864861944L772.3006246674107,46.60911590864132L772.6971380189732,51.76656241027412L773.0967594508928,46.431256472247284L773.3172777522321,46.55406781625093L773.5222556517858,40.38715843787009L773.691568329241,49.27723116989532L774.5448140892858,52.49972245206059L774.8932298973215,61.860671575600044L775.5827575245536,56.59360015691903L776.0221623850447,62.66354409866234L776.2569778560268,60.29613369997216L776.8991849598215,59.53860824513562L778.1900484341518,59.61538699065717L779.7140179352679,56.15147248258535L779.7468081830357,56.09731544875237L780.2720737633929,49.98433020744231L780.7964846216518,53.35552092136039L781.2880275301338,47.77762867898829L781.3428074464285,43.543682526286254L781.8408773236607,45.97970183748868L781.8445293180804,56.864598185007985L782.4782669029019,55.11507264901303L783.0652278783482,51.559717739512514L783.7678871450893,46.44288934861392L785.6466440189732,39.828538598234786L786.3511681339286,41.406026155188776L787.348318014509,35.41795901094681L787.8843841741071,42.20262861926631L787.9937886026786,40.19389436571928L788.6141614419643,41.44996342290462L789.123653514509,38.986093354768L790.5867046406249,40.3882210720522L793.3393760089286,40.5220325025218L793.7032545167411,40.470050071404984L794.1998480558036,50.1249031036339L794.2154661595982,47.08086756257435L795.0418270245536,42.45887126241274L796.2429446785713,38.4755274689612L796.37068678125,45.28144674931165L797.2707091506696,44.090058492949325L798.1091915290178,42.173544221414275L798.1098131450892,41.30392551016829L798.4782760714286,38.517068545364666L798.8285567276786,43.63957999404306L800.1204303281249,52.272908271826196L801.7778141785714,52.82948877758507L801.7894694799107,41.106022448116285L803.9979936796874,42.08093655511501L804.0866516718751,50.73546338403034L804.3196799966518,47.696447760737136L805.590185544643,41.962894821437565L805.6009084218749,41.783889228662616L808.3155058058036,40.71798432675718L809.4086176674107,37.395172326299715L809.8051310189732,40.47337300575709L811.0482854598214,40.84270089550085L811.2419965680804,37.755771929488674L813.1187331897322,39.383935894144486L816.021291733259,43.887064015752976L816.1648850457589,37.845658199271504L817.0207726741072,36.06702344913185L817.836954575893,29.24364256301646L818.3880949252233,37.694319179028405L820.2120718828126,41.0133148968323L820.6027575837054,43.07387424912595L822.1649564732143,48.25423840891272L824.1155100033482,47.27731010173234L825.5993852678571,46.90465080792717L827.8807162500001,45.30087733057006L828.7146919118303,45.96450387921566L829.2288461049108,42.793926294857755L829.4078715334821,42.36360856930432L830.8621423325892,46.66998704533363L831.20294334375,60.01587947189701L831.2937769921874,58.46556275953485L833.679927984375,52.96917803439348L834.5582714933036,50.77264728344045L835.85449640625,45.83277901953993L836.0478967064732,58.78027652629871L836.6646175513393,54.928652569652265L841.0745173660714,53.434689350639616L841.1862528549107,53.27132899267375L843.11683696875,57.878773320198405L844.9467192790179,51.719126548403764L845.0885254453125,50.91493165944193L846.6771430178571,51.43826142910459L849.812341376116,46.312628240875846L851.785739296875,44.36742111733377L851.8024452287947,42.43597641086097L851.8763398392857,41.81473771486241L852.2594884453125,40.636517565619236L852.3224270725447,42.83719862820981L852.7329267857143,39.28821257839561L853.8100320334821,37.36374252453278L854.1274447399554,36.092610161039154L855.1873001417412,50.627871743126185L855.3510182745536,51.240533161048006L857.5541810357142,60.58859564635727L859.1504911071429,56.48239462763355L859.6533785089287,57.714076361011315L860.2151640334821,54.79822034882997L860.675548436384,54.374423572543115L862.7193443772321,47.73838884810435L862.747705610491,43.6235220399652L862.7577291696429,45.50481153039791L862.9334134118304,46.813518917345604L863.7556560703125,50.260098305257735L863.7670005636161,45.9745740703118L863.9924140915178,49.142179472441924L865.2347138102679,47.05444435418995L866.6861873370535,49.51947816836204L867.2338310959822,50.46596760794272L867.5393553950894,48.89206250021941L868.0338509799108,45.647210963363456L869.4725813772321,49.61112713752071L871.4064289754464,44.48622955034481L873.6207031238839,39.56844333643251L874.6392987589286,37.41193014791094L875.9046759743303,34.238282698674894L876.9202412310267,37.39806004938475L877.7138118482143,40.62909782448148L878.7613903325894,41.53078896389821L879.7214763549107,40.661764004378014L880.160648109375,43.751720692412L881.1945510401786,48.68569653713949L884.1647103314732,50.947323468060446L884.1905851004464,48.83139349984193L885.0374592957589,41.17340170686522L886.6598772421875,42.88744219191363L887.161909921875,45.32731404399011L887.302162047991,42.5394128512382L888.0099496473215,36.77576019119392L888.6024274654018,35.559856570911634L888.9436169866071,36.75322549826371L889.1604832935268,43.401076379282415L891.2591368526786,40.29507691475728L891.3374604776786,38.65270982817906L893.2884025178572,32.54881754029669L893.3476891506697,36.05994834339293L894.6453904017858,33.66536065830332L895.3360058571428,36.7626904862322L896.5929912555804,38.16865723865807L897.0881861584821,40.217291050880355L898.8308868147321,37.517100944388964L899.38365890625,37.60019485381484L900.918506688616,47.07183904601359L902.1929750390625,42.70053517851523L902.6743389843749,40.64531590241255L903.5416488080357,47.25340674421495L905.8825772310269,41.6513171615591L906.6123544988839,46.88772929517121L908.3112312220982,48.16232432172849L908.3902541651786,44.339834167493926L911.1642158839286,43.20226726574953L912.8104106450893,40.513629058219465L913.0319390725447,40.75522834113918L913.2300014933036,37.67940178320441L913.4944214296876,32.401157336733924L914.2146413504465,34.97334112878247L914.2953737377231,52.544376315490666L914.5190778214285,51.92233110129421L915.621669328125,47.76219161017123L915.7334048169644,45.87277455459743L915.891373001116,43.875077870845715L915.8990655,43.4541632180009L916.812841125,46.5681147224807L916.9028977533483,43.765736598894435L918.1455082801339,40.07685580709186L919.1341109397322,42.989375881365646L919.1893570680804,42.811705707264174L919.7268995658482,39.86470404338444L921.6731794854911,40.708467847677916L921.8773026629464,41.12039702120395L921.9020896037946,41.64402838477724L921.9999164330358,46.90015174832191L923.4696499319197,43.536139562283225L926.2962936127232,44.949502508626644L928.1118010513393,51.06162970242087L929.756907984375,51.53364391535838L931.2225232767858,48.32246800121494L931.2531378683036,45.196136612407145L934.1688280513392,44.040090181115986L935.0468607522322,45.575026547203294L936.3496126339286,48.11247545049627L940.3995190412946,44.84890953106516L940.9646457522322,39.33292388086639L941.3948817756697,39.85117129871488L942.7323664553571,36.116799596349026L942.8387405055804,36.394388085325296L943.5011501316965,36.7627484596954L943.7760598392857,35.4217804433582L947.389669466518,38.070613127739556L949.9950178258928,37.94001445344966L950.101547280134,40.925636056154296L950.8418143191965,40.44568850473281L952.0304996517857,33.5817675339381L952.0391245747768,32.36284774225127L953.0200347354911,34.9260508247991L955.6998993214286,32.961277236593126L957.1355216383928,45.203762087409444L957.8059345714286,47.700888355265704L958.0172063337054,50.12922460213558L958.5991166785715,52.29562658710339L958.9542148593749,49.744327818497496L960.3585232667411,51.383665598121326L961.46383434375,59.132709549359916L962.5553921651785,59.712799616705496L963.3876583828124,54.443707847607456L964.7865276495536,50.24089441419626L965.9791757845983,53.3098025805007L966.1261102834821,56.853933679532425L966.3613919665179,52.78734435890969L966.6958991149553,53.63796773727052L966.8617152020089,51.525951271088005L967.3171266763393,49.65597661436371L967.9574689319197,44.51580558864746L968.4251573236608,48.6137692139709L968.7975830524554,51.25551110498277L970.1210813705358,41.72242767804601L971.1099948381697,48.26782287286141L971.7434216149554,45.19640017365834L972.0728004308036,42.867383111256025L972.6418899441964,42.83345792249988L973.3383330502232,38.11047324043579L974.5548357020089,41.66822761412398L974.7650196361607,39.830896008510344L977.6321460636161,27.253198692854525L977.8017695491071,31.76280802063645L978.7404098169643,28.859604017657933L979.4655249642857,28.52806641463338L979.9433923191965,31.512853985885574L981.4958784575892,27.981103296338762L982.4142385011161,27.251416913803403L983.6920480379464,28.830345732110104L984.6133607578125,26.904459240460575L985.8826230736606,31.362001753928446L986.2554373125,33.53922986865896L987.1852972533483,34.135626733633465L987.3891096227678,35.0190727909211L988.1122822198661,35.00026798644096L988.865136984375,34.61354032688371L989.3415280011161,37.60630250060128" style="fill: none;" fill="none"></path></g></g></g></g><g opacity="0.2"><g><g><g><path stroke="rgb(255, 112, 67)" stroke-width="2px" d="M78.28741586383929,253.53622273036413L78.67592590848214,627.5876744134085L78.94244379910714,381.71373782839095L80.52725397321429,265.69346952438354L81.34079400669643,507.61708995274137L82.340974265625,210.8897988455636L82.5517798158482,281.28854070390975L84.03293551004465,418.99918345042636L84.11949554799108,426.1444579533168L85.75830861830357,235.56874557903834L86.10983250669642,244.8969509942191L86.30385442299107,163.42416490827287L87.49961063839285,416.3354640688215L87.75983466629465,594.6493691035679L87.95059309821428,181.91793741498674L87.96108286941966,323.79595286505565L88.84517632700893,224.7487771851676L90.30543018080357,323.9416930334909L90.78780425223214,352.8180208206177L92.14999817075892,210.3688965184348L92.55622427343751,-17.541033072131057L94.29659386941965,180.8768903527941L96.37520031026786,147.8411509990692L97.52425761830358,510.23168141501293L97.61345952455358,345.4005011149815L97.68028325223214,178.96648713520594L98.21378524553572,242.4926362718855L100.72511417410715,174.8148055757795L100.79333653794643,270.29426193237305L100.94524396540179,596.8460265568325L102.71148833035714,519.8286522456577L103.50366031138392,353.54451308931624L103.51679195089285,452.08209896087646L105.12102762723215,232.50962734222412L106.16868381361607,483.2742444447109L106.41911738839286,535.4353569575718L106.66589896875,271.09140287126814L108.08504845982144,354.90692043304443L108.50339607589287,299.5895766530718L109.22835581919644,174.32603028842382L109.3555540078125,254.79857655933924L109.60319031026786,538.835789680481L109.94344740736607,168.03124918256486L112.42268540625,147.5866642679487L113.67228911383928,408.9919572557722L116.12262196540179,702.3444453648159L118.73713916183036,199.25726802008495L120.39374599218749,283.15917675835743L123.38333078571429,375.1514239992414L123.66500056808036,432.45450646536693L126.05542517075892,481.1232479640415L126.89678252343751,113.97364618097033L127.0514872232143,114.92010337965827L127.13641551897322,186.30903090749467L127.70581584040178,275.5051085608346L128.05625190066965,308.55420207977295L129.103441875,127.18062024457116L129.4442428861607,258.8055451938084L130.36027186941965,428.9686070850917L131.54981192410713,657.3323824746268L132.88962766406252,243.57712289265223L133.19484115513393,378.02444423948015L133.87286888504465,254.5197569983346L134.39176290066965,171.4116506576538L134.76232378125002,459.48451818738664L135.574931390625,447.72191265651156L136.06313311272322,306.5231362751552L137.25873392410713,287.32821873256137L137.85090093415178,82.41881312642779L138.42480797209822,500.2446148736136L140.14054603124998,653.1092304502215L140.35857786830357,232.11069733755932L141.28657296093752,535.8599166870117L143.9299176026786,776.4934477124896L144.02704511383928,209.38943270274572L144.5377804185268,139.38005464417594L144.9332836439732,140.40448604311263L147.64617158370535,279.5019588470459L149.90527979129462,372.82371595927646L151.1072521674107,287.2004296439035L152.9622322265625,123.01005666596551L152.98849550558037,238.17384787968226L153.2053618125,122.85195105416436L153.358745578125,142.65684577396937L154.1384852377232,336.3294019017901L156.50287966741072,346.32306848253523L158.50588205357144,212.72983588491167L158.5297365703125,311.10096979141235L159.50031236383927,206.07801062720165L159.65843595200892,608.2137083326068L160.38160854910714,284.0032627241952L162.13953879910716,168.24563489641463L162.18950119084823,170.14181079183305L162.5316231361607,219.1209339073726L162.63978433258927,145.67475870677404L163.76149053348215,158.19720339775085L166.09604739174108,130.63285171985626L167.11316668861605,295.0766135624477L168.211950796875,374.4436018807547L168.22453852232144,195.92919175965443L169.78743672991072,342.30161571502686L170.47447789285715,153.9432340690068L171.05211462723216,155.34011827196395L171.864877640625,115.3798140968595L172.24623910044645,475.9014098303659L172.44430152120535,390.9452154295785L173.3125437689732,274.637318951743L174.4136589375,440.0695137296404L175.78067038058037,259.6732063974653L177.61661344754467,316.79518583842685L178.61671600446428,836.4266330174038L179.42155341294642,257.32793249402727L180.07020978348214,555.9587057658604L180.93472233482143,388.7635814121791L182.72000369196428,265.9695668901716L183.35296425669642,118.27664070469994L184.0501843828125,108.9216242347445L184.57692630133928,324.3268066133772L186.05000098660716,92.48885525975909L186.68257304129463,211.92332134928023L187.87957248883927,241.61991589409962L190.96504156138394,521.1147610800607L191.05167930133928,194.03247656141008L192.0172044642857,262.9466461454119L192.46500114174108,327.8333022253854L192.87316979464285,668.0814582279751L194.4704899921875,516.3740837914603L194.84765554352677,132.92336070537567L196.800073921875,210.36912764821733L197.08329774441964,251.7183099474226L197.14196276116073,142.1753125531333L197.59644181138393,166.74987850870406L197.6143909754464,580.6765978676932L199.19671468526786,24.14512922721248L199.68320696316965,70.50320930991855L199.96106934709823,437.7811234337943L201.26459824888394,154.1528559412275L203.3189616629464,80.34768161603384L203.84904476785712,105.1508445569447L208.3642308046875,110.29838730607715L209.32866813950895,118.61462306976318L211.1547430513393,165.64107189859664L212.13876129241072,86.27744138240814L212.46246786160714,0.554268479347229L212.72245878348212,220.48368794577465L212.99169624441964,198.81516810825892L213.4031283816964,144.86925857407707L214.15466221205358,319.38425030027116L214.19125985825895,140.10811345917838L214.41511934598213,198.08475947380066L215.85416055133928,163.94586334909712L215.94794687611608,323.3787636075701L216.93818127790178,209.43211466925487L218.78818840848214,115.14062045301709L219.12145232477678,30.24215432682209L219.46155401785714,80.02333269800458L220.38076878348215,174.67054206984383L221.13789715848216,208.02224867684498L222.05882136830357,175.32729734693254L223.10336947433035,169.89481009755815L224.32624369084823,91.63618539060865L225.02369692299106,167.1996442249843L225.08539231808035,130.00361372743333L225.1698544017857,98.13654359749384L228.0680616328125,96.12579153265271L228.26317137723217,141.62234738894873L229.82342771651784,107.91787895134516L231.9222366796875,160.3122206756047L232.6140953671875,208.93635412624903L233.49616857254466,104.95939847401209L235.27049394642856,95.55947862352643L237.30007041964288,65.15538939407892L237.61421964174107,205.06216955184937L238.46948565401786,122.13653375421252L240.0401540625,217.99742487498693L241.70686215401787,162.48324840409416L241.7692568671875,66.75714125803538L242.01059930691966,203.41746285983496L244.70266310825892,61.971220314502716L247.3174134107143,51.000796062605716L247.61780937723213,92.27157400335584L248.55730436718753,89.27535516875129L248.72630623660714,138.26833323069982L249.42251623660715,66.10952523776464L249.54272124441962,78.42654691423688L249.9167787154018,123.22060305731635L250.70187981361607,128.56664134774888L250.72386948214285,95.60510749476295L251.2681720546875,119.99710660321374L251.88178481919644,51.35743252720151L252.90869456919643,43.745593667030334L255.6817238638393,180.30178809165955L258.0213313526786,90.83964153698511L258.0932057109375,92.74514608723779L258.67907885825895,143.04976640428816L259.2191078203125,-17.585682851927658L259.61196917745536,39.92711458035879L260.1216943560268,68.22346712010246L260.86794444977676,90.72691440582275L261.41069298214285,72.15480816364288L261.4502433046875,74.73899642910276L261.819560953125,180.0673839705331L262.32314767299107,134.43706817286355L262.8481024453125,66.6382281950542L263.4457862979911,109.42105075291224L263.54687661160716,33.47960764914751L263.6757065424107,31.461590645568705L263.67889232477677,126.35903733117242L267.88490206808035,98.75583658899579L267.97977622098216,198.53396020616805L268.35196884375,136.7189804145268L270.19925640401783,69.83237116677422L273.3729172566964,95.68879573685784L273.7115426116071,111.42762322085242L276.80532579910715,111.21101609298162L277.35421279017856,31.76133868736882L278.5915395803571,105.81201698098864L278.98020502901784,42.841195668492986L279.70889446875003,92.61851264749255L282.6926516116071,68.9370931642396L283.02474999776786,114.95506817953925L283.0337634308036,38.203544480460025L285.6043789921875,66.42973629065924L285.64253067857146,-16.107681725706385L290.51436893638396,45.3008210318429L292.09032108147323,92.34394972664971L293.1675817332589,100.27060340132032L294.5128366138393,160.76559458460127L294.64189965066964,52.72364869713783L295.77906855133926,82.23229139191766L296.8111843359375,62.78790456056595L301.20103703236606,89.24989237104144L304.29987085044644,65.6191480926105L304.7426168973214,57.24665469782691L305.1841197120536,111.00245998586927L305.30766590625,98.24882772990637L306.57871536830356,115.73520823887415L306.9246447120536,34.69116308433671L308.5304344285714,45.24322637915611L308.77744911495535,85.6279731137412L308.83502630357145,53.454015599829816L309.41981162276784,15.597742815102862L311.2730045357143,148.14990186691284L312.00153857142857,97.07291643960137L312.4435075982143,73.31563181536536L314.2939809408482,33.1911508589983L315.04636949330353,84.77076411247253L316.99513587723214,69.55608440296989L318.07907890178575,35.281192477260305L319.0646511830357,117.41139994348798L319.2276699977678,114.02144510405402L320.21541793526785,45.66449411426272L320.3210926674107,43.49493181279726L324.10238322991074,67.12009527002063L324.11792363169644,-5.5045066475868225L324.68817867522324,156.7629403727395L325.26534919754465,53.19056135416031L326.101500515625,40.947934576443245L327.4019213370536,38.94213655378137L328.0219833683036,23.892864311380052L328.4891278459821,129.27561269487654L330.4403806941964,42.11913017715726L330.5706092611607,39.04313866368361L330.6689800044643,123.12378535951886L331.3532238950893,100.80405735969543L331.7095653080357,56.13160437345505L332.7533363939732,111.54988445554461L333.3938340535714,68.56607208081655L333.52305249441963,112.42333674430847L333.59376132254465,32.99176530752864L333.8221275267857,43.1785392165184L336.91847488058033,24.994940470371915L338.52869361160714,90.67392790317535L338.54881843191964,40.1640795873744L338.6074834486607,75.92471789462228L339.05636795424107,93.86315294674463L339.2311197723214,88.66407467637744L339.50781662611604,128.7066353729793L340.4659600982143,98.15988128525872L340.76791010491075,97.87317763056073L341.90002837500003,61.362247909818365L343.3913630323661,113.1769097191947L343.91725022879467,95.6464989866529L344.53645753794643,85.95016161033087L344.6383248716518,90.74754915918622L345.6172924821429,20.29235786412444L347.9518493404018,29.87272707585778L348.650001890625,61.029209153992795L348.8325239095982,87.79910998685021L350.93568418526786,71.51167028290887L351.50834799107145,25.747406550283955L351.5887695703125,79.04712074995041L352.3920529386161,81.09748910154615L355.58513929352677,154.70840205465043L358.31185819084817,83.08442195824213L358.6654023314732,43.60507799472127L358.80005991294644,45.47793225305419L358.99851084374995,100.69237673282623L359.17380657589285,17.851884973900653L359.33900104687496,60.07001413617816L361.273159453125,14.5648494980165L361.4751069743304,52.66828669394765L361.7211892366072,60.56065451247353L363.54128109375,77.97881642409735L366.72481010156247,101.78785485880714L366.8966092433036,27.241723392690943L367.3239702924107,79.35100826195307L367.37875020870536,39.919042693717145L368.0419368549107,48.33529184545789L369.80041101897325,35.934835527624415L370.10344885379465,61.81491558892388L370.4568375904018,109.77092346123285L371.41156217410713,65.62090082679477L372.1718763314732,65.04433474370413L373.18223555357145,74.40747606754303L374.2971039776786,63.19730281829834L374.699134171875,50.570454878466464L375.3915367734375,60.47615731613975L377.1242138705357,66.27605745622091L377.4236774129464,66.09506357567649L377.65375306138395,118.45143260274615L378.1375257689732,85.59723927293506L380.9044943069197,36.38277226899352L381.15624881584824,56.32167972837176L381.63364995870535,78.76717443125587L382.56856053013394,79.169542491436L383.4933698404018,78.75912662063327L384.4119629899553,37.14622283194747L384.7283655703125,88.36454331874847L385.90042267299106,76.05723230327878L386.0148000301339,48.1160283301558L386.9309844174107,86.15959087439947L387.0570170758929,95.89929718630653L387.67544736495535,37.1346502921411L390.20581328571427,75.32809167248864L390.6550863013393,63.51484303815026L390.87280733035715,-7.961499699524495L391.28066517522325,37.84316178730555L393.8381490970982,54.0972674403872L394.76629959375,110.86774984427862L394.92131510156247,37.2927719546216L397.09759296763394,50.087162503174355L397.5617847689732,103.22089803218842L397.78517804464286,59.04353467055731L398.01261182477674,50.37925597599573L398.4478207767857,35.58373253473215L399.5692938716518,58.202816137245705L401.0687872399553,47.49678830589566L402.03174823660714,103.87239510672431L403.9694809352679,61.27735265663691L404.51860103236606,111.7136206456593L404.6530255078125,87.14663061073847L405.0111540669643,51.58409059047699L405.14946364285714,48.25543971572604L405.7014587142857,36.13790551253729L406.0739621450893,37.761545687913895L406.9701771160714,77.05175486632757L407.7775009888393,94.94628489017487L408.0036138348214,97.37061159951348L408.9618350089286,49.095190393073224L412.15204638950894,21.592169966016485L412.4747428325893,55.281537924494074L413.38408944308037,-1.032045841217041L413.8231834955357,20.266736164689064L414.31558112611606,56.96336983782906L415.58530965401786,98.42577041898456L415.89192178125,33.386392927595566L416.3763161049107,118.5667406831469L417.0212427790179,24.81657809870582L417.4032258549107,107.01932982036047L420.24494372544643,131.98210392679488L420.2872913203125,42.06228348612785L422.0383060915179,66.06473742212567L423.4313477075893,98.80202402387347L426.0171928627232,66.61374769892011L426.57462707477674,65.84778359958105L426.63166034933033,38.83208507086549L427.00587322433034,100.01414564677648L427.2177666026786,35.3510161425386L427.9147536227678,60.382597906248904L428.15897103683034,63.43550774029322L428.3140642466518,29.148483106068184L428.7729723113839,51.45057782956533L430.70169157700894,38.75346162063737L433.70106682366077,99.48701565606255L434.10115446763393,32.92855973861046L434.3780067254464,54.49977674654551L434.6816661763393,15.64600319521766L435.59909379575896,41.98144263454847L437.4930802633928,41.71179924692426L437.7700102232143,72.65999366555896L438.7335151339286,10.461776618446635L438.7401198046875,100.00215257917132L438.8091191886161,46.881235122680664L439.48636989843754,62.31287186486382L440.59680930803574,-7.18924052374706L441.0240926551339,47.3341243011611L441.30483001339286,50.73836264014244L442.02963435267856,30.636637892041875L443.06143932924107,16.157318451574852L445.6904090993304,57.350409499236534L445.98295716294643,54.005553858620786L447.6089494017857,86.75877557482038L448.73228734486605,51.22916031309538L448.95847789285716,122.31427897725787L449.3844403058036,35.46316384417672L449.50285816741075,112.86336932863507L451.0420572622768,54.27727259908404L451.9115427421875,71.06017751353126L452.7360387589286,87.82294203553882L453.04824543080355,15.798499897122383L453.2667434799107,38.22124035443578L453.78594830357144,39.24018643370695L454.06684106584817,86.07095260279517L454.268322375,92.31877584116798L454.39140235714285,48.76778061049323L456.1371333917411,67.1358281459127L456.43512059598214,17.19984859653883L457.4294732042411,2.4322027776922677L457.4970739520089,89.18722409861427L459.61981513392857,51.582355512039996L459.88516749441965,25.843248567410896L460.16978995312496,94.7925065415246L460.32752503125,66.13973261628833L460.4614055926339,76.56003267424445L462.27916638950893,21.659299123500062L462.61351813392855,71.09740224906378L463.8513111361607,63.8416348695755L463.91673622767854,21.459256697978304L464.30050644977683,108.5041524853025L464.59056804910716,61.098747117178775L467.56531175892854,58.801182253020144L468.067422140625,70.54303104536872L468.46471251227683,50.3010602763721L468.62128206026784,134.6868873664311L470.0294755680804,18.687767437526176L470.59429147098217,41.40852005566869L471.60162031473214,91.24074159349713L472.65471564174106,94.78240103381019L474.0878514944196,96.85692565781731L475.23411153013393,58.26338498081479L476.8141818816964,43.5322464321341L477.64116436272326,43.739892465727664L479.1408908370536,42.72506258317404L479.69949057924106,69.58238825627737L480.19111118973217,60.17567575829368L481.0395394252232,85.31446482454028L481.982919515625,50.148769825696945L483.6382831138393,66.9655657495771L485.5996372232143,11.05610117316246L485.6516198671875,-3.12033873796463L486.049298748884,56.334292352199554L488.1669115982143,35.51878586837225L489.74550561160714,112.16254530634198L490.9153093560268,67.3743316105434L492.0752449453125,32.51524551638536L493.1552251674107,133.7944824354989L493.5581100837054,53.65551422323499L494.6020365736607,17.922694953424596L495.1659977544643,113.45058022226605L495.74246895870533,62.161013177463005L496.2506400970982,44.85738891363144L497.5778681116072,66.98550390345711L497.72892081696426,69.67107467991967L498.26646331473216,54.19354583535876L499.35118335937506,54.66222246204104L501.102586640625,26.92601216342466L502.66564025223215,17.327755657689906L504.2256634854911,35.04818958044052L504.3555035424107,96.61753298555102L504.666311578125,46.81241462486129L505.2021446316964,84.83916568756104L505.3166773928571,69.49710778679166L507.82303339285716,44.97746404579706L508.37331902008924,124.07987296581268L508.5770536875,20.596259420471526L511.07975769308035,162.42359123911177L511.5578581540178,87.81645114081245L512.1204206986607,32.20881718184266L512.2466087611607,27.635591414357947L513.0867228816963,28.198810956307838L513.5021178214286,49.94931605884008L513.65721103125,39.94228568247385L514.0907105390626,15.135838772569372L514.9582534687501,63.235529116221855L515.42819521875,76.98156203542437L516.0845440881697,57.77705260685511L517.5568417533482,69.64421547310691L520.4172858080357,38.72543071423259L521.5175462544643,52.868087155478335L521.7703885915179,120.44507464340754L522.4045146863839,50.9514241729464L523.4032963091518,53.671534406287336L524.0478344732143,38.425878490720464L524.4913575401786,59.55163497584205L525.1439767131696,35.83834526368551L525.1972802912946,83.87729983670373L525.3832211986607,41.141990499837064L526.3537969921875,63.51572261537824L527.9708535,45.587100948606206L529.2150180669643,24.64019256883435L529.7727630870536,56.60660817793436L530.0984122064732,40.22760416354451L531.7311645200894,61.794852239745L532.2033596283482,50.54236137441225L532.2477274754464,63.356130710669945L532.2601597968751,54.78968411684036L533.3723086506697,58.09418192931585L533.3834977399554,101.10525798797607L533.4752638125,64.20444442544665L533.5451956205357,98.35785678454809L534.153990860491,47.02325313857622L535.884803109375,36.36281565683227L536.6782183225446,57.252468253884985L537.2988242678572,19.635267930371427L538.659930358259,41.950291476079414L540.9536159598214,49.1600543984345L542.0088869430804,75.08707467147283L542.0335961819196,67.54873187201362L542.1584633102678,66.91818414415631L542.2960735680804,-8.573820275919815L543.4633131462053,65.22775548696518L545.5181427723214,37.78878369075913L547.9880565301339,55.603347625051214L548.988780703125,47.891530688319875L549.9965757589285,46.5252182143075L550.1991448962054,91.44800080571856L550.5383141651786,41.050530518804266L551.0357624263393,43.67159682512283L552.0028416294643,43.01850270799227L553.9633410167411,104.50269886425562L554.2971488470982,43.22884525571551L554.5089645234375,41.59023942691941L555.0215646763393,50.85305597952433L555.376507453125,50.17874286430221L555.7577135089285,0.2920774221420288L556.4487951763392,37.83183963809695L557.8031411919643,75.60124213354926L557.8166613415179,57.4838708979743L560.7011930189732,23.047571735722684L561.177972545759,80.89842215606146L561.2503131160714,59.971819290092995L561.2811608136161,30.123115667275002L561.5557597131696,74.18127063342504L563.4365368392857,105.21766032491412L564.5254527924108,63.532919313226415L564.5649254129464,101.72998894963946L564.65459353125,36.54911749703545L566.1500463950892,39.92637223643918L569.6510658113839,70.32461982113976L570.0292414888394,55.34400074822564L571.4035569207589,70.98604263578143L571.9146030334821,61.35816140685763L573.3793636037947,26.481594718460514L575.8163317098214,9.385201377528048L576.2673918716519,32.608866320124676L576.2974625491072,50.485503447907305L577.77815203125,50.144457008157445L578.0377544430803,31.616090873522424L578.36122790625,64.10035576990671L578.7916193337054,52.458995465721415L579.1313325167412,33.30469898240905L580.3632978683036,43.921807655266335L580.7539835691964,132.2186459984098L582.1614000569197,54.45221537351608L582.6560510457589,73.9677612866674L585.3338176774553,126.55847665241785L585.3647430770089,78.87536885057177L585.6868956060267,39.61881313153677L587.0609002299107,83.4319384268352L587.1107072176338,39.907032772898674L587.7860153772322,65.55686824662347L589.0961489497768,19.455111895288752L590.4219783281251,40.77347011225562L590.5288185904018,15.043268084526062L592.4885409575893,51.31487254585538L595.4252106830357,87.65591866629462L595.6673301428572,61.733911020415164L596.3406957522321,27.517531595458948L596.6002204620536,64.42311246054511L599.0330703616072,37.32045616635256L599.0462797031249,36.09503495054584L599.9404744218749,56.004999824932625L601.0617144107143,3.4801050850323207L604.0748429129465,64.24758223124914L604.7564449352678,14.270351633429527L607.4892245892856,18.100161697183324L607.6593142868304,66.99362233706884L609.972347688616,52.486653996365405L610.3418207410715,50.96627586654253L610.497768672991,66.94523916925702L610.8837922533482,68.85586709635596L611.9382862165178,34.28123836432185L613.4059994631697,53.557752745492124L617.0310312857143,59.44402801139016L618.2536723962053,57.72851214238577L618.7315397511161,29.393091446587036L619.4689318158482,52.22582564183645L619.5701775334821,29.162793490503503L620.9450368794643,70.36277228593826L621.0634547410715,50.90209401505332L621.5388356316964,35.03455051566873L622.373666015625,25.454088009361698L624.2590275602679,40.7005294050489L624.6528990435268,34.18535642113004L625.2883460725446,50.28682332379479L625.4653512488838,12.457142502069473L627.8346409051339,7.367881374699735L628.2987550044643,15.86385104060173L630.9943153962054,55.22207336766381L631.7927035379464,93.5746066740581L632.0507519095983,8.051601793084814L632.0957413727679,72.38554309947152L632.7938162209821,74.93745986904416L632.9407507198661,17.12504681306224L633.4237464073661,47.716820648738334L634.5947933839285,50.92816834364619L636.7772874107143,28.64560890197754L639.3705142566964,57.67644694873266L639.972549421875,42.338552594184875L639.9952384084821,79.56390447275977L641.8256646328125,62.31170979567938L642.5405231149554,83.2252827201571L642.8165983526786,27.378904536366463L643.3484686037947,36.68406679374833L643.6163074285714,54.60921669857841L644.2836122812499,57.18867643390384L645.3875247220982,34.978804098708295L645.5607225,56.73664436170034L646.4842108761161,70.56088903120585L646.9299095993305,31.0930213034153L647.493793078125,67.72474683182578L647.6524605803572,32.20392493477888L648.1680134095982,57.279780089855194L650.9300867209821,71.41494888918739L653.1035673147322,55.08579988990512L654.9870640111607,18.503282534224653L655.2125552410714,55.39408528804779L655.531832795759,47.868804531438016L656.4445982946429,48.66927759136472L656.6731199029018,68.02351096698217L657.8621937455357,95.91164336885724L657.9115345212053,51.62560888273377L658.0145673850446,68.73868750674386L659.2405496819197,89.72628937448773L661.1100600167412,88.82516571453638L661.5249887444196,95.09482429708753L662.745065688616,24.38578568984356L662.7902882578124,27.47706166335516L666.2805070948662,26.391736394592712L666.8495966082589,42.14221265912056L667.1283914162947,19.473655245133827L667.5180669910714,56.22022659437995L667.9281781941964,51.76533165148325L668.5587299966518,44.258122354745865L670.0610206372768,37.7056861136641L670.3330553705358,87.52055365698676L670.4248991450893,31.82570552293744L671.8494100747768,69.69998195341654L672.1468533649553,61.792643666267395L673.7826360569197,39.98117005825043L675.4830668203125,36.63504801903453L676.6433909196428,99.18782457283564L678.0539931897322,168.29319626944405L681.5027191540178,38.55041330414157L682.7479715491071,93.7201670748847L682.8888452912946,60.888322710990906L682.9847295703124,46.62556866662841L683.4296512734375,45.90000573226385L684.1849925022321,42.894442192145775L685.0383159642856,35.499452022569514L685.2287635881696,54.302574890000486L685.6406619375,43.81931925245695L685.6968404899553,68.77654784917831L686.846053202009,2.1210908549172416L686.9146640758929,30.9405948232327L687.7723388504464,39.815705209970474L688.5389468705357,40.18344312693391L689.2185286406251,31.097940836633967L690.1697566339285,71.90455881186895L690.417159830357,24.155680542545653L692.0134699017857,26.809755096012466L692.0797497154017,24.41888881155424L692.4614219832589,14.35913355861392L692.6096774162946,36.780090785452316L694.1361333816965,43.210746509688235L695.778132234375,54.651067239897586L697.3288312265626,45.35757944413595L697.536062484375,26.42195240035653L698.5496851908482,41.538498456989004L702.0817854107142,52.340382550443934L703.1157660435268,32.93284406619411L704.4453251183036,38.080150870340205L704.5919488091517,36.025460873331355L704.7079579084822,68.03252502850123L705.4164448258929,83.59050629820142L709.4918374921875,33.79987367561884L709.62944775,35.472936300294734L710.5798987232142,51.62463139636178L710.5809865513393,60.79503616264887L711.1306505624999,47.96871359007697L712.5325502075892,53.42222562432289L715.1696009866072,58.95646936552863L716.0209818984374,59.067196582044886L716.52845371875,47.35625176770348L716.8905450803571,23.79123742878437L719.7735227176339,7.000356129237602L720.8984147008928,47.32870880195074L721.2504048013392,60.845143173422144L725.684625344866,36.032214999198914L725.9354474296875,60.35735018764224L726.4194532433036,40.37618449968953L726.6944406529018,-5.799428250108434L727.8656430334821,29.831505319901893L728.5254107912946,46.28353350503106L729.9226483158482,39.490786492824554L730.0186879988839,54.003175147942116L731.682987328125,40.06636706420355L732.9791345390626,67.08987505095344L734.3874057488839,37.10377921802659L735.2400298928571,31.80403389568839L736.2412202779018,62.30779021978378L736.5423155625,-8.501287255968379L736.802306484375,47.953088253736496L739.1832514419643,55.78130792719979L741.42666384375,36.00428922474384L743.676370108259,-4.7118920002664595L743.8520543504463,105.79372562680926L744.2435170714285,27.706185662719832L744.7087967008928,31.122805746538305L747.36402975,50.785482619489954L748.6130895435268,59.59386431319375L749.0082042589286,47.3742172930922L750.234885873884,37.40836011937685L752.9731823705357,53.70245925017767L753.3412567868303,25.758730304560473L753.9722748013393,59.5525530747005L755.7263976529017,32.507127484040595L755.7448130290179,71.7483760714531L756.0476954598215,26.16059096263986L756.3681385446429,149.77791585241044L759.1694513705357,41.17606769715037L759.2114104553572,88.75150593689509L760.2740631294643,44.70978847146034L762.0768274386161,36.07477177040916L762.2150593125,34.39315814631324L763.4940343794642,40.3049387442214L764.8605796104911,70.37792733737402L765.4013855926339,71.20074936321802L767.2871356473215,29.999743324305342L768.0585611919644,53.23885142803192L769.9493618772321,59.208317364965154L771.3789234374999,26.343651067199445L771.8612198069196,32.50257149870906L772.3006246674107,52.98594408375878L772.6971380189732,72.39634841680527L773.0967594508928,25.09003272014003L773.3172777522321,47.04531319226537L773.5222556517858,15.719520924346781L773.691568329241,84.83752209799628L774.5448140892858,65.38968758072171L774.8932298973215,99.30446806975775L775.5827575245536,35.52531448219504L776.0221623850447,86.94331986563544L776.2569778560268,50.82649210521154L776.8991849598215,56.508506425789406L778.1900484341518,59.92250197274346L779.7140179352679,42.295814450298025L779.7468081830357,55.88068731342044L780.2720737633929,25.532389242202044L780.7964846216518,66.84028377703257L781.2880275301338,25.4660597095L781.3428074464285,26.607897915478276L781.8408773236607,55.72377908229828L781.8445293180804,100.40418357508521L782.4782669029019,48.11697050503321L783.0652278783482,37.33829810151033L783.7678871450893,25.975575785019586L785.6466440189732,13.37113559671812L786.3511681339286,47.71597638300486L787.348318014509,11.465690433979034L787.8843841741071,69.34130705254417L787.9937886026786,32.15895735153131L788.6141614419643,46.474239651645945L789.123653514509,29.130613082221558L790.5867046406249,45.9967319411891L793.3393760089286,41.05727822440009L793.7032545167411,40.26212034693785L794.1998480558036,88.74431523254938L794.2154661595982,34.904725398336126L795.0418270245536,23.970886061766336L796.2429446785713,22.54215229515519L796.37068678125,72.50512387071338L797.2707091506696,39.32450546750002L798.1091915290178,34.507487135274076L798.1098131450892,37.82545066518445L798.4782760714286,27.36964068615012L798.8285567276786,64.1296257887568L800.1204303281249,86.80622138295855L801.7778141785714,55.055810800620506L801.7894694799107,-5.787842869758606L803.9979936796874,45.98059298310962L804.0866516718751,85.35357069969177L804.3196799966518,35.54038526756425L805.590185544643,19.02868306423936L805.6009084218749,41.067866857562734L808.3155058058036,36.45436471913543L809.4086176674107,24.1039243244699L809.8051310189732,52.78617572358675L811.0482854598214,42.32001245447569L811.2419965680804,25.408056065440178L813.1187331897322,45.89659175276756L816.021291733259,61.89957650218692L816.1648850457589,13.680034933345652L817.0207726741072,28.9524844485734L817.836954575893,1.9501190185546875L818.3880949252233,71.49702564307623L820.2120718828126,54.28929776804786L820.6027575837054,51.316111658300684L822.1649564732143,68.97569504805975L824.1155100033482,43.36959687301092L825.5993852678571,45.414013632706215L827.8807162500001,38.88578342114177L828.7146919118303,48.61901007379804L829.2288461049108,30.111615957426167L829.4078715334821,40.64233766709056L830.8621423325892,63.89550094945092L831.20294334375,113.3994491781507L831.2937769921874,52.26429591008596L833.679927984375,30.98363913382802L834.5582714933036,41.98652427962847L835.85449640625,26.073305963937713L836.0478967064732,110.57026655333381L836.6646175513393,39.522156743066645L841.0745173660714,47.45883647458892L841.1862528549107,52.617887560810374L843.11683696875,76.30855063029699L844.9467192790179,27.08053946122527L845.0885254453125,47.69815210359435L846.6771430178571,53.53158050775528L849.812341376116,25.810095487960766L851.785739296875,36.58659262316566L851.8024452287947,34.71019758496966L851.8763398392857,39.32978293086801L852.2594884453125,35.92363696864672L852.3224270725447,51.63992287857194L852.7329267857143,25.092268379139043L853.8100320334821,29.66586230908122L854.1274447399554,31.00808070706468L855.1873001417412,108.76891807147436L855.3510182745536,53.691178832735346L857.5541810357142,97.98084558759417L859.1504911071429,40.057590552738716L859.6533785089287,62.64080329452243L860.2151640334821,43.13479630010467L860.675548436384,52.6792364673955L862.7193443772321,21.19424995034933L862.747705610491,27.16405480740856L862.7577291696429,53.0299694921289L862.9334134118304,52.0483484651361L863.7556560703125,64.04641585690636L863.7670005636161,28.83247713052802L863.9924140915178,61.81260108096261L865.2347138102679,38.703503881182L866.6861873370535,59.37961342505045L867.2338310959822,54.25192536626544L867.5393553950894,42.596442069326116L868.0338509799108,32.667804815939476L869.4725813772321,65.46679183415003L871.4064289754464,23.986639201641083L873.6207031238839,19.897298480783178L874.6392987589286,28.78587739382472L875.9046759743303,21.543692901730537L876.9202412310267,50.03716945222445L877.7138118482143,53.55324892486844L878.7613903325894,45.13755352156501L879.7214763549107,37.185664166297244L880.160648109375,56.11154744454794L881.1945510401786,68.42159991604943L884.1647103314732,59.993831191744135L884.1905851004464,40.36767362696786L885.0374592957589,10.541434534958412L886.6598772421875,49.74360413210731L887.161909921875,55.086801452296115L887.302162047991,31.38780808023043L888.0099496473215,13.72114955101695L888.6024274654018,30.69624208978243L888.9436169866071,41.526701207671834L889.1604832935268,69.99247990335736L891.2591368526786,27.871079056656768L891.3374604776786,32.08324148186617L893.2884025178572,8.133248388767242L893.3476891506697,50.10447155577798L894.6453904017858,24.08700991794467L895.3360058571428,49.15200979794774L896.5929912555804,43.79252424836159L897.0881861584821,48.411826299769544L898.8308868147321,26.716340518423507L899.38365890625,37.932570491518305L900.918506688616,84.95841581480842L902.1929750390625,25.21531970852189L902.6743389843749,32.424438798001816L903.5416488080357,73.68577011142459L905.8825772310269,19.24295883093562L906.6123544988839,67.83337782961983L908.3112312220982,53.260704427957535L908.3902541651786,29.049873550555517L911.1642158839286,38.65199965877194L912.8104106450893,29.759076228099204L913.0319390725447,41.72162547281809L913.2300014933036,25.376095551465227L913.4944214296876,11.288179550852107L914.2146413504465,45.262076296976616L914.2953737377231,122.82851706232343L914.5190778214285,49.43415024450846L915.621669328125,31.12163364567928L915.7334048169644,38.31510633230209L915.891373001116,35.884291135839035L915.8990655,41.7705046066216L916.812841125,59.02392074040003L916.9028977533483,32.556224104549216L918.1455082801339,25.32133263988156L919.1341109397322,54.63945617846079L919.1893570680804,42.10102501085825L919.7268995658482,28.076697387865593L921.6731794854911,44.08352306485176L921.8773026629464,42.76811371530805L921.9020896037946,43.73855383907046L921.9999164330358,67.92464520250049L923.4696499319197,30.080090818128397L926.2962936127232,50.60295429400034L928.1118010513393,75.5101384775979L929.756907984375,53.42170076710839L931.2225232767858,35.47776434464116L931.2531378683036,32.69081105717592L934.1688280513392,39.415904455951264L935.0468607522322,51.714772011552526L936.3496126339286,58.26227106366839L940.3995190412946,31.794645853340626L940.9646457522322,17.2689812800714L941.3948817756697,41.924160970108844L942.7323664553571,21.17931278688569L942.8387405055804,37.5047420412302L943.5011501316965,38.236189957175924L943.7760598392857,30.057908378009273L947.389669466518,48.66594386526518L949.9950178258928,37.41761975628991L950.101547280134,52.86812246697288L950.8418143191965,38.52589829904694L952.0304996517857,6.12608365075927L952.0391245747768,27.487168575504015L953.0200347354911,45.17886315499034L955.6998993214286,25.102182883769274L957.1355216383928,94.17370149067469L957.8059345714286,57.68939342669077L958.0172063337054,59.84256958961487L958.5991166785715,60.96123452697482L958.9542148593749,39.53913274407387L960.3585232667411,57.94101671661649L961.46383434375,90.12888535431452L962.5553921651785,62.0331598860877L963.3876583828124,33.3673407712153L964.7865276495536,33.42964068055153L965.9791757845983,65.58543524571829L966.1261102834821,71.03045807565961L966.3613919665179,36.520987076418734L966.6958991149553,57.040461250713875L966.8617152020089,43.07788540635791L967.3171266763393,42.17607798746653L967.9574689319197,23.955121485782527L968.4251573236608,65.00562371526446L968.7975830524554,61.82247866903033L970.1210813705358,3.590093970298767L971.1099948381697,74.44940365212302L971.7434216149554,32.91070937684603L972.0728004308036,33.5513148616467L972.6418899441964,42.69775716747556L973.3383330502232,19.218534512179232L974.5548357020089,55.8992451088769L974.7650196361607,32.48156958605561L977.6321460636161,-23.05759056976862L977.8017695491071,49.80124533176422L978.7404098169643,17.246788005743696L979.4655249642857,27.201916002535413L979.9433923191965,43.45200427089419L981.4958784575892,13.854100538151599L982.4142385011161,24.33267138366189L983.6920480379464,35.146061005336904L984.6133607578125,19.20091327386241L985.8826230736606,49.19217180780001L986.2554373125,42.24814232758112L987.1852972533483,36.52121419353146L987.3891096227678,38.552857020071556L988.1122822198661,34.925048768520355L988.865136984375,33.066629688654615L989.3415280011161,49.57735119547162" style="fill: none;" fill="none"></path></g></g></g></g></g></g><g transform="translate(41, 377)" clip-path="url(#clip_1)"><clipPath id="clip_1"><rect width="1087" height="23"></rect></clipPath><g><g><line x1="0" y1="0" x2="0" y2="5" style="visibility: inherit;" fill="rgb(0, 0, 0)" stroke="rgb(204, 204, 204)" stroke-width="1px"></line><line x1="77.70200892857143" y1="0" x2="77.70200892857143" y2="5" style="visibility: inherit;" fill="rgb(0, 0, 0)" stroke="rgb(204, 204, 204)" stroke-width="1px"></line><line x1="155.40401785714286" y1="0" x2="155.40401785714286" y2="5" style="visibility: inherit;" fill="rgb(0, 0, 0)" stroke="rgb(204, 204, 204)" stroke-width="1px"></line><line x1="233.10602678571428" y1="0" x2="233.10602678571428" y2="5" style="visibility: inherit;" fill="rgb(0, 0, 0)" stroke="rgb(204, 204, 204)" stroke-width="1px"></line><line x1="310.8080357142857" y1="0" x2="310.8080357142857" y2="5" style="visibility: inherit;" fill="rgb(0, 0, 0)" stroke="rgb(204, 204, 204)" stroke-width="1px"></line><line x1="388.51004464285717" y1="0" x2="388.51004464285717" y2="5" style="visibility: inherit;" fill="rgb(0, 0, 0)" stroke="rgb(204, 204, 204)" stroke-width="1px"></line><line x1="466.21205357142856" y1="0" x2="466.21205357142856" y2="5" style="visibility: inherit;" fill="rgb(0, 0, 0)" stroke="rgb(204, 204, 204)" stroke-width="1px"></line><line x1="543.9140625" y1="0" x2="543.9140625" y2="5" style="visibility: inherit;" fill="rgb(0, 0, 0)" stroke="rgb(204, 204, 204)" stroke-width="1px"></line><line x1="621.6160714285714" y1="0" x2="621.6160714285714" y2="5" style="visibility: inherit;" fill="rgb(0, 0, 0)" stroke="rgb(204, 204, 204)" stroke-width="1px"></line><line x1="699.3180803571429" y1="0" x2="699.3180803571429" y2="5" style="visibility: inherit;" fill="rgb(0, 0, 0)" stroke="rgb(204, 204, 204)" stroke-width="1px"></line><line x1="777.0200892857143" y1="0" x2="777.0200892857143" y2="5" style="visibility: inherit;" fill="rgb(0, 0, 0)" stroke="rgb(204, 204, 204)" stroke-width="1px"></line><line x1="854.7220982142857" y1="0" x2="854.7220982142857" y2="5" style="visibility: inherit;" fill="rgb(0, 0, 0)" stroke="rgb(204, 204, 204)" stroke-width="1px"></line><line x1="932.4241071428571" y1="0" x2="932.4241071428571" y2="5" style="visibility: inherit;" fill="rgb(0, 0, 0)" stroke="rgb(204, 204, 204)" stroke-width="1px"></line><line x1="1010.1261160714286" y1="0" x2="1010.1261160714286" y2="5" style="visibility: inherit;" fill="rgb(0, 0, 0)" stroke="rgb(204, 204, 204)" stroke-width="1px"></line><line x1="1087.828125" y1="0" x2="1087.828125" y2="5" style="visibility: inherit;" fill="rgb(0, 0, 0)" stroke="rgb(204, 204, 204)" stroke-width="1px"></line></g><g transform="translate(0, 8)"><text x="0" y="0" dx="0em" dy="0.95em" style="text-anchor: middle; visibility: hidden; font-family: Roboto, sans-serif; font-size: 12px; font-weight: 200;" fill="rgb(33, 33, 33)" stroke="none" stroke-width="1px">-1M</text><text x="77.70200892857143" y="0" dx="0em" dy="0.95em" style="text-anchor: middle; visibility: inherit; font-family: Roboto, sans-serif; font-size: 12px; font-weight: 200;" fill="rgb(33, 33, 33)" stroke="none" stroke-width="1px">0</text><text x="155.40401785714286" y="0" dx="0em" dy="0.95em" style="text-anchor: middle; visibility: inherit; font-family: Roboto, sans-serif; font-size: 12px; font-weight: 200;" fill="rgb(33, 33, 33)" stroke="none" stroke-width="1px">1M</text><text x="233.10602678571428" y="0" dx="0em" dy="0.95em" style="text-anchor: middle; visibility: inherit; font-family: Roboto, sans-serif; font-size: 12px; font-weight: 200;" fill="rgb(33, 33, 33)" stroke="none" stroke-width="1px">2M</text><text x="310.8080357142857" y="0" dx="0em" dy="0.95em" style="text-anchor: middle; visibility: inherit; font-family: Roboto, sans-serif; font-size: 12px; font-weight: 200;" fill="rgb(33, 33, 33)" stroke="none" stroke-width="1px">3M</text><text x="388.51004464285717" y="0" dx="0em" dy="0.95em" style="text-anchor: middle; visibility: inherit; font-family: Roboto, sans-serif; font-size: 12px; font-weight: 200;" fill="rgb(33, 33, 33)" stroke="none" stroke-width="1px">4M</text><text x="466.21205357142856" y="0" dx="0em" dy="0.95em" style="text-anchor: middle; visibility: inherit; font-family: Roboto, sans-serif; font-size: 12px; font-weight: 200;" fill="rgb(33, 33, 33)" stroke="none" stroke-width="1px">5M</text><text x="543.9140625" y="0" dx="0em" dy="0.95em" style="text-anchor: middle; visibility: inherit; font-family: Roboto, sans-serif; font-size: 12px; font-weight: 200;" fill="rgb(33, 33, 33)" stroke="none" stroke-width="1px">6M</text><text x="621.6160714285714" y="0" dx="0em" dy="0.95em" style="text-anchor: middle; visibility: inherit; font-family: Roboto, sans-serif; font-size: 12px; font-weight: 200;" fill="rgb(33, 33, 33)" stroke="none" stroke-width="1px">7M</text><text x="699.3180803571429" y="0" dx="0em" dy="0.95em" style="text-anchor: middle; visibility: inherit; font-family: Roboto, sans-serif; font-size: 12px; font-weight: 200;" fill="rgb(33, 33, 33)" stroke="none" stroke-width="1px">8M</text><text x="777.0200892857143" y="0" dx="0em" dy="0.95em" style="text-anchor: middle; visibility: inherit; font-family: Roboto, sans-serif; font-size: 12px; font-weight: 200;" fill="rgb(33, 33, 33)" stroke="none" stroke-width="1px">9M</text><text x="854.7220982142857" y="0" dx="0em" dy="0.95em" style="text-anchor: middle; visibility: inherit; font-family: Roboto, sans-serif; font-size: 12px; font-weight: 200;" fill="rgb(33, 33, 33)" stroke="none" stroke-width="1px">10M</text><text x="932.4241071428571" y="0" dx="0em" dy="0.95em" style="text-anchor: middle; visibility: inherit; font-family: Roboto, sans-serif; font-size: 12px; font-weight: 200;" fill="rgb(33, 33, 33)" stroke="none" stroke-width="1px">11M</text><text x="1010.1261160714286" y="0" dx="0em" dy="0.95em" style="text-anchor: middle; visibility: inherit; font-family: Roboto, sans-serif; font-size: 12px; font-weight: 200;" fill="rgb(33, 33, 33)" stroke="none" stroke-width="1px">12M</text><text x="1087.828125" y="0" dx="0em" dy="0.95em" style="text-anchor: middle; visibility: hidden; font-family: Roboto, sans-serif; font-size: 12px; font-weight: 200;" fill="rgb(33, 33, 33)" stroke="none" stroke-width="1px">13M</text></g><line x1="0" y1="0" x2="1087.828125" y2="0" fill="rgb(0, 0, 0)" stroke="rgb(204, 204, 204)" stroke-width="1px"></line></g></g></g></g></svg>