<svg viewBox="0 0 1129 400" xmlns="http://www.w3.org/2000/svg"><g><g><g><g><g><line x1="41.171875" y1="377" x2="36.171875" y2="377" style="visibility: inherit;" fill="rgb(0, 0, 0)" stroke="rgb(204, 204, 204)" stroke-width="1px"></line><line x1="41.171875" y1="329.875" x2="36.171875" y2="329.875" style="visibility: inherit;" fill="rgb(0, 0, 0)" stroke="rgb(204, 204, 204)" stroke-width="1px"></line><line x1="41.171875" y1="282.75" x2="36.171875" y2="282.75" style="visibility: inherit;" fill="rgb(0, 0, 0)" stroke="rgb(204, 204, 204)" stroke-width="1px"></line><line x1="41.171875" y1="235.625" x2="36.171875" y2="235.625" style="visibility: inherit;" fill="rgb(0, 0, 0)" stroke="rgb(204, 204, 204)" stroke-width="1px"></line><line x1="41.171875" y1="188.5" x2="36.171875" y2="188.5" style="visibility: inherit;" fill="rgb(0, 0, 0)" stroke="rgb(204, 204, 204)" stroke-width="1px"></line><line x1="41.171875" y1="141.375" x2="36.171875" y2="141.375" style="visibility: inherit;" fill="rgb(0, 0, 0)" stroke="rgb(204, 204, 204)" stroke-width="1px"></line><line x1="41.171875" y1="94.25" x2="36.171875" y2="94.25" style="visibility: inherit;" fill="rgb(0, 0, 0)" stroke="rgb(204, 204, 204)" stroke-width="1px"></line><line x1="41.171875" y1="47.125" x2="36.171875" y2="47.125" style="visibility: inherit;" fill="rgb(0, 0, 0)" stroke="rgb(204, 204, 204)" stroke-width="1px"></line><line x1="41.171875" y1="0" x2="36.171875" y2="0" style="visibility: inherit;" fill="rgb(0, 0, 0)" stroke="rgb(204, 204, 204)" stroke-width="1px"></line></g><g transform="translate(31.171875, 0)"><text x="0" y="377" dx="0em" dy="0.3em" style="text-anchor: end; visibility: hidden; font-family: Roboto, sans-serif; font-size: 12px; font-weight: 200;" fill="rgb(33, 33, 33)" stroke="none" stroke-width="1px">20</text><text x="0" y="329.875" dx="0em" dy="0.3em" style="text-anchor: end; visibility: inherit; font-family: Roboto, sans-serif; font-size: 12px; font-weight: 200;" fill="rgb(33, 33, 33)" stroke="none" stroke-width="1px">40</text><text x="0" y="282.75" dx="0em" dy="0.3em" style="text-anchor: end; visibility: inherit; font-family: Roboto, sans-serif; font-size: 12px; font-weight: 200;" fill="rgb(33, 33, 33)" stroke="none" stroke-width="1px">60</text><text x="0" y="235.625" dx="0em" dy="0.3em" style="text-anchor: end; visibility: inherit; font-family: Roboto, sans-serif; font-size: 12px; font-weight: 200;" fill="rgb(33, 33, 33)" stroke="none" stroke-width="1px">80</text><text x="0" y="188.5" dx="0em" dy="0.3em" style="text-anchor: end; visibility: inherit; font-family: Roboto, sans-serif; font-size: 12px; font-weight: 200;" fill="rgb(33, 33, 33)" stroke="none" stroke-width="1px">100</text><text x="0" y="141.375" dx="0em" dy="0.3em" style="text-anchor: end; visibility: inherit; font-family: Roboto, sans-serif; font-size: 12px; font-weight: 200;" fill="rgb(33, 33, 33)" stroke="none" stroke-width="1px">120</text><text x="0" y="94.25" dx="0em" dy="0.3em" style="text-anchor: end; visibility: inherit; font-family: Roboto, sans-serif; font-size: 12px; font-weight: 200;" fill="rgb(33, 33, 33)" stroke="none" stroke-width="1px">140</text><text x="0" y="47.125" dx="0em" dy="0.3em" style="text-anchor: end; visibility: inherit; font-family: Roboto, sans-serif; font-size: 12px; font-weight: 200;" fill="rgb(33, 33, 33)" stroke="none" stroke-width="1px">160</text><text x="0" y="0" dx="0em" dy="0.3em" style="text-anchor: end; visibility: hidden; font-family: Roboto, sans-serif; font-size: 12px; font-weight: 200;" fill="rgb(33, 33, 33)" stroke="none" stroke-width="1px">180</text></g><line x1="41.171875" y1="0" x2="41.171875" y2="377" fill="rgb(0, 0, 0)" stroke="rgb(204, 204, 204)" stroke-width="1px"></line></g></g><g transform="translate(41, 0)" clip-path="url(#clip_0)"><clipPath id="clip_0"><rect width="1087" height="377"></rect></clipPath><g><g><g><line x1="0" y1="0" x2="0" y2="377" fill="rgb(0, 0, 0)" stroke="rgb(66, 66, 66)" stroke-width="1px" opacity="0.25"></line><line x1="77.70200892857143" y1="0" x2="77.70200892857143" y2="377" fill="rgb(0, 0, 0)" stroke="rgb(66, 66, 66)" stroke-width="1px" opacity="0.25"></line><line x1="155.40401785714286" y1="0" x2="155.40401785714286" y2="377" fill="rgb(0, 0, 0)" stroke="rgb(66, 66, 66)" stroke-width="1px" opacity="0.25"></line><line x1="233.10602678571428" y1="0" x2="233.10602678571428" y2="377" fill="rgb(0, 0, 0)" stroke="rgb(66, 66, 66)" stroke-width="1px" opacity="0.25"></line><line x1="310.8080357142857" y1="0" x2="310.8080357142857" y2="377" fill="rgb(0, 0, 0)" stroke="rgb(66, 66, 66)" stroke-width="1px" opacity="0.25"></line><line x1="388.51004464285717" y1="0" x2="388.51004464285717" y2="377" fill="rgb(0, 0, 0)" stroke="rgb(66, 66, 66)" stroke-width="1px" opacity="0.25"></line><line x1="466.21205357142856" y1="0" x2="466.21205357142856" y2="377" fill="rgb(0, 0, 0)" stroke="rgb(66, 66, 66)" stroke-width="1px" opacity="0.25"></line><line x1="543.9140625" y1="0" x2="543.9140625" y2="377" fill="rgb(0, 0, 0)" stroke="rgb(66, 66, 66)" stroke-width="1px" opacity="0.25"></line><line x1="621.6160714285714" y1="0" x2="621.6160714285714" y2="377" fill="rgb(0, 0, 0)" stroke="rgb(66, 66, 66)" stroke-width="1px" opacity="0.25"></line><line x1="699.3180803571429" y1="0" x2="699.3180803571429" y2="377" fill="rgb(0, 0, 0)" stroke="rgb(66, 66, 66)" stroke-width="1px" opacity="0.25"></line><line x1="777.0200892857143" y1="0" x2="777.0200892857143" y2="377" fill="rgb(0, 0, 0)" stroke="rgb(66, 66, 66)" stroke-width="1px" opacity="0.25"></line><line x1="854.7220982142857" y1="0" x2="854.7220982142857" y2="377" fill="rgb(0, 0, 0)" stroke="rgb(66, 66, 66)" stroke-width="1px" opacity="0.25"></line><line x1="932.4241071428571" y1="0" x2="932.4241071428571" y2="377" fill="rgb(0, 0, 0)" stroke="rgb(66, 66, 66)" stroke-width="1px" opacity="0.25"></line><line x1="1010.1261160714286" y1="0" x2="1010.1261160714286" y2="377" fill="rgb(0, 0, 0)" stroke="rgb(66, 66, 66)" stroke-width="1px" opacity="0.25"></line><line x1="1087.828125" y1="0" x2="1087.828125" y2="377" fill="rgb(0, 0, 0)" stroke="rgb(66, 66, 66)" stroke-width="1px" opacity="0.25"></line></g><g><line x1="0" y1="377" x2="1087.828125" y2="377" fill="rgb(0, 0, 0)" stroke="rgb(66, 66, 66)" stroke-width="1px" opacity="0.25"></line><line x1="0" y1="329.875" x2="1087.828125" y2="329.875" fill="rgb(0, 0, 0)" stroke="rgb(66, 66, 66)" stroke-width="1px" opacity="0.25"></line><line x1="0" y1="282.75" x2="1087.828125" y2="282.75" fill="rgb(0, 0, 0)" stroke="rgb(66, 66, 66)" stroke-width="1px" opacity="0.25"></line><line x1="0" y1="235.625" x2="1087.828125" y2="235.625" fill="rgb(0, 0, 0)" stroke="rgb(66, 66, 66)" stroke-width="1px" opacity="0.25"></line><line x1="0" y1="188.5" x2="1087.828125" y2="188.5" fill="rgb(0, 0, 0)" stroke="rgb(66, 66, 66)" stroke-width="1px" opacity="0.25"></line><line x1="0" y1="141.375" x2="1087.828125" y2="141.375" fill="rgb(0, 0, 0)" stroke="rgb(66, 66, 66)" stroke-width="1px" opacity="0.25"></line><line x1="0" y1="94.25" x2="1087.828125" y2="94.25" fill="rgb(0, 0, 0)" stroke="rgb(66, 66, 66)" stroke-width="1px" opacity="0.25"></line><line x1="0" y1="47.125" x2="1087.828125" y2="47.125" fill="rgb(0, 0, 0)" stroke="rgb(66, 66, 66)" stroke-width="1px" opacity="0.25"></line><line x1="0" y1="0" x2="1087.828125" y2="0" fill="rgb(0, 0, 0)" stroke="rgb(66, 66, 66)" stroke-width="1px" opacity="0.25"></line></g></g></g><g><g><line x1="0" y1="424.125" x2="1087.828125" y2="424.125" fill="rgb(0, 0, 0)" stroke="rgb(153, 153, 153)" stroke-width="1.5px"></line></g></g><g><g><line x1="77.70200892857143" y1="0" x2="77.70200892857143" y2="377" fill="rgb(0, 0, 0)" stroke="rgb(153, 153, 153)" stroke-width="1.5px"></line></g></g><g><g><g><g><g><path stroke="rgb(255, 112, 67)" stroke-width="2px" d="M88.84517632700893,382.9926111065458L90.30543018080357,376.1622215568817L90.78780425223214,368.7602362833628L92.14999817075892,362.8936790386167L92.55622427343751,357.6943919025211L94.29659386941965,357.1045836391043L96.37520031026786,354.60411479249467L97.52425761830358,351.6023934785066L97.61345952455358,349.52606108214206L97.68028325223214,342.9685169203116L98.21378524553572,341.6701702009104L100.72511417410715,342.0918763614463L100.79333653794643,342.93703940726283L100.94524396540179,347.1142240906098L101.45341510379464,347.6717015764694L102.71148833035714,351.26434342801883L103.50366031138392,346.26228159827446L103.51679195089285,345.5892699308146L105.12102762723215,340.9601970250347L106.16868381361607,341.9201335611866L106.23721698549107,343.2824807156709L106.41911738839286,347.03597942711326L106.66589896875,343.49439614313167L108.08504845982144,343.770909213487L108.50339607589287,338.7824857823884L109.22835581919644,337.6464230816113L109.3555540078125,331.92457409724324L109.60319031026786,332.29328702131227L109.94344740736607,331.5937036409446L112.42268540625,334.93557060700107L113.67228911383928,332.3861710250971L114.40618458816965,341.9872406427509L114.50478843750001,346.7892449140792L116.12262196540179,356.8738797015318L118.73713916183036,352.76250879444444L120.39374599218749,349.58885341142195L123.38333078571429,352.9219367870952L123.66500056808036,352.61177356908524L126.05542517075892,348.75313725746565L126.89678252343751,344.05344177199913L127.0514872232143,340.2933447612351L127.13641551897322,339.39927503225215L127.70581584040178,336.3090552575449L128.05625190066965,336.45822629480074L129.103441875,333.83111329455505L129.4442428861607,334.16890525394433L130.36027186941965,340.70709364009605L131.54981192410713,350.4276235815777L132.88962766406252,350.228477001074L133.19484115513393,348.37802947082815L133.87286888504465,342.52407179979576L134.39176290066965,338.69921419911816L134.76232378125002,342.7111449649192L135.574931390625,348.005379977393L136.06313311272322,346.87344817246793L137.25873392410713,344.006821328315L137.85090093415178,339.919336608724L138.42480797209822,348.2488187329677L140.14054603124998,351.6946798121626L140.35857786830357,345.27144809002255L141.28657296093752,345.7232365496662L143.9299176026786,350.39652295677627L144.02704511383928,345.54439039933396L144.5377804185268,339.5033212318195L144.9332836439732,332.066255246118L147.64617158370535,326.2670841646207L149.90527979129462,326.06334592253535L151.1072521674107,325.2240803669796L152.9622322265625,320.67444240883697L152.98849550558037,318.69388641740034L153.2053618125,317.5023578935434L153.358745578125,317.5511471458585L154.1384852377232,312.59825315797485L156.50287966741072,314.00328284310945L158.50588205357144,309.5412276852569L158.5297365703125,304.84793533617164L159.50031236383927,301.7457356369873L159.65843595200892,306.08815564782134L160.38160854910714,311.1275295644196L162.13953879910716,304.9532296554689L162.18950119084823,299.287616676337L162.5316231361607,295.6383730926394L162.63978433258927,291.777089435729L163.76149053348215,289.6991726162752L166.09604739174108,288.10396079059035L167.11316668861605,287.5935006731925L168.211950796875,292.8331486082915L168.22453852232144,291.25806588452576L169.78743672991072,291.30768583235687L170.47447789285715,288.0449537451714L171.05211462723216,292.6729670237015L171.864877640625,279.60276314297437L172.24623910044645,279.8908821605055L172.44430152120535,277.35644728833125L173.3125437689732,281.3531905961234L174.4136589375,283.3777058611358L175.78067038058037,282.7467804153725L177.61661344754467,280.0044079176311L178.61671600446428,283.99035223897965L179.42155341294642,275.486443578168L180.07020978348214,273.45918832695685L180.93472233482143,280.0264224932928L182.72000369196428,276.99063462624764L183.35296425669642,268.2180989027597L184.0501843828125,258.2600897312436L184.57692630133928,257.26084931375624L186.05000098660716,247.4882633152053L186.68257304129463,248.8481974174548L187.87957248883927,248.0512453691134L190.96504156138394,248.30080811627474L191.05167930133928,247.2540467901842L192.0172044642857,245.84810469021872L192.46500114174108,246.91551632778265L192.87316979464285,250.16889738954322L194.4704899921875,254.29810248309232L194.84765554352677,246.9821516870952L196.800073921875,242.15407001491297L197.08329774441964,235.71910503002667L197.14196276116073,232.99316001012036L197.59644181138393,229.19844321309782L197.6143909754464,236.14780766724985L199.19671468526786,231.38582333373563L199.68320696316965,221.61435458221035L199.96106934709823,222.45295038825674L201.26459824888394,219.29411901955922L203.3189616629464,212.38804081539394L203.84904476785712,207.05830160983464L208.3642308046875,203.15717341906273L209.32866813950895,190.67953581815107L211.1547430513393,188.66888237957272L212.13876129241072,181.68863023570464L212.46246786160714,177.13603572886208L212.72245878348212,177.68186588319952L212.99169624441964,169.9499042513594L213.4031283816964,170.95084711095691L214.15466221205358,168.5099599725485L214.19125985825895,164.12515630773547L214.41511934598213,166.75851285021972L215.85416055133928,167.35159077295833L215.94794687611608,168.98325316150326L216.93818127790178,163.40658645025363L218.78818840848214,162.56989299290558L219.12145232477678,164.89897205538094L219.46155401785714,160.001427218966L220.38076878348215,154.11922888569225L221.13789715848216,154.01036166995513L222.05882136830357,150.8446685016135L223.10336947433035,145.73462397098382L224.32624369084823,144.91244087409842L225.02369692299106,147.08047581825153L225.08539231808035,147.13053521087565L225.1698544017857,142.88753675596553L228.0680616328125,135.62267306627146L228.26317137723217,133.06299747134298L229.82342771651784,133.36957629128338L231.9222366796875,135.87337127052973L232.6140953671875,139.05847995061262L233.49616857254466,136.74463686767083L235.27049394642856,128.8937429604758L237.30007041964288,130.52288530809315L237.61421964174107,131.55194572244199L238.46948565401786,128.97427493122504L240.0401540625,130.9165984041475L241.70686215401787,132.40745942171282L241.7692568671875,130.0127417912155L242.01059930691966,125.5959688083386L244.70266310825892,124.08403718122285L247.3174134107143,117.71214860636749L247.61780937723213,108.84925417867308L248.55730436718753,104.22108613941677L248.72630623660714,105.45195014551169L249.42251623660715,103.33003416120918L249.54272124441962,98.11557102250981L249.9167787154018,102.58164714851321L250.70187981361607,99.15924704772905L250.72386948214285,102.04714708886685L251.2681720546875,99.58239361256076L251.88178481919644,95.87765984701883L252.90869456919643,96.06071201457794L255.6817238638393,99.3425093737778L258.0213313526786,98.73479805688355L258.0932057109375,93.47783396323757L258.67907885825895,95.0209791380583L259.2191078203125,88.65923520711418L259.61196917745536,86.45334126780317L260.1216943560268,77.83792703493343L260.86794444977676,77.17206249510376L261.41069298214285,80.47356228093406L261.4502433046875,86.97219388373777L261.819560953125,89.10983655840624L262.32314767299107,92.07080248189341L262.8481024453125,91.36175242100055L263.4457862979911,90.95172993210078L263.54687661160716,85.29242306921574L263.6757065424107,87.81429829576567L263.67889232477677,88.78048154814206L267.88490206808035,89.97378234468432L267.97977622098216,90.70907773655681L268.35196884375,89.98285329566028L270.19925640401783,84.47327869594595L273.3729172566964,79.80811270285052L273.7115426116071,81.52976961937269L276.80532579910715,76.70030926391854L277.35421279017856,73.6911836141378L278.5915395803571,74.5760464091325L278.98020502901784,76.37185425911144L279.70889446875003,77.81497936371004L282.6926516116071,77.55772846319705L283.02474999776786,82.5901113746836L283.0337634308036,79.26368789659134L285.6043789921875,78.20083415974135L285.64253067857146,76.50915247336197L290.51436893638396,76.06833626854551L292.09032108147323,74.62803893747437L293.1675817332589,75.89976593544091L294.5128366138393,73.60484305612252L294.64189965066964,68.8680236148199L295.77906855133926,74.69497742075602L296.8111843359375,72.74723332896934L301.20103703236606,78.17636771023356L304.29987085044644,77.76923705911706L304.7426168973214,75.14411067466791L305.1841197120536,75.25740184387251L305.30766590625,75.5472676245426L306.57871536830356,70.81337487920565L306.9246447120536,65.77114481150667L308.5304344285714,62.3498937163318L308.77744911495535,60.19584324149805L308.83502630357145,59.69954555343408L309.41981162276784,58.358231299009425L311.2730045357143,61.22534791381084L312.00153857142857,61.6645082199647L312.4435075982143,62.805505234724194L314.2939809408482,68.22697514114849L315.04636949330353,67.18196638916395L316.99513587723214,70.50278332785338L318.07907890178575,65.06476751769046L319.0646511830357,66.30773772402173L319.2276699977678,71.88922238670644L320.21541793526785,70.77169107693716L320.3210926674107,65.51252738394963L324.10238322991074,62.158840895959784L324.11792363169644,61.52673091989281L324.68817867522324,67.63192483982662L325.26534919754465,65.25661092441257L326.101500515625,64.75054388555667L327.4019213370536,59.00419058253588L328.0219833683036,56.97882739583827L328.4891278459821,57.843112156233644L330.4403806941964,58.417230813854125L330.5706092611607,59.27952876500541L330.6689800044643,58.45643574088615L331.3532238950893,58.876775503872246L331.7095653080357,59.54263324794645L332.7533363939732,64.12063713119412L333.3938340535714,62.54573387182543L333.52305249441963,62.618464500719625L333.59376132254465,63.394151864857946L333.8221275267857,60.732871483494044L336.91847488058033,61.69570623296835L338.52869361160714,58.86250355448995L338.54881843191964,56.40712789699772L338.6074834486607,60.56333918893605L339.05636795424107,61.50663189192031L339.2311197723214,62.43528109947371L339.50781662611604,61.955629721955724L340.4659600982143,63.03524571710923L340.76791010491075,58.60247422261318L341.90002837500003,58.81820343814912L343.3913630323661,65.67278477734426L343.91725022879467,66.72482595114785L344.53645753794643,66.71845193599762L344.6383248716518,65.19241089419607L345.6172924821429,60.124055077203785L347.9518493404018,54.87079506045074L348.650001890625,51.604294510884976L348.8325239095982,53.66663385089547L350.93568418526786,49.25282883212019L351.50834799107145,52.72302848470252L351.5887695703125,51.06191241560021L352.3920529386161,51.45859445426971L355.58513929352677,50.70863822058128L358.31185819084817,54.03387020552388L358.6654023314732,52.807537620260135L358.80005991294644,51.74571275154261L358.99851084374995,54.11195022137569L359.17380657589285,60.15020867563572L359.33900104687496,56.55784008961749L361.273159453125,56.12636143097743L361.4751069743304,59.49043862445723L361.7211892366072,61.814111573088724L363.54128109375,61.872770810595014L366.72481010156247,60.99808000602L366.8966092433036,62.009233219446145L367.3239702924107,62.094260393000745L367.37875020870536,56.35332915180291L368.0419368549107,50.77711871618721L369.80041101897325,53.72947891994075L370.10344885379465,52.33475617443529L370.4568375904018,53.6449993822973L371.41156217410713,53.198692338784646L372.1718763314732,52.58202632357292L373.18223555357145,49.51208437672943L374.2971039776786,51.541663427286814L374.699134171875,52.19368274301967L375.3915367734375,50.86218177867478L377.1242138705357,53.30267228756383L377.4236774129464,55.81632793167463L377.65375306138395,54.00972908194249L378.1375257689732,49.700831094228334L380.9044943069197,47.23692647206233L381.15624881584824,47.76355145444435L381.63364995870535,42.077469848552994L382.56856053013394,41.716456393368794L383.4933698404018,42.24576082544944L384.4119629899553,45.068656122822965L384.7283655703125,49.40801972400301L385.90042267299106,47.078668739407505L386.0148000301339,45.260086709665664L386.9309844174107,45.72729635747866L387.0570170758929,52.653571838637966L387.67544736495535,53.5163559297727L390.20581328571427,49.507803066572095L390.6550863013393,51.39679722468103L390.87280733035715,47.653335015615184L391.28066517522325,42.39544925104802L393.8381490970982,46.03801734456396L394.76629959375,46.996221809458504L394.92131510156247,46.30758097082117L397.09759296763394,47.09921594548018L397.5617847689732,44.703878352545026L397.78517804464286,43.16186286727777L398.01261182477674,41.477479605040514L398.4478207767857,39.73408157679364L399.5692938716518,36.645966662191746L401.0687872399553,35.21854392148926L402.03174823660714,41.05077639466824L403.9694809352679,41.70125149445777L404.51860103236606,43.20054530109598L404.6530255078125,43.24260771914827L405.0111540669643,41.72726488625607L405.14946364285714,48.95392933301606L405.7014587142857,47.324240554272954L406.0739621450893,45.9612884624003L406.9701771160714,47.008867004966596L407.7775009888393,42.92758203781117L408.0036138348214,44.70581208258045L408.9618350089286,44.69216797661126L412.15204638950894,41.45011688479853L412.4747428325893,42.70615620620309L413.38408944308037,47.107265186367535L413.8231834955357,46.23107980732763L414.31558112611606,45.086328422583286L415.58530965401786,47.437537545805945L415.89192178125,49.12653461046675L416.3763161049107,56.587767223895874L417.0212427790179,50.796528934146046L417.4032258549107,53.355421923561934L420.24494372544643,56.83180385507266L420.2872913203125,54.105074355420456L422.0383060915179,54.077551191184504L423.4313477075893,56.36305844714933L426.0171928627232,55.12939628545994L426.57462707477674,53.352323199785175L426.63166034933033,51.97476532099754L427.00587322433034,51.10190114687374L427.2177666026786,47.65031787642231L427.9147536227678,46.788612436361255L428.15897103683034,43.26106269765465L428.3140642466518,34.405540183453304L428.7729723113839,35.09825722000485L430.70169157700894,36.46661273019699L433.70106682366077,45.390428169387086L434.10115446763393,47.782227846636374L434.3780067254464,49.7576658413045L434.6816661763393,48.55799645783368L435.59909379575896,44.86014140607404L437.4930802633928,43.74388571549644L437.7700102232143,42.33415714875211L438.7335151339286,40.92669904053495L438.7401198046875,45.39792648172608L438.8091191886161,49.01904497795291L439.48636989843754,44.14708841842796L440.59680930803574,45.90474608264273L441.0240926551339,46.59732424038181L441.30483001339286,47.569756326814755L442.02963435267856,47.283866050831655L443.06143932924107,47.48419439553596L445.6904090993304,44.74878200339777L445.98295716294643,46.97588252105323L447.6089494017857,46.38627717239069L448.73228734486605,46.30227971825925L448.95847789285716,46.00646769169117L449.3844403058036,44.587831662203L449.50285816741075,44.48729127733322L451.0420572622768,42.3243590838783L451.9115427421875,42.45414787348693L452.7360387589286,38.73269677016402L453.04824543080355,41.71629901769371L453.2667434799107,46.777677008649626L453.78594830357144,46.56520847093337L454.06684106584817,51.89746712693593L454.268322375,52.049795677256796L454.39140235714285,48.89606258550662L456.1371333917411,57.87706693394489L456.43512059598214,53.2088859461427L457.4294732042411,53.597843372240085L457.4970739520089,56.33567069007116L459.61981513392857,52.98732847557982L459.88516749441965,52.51425944794437L460.16978995312496,55.25162989798562L460.32752503125,51.745043084648316L460.4614055926339,60.109655569097995L462.27916638950893,55.763384283464454L462.61351813392855,52.37172091554106L463.8513111361607,47.349426292979764L463.91673622767854,46.62203533141139L464.30050644977683,57.970471816764835L464.59056804910716,58.05379368265991L467.56531175892854,52.78825627486333L468.067422140625,46.131296071373804L468.46471251227683,40.234922606915966L468.62128206026784,49.02242680165829L470.0294755680804,42.514217839031744L470.59429147098217,42.55692236692853L471.60162031473214,44.38157856203035L472.65471564174106,50.190737664992945L474.0878514944196,48.72004111313448L475.23411153013393,43.9286736528367L476.8141818816964,40.64476253829716L477.64116436272326,42.13229129665948L479.1408908370536,38.32624887747654L479.69949057924106,38.270274347647735L480.19111118973217,42.144579596984215L481.0395394252232,42.23604430808056L481.982919515625,44.00891162596886L483.6382831138393,52.90401357048945L485.5996372232143,46.08491278357659L485.6516198671875,43.68457413250092L486.049298748884,47.47649807400614L488.1669115982143,47.452981181678055L489.74550561160714,45.61404220242253L490.9153093560268,41.61709140125076L492.0752449453125,40.28172903683307L493.1552251674107,38.09261686822987L493.5581100837054,37.26700807588272L494.6020365736607,35.58239935697696L495.1659977544643,39.01026047755546L495.74246895870533,39.123347427759725L496.2506400970982,38.78857311432691L497.5778681116072,41.325372842352635L497.72892081696426,41.22071943553375L498.26646331473216,42.696444761531275L499.35118335937506,41.15783860188862L501.102586640625,41.24444890580295L502.66564025223215,39.656207890206375L504.2256634854911,40.108356834168255L504.3555035424107,43.985251808734745L504.666311578125,46.16883842513719L505.2021446316964,44.10325379980212L505.3166773928571,45.55163353453169L507.82303339285716,42.14775631721886L508.37331902008924,41.32037588354807L508.5770536875,38.95684887883554L511.07975769308035,41.11848533246908L511.5578581540178,41.55975957945186L512.1204206986607,45.26370472777046L512.2466087611607,44.02802162065632L513.0867228816963,43.738850230332446L513.5021178214286,40.297302260681995L513.65721103125,40.06697283958197L514.0907105390626,40.38136307696345L514.9582534687501,37.50805402358252L515.42819521875,40.58325743166512L516.0845440881697,42.66345614979981L517.5568417533482,41.67189386042211L520.4172858080357,41.352489873188745L521.5175462544643,43.13652368260859L521.7703885915179,49.151657395946486L522.4045146863839,46.06516394089664L523.4032963091518,46.3702220111768L524.0478344732143,43.96006444213232L524.4913575401786,45.39481508825177L525.1439767131696,42.536228390486684L525.1972802912946,39.81876527464523L525.3832211986607,35.676195653248946L526.3537969921875,33.11020331062408L527.9708535,35.723407151520554L529.2150180669643,34.29085586724303L529.7727630870536,35.56627733753228L530.0984122064732,33.45611980474872L531.7311645200894,35.62408808165297L532.2033596283482,36.75837685341444L532.2477274754464,36.85697587390584L532.2601597968751,38.298925006070476L533.3723086506697,39.871910905582695L533.3834977399554,38.61796100596028L533.4752638125,38.29793238051285L533.5451956205357,38.72540030962269L534.153990860491,39.81926346211463L535.884803109375,43.75509167026542L536.6782183225446,42.961882021515024L537.2988242678572,41.50038330275889L538.659930358259,40.708063523921L540.9536159598214,42.43451325810168L542.0088869430804,45.28936475687196L542.0335961819196,46.71698407310622L542.1584633102678,45.79608083072014L542.2960735680804,45.25681497814425L543.4633131462053,51.74301088144122L545.5181427723214,47.14316110841227L547.9880565301339,45.33098045533332L548.988780703125,43.97047257380042L549.9965757589285,40.95820051158551L550.1991448962054,45.85722328921226L550.5383141651786,43.59490937630392L551.0357624263393,41.825484385808785L552.0028416294643,41.1393478701278L553.9633410167411,43.25271784383174L554.2971488470982,43.815990479136424L554.5089645234375,43.35332441913681L555.0215646763393,43.024861702820445L555.376507453125,38.302344787518805L555.7577135089285,39.31485758813269L556.4487951763392,42.4553751070662L557.8031411919643,41.2715945116173L557.8166613415179,37.7470404904279L560.7011930189732,40.113843787606015L561.177972545759,40.978541117426126L561.2503131160714,40.40508736095139L561.2811608136161,41.929743526151256L561.5557597131696,47.260077741758415L563.4365368392857,47.66623741389622L564.5254527924108,43.39431324959843L564.5649254129464,43.19156525421978L564.65459353125,40.36052255860042L566.1500463950892,38.9646418780571L569.6510658113839,39.96991418603942L570.0292414888394,41.63619681361426L571.4035569207589,45.10143933107936L571.9146030334821,43.551013334675524L573.3793636037947,45.15043987916621L575.8163317098214,41.64561002482347L576.2673918716519,38.716527215873185L576.2974625491072,42.09823371270106L577.77815203125,39.24125832636203L578.0377544430803,37.614260246905054L578.36122790625,37.55634443485928L578.7916193337054,35.21444413919607L579.1313325167412,37.35427171913273L580.3632978683036,38.867943589905806L580.7539835691964,39.60090058725669L582.1614000569197,41.44669647917427L582.6560510457589,47.21166073405965L585.3338176774553,47.06869979162391L585.3647430770089,42.86494152275226L585.6868956060267,39.256350782136195L587.0609002299107,41.81835664957369L587.1107072176338,39.207975057360414L587.7860153772322,40.296055567738904L589.0961489497768,39.77438523330494L590.4219783281251,35.5254102481064L590.5288185904018,36.31494497399783L592.4885409575893,42.25815190586448L595.4252106830357,41.777561105990415L595.6673301428572,44.277883998317726L596.3406957522321,43.46767709077451L596.6002204620536,43.6723938164795L599.0330703616072,42.38791619759274L599.0462797031249,43.99570567307052L599.9404744218749,44.20148359058041L601.0617144107143,42.329439588528764L604.0748429129465,42.70962806395044L604.7564449352678,44.57979919951243L607.4892245892856,45.1773209765838L607.6593142868304,42.72268872859375L609.972347688616,44.19697372915182L610.3418207410715,44.29740777970816L610.497768672991,41.428142478954506L610.8837922533482,44.174578878793476L611.9382862165178,41.16130767624644L613.4059994631697,41.16453106531357L617.0310312857143,43.357513371537955L618.2536723962053,40.583970215662966L618.7315397511161,40.868507501876074L619.4689318158482,44.696429517583645L619.5701775334821,43.28221571184522L620.9450368794643,42.75192283421619L621.0634547410715,40.35508418106925L621.5388356316964,39.18287942905339L622.373666015625,39.052322525176336L624.2590275602679,42.083455539062L624.6528990435268,42.087999630224246L625.2883460725446,40.544303188523884L625.4653512488838,38.38736111466193L627.8346409051339,38.33709056332989L628.2987550044643,39.2338588520311L630.9943153962054,38.784143069936654L631.7927035379464,37.93455404564048L632.0507519095983,38.98777785717884L632.0957413727679,36.82667026853119L632.7938162209821,33.61136493949536L632.9407507198661,30.81958847259239L633.4237464073661,25.4834718530556L634.5947933839285,23.37588137190977L636.7772874107143,29.800492046685516L639.3705142566964,31.783367899585976L639.972549421875,31.381043341580405L639.9952384084821,33.60600174174577L641.8256646328125,34.49330004299377L642.5405231149554,33.726966179567164L642.8165983526786,30.846533385243074L643.3484686037947,30.997625725528412L643.6163074285714,31.369066881387106L644.2836122812499,34.41368007600203L645.3875247220982,33.485861148356605L645.5607225,38.52049563560422L646.4842108761161,40.172394509582034L646.9299095993305,39.67114915487631L647.493793078125,37.11192048738368L647.6524605803572,33.97534718473727L648.1680134095982,34.19371684996263L650.9300867209821,31.053023292286955L653.1035673147322,27.0966900647988L654.9870640111607,30.6987737704364L655.2125552410714,32.293879913413335L655.531832795759,34.85839523245793L656.4445982946429,38.49664359227743L656.6731199029018,36.70055236924429L657.8621937455357,36.82886562433827L657.9115345212053,36.48063030312052L658.0145673850446,40.56349905069347L659.2405496819197,40.26144297071835L661.1100600167412,39.611696872302204L661.5249887444196,38.862358329445726L662.745065688616,36.9654687100654L662.7902882578124,36.796861242771534L666.2805070948662,38.002042121506065L666.8495966082589,37.755358501129436L667.1283914162947,37.26597552923604L667.5180669910714,35.52308413051162L667.9281781941964,31.82464642733412L668.5587299966518,37.043467256308205L670.0610206372768,35.53211492290548L670.3330553705358,38.821681508942085L670.4248991450893,41.46222248834262L671.8494100747768,46.99174269328034L672.1468533649553,44.45444785030303L673.7826360569197,41.64160179830881L675.4830668203125,39.976691434679736L676.6433909196428,40.07599374604095L678.0539931897322,39.9213853593816L681.5027191540178,40.45443286865158L682.7479715491071,47.749064941161514L682.8888452912946,47.195642829699175L682.9847295703124,42.22927618087358L683.4296512734375,39.10749754000532L684.1849925022321,44.696690399558L685.0383159642856,47.43996023743202L685.2287635881696,51.10821029352231L685.6406619375,49.625704472916L685.6968404899553,49.928650202478266L686.846053202009,48.767704879542435L686.9146640758929,51.18779625837027L687.7723388504464,51.98883825257635L688.5389468705357,48.21427017939268L689.2185286406251,45.21495103273537L690.1697566339285,46.32142428901787L690.417159830357,41.01890832540987L692.0134699017857,39.91695390031811L692.0797497154017,38.46111194837954L692.4614219832589,37.06961480894774L692.6096774162946,38.508469976735825L694.1361333816965,39.01531014581736L695.778132234375,39.15758092991681L697.3288312265626,36.967618126807L697.536062484375,36.80097528071199L698.5496851908482,36.610818485983174L702.0817854107142,36.3839672506396L703.1157660435268,34.88674556259663L704.4453251183036,32.102195484196L704.5919488091517,33.711242013577525L704.7079579084822,35.6411196751626L705.4164448258929,34.900110782244354L709.4918374921875,37.63262332046715L709.62944775,36.95133280249194L710.5798987232142,39.41463222099744L710.5809865513393,37.550483509647094L711.1306505624999,35.909396550454474L712.5325502075892,37.24714284690044L715.1696009866072,40.77110302568929L716.0209818984374,39.392266064655466L716.52845371875,38.25871510010694L716.8905450803571,38.774663043830685L719.7735227176339,38.477569447210534L720.8984147008928,36.046902321379264L721.2504048013392,36.61331943400775L725.684625344866,33.04028428179478L725.9354474296875,36.2486318443811L726.4194532433036,35.03074152744578L726.6944406529018,32.57395771246563L727.8656430334821,32.98606514534482L728.5254107912946,37.17916553180322L729.9226483158482,37.07547073492132L730.0186879988839,35.163321953842825L731.682987328125,34.76937468038389L732.9791345390626,33.100638675581564L734.3874057488839,31.24317329398091L735.2400298928571,33.72303263085117L736.2412202779018,37.15959338297073L736.5423155625,37.38310708323816L736.802306484375,36.71850594933591L739.1832514419643,32.841587138619126L741.42666384375,33.533019199725885L743.676370108259,35.98472651700726L743.8520543504463,34.9175115145091L744.2435170714285,36.271702807493476L744.7087967008928,36.04701638646726L747.36402975,39.69232647282124L748.6130895435268,40.24793821225358L749.0082042589286,39.83900604923405L750.234885873884,40.08071693960698L752.9731823705357,41.03852943089704L753.3412567868303,41.907088765359724L753.9722748013393,45.242679259663305L755.7263976529017,49.23210561552486L755.7448130290179,44.02102104408617L756.0476954598215,41.469939622744505L756.3681385446429,46.39586029804909L759.1694513705357,47.896611086187065L759.2114104553572,48.821743023917904L760.2740631294643,47.24342167896103L762.0768274386161,44.35378145632801L762.2150593125,41.67476810024309L763.4940343794642,35.39498249853557L764.8605796104911,36.63322923155556L765.4013855926339,40.787679004446076L767.2871356473215,36.3201538084153L768.0585611919644,34.55399177536991L769.9493618772321,35.377234577064726L771.3789234374999,35.500315493683L771.8612198069196,33.82028893974626L772.3006246674107,32.32009278891248L772.6971380189732,33.17327744768275L773.0967594508928,38.35985227430831L773.3172777522321,37.40978100462734L773.5222556517858,36.699160081259265L773.691568329241,34.95273968228645L774.5448140892858,35.344521171640906L774.8932298973215,34.864459329280514L775.5827575245536,32.8325017590787L776.0221623850447,33.80463517343727L776.2569778560268,36.37180620698714L776.8991849598215,36.36982133125127L778.1900484341518,36.99900201586768L779.7140179352679,37.53866681121097L779.7468081830357,37.08256238192164L780.2720737633929,39.76694735121607L780.7964846216518,41.197664345358845L781.2880275301338,40.766733046416476L781.3428074464285,42.12191365881286L781.8408773236607,46.03730450569409L781.8445293180804,46.008863990297456L782.4782669029019,45.291302579872266L783.0652278783482,43.070301718896594L783.7678871450893,39.54979837050908L785.6466440189732,38.12310716717148L786.3511681339286,37.06129777597347L787.348318014509,39.19812101496822L787.8843841741071,39.692616627800966L787.9937886026786,38.564797686090905L788.6141614419643,36.736940687935196L789.123653514509,41.06826310637841L790.5867046406249,45.656969265009984L793.3393760089286,47.83146232912226L793.7032545167411,54.262056574418416L794.1998480558036,51.32556090131939L794.2154661595982,51.81838958561851L795.0418270245536,48.60964945078241L796.2429446785713,45.72583490944188L796.37068678125,46.73719266205055L797.2707091506696,48.18048460601984L798.1091915290178,45.34685152148584L798.1098131450892,43.941937928004094L798.4782760714286,45.51231363662326L798.8285567276786,45.28963732439875L800.1204303281249,44.16506295934198L801.7778141785714,45.54093781101606L801.7894694799107,46.301848149203465L803.9979936796874,43.32708171836789L804.0866516718751,38.997868625579336L804.3196799966518,44.58216594080773L805.590185544643,43.71325266536589L805.6009084218749,43.02992199084374L808.3155058058036,44.21083136098553L809.4086176674107,43.71213282026426L809.8051310189732,40.27867518168748L811.0482854598214,36.7579663713937L811.2419965680804,45.121621491127414L813.1187331897322,44.08423542150912L816.021291733259,43.65630132014801L816.1648850457589,37.28804312749901L817.0207726741072,36.864985512131035L817.836954575893,37.647354506201445L818.3880949252233,37.092068652110825L820.2120718828126,39.60370123211349L820.6027575837054,39.93914075711415L822.1649564732143,41.812867457223305L824.1155100033482,39.51852936311753L825.5993852678571,41.68802234303311L827.8807162500001,41.58867841062033L828.7146919118303,41.61310894248553L829.2288461049108,44.330929220181034L829.4078715334821,44.14872691191149L830.8621423325892,44.549300400073626L831.20294334375,43.100112469717104L831.2937769921874,40.373303629338096L833.679927984375,40.41868826022096L834.5582714933036,35.61770848171192L835.85449640625,37.83888976205412L836.0478967064732,38.518439824017086L836.6646175513393,40.707284265066924L841.0745173660714,41.80760826532499L841.1862528549107,38.81246612123214L843.11683696875,36.774967213086796L844.9467192790179,33.957660557121066L845.0885254453125,33.72528041942124L846.6771430178571,38.63176121984489L849.812341376116,44.33333027104193L851.785739296875,42.995899732428036L851.8024452287947,40.65705484987677L851.8763398392857,42.78198997212555L852.2594884453125,42.12879445420193L852.3224270725447,43.480538271796625L852.7329267857143,48.873299883947304L853.8100320334821,43.64966545037068L854.1274447399554,43.7213126749328L855.1873001417412,44.040199515861765L855.3510182745536,42.99192191890277L857.5541810357142,45.049233774593674L859.1504911071429,47.31015453676477L859.6533785089287,47.856196272691854L860.2151640334821,44.75320410753945L860.675548436384,42.76116607686404L862.7193443772321,42.260004982157724L862.747705610491,41.490746657692725L862.7577291696429,41.50136271845768L862.9334134118304,42.49212016210137L863.7556560703125,44.5802177933469L863.7670005636161,45.702455026913825L863.9924140915178,48.04024088462922L865.2347138102679,46.570459309265864L866.6861873370535,47.630964672601934L867.2338310959822,49.85729487422043L867.5393553950894,48.423172210716686L868.0338509799108,45.288802031726426L869.4725813772321,48.23845365846223L871.4064289754464,48.20190149946262L873.6207031238839,45.41575091682477L874.6392987589286,45.63481226605262L875.9046759743303,44.10225468192165L876.9202412310267,48.9504698221975L877.7138118482143,48.42593637030074L878.7613903325894,46.92169971879917L879.7214763549107,48.923811343642875L880.160648109375,50.92693609502538L881.1945510401786,48.352880663129646L884.1647103314732,49.82152530229326L884.1905851004464,52.05586905698967L885.0374592957589,52.92396217521821L886.6598772421875,49.914059037659925L887.161909921875,53.51283387716162L887.302162047991,49.130256248915586L888.0099496473215,51.109486333055834L888.6024274654018,50.26293725293757L888.9436169866071,55.345682272290276L889.1604832935268,55.752068641165934L891.2591368526786,50.8788449878534L891.3374604776786,47.22060816725419L893.2884025178572,50.46641146056117L893.3476891506697,48.21662003606369L894.6453904017858,44.7288193862423L895.3360058571428,44.8124085744846L896.5929912555804,41.79960192367462L897.0881861584821,40.35203371942064L898.8308868147321,41.24521385908144L899.38365890625,48.40587926292431L900.918506688616,47.17467266387949L902.1929750390625,43.082532129821864L902.6743389843749,40.481459759185896L903.5416488080357,40.27443469882821L905.8825772310269,43.33780043698005L906.6123544988839,40.06967552643342L908.3112312220982,43.192063339084996L908.3902541651786,49.47650501849697L911.1642158839286,49.42509849645653L912.8104106450893,51.4462169502414L913.0319390725447,52.58572804246237L913.2300014933036,55.80210866382825L913.4944214296876,51.69965087454405L914.2146413504465,48.741812832203614L914.2953737377231,51.89607622706663L914.5190778214285,49.804349079797866L915.621669328125,52.05024638419961L915.7334048169644,50.60205822186165L915.891373001116,54.62165613330596L915.8990655,56.186456605253184L916.812841125,58.28543386177823L916.9028977533483,60.05933162463988L918.1455082801339,57.59306060229375L919.1341109397322,57.086048632896976L919.1893570680804,58.21356194022263L919.7268995658482,54.67440662386388L921.6731794854911,50.32938158037164L921.8773026629464,48.15165759660322L921.9020896037946,47.496281464398045L921.9999164330358,48.831101213693785L923.4696499319197,48.24103945636766L926.2962936127232,49.18235894317641L928.1118010513393,50.70956576248178L929.756907984375,47.270057795684885L931.2225232767858,50.80858476499026L931.2531378683036,49.8637688282276L934.1688280513392,53.29727076555446L935.0468607522322,52.31679228993381L936.3496126339286,51.42343438507811L940.3995190412946,49.6227575559751L940.9646457522322,51.9279115120042L941.3948817756697,54.45163533524424L942.7323664553571,57.19067714560633L942.8387405055804,61.78975389757638L943.5011501316965,59.97472035057449L943.7760598392857,58.60293458276677L947.389669466518,57.80620684284914L949.9950178258928,58.44710897174639L950.101547280134,57.086911058164944L950.8418143191965,53.99783138254266L952.0304996517857,55.35973078901758L952.0391245747768,53.72546903367986L953.0200347354911,52.14466905018605L955.6998993214286,50.16157702939446L957.1355216383928,51.14470880140254L957.8059345714286,52.284982491408925L958.0172063337054,51.96541940758637L958.5991166785715,51.736295448859615L958.9542148593749,51.127615784899426L960.3585232667411,53.19478866521204L961.46383434375,60.68846469452921L962.5553921651785,56.924900650429294L963.3876583828124,55.33447957948652L964.7865276495536,53.06845928919956L965.9791757845983,55.27736085329575L966.1261102834821,52.86504339912825L966.3613919665179,51.357930944278166L966.6958991149553,48.71988862825578L966.8617152020089,47.69686904011684L967.3171266763393,51.94631797837034L967.9574689319197,52.17175641669284L968.4251573236608,54.15612545500954L968.7975830524554,57.020596298303296L970.1210813705358,54.55101347663093L971.1099948381697,58.06865704137554L971.7434216149554,53.859215469984015L972.0728004308036,53.67498702671352L972.6418899441964,54.09717277261593L973.3383330502232,55.1410197732685L974.5548357020089,55.201888618297446L974.7650196361607,55.34894533906542L977.6321460636161,55.7209475005004L977.8017695491071,54.170300919559274L978.7404098169643,55.74124838411545L979.4655249642857,56.79980897187978L979.9433923191965,58.63447326087788L981.4958784575892,55.638999221037494L982.4142385011161,54.488114698180105L983.6920480379464,51.46841890927043L984.6133607578125,53.759251519170476L985.8826230736606,56.75279210736518L986.2554373125,54.93466280881699L987.1852972533483,54.29593039658974L987.3891096227678,55.93279347346078L988.1122822198661,51.89510360658844L988.865136984375,53.10723942518776L989.3415280011161,50.797871847157026" style="fill: none;" fill="none"></path></g></g></g></g><g opacity="0.2"><g><g><g><path stroke="rgb(255, 112, 67)" stroke-width="2px" d="M84.11949554799108,405.5611529558897L85.75830861830357,372.65541688203814L86.10983250669642,389.8090645611286L87.95059309821428,382.15082736015324L87.96108286941966,362.3964389920235L88.84517632700893,362.542738366127L90.30543018080357,349.4558901548386L90.78780425223214,339.68566443920133L92.14999817075892,339.765634059906L92.55622427343751,337.1370181560516L94.29659386941965,354.76711066961286L96.37520031026786,344.67604022026063L97.52425761830358,339.6663843631744L97.61345952455358,341.25995230674744L97.68028325223214,316.8374350786209L98.21378524553572,336.49247937202455L100.72511417410715,343.7746225118637L100.79333653794643,346.3111524581909L100.94524396540179,363.7971073031425L101.45341510379464,349.89885102510453L102.71148833035714,365.6206789135933L103.50366031138392,326.26988644599913L103.51679195089285,342.89892954826354L105.12102762723215,322.45329427719116L106.16868381361607,345.75832211971283L106.23721698549107,348.73010090589526L106.41911738839286,362.0460764169693L106.66589896875,329.3310052394867L108.08504845982144,344.87677772045134L108.50339607589287,318.8314443588257L109.22835581919644,333.10265550613406L109.3555540078125,309.0391252040863L109.60319031026786,333.7680383443832L109.94344740736607,328.7955224752426L112.42268540625,348.30245623588564L113.67228911383928,322.18892803192136L114.40618458816965,380.3904485583305L114.50478843750001,365.99683364629743L116.12262196540179,397.2116991877556L118.73713916183036,336.31725988388064L120.39374599218749,336.8943768262863L123.38333078571429,366.2541485071182L123.66500056808036,351.37112976312636L126.05542517075892,333.31868224143983L126.89678252343751,325.25474774837494L127.0514872232143,325.25301299095156L127.13641551897322,335.8230068206787L127.70581584040178,323.9482057571411L128.05625190066965,337.0549093008041L129.103441875,323.32267739772794L129.4442428861607,335.5200714349747L130.36027186941965,366.8598215341568L131.54981192410713,389.30971283912663L132.88962766406252,349.4318911790848L133.19484115513393,340.97624306678773L133.87286888504465,319.1082505226135L134.39176290066965,323.3997887134552L134.76232378125002,358.758863902092L135.574931390625,369.1823156714439L136.06313311272322,342.34572169780733L137.25873392410713,332.54031546115874L137.85090093415178,323.5693994522095L138.42480797209822,381.5667444229126L140.14054603124998,365.4781231999397L140.35857786830357,319.5785225868225L141.28657296093752,347.5303903102875L143.9299176026786,369.08966794013975L144.02704511383928,326.13586070537565L144.5377804185268,315.33904509544374L144.9332836439732,302.3179918289185L147.64617158370535,303.07040016651155L149.90527979129462,325.2483929634094L151.1072521674107,321.8670181751251L152.9622322265625,302.47589070796965L152.98849550558037,310.7716624975204L153.2053618125,312.73624382019045L153.358745578125,317.74630415439606L154.1384852377232,292.7866772651672L156.50287966741072,319.62340157032014L158.50588205357144,291.69300708770754L158.5297365703125,286.07476596832277L159.50031236383927,289.33693685531614L159.65843595200892,323.4578356742859L160.38160854910714,331.28502521514895L162.13953879910716,280.2560300350189L162.18950119084823,276.62516477108L162.5316231361607,281.0413987636566L162.63978433258927,276.33195481300356L163.76149053348215,281.3875053405762L166.09604739174108,281.723113489151L167.11316668861605,285.5516602039337L168.211950796875,313.7917403459549L168.22453852232144,284.95773499011995L169.78743672991072,291.50616562366486L170.47447789285715,274.99402539730073L171.05211462723216,311.1850201368332L171.864877640625,227.3219476222992L172.24623910044645,281.0433582305908L172.44430152120535,267.2187077999115L173.3125437689732,297.34016382694244L174.4136589375,291.4757669210434L175.78067038058037,280.2230786323547L177.61661344754467,269.03491792678835L178.61671600446428,299.93412952423097L179.42155341294642,241.4708089351654L180.07020978348214,265.3501673221588L180.93472233482143,306.2953591585159L182.72000369196428,264.8474831581116L183.35296425669642,233.12795600891116L184.0501843828125,218.4280530452728L184.57692630133928,253.2638876438141L186.05000098660716,208.39791932106016L186.68257304129463,254.28793382644653L187.87957248883927,244.86343717575073L190.96504156138394,249.29905910491942L191.05167930133928,243.06700148582456L192.0172044642857,240.22433629035947L192.46500114174108,251.18516287803652L192.87316979464285,263.1824216365814L194.4704899921875,270.81492285728456L194.84765554352677,217.7183485031128L196.800073921875,222.84174332618716L197.08329774441964,209.9792450904846L197.14196276116073,222.0893799304962L197.59644181138393,214.01957602500914L197.6143909754464,263.9452654838562L199.19671468526786,212.33788599967954L199.68320696316965,182.52847957611084L199.96106934709823,225.807333612442L201.26459824888394,206.6587935447693L203.3189616629464,184.76372799873354L203.84904476785712,185.73934478759764L208.3642308046875,187.55266065597533L209.32866813950895,140.76898541450498L211.1547430513393,180.6262686252594L212.13876129241072,153.76762166023252L212.46246786160714,158.9256577014923L212.72245878348212,179.86518650054933L212.99169624441964,139.022057723999L213.4031283816964,174.95461854934695L214.15466221205358,158.74641141891482L214.19125985825895,146.5859416484833L214.41511934598213,177.29193902015686L215.85416055133928,169.72390246391296L215.94794687611608,175.50990271568298L216.93818127790178,141.09991960525514L218.78818840848214,159.22311916351316L219.12145232477678,174.21528830528257L219.46155401785714,140.41124787330625L220.38076878348215,130.59043555259706L221.13789715848216,153.57489280700685L222.05882136830357,138.1818958282471L223.10336947433035,125.29444584846499L224.32624369084823,141.623708486557L225.02369692299106,155.75261559486387L225.08539231808035,147.33077278137205L225.1698544017857,125.9155429363251L228.0680616328125,106.5632183074951L228.26317137723217,122.82429509162904L229.82342771651784,134.59589157104494L231.9222366796875,145.88855118751525L232.6140953671875,151.7989146709442L233.49616857254466,127.48926453590394L235.27049394642856,97.49016733169555L237.30007041964288,137.03945469856262L237.61421964174107,135.66818737983704L238.46948565401786,118.6635917663574L240.0401540625,138.6858922958374L241.70686215401787,138.37090349197388L241.7692568671875,120.43387126922607L242.01059930691966,107.92887687683105L244.70266310825892,118.03631067276001L247.3174134107143,92.22459430694579L247.61780937723213,73.39767646789551L248.55730436718753,85.70841398239133L248.72630623660714,110.37540616989133L249.42251623660715,94.84237022399901L249.54272124441962,77.25771846771238L249.9167787154018,120.44595165252684L250.70187981361607,85.46964664459227L250.72386948214285,113.59874725341797L251.2681720546875,89.72337970733645L251.88178481919644,81.05872478485105L252.90869456919643,96.79292068481448L255.6817238638393,112.46969881057737L258.0213313526786,96.30395278930666L258.0932057109375,72.44997758865355L258.67907885825895,101.1935598373413L259.2191078203125,63.21225948333739L259.61196917745536,77.62976551055908L260.1216943560268,43.3762701034546L260.86794444977676,74.50860433578492L261.41069298214285,93.67956142425538L261.4502433046875,112.96672029495238L261.819560953125,97.66040725708007L262.32314767299107,103.91466617584229L262.8481024453125,88.52555217742918L263.4457862979911,89.31163997650145L263.54687661160716,62.655195617675766L263.6757065424107,97.90179920196533L263.67889232477677,92.6452145576477L267.88490206808035,94.7469855308533L267.97977622098216,93.65025930404664L268.35196884375,87.07795553207399L270.19925640401783,62.43498029708861L273.3729172566964,61.14744873046874L273.7115426116071,88.41639728546141L276.80532579910715,57.382467842102066L277.35421279017856,61.65468101501466L278.5915395803571,78.11549758911133L278.98020502901784,83.5550856590271L279.70889446875003,83.58747978210448L282.6926516116071,76.52872486114501L283.02474999776786,102.71964302062986L283.0337634308036,65.95799398422241L285.6043789921875,73.9494192123413L285.64253067857146,69.74242572784425L290.51436893638396,74.30507144927981L292.09032108147323,68.86684961318969L293.1675817332589,80.98667392730715L294.5128366138393,64.42515153884887L294.64189965066964,49.920745849609375L295.77906855133926,98.00279264450074L296.8111843359375,64.95625696182253L301.20103703236606,99.89290523529053L304.29987085044644,76.14071445465089L304.7426168973214,64.64360513687132L305.1841197120536,75.71056652069092L305.30766590625,76.70673074722288L306.57871536830356,51.87780389785768L306.9246447120536,45.60222454071044L308.5304344285714,48.664889335632324L308.77744911495535,51.579641342163086L308.83502630357145,57.71435480117799L309.41981162276784,52.992974281311035L311.2730045357143,72.69381437301638L312.00153857142857,63.42114944458007L312.4435075982143,67.36949329376222L314.2939809408482,89.91285476684573L315.04636949330353,63.001931381225575L316.99513587723214,83.7860510826111L318.07907890178575,43.31270427703856L319.0646511830357,71.27961854934694L319.2276699977678,94.21516103744506L320.21541793526785,66.3015658378601L320.3210926674107,44.47587261199953L324.10238322991074,48.74409494400026L324.11792363169644,58.998291015625L324.68817867522324,92.05270051956177L325.26534919754465,55.75535526275633L326.101500515625,62.72627573013307L327.4019213370536,36.01877737045288L328.0219833683036,48.87737464904785L328.4891278459821,61.30025119781493L330.4403806941964,60.71370544433592L330.5706092611607,62.72872056961058L330.6689800044643,55.16406364440917L331.3532238950893,60.55813455581665L331.7095653080357,62.206064224243164L332.7533363939732,82.43265266418456L333.3938340535714,56.24612083435057L333.52305249441963,62.90938701629637L333.59376132254465,66.49690132141114L333.8221275267857,50.08774995803833L336.91847488058033,65.54704523086548L338.52869361160714,47.52969284057616L338.54881843191964,46.585625267028824L338.6074834486607,77.18818435668948L339.05636795424107,65.2798027038574L339.2311197723214,66.14987792968748L339.50781662611604,60.037024211883534L340.4659600982143,67.35370969772339L340.76791010491075,40.87138824462892L341.90002837500003,59.68112030029295L343.3913630323661,93.09111013412473L343.91725022879467,70.93299064636233L344.53645753794643,66.6929558753967L344.6383248716518,59.08824672698973L345.6172924821429,39.850631809234635L347.9518493404018,33.85775499343873L348.650001890625,38.538292312622055L348.8325239095982,61.915991210937484L350.93568418526786,31.597608757019035L351.50834799107145,66.60382709503176L351.5887695703125,44.41744813919069L352.3920529386161,53.04532260894774L355.58513929352677,47.70881328582765L358.31185819084817,67.3347981452942L358.6654023314732,47.90220727920531L358.80005991294644,47.49841327667235L358.99851084374995,63.57690010070802L359.17380657589285,84.30324249267579L359.33900104687496,42.188365745544445L361.273159453125,54.40044679641722L361.4751069743304,72.94674739837649L361.7211892366072,71.10880336761477L363.54128109375,62.107407760620106L366.72481010156247,57.49931678771974L366.8966092433036,66.05384607315062L367.3239702924107,62.43436908721924L367.37875020870536,33.389604187011734L368.0419368549107,28.472276973724373L369.80041101897325,65.53891973495485L370.10344885379465,46.755865192413346L370.4568375904018,58.885972213745106L371.41156217410713,51.4134641647339L372.1718763314732,50.115362262725846L373.18223555357145,37.232316589355484L374.2971039776786,59.65997962951661L374.699134171875,54.80176000595094L375.3915367734375,45.53617792129518L377.1242138705357,63.06463432312012L377.4236774129464,65.87095050811769L377.65375306138395,46.7833336830139L378.1375257689732,32.4652391433716L380.9044943069197,37.38130798339842L381.15624881584824,49.87005138397217L381.63364995870535,19.333143424987785L382.56856053013394,40.27240257263185L383.4933698404018,44.36297855377199L384.4119629899553,56.36023731231688L384.7283655703125,66.76547412872316L385.90042267299106,37.76126480102539L386.0148000301339,37.985758590698254L386.9309844174107,47.59613494873048L387.0570170758929,80.35867376327514L387.67544736495535,56.96749229431151L390.20581328571427,33.47359161376954L390.6550863013393,58.95277385711671L390.87280733035715,32.67948617935179L391.28066517522325,21.36390619277955L393.8381490970982,60.60828971862793L394.76629959375,50.82903966903688L394.92131510156247,43.55301761627197L397.09759296763394,50.2657558441162L397.5617847689732,35.12252798080443L397.78517804464286,36.99380092620851L398.01261182477674,34.7399465560913L398.4478207767857,32.76048946380615L399.5692938716518,24.293507003784164L401.0687872399553,29.5088529586792L402.03174823660714,64.37970628738401L403.9694809352679,44.303151893615734L404.51860103236606,49.197720527648926L404.6530255078125,43.41085739135741L405.0111540669643,35.6658935546875L405.14946364285714,77.86058712005615L405.7014587142857,40.805485439300526L406.0739621450893,40.509480094909684L406.9701771160714,51.19918117523195L407.7775009888393,26.602442169189437L408.0036138348214,51.818732261657715L408.9618350089286,44.637591552734364L412.15204638950894,28.481912517547592L412.4747428325893,47.73031349182128L413.38408944308037,64.71170110702514L413.8231834955357,42.7263382911682L414.31558112611606,40.50732288360597L415.58530965401786,56.84237403869628L415.89192178125,55.88252286911012L416.3763161049107,86.43269767761228L417.0212427790179,27.631575775146477L417.4032258549107,63.590993881225586L420.24494372544643,70.73733158111571L420.2872913203125,43.19815635681152L422.0383060915179,53.967458534240734L423.4313477075893,65.50508747100832L426.0171928627232,50.19474763870238L426.57462707477674,46.244030857086166L426.63166034933033,46.46453380584717L427.00587322433034,47.6104444503784L427.2177666026786,33.84398479461669L427.9147536227678,43.34179067611694L428.15897103683034,29.150863742828385L428.3140642466518,-1.0165498733520173L428.7729723113839,37.86912536621094L430.70169157700894,41.94003477096556L433.70106682366077,81.08568992614744L434.10115446763393,57.349426555633556L434.3780067254464,57.659417819976795L434.6816661763393,43.75931892395021L435.59909379575896,30.06872119903563L437.4930802633928,39.278862953186035L437.7700102232143,36.6952428817749L438.7335151339286,35.296866607666004L438.7401198046875,63.28283624649049L438.8091191886161,63.50351896286009L439.48636989843754,24.65926218032837L440.59680930803574,52.93537673950197L441.0240926551339,49.36763687133788L441.30483001339286,51.4594846725464L442.02963435267856,46.1403049468994L443.06143932924107,48.28550777435304L445.6904090993304,33.80713243484496L445.98295716294643,55.88428459167482L447.6089494017857,44.02785577774046L448.73228734486605,45.96628990173338L448.95847789285716,44.82321958541871L449.3844403058036,38.91328754425047L449.50285816741075,44.085129737854004L451.0420572622768,33.672630310058594L451.9115427421875,42.973303031921375L452.7360387589286,23.84689235687256L453.04824543080355,53.65070800781251L453.2667434799107,67.02318897247312L453.78594830357144,45.715334320068344L454.06684106584817,73.22650175094606L454.268322375,52.65910987854005L454.39140235714285,36.281130218505844L456.1371333917411,93.80108432769777L456.43512059598214,34.5361619949341L457.4294732042411,55.15367307662962L457.4970739520089,67.28697996139528L459.61981513392857,39.59395961761476L459.88516749441965,50.621983337402355L460.16978995312496,66.20111169815061L460.32752503125,37.71869583129882L460.4614055926339,93.56810550689698L462.27916638950893,38.37829914093016L462.61351813392855,38.80506744384764L463.8513111361607,27.26024780273439L463.91673622767854,43.71247148513794L464.30050644977683,103.36421775817871L464.59056804910716,58.387081146240234L467.56531175892854,31.726106643676758L468.067422140625,19.503455257415787L468.46471251227683,16.649428749084457L468.62128206026784,84.17244358062743L470.0294755680804,16.481381988525406L470.59429147098217,42.727740478515614L471.60162031473214,51.68020334243773L472.65471564174106,73.42737407684325L474.0878514944196,42.83725490570067L475.23411153013393,24.7632038116455L476.8141818816964,27.50911808013916L477.64116436272326,48.082406330108654L479.1408908370536,23.102079200744637L479.69949057924106,38.04637622833252L480.19111118973217,57.64180059432982L481.0395394252232,42.60190315246581L481.982919515625,51.10038089752197L483.6382831138393,88.4844213485718L485.5996372232143,18.8085096359253L485.6516198671875,34.08321952819824L486.049298748884,62.644193840026844L488.1669115982143,47.35891361236571L489.74550561160714,38.2582862854004L490.9153093560268,25.62928819656372L492.0752449453125,34.94027957916261L493.1552251674107,29.336168193817123L493.5581100837054,33.96457290649414L494.6020365736607,28.843964481353744L495.1659977544643,52.721704959869385L495.74246895870533,39.57569522857665L496.2506400970982,37.44947586059572L497.5778681116072,51.47257175445555L497.72892081696426,40.80210580825804L498.26646331473216,48.599346065521225L499.35118335937506,35.00341396331788L501.102586640625,41.59089012145995L502.66564025223215,33.30324382781981L504.2256634854911,41.91695261001587L504.3555035424107,59.49283170700073L504.666311578125,54.90318489074707L505.2021446316964,35.84091529846193L505.3166773928571,51.34515247344972L507.82303339285716,28.532247447967514L508.37331902008924,38.01085414886473L508.5770536875,29.50274085998535L511.07975769308035,49.765031147003185L511.5578581540178,43.324856567382824L512.1204206986607,60.079485321044906L512.2466087611607,39.085289192199696L513.0867228816963,42.58216466903685L513.5021178214286,26.531110382080094L513.65721103125,39.145655155181885L514.0907105390626,41.63892402648924L514.9582534687501,26.01481781005861L515.42819521875,52.88407106399535L516.0845440881697,50.98425102233887L517.5568417533482,37.70564470291139L520.4172858080357,40.07487392425537L521.5175462544643,50.2726589202881L521.7703885915179,73.21219224929808L522.4045146863839,33.71919012069702L523.4032963091518,47.59045429229735L524.0478344732143,34.31943416595459L524.4913575401786,51.13381767272949L525.1439767131696,31.101881599426285L525.1972802912946,28.94891281127929L525.3832211986607,19.105917167663566L526.3537969921875,22.846233940124527L527.9708535,46.17622251510619L529.2150180669643,28.56065073013304L529.7727630870536,40.66796321868895L530.0984122064732,25.015489673614518L531.7311645200894,44.29596118927003L532.2033596283482,41.295531940460194L532.2477274754464,37.2513719558716L532.2601597968751,44.06672153472902L533.3723086506697,46.163854503631576L533.3834977399554,33.6021614074707L533.4752638125,37.01781787872313L533.5451956205357,40.43527202606202L534.153990860491,44.194716072082535L535.884803109375,59.49840450286865L536.6782183225446,39.78904342651367L537.2988242678572,35.654388427734375L538.659930358259,37.53878440856932L540.9536159598214,49.34031219482421L542.0088869430804,56.708770751953125L542.0335961819196,52.4274613380432L542.1584633102678,42.11246786117555L542.2960735680804,43.09975156784059L543.4633131462053,77.68779449462892L545.5181427723214,28.743762016296387L547.9880565301339,38.082257843017594L548.988780703125,38.52844104766847L549.9965757589285,28.909112262725838L550.1991448962054,65.45331439971926L550.5383141651786,34.545653724670395L551.0357624263393,34.747784423828136L552.0028416294643,38.39480180740355L553.9633410167411,51.70619773864746L554.2971488470982,46.06908102035521L554.5089645234375,41.50266017913817L555.0215646763393,41.711010837554916L555.376507453125,19.41227712631224L555.7577135089285,43.364908790588395L556.4487951763392,55.01744518280031L557.8031411919643,36.53647212982179L557.8166613415179,23.648824405670158L560.7011930189732,49.581056976318344L561.177972545759,44.43733043670653L561.2503131160714,38.11127233505249L561.2811608136161,48.02836818695067L561.5557597131696,68.58141460418699L563.4365368392857,49.2908761024475L564.5254527924108,26.306616592407234L564.5649254129464,42.38057327270508L564.65459353125,29.036351776123063L566.1500463950892,33.38111915588377L569.6510658113839,43.991003417968734L570.0292414888394,48.30132732391359L571.4035569207589,58.962409400939926L571.9146030334821,37.34930934906004L573.3793636037947,51.54814605712892L575.8163317098214,27.6262906074524L576.2673918716519,27.00019598007202L576.2974625491072,55.62505970001222L577.77815203125,27.813356781005844L578.0377544430803,31.10626792907715L578.36122790625,37.32468118667601L578.7916193337054,25.84684295654296L579.1313325167412,45.91358203887938L580.3632978683036,44.92263107299806L580.7539835691964,42.53272857666014L582.1614000569197,48.829880046844494L582.6560510457589,70.27151775360107L585.3338176774553,46.496856021881115L585.3647430770089,26.049908447265633L585.6868956060267,24.821987819671623L587.0609002299107,52.066380119323746L587.1107072176338,28.766448688507072L587.7860153772322,44.64837760925292L589.0961489497768,37.68770389556886L590.4219783281251,18.52951030731202L590.5288185904018,39.47308387756346L592.4885409575893,66.0309796333313L595.4252106830357,39.85519790649414L595.6673301428572,54.279175567626964L596.3406957522321,40.22684946060179L596.6002204620536,44.491260719299305L599.0330703616072,37.2500057220459L599.0462797031249,50.426863574981674L599.9404744218749,45.02459526062012L601.0617144107143,34.84126358032228L604.0748429129465,44.23038196563721L604.7564449352678,52.060483741760265L607.4892245892856,47.567408084869385L607.6593142868304,32.90415973663329L609.972347688616,50.09411373138426L610.3418207410715,44.69914398193361L610.497768672991,29.95108127593994L610.8837922533482,55.1603244781494L611.9382862165178,29.108222866058334L613.4059994631697,41.17742462158202L617.0310312857143,52.12944259643553L618.2536723962053,29.489797592163086L618.7315397511161,42.006656646728516L619.4689318158482,60.0081175804138L619.5701775334821,37.6253604888916L620.9450368794643,40.63075132369994L621.0634547410715,30.767729568481453L621.5388356316964,34.494060420989975L622.373666015625,38.53009490966798L624.2590275602679,54.207987594604504L624.6528990435268,42.10617599487306L625.2883460725446,34.36951742172243L625.4653512488838,29.759592819213875L627.8346409051339,38.136008358001725L628.2987550044643,42.82093200683595L630.9943153962054,36.98527994155882L631.7927035379464,34.53619794845582L632.0507519095983,43.20067310333252L632.0957413727679,28.182239913940414L632.7938162209821,20.750143623352066L632.9407507198661,19.652482604980484L633.4237464073661,4.139005374908439L634.5947933839285,14.94551944732666L636.7772874107143,55.498934745788574L639.3705142566964,39.71487131118773L639.972549421875,29.77174510955809L639.9952384084821,42.50583534240724L641.8256646328125,38.042493247985824L642.5405231149554,30.66163072586061L642.8165983526786,19.324802207946785L643.3484686037947,31.601995086669938L643.6163074285714,32.85483150482179L644.2836122812499,46.59213285446168L645.3875247220982,29.77458543777465L645.5607225,58.65903358459474L646.4842108761161,46.779990005493175L646.9299095993305,37.66616773605347L647.493793078125,26.875005817413346L647.6524605803572,21.429053974151604L648.1680134095982,35.06719551086427L650.9300867209821,18.490249061584457L653.1035673147322,11.271357154846209L654.9870640111607,45.10710859298706L655.2125552410714,38.674304485321045L655.531832795759,45.116456508636475L656.4445982946429,53.049637031555164L656.6731199029018,29.516187477111824L657.8621937455357,37.34211864471434L657.9115345212053,35.08768901824953L658.0145673850446,56.89497404098512L659.2405496819197,39.05321865081788L661.1100600167412,37.012712478637695L661.5249887444196,35.865004158020035L662.745065688616,29.37791023254396L662.7902882578124,36.12243137359621L666.2805070948662,42.8227656364441L666.8495966082589,36.76862401962279L667.1283914162947,35.30844364166261L667.5180669910714,28.55151853561403L667.9281781941964,17.030895614624008L668.5587299966518,57.9187505722046L670.0610206372768,29.48670558929444L670.3330553705358,51.97994785308839L670.4248991450893,52.024386405944824L671.8494100747768,69.10982351303102L672.1468533649553,34.30526847839354L673.7826360569197,30.39021759033204L675.4830668203125,33.317049980163574L676.6433909196428,40.47320299148561L678.0539931897322,39.30295181274414L681.5027191540178,42.58662290573119L682.7479715491071,76.92759323120117L682.8888452912946,44.98195438385011L682.9847295703124,22.36380958557129L683.4296512734375,26.620382976531975L684.1849925022321,67.05346183776857L685.0383159642856,58.41303958892821L685.2287635881696,65.78121051788332L685.6406619375,43.69568119049074L685.6968404899553,51.14043312072755L686.846053202009,44.123923587799084L686.9146640758929,60.868161773681656L687.7723388504464,55.19300622940062L688.5389468705357,33.11599788665773L689.2185286406251,33.217674446105946L690.1697566339285,50.74731731414795L690.417159830357,19.808844470977768L692.0134699017857,35.50913619995117L692.0797497154017,32.63774414062499L692.4614219832589,31.503626251220687L692.6096774162946,44.26389064788817L694.1361333816965,41.04267082214357L695.778132234375,39.7266640663147L697.3288312265626,28.20776691436766L697.536062484375,36.134403896331776L698.5496851908482,35.85019130706786L702.0817854107142,35.47656230926515L703.1157660435268,28.897858810424797L704.4453251183036,20.963995170593254L704.5919488091517,40.14742813110353L704.7079579084822,43.3606303215027L705.4164448258929,31.93607521057129L709.4918374921875,48.56267347335814L709.62944775,34.22617073059081L710.5798987232142,49.26782989501953L710.5809865513393,30.09388866424559L711.1306505624999,29.34504871368409L712.5325502075892,42.598128032684315L715.1696009866072,54.86694374084471L716.0209818984374,33.876918220520004L716.52845371875,33.72451124191286L716.8905450803571,40.8384548187256L719.7735227176339,37.28919506072998L720.8984147008928,26.324233818054207L721.2504048013392,38.8789878845215L725.684625344866,18.748143672943115L725.9354474296875,49.08202209472655L726.4194532433036,30.159180259704605L726.6944406529018,22.74682245254518L727.8656430334821,34.63449487686159L728.5254107912946,53.9515670776367L729.9226483158482,36.66069154739381L730.0186879988839,27.5147268295288L731.682987328125,33.19358558654784L732.9791345390626,26.425694656372062L734.3874057488839,23.813311767578117L735.2400298928571,43.642469978332535L736.2412202779018,50.905836391448986L736.5423155625,38.27716188430787L736.802306484375,34.06010141372679L739.1832514419643,17.333911895751953L741.42666384375,36.298747444152816L743.676370108259,45.7915557861328L743.8520543504463,30.648651504516586L744.2435170714285,41.68846797943115L744.7087967008928,35.148270702362076L747.36402975,54.27356681823732L748.6130895435268,42.470385169982926L749.0082042589286,38.20327739715577L750.234885873884,41.047560501098644L752.9731823705357,44.86977939605714L753.3412567868303,45.381326103210434L753.9722748013393,58.58504123687743L755.7263976529017,65.18981103897096L755.7448130290179,23.176682758331307L756.0476954598215,31.265613937377914L756.3681385446429,66.09954299926756L759.1694513705357,53.899614238739L759.2114104553572,52.522270774841324L760.2740631294643,40.930136299133316L762.0768274386161,32.79522056579589L762.2150593125,30.958714675903312L763.4940343794642,10.27584009170533L764.8605796104911,41.58621616363524L765.4013855926339,57.405478096008316L767.2871356473215,18.450053024292L768.0585611919644,27.489343643188477L769.9493618772321,38.67020578384398L771.3789234374999,35.992639160156266L771.8612198069196,27.100182723999016L772.3006246674107,26.319308185577377L772.6971380189732,36.586016082763656L773.0967594508928,59.10615158081055L773.3172777522321,33.60949592590333L773.5222556517858,33.85667638778688L773.691568329241,27.967058086395248L774.5448140892858,36.91164712905885L774.8932298973215,32.94421195983887L775.5827575245536,24.7046714782715L776.0221623850447,37.69316883087157L776.2569778560268,46.640490341186535L776.8991849598215,36.36188182830812L778.1900484341518,39.51572475433351L779.7140179352679,39.69732599258424L779.7468081830357,35.258144664764416L780.2720737633929,50.50448722839354L780.7964846216518,46.92053232192995L781.2880275301338,39.04300785064697L781.3428074464285,47.542636108398426L781.8408773236607,61.69886789321901L781.8445293180804,45.89510192871092L782.4782669029019,42.421056938171375L783.0652278783482,34.18629827499388L783.7678871450893,25.467784976959244L785.6466440189732,32.416342353820816L786.3511681339286,32.81406021118164L787.348318014509,47.745413970947254L787.8843841741071,41.670599079132096L787.9937886026786,34.0535219192505L788.6141614419643,29.425512695312484L789.123653514509,58.39355278015137L790.5867046406249,64.01179389953614L793.3393760089286,56.52943458557127L793.7032545167411,79.984433555603L794.1998480558036,39.57957820892335L794.2154661595982,53.78970432281494L795.0418270245536,35.77468891143798L796.2429446785713,34.19057674407958L796.37068678125,50.782623672485336L797.2707091506696,53.95365238189697L798.1091915290178,34.012319183349625L798.1098131450892,38.32228355407716L798.4782760714286,51.79381647109984L798.8285567276786,44.398932075500504L800.1204303281249,39.666765499115L801.7778141785714,51.044437217712414L801.7894694799107,49.345489501953125L803.9979936796874,31.428015995025643L804.0866516718751,21.681016254425057L804.3196799966518,66.9193552017212L805.590185544643,40.23759956359862L805.6009084218749,40.29659929275511L808.3155058058036,48.93446884155275L809.4086176674107,41.717338657379166L809.8051310189732,26.54484462738037L811.0482854598214,22.675131130218514L811.2419965680804,78.57624197006226L813.1187331897322,39.93469114303588L816.021291733259,41.944564914703385L816.1648850457589,11.815010356903084L817.0207726741072,35.17275505065919L817.836954575893,40.77683048248292L818.3880949252233,34.8709252357483L820.2120718828126,49.65023155212401L820.6027575837054,41.28089885711671L822.1649564732143,49.3077742576599L824.1155100033482,30.341176986694336L825.5993852678571,50.365994262695324L827.8807162500001,41.19130268096922L828.7146919118303,41.71083106994627L829.2288461049108,55.20221033096312L829.4078715334821,43.41991767883302L830.8621423325892,46.15159435272216L831.20294334375,37.30336074829103L831.2937769921874,29.466068267822266L833.679927984375,40.600226783752426L834.5582714933036,16.413789367675797L835.85449640625,46.72361488342284L836.0478967064732,41.23664007186891L836.6646175513393,49.46266202926637L841.0745173660714,46.20890426635742L841.1862528549107,26.831897544860848L843.11683696875,28.624971580505363L844.9467192790179,22.688433933258064L845.0885254453125,32.795759868621815L846.6771430178571,58.257684421539295L849.812341376116,67.13960647583008L851.785739296875,37.64617757797242L851.8024452287947,31.30167531967163L851.8763398392857,51.28173046112062L852.2594884453125,39.51601238250731L852.3224270725447,48.88751354217528L852.7329267857143,70.44434633255003L853.8100320334821,22.75512771606446L854.1274447399554,44.00790157318114L855.1873001417412,45.31574687957765L855.3510182745536,38.79881153106691L857.5541810357142,53.278481197357166L859.1504911071429,56.353837585449234L859.6533785089287,50.04036321640013L860.2151640334821,32.34123544692994L860.675548436384,34.79301395416258L862.7193443772321,40.25536060333252L862.747705610491,38.41371335983275L862.7577291696429,41.54382696151732L862.9334134118304,46.45514993667604L863.7556560703125,52.932608318328846L863.7670005636161,50.191403961181656L863.9924140915178,57.39138431549071L865.2347138102679,40.69133300781249L866.6861873370535,51.872986125946056L867.2338310959822,58.76261568069458L867.5393553950894,42.68668155670167L868.0338509799108,32.75132131576538L869.4725813772321,60.03706016540526L871.4064289754464,48.055692863464344L873.6207031238839,34.27114858627318L874.6392987589286,46.51105766296388L875.9046759743303,37.972024345397934L876.9202412310267,68.34333038330078L877.7138118482143,46.32780256271361L878.7613903325894,40.90475311279295L879.7214763549107,56.93225784301757L880.160648109375,58.939435100555436L881.1945510401786,38.056658935546864L884.1647103314732,55.696103858947765L884.1905851004464,60.99324407577513L885.0374592957589,56.396334648132324L886.6598772421875,37.87444648742677L887.161909921875,67.90793323516846L887.302162047991,31.59994573593139L888.0099496473215,59.026406669616684L888.6024274654018,46.8767409324646L888.9436169866071,75.6766623497009L889.1604832935268,57.37761411666872L891.2591368526786,31.38595037460328L891.3374604776786,32.58766088485719L893.2884025178572,63.44962463378908L893.3476891506697,39.217454338073715L894.6453904017858,30.777616786956795L895.3360058571428,45.14676532745363L896.5929912555804,29.748375320434555L897.0881861584821,34.561760902404785L898.8308868147321,44.817934417724594L899.38365890625,77.04854087829591L900.918506688616,42.24984626770021L902.1929750390625,26.713969993591316L902.6743389843749,30.07717027664183L903.5416488080357,39.44633445739748L905.8825772310269,55.59126338958742L906.6123544988839,26.99717588424682L908.3112312220982,55.68161458969115L908.3902541651786,74.61427173614504L911.1642158839286,49.21947240829468L912.8104106450893,59.530690765380875L913.0319390725447,57.14377241134645L913.2300014933036,68.66763114929199L913.4944214296876,35.28981971740723L914.2146413504465,36.910460662841786L914.2953737377231,64.51312980651858L914.5190778214285,41.43744049072267L915.621669328125,61.03383560180663L915.7334048169644,44.80930557250975L915.891373001116,70.70004777908326L915.8990655,62.445658493042004L916.812841125,66.68134288787843L916.9028977533483,67.15492267608641L918.1455082801339,47.727976512908924L919.1341109397322,55.05800075531005L919.1893570680804,62.72361516952515L919.7268995658482,40.517785358428966L921.6731794854911,32.94928140640258L921.8773026629464,39.44076166152956L921.9020896037946,44.87477693557741L921.9999164330358,54.17038021087648L923.4696499319197,45.880792427063L926.2962936127232,52.94763689041139L928.1118010513393,56.81839303970338L929.756907984375,33.51202592849733L931.2225232767858,64.96269264221189L931.2531378683036,46.08450508117676L934.1688280513392,67.03127851486204L935.0468607522322,48.39487838745117L936.3496126339286,47.85000276565552L940.3995190412946,42.420050239563004L940.9646457522322,61.148527336120594L941.3948817756697,64.54653062820432L942.7323664553571,68.14684438705444L942.8387405055804,80.18606090545654L943.5011501316965,52.71458616256712L943.7760598392857,53.11579151153563L947.389669466518,54.61929588317872L949.9950178258928,61.01071748733522L950.101547280134,51.64611940383912L950.8418143191965,41.64151268005372L952.0304996517857,60.80732841491698L952.0391245747768,47.18842201232911L953.0200347354911,45.82146911621095L955.6998993214286,42.22920894622803L957.1355216383928,55.0772358894348L957.8059345714286,56.84607725143434L958.0172063337054,50.68716707229613L958.5991166785715,50.819799613952625L958.9542148593749,48.69289712905885L960.3585232667411,61.46348018646239L961.46383434375,90.66316881179807L962.5553921651785,41.870644474029525L963.3876583828124,48.97279529571534L964.7865276495536,44.00437812805177L965.9791757845983,64.1129671096802L966.1261102834821,43.215773582458496L966.3613919665179,45.32948112487793L966.6958991149553,38.16771936416626L966.8617152020089,43.604790687561035L967.3171266763393,68.94411373138428L967.9574689319197,53.07351016998291L968.4251573236608,62.09360160827635L968.7975830524554,68.47847967147828L970.1210813705358,44.67268218994139L971.1099948381697,72.13923130035403L971.7434216149554,37.02144918441774L972.0728004308036,52.93807325363161L972.6418899441964,55.78591575622557L973.3383330502232,59.31640777587892L974.5548357020089,55.445363998413086L974.7650196361607,55.93717222213746L977.6321460636161,57.20895614624022L977.8017695491071,47.96771459579469L978.7404098169643,62.02503824234009L979.4655249642857,61.034051322936996L979.9433923191965,65.9731304168701L981.4958784575892,43.657103061676025L982.4142385011161,49.8845766067505L983.6920480379464,39.38963575363158L984.6133607578125,62.92258195877076L985.8826230736606,68.72695446014404L986.2554373125,47.66214561462402L987.1852972533483,51.74100074768068L987.3891096227678,62.48024578094481L988.1122822198661,35.744344139099105L988.865136984375,57.95578269958497L989.3415280011161,41.560401535034195" style="fill: none;" fill="none"></path></g></g></g></g></g></g><g transform="translate(41, 377)" clip-path="url(#clip_1)"><clipPath id="clip_1"><rect width="1087" height="23"></rect></clipPath><g><g><line x1="0" y1="0" x2="0" y2="5" style="visibility: inherit;" fill="rgb(0, 0, 0)" stroke="rgb(204, 204, 204)" stroke-width="1px"></line><line x1="77.70200892857143" y1="0" x2="77.70200892857143" y2="5" style="visibility: inherit;" fill="rgb(0, 0, 0)" stroke="rgb(204, 204, 204)" stroke-width="1px"></line><line x1="155.40401785714286" y1="0" x2="155.40401785714286" y2="5" style="visibility: inherit;" fill="rgb(0, 0, 0)" stroke="rgb(204, 204, 204)" stroke-width="1px"></line><line x1="233.10602678571428" y1="0" x2="233.10602678571428" y2="5" style="visibility: inherit;" fill="rgb(0, 0, 0)" stroke="rgb(204, 204, 204)" stroke-width="1px"></line><line x1="310.8080357142857" y1="0" x2="310.8080357142857" y2="5" style="visibility: inherit;" fill="rgb(0, 0, 0)" stroke="rgb(204, 204, 204)" stroke-width="1px"></line><line x1="388.51004464285717" y1="0" x2="388.51004464285717" y2="5" style="visibility: inherit;" fill="rgb(0, 0, 0)" stroke="rgb(204, 204, 204)" stroke-width="1px"></line><line x1="466.21205357142856" y1="0" x2="466.21205357142856" y2="5" style="visibility: inherit;" fill="rgb(0, 0, 0)" stroke="rgb(204, 204, 204)" stroke-width="1px"></line><line x1="543.9140625" y1="0" x2="543.9140625" y2="5" style="visibility: inherit;" fill="rgb(0, 0, 0)" stroke="rgb(204, 204, 204)" stroke-width="1px"></line><line x1="621.6160714285714" y1="0" x2="621.6160714285714" y2="5" style="visibility: inherit;" fill="rgb(0, 0, 0)" stroke="rgb(204, 204, 204)" stroke-width="1px"></line><line x1="699.3180803571429" y1="0" x2="699.3180803571429" y2="5" style="visibility: inherit;" fill="rgb(0, 0, 0)" stroke="rgb(204, 204, 204)" stroke-width="1px"></line><line x1="777.0200892857143" y1="0" x2="777.0200892857143" y2="5" style="visibility: inherit;" fill="rgb(0, 0, 0)" stroke="rgb(204, 204, 204)" stroke-width="1px"></line><line x1="854.7220982142857" y1="0" x2="854.7220982142857" y2="5" style="visibility: inherit;" fill="rgb(0, 0, 0)" stroke="rgb(204, 204, 204)" stroke-width="1px"></line><line x1="932.4241071428571" y1="0" x2="932.4241071428571" y2="5" style="visibility: inherit;" fill="rgb(0, 0, 0)" stroke="rgb(204, 204, 204)" stroke-width="1px"></line><line x1="1010.1261160714286" y1="0" x2="1010.1261160714286" y2="5" style="visibility: inherit;" fill="rgb(0, 0, 0)" stroke="rgb(204, 204, 204)" stroke-width="1px"></line><line x1="1087.828125" y1="0" x2="1087.828125" y2="5" style="visibility: inherit;" fill="rgb(0, 0, 0)" stroke="rgb(204, 204, 204)" stroke-width="1px"></line></g><g transform="translate(0, 8)"><text x="0" y="0" dx="0em" dy="0.95em" style="text-anchor: middle; visibility: hidden; font-family: Roboto, sans-serif; font-size: 12px; font-weight: 200;" fill="rgb(33, 33, 33)" stroke="none" stroke-width="1px">-1M</text><text x="77.70200892857143" y="0" dx="0em" dy="0.95em" style="text-anchor: middle; visibility: inherit; font-family: Roboto, sans-serif; font-size: 12px; font-weight: 200;" fill="rgb(33, 33, 33)" stroke="none" stroke-width="1px">0</text><text x="155.40401785714286" y="0" dx="0em" dy="0.95em" style="text-anchor: middle; visibility: inherit; font-family: Roboto, sans-serif; font-size: 12px; font-weight: 200;" fill="rgb(33, 33, 33)" stroke="none" stroke-width="1px">1M</text><text x="233.10602678571428" y="0" dx="0em" dy="0.95em" style="text-anchor: middle; visibility: inherit; font-family: Roboto, sans-serif; font-size: 12px; font-weight: 200;" fill="rgb(33, 33, 33)" stroke="none" stroke-width="1px">2M</text><text x="310.8080357142857" y="0" dx="0em" dy="0.95em" style="text-anchor: middle; visibility: inherit; font-family: Roboto, sans-serif; font-size: 12px; font-weight: 200;" fill="rgb(33, 33, 33)" stroke="none" stroke-width="1px">3M</text><text x="388.51004464285717" y="0" dx="0em" dy="0.95em" style="text-anchor: middle; visibility: inherit; font-family: Roboto, sans-serif; font-size: 12px; font-weight: 200;" fill="rgb(33, 33, 33)" stroke="none" stroke-width="1px">4M</text><text x="466.21205357142856" y="0" dx="0em" dy="0.95em" style="text-anchor: middle; visibility: inherit; font-family: Roboto, sans-serif; font-size: 12px; font-weight: 200;" fill="rgb(33, 33, 33)" stroke="none" stroke-width="1px">5M</text><text x="543.9140625" y="0" dx="0em" dy="0.95em" style="text-anchor: middle; visibility: inherit; font-family: Roboto, sans-serif; font-size: 12px; font-weight: 200;" fill="rgb(33, 33, 33)" stroke="none" stroke-width="1px">6M</text><text x="621.6160714285714" y="0" dx="0em" dy="0.95em" style="text-anchor: middle; visibility: inherit; font-family: Roboto, sans-serif; font-size: 12px; font-weight: 200;" fill="rgb(33, 33, 33)" stroke="none" stroke-width="1px">7M</text><text x="699.3180803571429" y="0" dx="0em" dy="0.95em" style="text-anchor: middle; visibility: inherit; font-family: Roboto, sans-serif; font-size: 12px; font-weight: 200;" fill="rgb(33, 33, 33)" stroke="none" stroke-width="1px">8M</text><text x="777.0200892857143" y="0" dx="0em" dy="0.95em" style="text-anchor: middle; visibility: inherit; font-family: Roboto, sans-serif; font-size: 12px; font-weight: 200;" fill="rgb(33, 33, 33)" stroke="none" stroke-width="1px">9M</text><text x="854.7220982142857" y="0" dx="0em" dy="0.95em" style="text-anchor: middle; visibility: inherit; font-family: Roboto, sans-serif; font-size: 12px; font-weight: 200;" fill="rgb(33, 33, 33)" stroke="none" stroke-width="1px">10M</text><text x="932.4241071428571" y="0" dx="0em" dy="0.95em" style="text-anchor: middle; visibility: inherit; font-family: Roboto, sans-serif; font-size: 12px; font-weight: 200;" fill="rgb(33, 33, 33)" stroke="none" stroke-width="1px">11M</text><text x="1010.1261160714286" y="0" dx="0em" dy="0.95em" style="text-anchor: middle; visibility: inherit; font-family: Roboto, sans-serif; font-size: 12px; font-weight: 200;" fill="rgb(33, 33, 33)" stroke="none" stroke-width="1px">12M</text><text x="1087.828125" y="0" dx="0em" dy="0.95em" style="text-anchor: middle; visibility: hidden; font-family: Roboto, sans-serif; font-size: 12px; font-weight: 200;" fill="rgb(33, 33, 33)" stroke="none" stroke-width="1px">13M</text></g><line x1="0" y1="0" x2="1087.828125" y2="0" fill="rgb(0, 0, 0)" stroke="rgb(204, 204, 204)" stroke-width="1px"></line></g></g></g></g></svg>