<svg viewBox="0 0 1129 400" xmlns="http://www.w3.org/2000/svg"><g><g><g><g><g><line x1="41.171875" y1="377" x2="36.171875" y2="377" style="visibility: inherit;" fill="rgb(0, 0, 0)" stroke="rgb(204, 204, 204)" stroke-width="1px"></line><line x1="41.171875" y1="350.07142857142856" x2="36.171875" y2="350.07142857142856" style="visibility: inherit;" fill="rgb(0, 0, 0)" stroke="rgb(204, 204, 204)" stroke-width="1px"></line><line x1="41.171875" y1="323.14285714285717" x2="36.171875" y2="323.14285714285717" style="visibility: inherit;" fill="rgb(0, 0, 0)" stroke="rgb(204, 204, 204)" stroke-width="1px"></line><line x1="41.171875" y1="296.2142857142857" x2="36.171875" y2="296.2142857142857" style="visibility: inherit;" fill="rgb(0, 0, 0)" stroke="rgb(204, 204, 204)" stroke-width="1px"></line><line x1="41.171875" y1="269.2857142857143" x2="36.171875" y2="269.2857142857143" style="visibility: inherit;" fill="rgb(0, 0, 0)" stroke="rgb(204, 204, 204)" stroke-width="1px"></line><line x1="41.171875" y1="242.35714285714283" x2="36.171875" y2="242.35714285714283" style="visibility: inherit;" fill="rgb(0, 0, 0)" stroke="rgb(204, 204, 204)" stroke-width="1px"></line><line x1="41.171875" y1="215.42857142857142" x2="36.171875" y2="215.42857142857142" style="visibility: inherit;" fill="rgb(0, 0, 0)" stroke="rgb(204, 204, 204)" stroke-width="1px"></line><line x1="41.171875" y1="188.5" x2="36.171875" y2="188.5" style="visibility: inherit;" fill="rgb(0, 0, 0)" stroke="rgb(204, 204, 204)" stroke-width="1px"></line><line x1="41.171875" y1="161.57142857142858" x2="36.171875" y2="161.57142857142858" style="visibility: inherit;" fill="rgb(0, 0, 0)" stroke="rgb(204, 204, 204)" stroke-width="1px"></line><line x1="41.171875" y1="134.64285714285714" x2="36.171875" y2="134.64285714285714" style="visibility: inherit;" fill="rgb(0, 0, 0)" stroke="rgb(204, 204, 204)" stroke-width="1px"></line><line x1="41.171875" y1="107.71428571428571" x2="36.171875" y2="107.71428571428571" style="visibility: inherit;" fill="rgb(0, 0, 0)" stroke="rgb(204, 204, 204)" stroke-width="1px"></line><line x1="41.171875" y1="80.78571428571429" x2="36.171875" y2="80.78571428571429" style="visibility: inherit;" fill="rgb(0, 0, 0)" stroke="rgb(204, 204, 204)" stroke-width="1px"></line><line x1="41.171875" y1="53.857142857142875" x2="36.171875" y2="53.857142857142875" style="visibility: inherit;" fill="rgb(0, 0, 0)" stroke="rgb(204, 204, 204)" stroke-width="1px"></line><line x1="41.171875" y1="26.928571428571416" x2="36.171875" y2="26.928571428571416" style="visibility: inherit;" fill="rgb(0, 0, 0)" stroke="rgb(204, 204, 204)" stroke-width="1px"></line><line x1="41.171875" y1="0" x2="36.171875" y2="0" style="visibility: inherit;" fill="rgb(0, 0, 0)" stroke="rgb(204, 204, 204)" stroke-width="1px"></line></g><g transform="translate(31.171875, 0)"><text x="0" y="377" dx="0em" dy="0.3em" style="text-anchor: end; visibility: hidden; font-family: Roboto, sans-serif; font-size: 12px; font-weight: 200;" fill="rgb(33, 33, 33)" stroke="none" stroke-width="1px">40</text><text x="0" y="350.07142857142856" dx="0em" dy="0.3em" style="text-anchor: end; visibility: inherit; font-family: Roboto, sans-serif; font-size: 12px; font-weight: 200;" fill="rgb(33, 33, 33)" stroke="none" stroke-width="1px">50</text><text x="0" y="323.14285714285717" dx="0em" dy="0.3em" style="text-anchor: end; visibility: inherit; font-family: Roboto, sans-serif; font-size: 12px; font-weight: 200;" fill="rgb(33, 33, 33)" stroke="none" stroke-width="1px">60</text><text x="0" y="296.2142857142857" dx="0em" dy="0.3em" style="text-anchor: end; visibility: inherit; font-family: Roboto, sans-serif; font-size: 12px; font-weight: 200;" fill="rgb(33, 33, 33)" stroke="none" stroke-width="1px">70</text><text x="0" y="269.2857142857143" dx="0em" dy="0.3em" style="text-anchor: end; visibility: inherit; font-family: Roboto, sans-serif; font-size: 12px; font-weight: 200;" fill="rgb(33, 33, 33)" stroke="none" stroke-width="1px">80</text><text x="0" y="242.35714285714283" dx="0em" dy="0.3em" style="text-anchor: end; visibility: inherit; font-family: Roboto, sans-serif; font-size: 12px; font-weight: 200;" fill="rgb(33, 33, 33)" stroke="none" stroke-width="1px">90</text><text x="0" y="215.42857142857142" dx="0em" dy="0.3em" style="text-anchor: end; visibility: inherit; font-family: Roboto, sans-serif; font-size: 12px; font-weight: 200;" fill="rgb(33, 33, 33)" stroke="none" stroke-width="1px">100</text><text x="0" y="188.5" dx="0em" dy="0.3em" style="text-anchor: end; visibility: inherit; font-family: Roboto, sans-serif; font-size: 12px; font-weight: 200;" fill="rgb(33, 33, 33)" stroke="none" stroke-width="1px">110</text><text x="0" y="161.57142857142858" dx="0em" dy="0.3em" style="text-anchor: end; visibility: inherit; font-family: Roboto, sans-serif; font-size: 12px; font-weight: 200;" fill="rgb(33, 33, 33)" stroke="none" stroke-width="1px">120</text><text x="0" y="134.64285714285714" dx="0em" dy="0.3em" style="text-anchor: end; visibility: inherit; font-family: Roboto, sans-serif; font-size: 12px; font-weight: 200;" fill="rgb(33, 33, 33)" stroke="none" stroke-width="1px">130</text><text x="0" y="107.71428571428571" dx="0em" dy="0.3em" style="text-anchor: end; visibility: inherit; font-family: Roboto, sans-serif; font-size: 12px; font-weight: 200;" fill="rgb(33, 33, 33)" stroke="none" stroke-width="1px">140</text><text x="0" y="80.78571428571429" dx="0em" dy="0.3em" style="text-anchor: end; visibility: inherit; font-family: Roboto, sans-serif; font-size: 12px; font-weight: 200;" fill="rgb(33, 33, 33)" stroke="none" stroke-width="1px">150</text><text x="0" y="53.857142857142875" dx="0em" dy="0.3em" style="text-anchor: end; visibility: inherit; font-family: Roboto, sans-serif; font-size: 12px; font-weight: 200;" fill="rgb(33, 33, 33)" stroke="none" stroke-width="1px">160</text><text x="0" y="26.928571428571416" dx="0em" dy="0.3em" style="text-anchor: end; visibility: inherit; font-family: Roboto, sans-serif; font-size: 12px; font-weight: 200;" fill="rgb(33, 33, 33)" stroke="none" stroke-width="1px">170</text><text x="0" y="0" dx="0em" dy="0.3em" style="text-anchor: end; visibility: hidden; font-family: Roboto, sans-serif; font-size: 12px; font-weight: 200;" fill="rgb(33, 33, 33)" stroke="none" stroke-width="1px">180</text></g><line x1="41.171875" y1="0" x2="41.171875" y2="377" fill="rgb(0, 0, 0)" stroke="rgb(204, 204, 204)" stroke-width="1px"></line></g></g><g transform="translate(41, 0)" clip-path="url(#clip_0)"><clipPath id="clip_0"><rect width="1087" height="377"></rect></clipPath><g><g><g><line x1="0" y1="0" x2="0" y2="377" fill="rgb(0, 0, 0)" stroke="rgb(66, 66, 66)" stroke-width="1px" opacity="0.25"></line><line x1="77.70200892857143" y1="0" x2="77.70200892857143" y2="377" fill="rgb(0, 0, 0)" stroke="rgb(66, 66, 66)" stroke-width="1px" opacity="0.25"></line><line x1="155.40401785714286" y1="0" x2="155.40401785714286" y2="377" fill="rgb(0, 0, 0)" stroke="rgb(66, 66, 66)" stroke-width="1px" opacity="0.25"></line><line x1="233.10602678571428" y1="0" x2="233.10602678571428" y2="377" fill="rgb(0, 0, 0)" stroke="rgb(66, 66, 66)" stroke-width="1px" opacity="0.25"></line><line x1="310.8080357142857" y1="0" x2="310.8080357142857" y2="377" fill="rgb(0, 0, 0)" stroke="rgb(66, 66, 66)" stroke-width="1px" opacity="0.25"></line><line x1="388.51004464285717" y1="0" x2="388.51004464285717" y2="377" fill="rgb(0, 0, 0)" stroke="rgb(66, 66, 66)" stroke-width="1px" opacity="0.25"></line><line x1="466.21205357142856" y1="0" x2="466.21205357142856" y2="377" fill="rgb(0, 0, 0)" stroke="rgb(66, 66, 66)" stroke-width="1px" opacity="0.25"></line><line x1="543.9140625" y1="0" x2="543.9140625" y2="377" fill="rgb(0, 0, 0)" stroke="rgb(66, 66, 66)" stroke-width="1px" opacity="0.25"></line><line x1="621.6160714285714" y1="0" x2="621.6160714285714" y2="377" fill="rgb(0, 0, 0)" stroke="rgb(66, 66, 66)" stroke-width="1px" opacity="0.25"></line><line x1="699.3180803571429" y1="0" x2="699.3180803571429" y2="377" fill="rgb(0, 0, 0)" stroke="rgb(66, 66, 66)" stroke-width="1px" opacity="0.25"></line><line x1="777.0200892857143" y1="0" x2="777.0200892857143" y2="377" fill="rgb(0, 0, 0)" stroke="rgb(66, 66, 66)" stroke-width="1px" opacity="0.25"></line><line x1="854.7220982142857" y1="0" x2="854.7220982142857" y2="377" fill="rgb(0, 0, 0)" stroke="rgb(66, 66, 66)" stroke-width="1px" opacity="0.25"></line><line x1="932.4241071428571" y1="0" x2="932.4241071428571" y2="377" fill="rgb(0, 0, 0)" stroke="rgb(66, 66, 66)" stroke-width="1px" opacity="0.25"></line><line x1="1010.1261160714286" y1="0" x2="1010.1261160714286" y2="377" fill="rgb(0, 0, 0)" stroke="rgb(66, 66, 66)" stroke-width="1px" opacity="0.25"></line><line x1="1087.828125" y1="0" x2="1087.828125" y2="377" fill="rgb(0, 0, 0)" stroke="rgb(66, 66, 66)" stroke-width="1px" opacity="0.25"></line></g><g><line x1="0" y1="377" x2="1087.828125" y2="377" fill="rgb(0, 0, 0)" stroke="rgb(66, 66, 66)" stroke-width="1px" opacity="0.25"></line><line x1="0" y1="350.07142857142856" x2="1087.828125" y2="350.07142857142856" fill="rgb(0, 0, 0)" stroke="rgb(66, 66, 66)" stroke-width="1px" opacity="0.25"></line><line x1="0" y1="323.14285714285717" x2="1087.828125" y2="323.14285714285717" fill="rgb(0, 0, 0)" stroke="rgb(66, 66, 66)" stroke-width="1px" opacity="0.25"></line><line x1="0" y1="296.2142857142857" x2="1087.828125" y2="296.2142857142857" fill="rgb(0, 0, 0)" stroke="rgb(66, 66, 66)" stroke-width="1px" opacity="0.25"></line><line x1="0" y1="269.2857142857143" x2="1087.828125" y2="269.2857142857143" fill="rgb(0, 0, 0)" stroke="rgb(66, 66, 66)" stroke-width="1px" opacity="0.25"></line><line x1="0" y1="242.35714285714283" x2="1087.828125" y2="242.35714285714283" fill="rgb(0, 0, 0)" stroke="rgb(66, 66, 66)" stroke-width="1px" opacity="0.25"></line><line x1="0" y1="215.42857142857142" x2="1087.828125" y2="215.42857142857142" fill="rgb(0, 0, 0)" stroke="rgb(66, 66, 66)" stroke-width="1px" opacity="0.25"></line><line x1="0" y1="188.5" x2="1087.828125" y2="188.5" fill="rgb(0, 0, 0)" stroke="rgb(66, 66, 66)" stroke-width="1px" opacity="0.25"></line><line x1="0" y1="161.57142857142858" x2="1087.828125" y2="161.57142857142858" fill="rgb(0, 0, 0)" stroke="rgb(66, 66, 66)" stroke-width="1px" opacity="0.25"></line><line x1="0" y1="134.64285714285714" x2="1087.828125" y2="134.64285714285714" fill="rgb(0, 0, 0)" stroke="rgb(66, 66, 66)" stroke-width="1px" opacity="0.25"></line><line x1="0" y1="107.71428571428571" x2="1087.828125" y2="107.71428571428571" fill="rgb(0, 0, 0)" stroke="rgb(66, 66, 66)" stroke-width="1px" opacity="0.25"></line><line x1="0" y1="80.78571428571429" x2="1087.828125" y2="80.78571428571429" fill="rgb(0, 0, 0)" stroke="rgb(66, 66, 66)" stroke-width="1px" opacity="0.25"></line><line x1="0" y1="53.857142857142875" x2="1087.828125" y2="53.857142857142875" fill="rgb(0, 0, 0)" stroke="rgb(66, 66, 66)" stroke-width="1px" opacity="0.25"></line><line x1="0" y1="26.928571428571416" x2="1087.828125" y2="26.928571428571416" fill="rgb(0, 0, 0)" stroke="rgb(66, 66, 66)" stroke-width="1px" opacity="0.25"></line><line x1="0" y1="0" x2="1087.828125" y2="0" fill="rgb(0, 0, 0)" stroke="rgb(66, 66, 66)" stroke-width="1px" opacity="0.25"></line></g></g></g><g><g><line x1="0" y1="484.71428571428567" x2="1087.828125" y2="484.71428571428567" fill="rgb(0, 0, 0)" stroke="rgb(153, 153, 153)" stroke-width="1.5px"></line></g></g><g><g><line x1="77.70200892857143" y1="0" x2="77.70200892857143" y2="377" fill="rgb(0, 0, 0)" stroke="rgb(153, 153, 153)" stroke-width="1.5px"></line></g></g><g><g><g><g><g><path stroke="rgb(255, 112, 67)" stroke-width="2px" d="M96.37520031026786,384.1392156338149L97.52425761830358,372.6882440227497L97.61345952455358,369.5934667300129L97.68028325223214,364.6205006464784L98.21378524553572,363.5498423702303L100.72511417410715,364.8986100025534L100.79333653794643,363.755478996097L100.94524396540179,362.4333791022811L101.45341510379464,360.6866707915981L102.71148833035714,362.212630453227L103.50366031138392,356.52884492611645L103.51679195089285,351.8947263150956L105.12102762723215,350.9497716321051L106.16868381361607,350.6609549853992L106.23721698549107,351.04424885236466L106.41911738839286,353.0315148041933L106.66589896875,352.5025111742L108.08504845982144,352.14351212897174L108.50339607589287,349.0216111769151L109.22835581919644,351.7312693447644L109.3555540078125,347.2793923292204L109.60319031026786,342.45239568711366L109.94344740736607,344.6584188365045L112.42268540625,348.07026222311407L113.67228911383928,343.9575728708714L114.40618458816965,347.9925253412604L114.50478843750001,347.7619232961199L116.12262196540179,352.0213803431151L118.73713916183036,352.9551127592743L120.39374599218749,354.03407010675886L123.38333078571429,357.30243994655063L123.66500056808036,356.91365312655506L126.05542517075892,351.2769728760385L126.89678252343751,353.4445033242387L127.0514872232143,353.45171098130993L127.13641551897322,354.94437450421674L127.70581584040178,351.2076580979307L128.05625190066965,351.23460979601504L129.103441875,352.5433375583731L129.4442428861607,352.9903097956518L130.36027186941965,356.3722527952886L131.54981192410713,353.8415032854623L132.88962766406252,357.9701697339596L133.19484115513393,356.75166350788294L133.87286888504465,352.9615511785258L134.39176290066965,353.15040710618456L134.76232378125002,354.6047024827099L135.574931390625,357.2520106147071L136.06313311272322,357.3781713026502L137.25873392410713,355.71074110323104L137.85090093415178,357.21919433130086L138.42480797209822,358.37533225151265L140.14054603124998,355.3486647349102L140.35857786830357,352.6787481204256L141.28657296093752,348.6598364204843L143.9299176026786,345.0345863040228L144.02704511383928,345.9784464775684L144.5377804185268,346.3286198765788L144.9332836439732,343.74377649304023L147.64617158370535,338.144803666128L149.90527979129462,336.98161876640893L151.1072521674107,336.50146986556575L152.9622322265625,336.2640678239743L152.98849550558037,335.67306513683064L153.2053618125,337.07920636751726L153.358745578125,339.4125911805989L154.1384852377232,331.66684556143434L156.50287966741072,328.3402975030172L158.50588205357144,325.55613499482257L158.5297365703125,319.48566524949126L159.50031236383927,317.9437645022596L159.65843595200892,313.4435562259091L160.38160854910714,320.03193558061326L162.13953879910716,316.7594906037149L162.18950119084823,312.17472084244105L162.5316231361607,309.5835013980339L162.63978433258927,307.58303279647174L163.76149053348215,307.6838922754932L166.09604739174108,308.4620946162454L167.11316668861605,305.9632251485857L168.211950796875,308.36592540371737L168.22453852232144,308.44199348154956L169.78743672991072,306.05995611974515L170.47447789285715,305.10273082592073L171.05211462723216,311.84159492517597L171.864877640625,299.6575220683516L172.24623910044645,294.257065105008L172.44430152120535,288.64738159133L173.3125437689732,292.9926466911611L174.4136589375,291.9614992934836L175.78067038058037,289.61281359884055L177.61661344754467,286.3179701587409L178.61671600446428,279.4092432882853L179.42155341294642,272.46219629902805L180.07020978348214,267.8300064659066L180.93472233482143,273.302206651976L182.72000369196428,274.1191546626651L183.35296425669642,269.5548298249176L184.0501843828125,263.9177329656713L184.57692630133928,262.2591944051971L186.05000098660716,255.3936762813341L186.68257304129463,257.58996554812325L187.87957248883927,257.58495800586394L190.96504156138394,252.3455069712686L191.05167930133928,253.92607244495304L192.0172044642857,252.6521568821791L192.46500114174108,253.41971723112022L192.87316979464285,246.9736566824078L194.4704899921875,248.39729709144478L194.84765554352677,246.0524734131631L196.800073921875,244.10774806777567L197.08329774441964,238.55553456610616L197.14196276116073,238.73951921651843L197.59644181138393,236.7354947350485L197.6143909754464,236.75877960107942L199.19671468526786,237.97883448495813L199.68320696316965,231.2284008290203L199.96106934709823,227.51151695184262L201.26459824888394,226.54408076641275L203.3189616629464,221.44976763437032L203.84904476785712,217.9557739180256L208.3642308046875,215.37887229298983L209.32866813950895,202.27912674543737L211.1547430513393,200.3347251285625L212.13876129241072,194.0435497670694L212.46246786160714,191.72206383665704L212.72245878348212,190.52710609077516L212.99169624441964,179.28849020534884L213.4031283816964,180.92566807762657L214.15466221205358,175.00836626446946L214.19125985825895,171.21727957032627L214.41511934598213,173.28913231976549L215.85416055133928,174.48760926157408L215.94794687611608,173.21207872482847L216.93818127790178,167.17096481614905L218.78818840848214,168.33096283192313L219.12145232477678,174.35024289563054L219.46155401785714,170.4867703205328L220.38076878348215,162.62264246579429L221.13789715848216,161.55101083194066L222.05882136830357,157.50075338513957L223.10336947433035,151.52241761028105L224.32624369084823,152.19524598005307L225.02369692299106,154.0864787337669L225.08539231808035,154.61548484509805L225.1698544017857,151.0474954505414L228.0680616328125,143.80791657876458L228.26317137723217,140.3172295642812L229.82342771651784,141.2288665175487L231.9222366796875,143.6333225645377L232.6140953671875,145.37547620392164L233.49616857254466,143.8680457580592L235.27049394642856,135.96689000174592L237.30007041964288,139.0129343581385L237.61421964174107,137.42290555710233L238.46948565401786,133.85233072794333L240.0401540625,133.73666329712867L241.70686215401787,135.1898349406815L241.7692568671875,134.88303605644444L242.01059930691966,128.91474957182274L244.70266310825892,129.3266398325419L247.3174134107143,124.0592200604392L247.61780937723213,114.69307472650421L248.55730436718753,110.05269032842712L248.72630623660714,110.91337492771105L249.42251623660715,109.5808662629696L249.54272124441962,104.24417264207209L249.9167787154018,108.51318335465933L250.70187981361607,104.18853143365769L250.72386948214285,107.9197443450986L251.2681720546875,104.97973865234843L251.88178481919644,101.79389180427272L252.90869456919643,103.21306963761458L255.6817238638393,105.0341503424856L258.0213313526786,104.4745113053082L258.0932057109375,98.82312155209398L258.67907885825895,99.8181510851462L259.2191078203125,93.26973721594753L259.61196917745536,92.05363405463581L260.1216943560268,82.72709251156579L260.86794444977676,81.93564434616673L261.41069298214285,85.94061338604332L261.4502433046875,93.59815751791669L261.819560953125,94.09009106473098L262.32314767299107,96.83337106955818L262.8481024453125,96.49655486171517L263.4457862979911,95.9326035172321L263.54687661160716,90.9362187695962L263.6757065424107,95.03586871859267L263.67889232477677,94.88846611483652L267.88490206808035,96.12244575651066L267.97977622098216,93.96295259432682L268.35196884375,92.72066075535825L270.19925640401783,87.58915629855277L273.3729172566964,82.49985348122499L273.7115426116071,84.33446131542787L276.80532579910715,78.78832634604349L277.35421279017856,77.02413332327735L278.5915395803571,77.8490633027346L278.98020502901784,80.9966294002094L279.70889446875003,82.4302254474834L282.6926516116071,82.08163301214405L283.02474999776786,86.7882839444181L283.0337634308036,84.08521686849485L285.6043789921875,83.29785598119373L285.64253067857146,83.43951752072509L290.51436893638396,83.25870174589785L292.09032108147323,81.00993398321384L293.1675817332589,81.85017124227001L294.5128366138393,77.48064184175125L294.64189965066964,72.58444169169759L295.77906855133926,79.35683749816833L296.8111843359375,77.5827184900944L301.20103703236606,83.57642311796837L304.29987085044644,83.47544578894784L304.7426168973214,80.8519158178212L305.1841197120536,80.30032596741964L305.30766590625,80.3444964829898L306.57871536830356,74.26535099672948L306.9246447120536,69.5635830260387L308.5304344285714,65.95464445340629L308.77744911495535,63.160956315898865L308.83502630357145,63.189861418511505L309.41981162276784,62.74600883346989L311.2730045357143,64.37669524165041L312.00153857142857,64.5764234627818L312.4435075982143,65.95561800955304L314.2939809408482,73.19041738999461L315.04636949330353,71.78493924123677L316.99513587723214,75.71179231357398L318.07907890178575,70.25680827102522L319.0646511830357,70.52932967346082L319.2276699977678,76.15031877155323L320.21541793526785,75.68213825698871L320.3210926674107,70.3798904456789L324.10238322991074,65.59376820458301L324.11792363169644,66.58812369452583L324.68817867522324,71.46781310356984L325.26534919754465,69.32312216079947L326.101500515625,69.5132019043162L327.4019213370536,63.56833733696444L328.0219833683036,62.05262636894377L328.4891278459821,61.57544887347527L330.4403806941964,62.83207804496473L330.5706092611607,64.25449975984179L330.6689800044643,62.0356684201084L331.3532238950893,61.93610320445303L331.7095653080357,63.154895006015025L332.7533363939732,67.5755003030821L333.3938340535714,66.08067747286466L333.52305249441963,65.50530714116839L333.59376132254465,67.46893567613927L333.8221275267857,64.76151734148344L336.91847488058033,66.78777152525144L338.52869361160714,63.00708489598239L338.54881843191964,60.77162294259503L338.6074834486607,65.27965598957405L339.05636795424107,65.56369760921652L339.2311197723214,66.28493640245416L339.50781662611604,64.63649894844907L340.4659600982143,65.54947242187312L340.76791010491075,60.361038639577174L341.90002837500003,61.029624935448005L343.3913630323661,68.2471812192848L343.91725022879467,69.4153294655227L344.53645753794643,69.41359370285903L344.6383248716518,67.68655110102884L345.6172924821429,63.35095102050634L347.9518493404018,58.236210558313566L348.650001890625,54.71477663931276L348.8325239095982,56.681650304021375L350.93568418526786,51.65523315912805L351.50834799107145,56.57138889372268L351.5887695703125,53.79181151955404L352.3920529386161,54.065468912560064L355.58513929352677,51.53927153594927L358.31185819084817,55.418849479735975L358.6654023314732,54.54139275517553L358.80005991294644,54.11730084528853L358.99851084374995,56.34508411495156L359.17380657589285,64.47251151454773L359.33900104687496,60.53225228850761L361.273159453125,61.09981681057735L361.4751069743304,65.03457201099678L361.7211892366072,67.42792747138114L363.54128109375,67.0674072411256L366.72481010156247,65.19716758803162L366.8966092433036,67.0499210908634L367.3239702924107,66.82191964333799L367.37875020870536,60.820800528774804L368.0419368549107,54.72893137760973L369.80041101897325,58.55780725069965L370.10344885379465,56.835547623767035L370.4568375904018,56.977033026120225L371.41156217410713,56.5425444332427L372.1718763314732,55.85385119862399L373.18223555357145,52.239788046824685L374.2971039776786,54.69995831483144L374.699134171875,55.8059989307435L375.3915367734375,54.381966110624425L377.1242138705357,57.07379920685893L377.4236774129464,59.92421340287559L377.65375306138395,56.79222075892151L378.1375257689732,51.65406458408334L380.9044943069197,49.67691068128733L381.15624881584824,50.52949162747964L381.63364995870535,43.73941197961345L382.56856053013394,43.14309282483195L383.4933698404018,43.54003268794871L384.4119629899553,47.44966600805991L384.7283655703125,51.990777510340195L385.90042267299106,49.197888949887684L386.0148000301339,47.616954261193676L386.9309844174107,47.70331931192651L387.0570170758929,55.139834448215915L387.67544736495535,56.88776865546165L390.20581328571427,52.09694941272033L390.6550863013393,54.40536919640114L390.87280733035715,51.66234829203995L391.28066517522325,45.97030723121841L393.8381490970982,50.085195849497595L394.76629959375,49.97922363952411L394.92131510156247,49.72832005629004L397.09759296763394,50.7843515144796L397.5617847689732,46.925584936472035L397.78517804464286,45.33028534506906L398.01261182477674,43.72274732338367L398.4478207767857,42.29056070399153L399.5692938716518,38.73535841426744L401.0687872399553,37.30663947973988L402.03174823660714,43.013225227765176L403.9694809352679,43.828816811153246L404.51860103236606,44.54640087847053L404.6530255078125,43.852562052350876L405.0111540669643,42.71733674689603L405.14946364285714,51.524044612011835L405.7014587142857,50.301432214093275L406.0739621450893,49.281964928466365L406.9701771160714,50.12550436813579L407.7775009888393,44.679296098791575L408.0036138348214,46.15770522009767L408.9618350089286,46.62490401808428L412.15204638950894,43.89773549648477L412.4747428325893,45.127394090024026L413.38408944308037,51.17410000363897L413.8231834955357,50.770419202304296L414.31558112611606,49.15016466395009L415.58530965401786,50.717998029290605L415.89192178125,53.20483362589475L416.3763161049107,60.32553941658494L417.0212427790179,53.99143933268901L417.4032258549107,56.039480375888964L420.24494372544643,58.88522836111856L420.2872913203125,56.67931423709516L422.0383060915179,56.80306734775368L423.4313477075893,58.943440947469185L426.0171928627232,57.833647236909485L426.57462707477674,56.00799649872125L426.63166034933033,55.15621217526051L427.00587322433034,53.41503103694388L427.2177666026786,50.298190775425596L427.9147536227678,49.47403030763122L428.15897103683034,45.498340871209614L428.3140642466518,36.12157993224952L428.7729723113839,37.05653562199932L430.70169157700894,38.984852237659524L433.70106682366077,48.193503106219985L434.10115446763393,51.4449988001964L434.3780067254464,53.677875151868854L434.6816661763393,53.160274560843575L435.59909379575896,49.09386688291033L437.4930802633928,47.94272743489966L437.7700102232143,45.790044113098276L438.7335151339286,45.018031929185355L438.7401198046875,48.95872882703975L438.8091191886161,53.17035793520183L439.48636989843754,47.19392332849073L440.59680930803574,50.0734644248601L441.0240926551339,50.92524067789726L441.30483001339286,52.02542364757729L442.02963435267856,51.701862551746274L443.06143932924107,52.57190494966993L445.6904090993304,49.165958429776424L445.98295716294643,51.55721066995114L447.6089494017857,50.100747021068344L448.73228734486605,49.97739821935889L448.95847789285716,48.25804946973933L449.3844403058036,47.16819346460286L449.50285816741075,46.091813246849725L451.0420572622768,44.019778024935135L451.9115427421875,44.15509239588284L452.7360387589286,39.50024598789071L453.04824543080355,43.983025224847985L453.2667434799107,50.02285664228075L453.78594830357144,50.18246506671939L454.06684106584817,55.46508146325279L454.268322375,55.09864018280923L454.39140235714285,51.91066572988298L456.1371333917411,62.069227425563746L456.43512059598214,57.73461080484835L457.4294732042411,58.9285073215084L457.4970739520089,61.21125865959235L459.61981513392857,57.52526300939126L459.88516749441965,57.54376199965867L460.16978995312496,59.79583996122941L460.32752503125,55.53455518257172L460.4614055926339,64.81379226094298L462.27916638950893,60.678753360930685L462.61351813392855,56.52935230683892L463.8513111361607,50.40539924310646L463.91673622767854,50.31096682054547L464.30050644977683,61.92413679000221L464.59056804910716,62.08273300290722L467.56531175892854,56.27340001665331L468.067422140625,48.2014325900526L468.46471251227683,41.6790847840259L468.62128206026784,50.38458790865906L470.0294755680804,44.14001167911746L470.59429147098217,44.76319172506019L471.60162031473214,46.33292882473289L472.65471564174106,52.47312153704638L474.0878514944196,50.35567601032912L475.23411153013393,45.26824952233975L476.8141818816964,42.169751944183226L477.64116436272326,44.328719864149605L479.1408908370536,40.39923417466235L479.69949057924106,40.12379981095619L480.19111118973217,44.60876161564551L481.0395394252232,44.24082464373016L481.982919515625,46.58645793275759L483.6382831138393,56.68576097685621L485.5996372232143,49.923573206708205L485.6516198671875,48.24340712319305L486.049298748884,52.30587856546287L488.1669115982143,52.48526060470705L489.74550561160714,48.58689186825226L490.9153093560268,43.91571148392944L492.0752449453125,43.00593845855813L493.1552251674107,38.086005148298696L493.5581100837054,37.69359651191472L494.6020365736607,36.71939858491537L495.1659977544643,39.69121292485189L495.74246895870533,40.06538347377521L496.2506400970982,40.25092598939956L497.5778681116072,43.13305212749204L497.72892081696426,42.81936434865236L498.26646331473216,44.817921201299185L499.35118335937506,43.28388774228931L501.102586640625,44.13272826198154L502.66564025223215,43.08540707073203L504.2256634854911,43.886603375265885L504.3555035424107,47.27306173550846L504.666311578125,49.96643352798549L505.2021446316964,46.93009986019537L505.3166773928571,48.3145305237939L507.82303339285716,44.78107120073859L508.37331902008924,42.399806911762695L508.5770536875,40.784642500322555L511.07975769308035,40.96450978534451L511.5578581540178,41.44191258988969L512.1204206986607,46.74404346476889L512.2466087611607,46.2393573478475L513.0867228816963,46.694227860874236L513.5021178214286,42.95278269240338L513.65721103125,43.02156817314007L514.0907105390626,43.38768697259409L514.9582534687501,39.847303813915154L515.42819521875,42.95739535826104L516.0845440881697,45.18583075019703L517.5568417533482,43.88005238702284L520.4172858080357,43.968380637296896L521.5175462544643,46.145385444198546L521.7703885915179,51.69071574758822L522.4045146863839,48.57887709374577L523.4032963091518,49.15854670847877L524.0478344732143,46.92383705288795L524.4913575401786,48.562575545281916L525.1439767131696,45.76335973519321L525.1972802912946,42.0467616581322L525.3832211986607,37.71990501044835L526.3537969921875,34.54289217416509L527.9708535,37.81537315705671L529.2150180669643,36.81935924690652L529.7727630870536,38.150708976940656L530.0984122064732,35.628909292322554L531.7311645200894,37.93059281820518L532.2033596283482,39.3072146894832L532.2477274754464,39.2279053662628L532.2601597968751,40.8897667455772L533.3723086506697,42.63779593168779L533.3834977399554,40.2605735504214L533.4752638125,39.92407638532877L533.5451956205357,39.742884656498184L534.153990860491,41.452730315181846L535.884803109375,46.50403076180644L536.6782183225446,45.691041621687134L537.2988242678572,44.45178504033936L538.659930358259,43.76810083151821L540.9536159598214,45.845333217356064L542.0088869430804,48.67503743482933L542.0335961819196,50.10901818115727L542.1584633102678,48.8641636154476L542.2960735680804,49.462528968878686L543.4633131462053,56.56122199276477L545.5181427723214,51.557813958957894L547.9880565301339,49.345729055001165L548.988780703125,47.86372217745523L549.9965757589285,44.4984868100445L550.1991448962054,49.26499014034863L550.5383141651786,46.768707221967816L551.0357624263393,44.97532985228132L552.0028416294643,44.4271883856964L553.9633410167411,45.76440116021725L554.2971488470982,46.802992485791L554.5089645234375,46.61432228540319L555.0215646763393,46.265325364594915L555.376507453125,40.9417213512463L555.7577135089285,43.1536913466569L556.4487951763392,46.852216927946316L557.8031411919643,44.846057381991564L557.8166613415179,40.599470417312006L560.7011930189732,43.835892687783726L561.177972545759,44.09923621879568L561.2503131160714,43.224887174499415L561.2811608136161,45.47924245095552L561.5557597131696,51.11317789631127L563.4365368392857,50.51548498759866L564.5254527924108,45.41798109920976L564.5649254129464,44.42339310167525L564.65459353125,41.938737195137705L566.1500463950892,40.919588018352094L569.6510658113839,41.91949008195286L570.0292414888394,43.765211336976854L571.4035569207589,47.574543228168274L571.9146030334821,45.88548767963288L573.3793636037947,48.440907713112L575.8163317098214,45.369193194066646L576.2673918716519,42.35268884480409L576.2974625491072,46.125282615324345L577.77815203125,42.78223868294027L578.0377544430803,41.22771259465026L578.36122790625,40.728908989120036L578.7916193337054,37.77654149793664L579.1313325167412,40.56483540607813L580.3632978683036,42.23894288802516L580.7539835691964,41.33021746436826L582.1614000569197,43.57986000665081L582.6560510457589,49.91171473959102L585.3338176774553,48.50023116667286L585.3647430770089,43.71539705230452L585.6868956060267,40.3355804941036L587.0609002299107,43.03777273617293L587.1107072176338,40.71091630033625L587.7860153772322,42.001375731745014L589.0961489497768,42.362493080687585L590.4219783281251,37.80490153852468L590.5288185904018,39.49279417306306L592.4885409575893,46.197758723634685L595.4252106830357,44.84084609546745L595.6673301428572,47.482516920668054L596.3406957522321,47.16841149883221L596.6002204620536,47.145487495487366L599.0330703616072,45.782667375017134L599.0462797031249,47.96820855036941L599.9404744218749,48.084039322159455L601.0617144107143,46.73432260937377L604.0748429129465,46.73938409545102L604.7564449352678,49.51725364912864L607.4892245892856,50.57846009790926L607.6593142868304,47.04499913127096L609.972347688616,48.57360299938763L610.3418207410715,48.57835612387527L610.497768672991,44.90336140841247L610.8837922533482,47.69208062802045L611.9382862165178,44.635340745789634L613.4059994631697,44.56141847937447L617.0310312857143,46.9022830204554L618.2536723962053,43.6062799337332L618.7315397511161,44.35302846794784L619.4689318158482,48.646597252071686L619.5701775334821,47.472005345079566L620.9450368794643,46.395856359978296L621.0634547410715,43.5819993972391L621.5388356316964,42.58771745951142L622.373666015625,42.888820905388215L624.2590275602679,46.33845069752484L624.6528990435268,46.54295623237117L625.2883460725446,44.54832211305936L625.4653512488838,42.72216712473884L627.8346409051339,43.0269185316828L628.2987550044643,44.36972225559178L630.9943153962054,43.38031526698043L631.7927035379464,41.26321003829142L632.0507519095983,43.26055959470263L632.0957413727679,40.08017100339887L632.7938162209821,35.835780392283844L632.9407507198661,33.33370675488449L633.4237464073661,27.192914064621885L634.5947933839285,24.68219704846784L636.7772874107143,32.365649214178845L639.3705142566964,34.34750568202945L639.972549421875,33.87211855493577L639.9952384084821,35.64547822145982L641.8256646328125,36.48042046692088L642.5405231149554,35.02468396875155L642.8165983526786,32.304667349736185L643.3484686037947,32.86955332035823L643.6163074285714,33.042018999059955L644.2836122812499,36.47736914473487L645.3875247220982,35.73884796122594L645.5607225,41.38544519462951L646.4842108761161,42.914315562965086L646.9299095993305,42.849084177318154L647.493793078125,39.50266072215584L647.6524605803572,36.280951427543336L648.1680134095982,36.43125236169152L650.9300867209821,32.416008097500544L653.1035673147322,27.943886233511115L654.9870640111607,32.75919529051981L655.2125552410714,34.451075540451626L655.531832795759,37.40389922020312L656.4445982946429,41.519317627069334L656.6731199029018,39.13817840585474L657.8621937455357,38.426332258026456L657.9115345212053,38.26063598813144L658.0145673850446,42.766773582811254L659.2405496819197,41.57996264153497L661.1100600167412,40.38070471057034L661.5249887444196,39.09830836248538L662.745065688616,38.04413797939963L662.7902882578124,38.38389853136426L666.2805070948662,40.47684530039834L666.8495966082589,40.46956405246993L667.1283914162947,40.58666311767353L667.5180669910714,38.34721767501217L667.9281781941964,34.05025556788363L668.5587299966518,40.08674703068805L670.0610206372768,38.54333256107387L670.3330553705358,41.49176653016492L670.4248991450893,44.97101445529829L671.8494100747768,50.911107349325164L672.1468533649553,47.82444282526085L673.7826360569197,44.88335169324444L675.4830668203125,43.29178947401522L676.6433909196428,42.43888772981208L678.0539931897322,39.70210403237786L681.5027191540178,41.248638334544886L682.7479715491071,49.237904285102424L682.8888452912946,48.977332051477624L682.9847295703124,43.889467744279244L683.4296512734375,40.740441121344155L684.1849925022321,47.59658341814119L685.0383159642856,51.25126165987565L685.2287635881696,55.48920203332743L685.6406619375,54.0402431792219L685.6968404899553,54.002776666180225L686.846053202009,53.75850403034933L686.9146640758929,56.814212914046415L687.7723388504464,57.80668507645895L688.5389468705357,53.52071370534962L689.2185286406251,50.29954662433126L690.1697566339285,50.92824539272671L690.417159830357,45.26604242449804L692.0134699017857,44.32994754346286L692.0797497154017,42.97322290990981L692.4614219832589,41.83067094005815L692.6096774162946,43.38453662125692L694.1361333816965,43.74459423666789L695.778132234375,43.4960001181639L697.3288312265626,40.86166202428837L697.536062484375,40.91434487821968L698.5496851908482,40.53199306653361L702.0817854107142,40.005385756589085L703.1157660435268,38.36149937501178L704.4453251183036,35.19266777916677L704.5919488091517,36.719323214335155L704.7079579084822,38.463925390141355L705.4164448258929,36.87451154537202L709.4918374921875,40.38087068038945L709.62944775,39.954028122157524L710.5798987232142,42.68752113838584L710.5809865513393,40.20935637952841L711.1306505624999,38.3824725042226L712.5325502075892,39.909619360799944L715.1696009866072,43.82748938599625L716.0209818984374,42.07025741281482L716.52845371875,40.945805060064885L716.8905450803571,42.14717797487951L719.7735227176339,42.63329535841916L720.8984147008928,39.715582907131584L721.2504048013392,39.79789228570108L725.684625344866,35.94151874101904L725.9354474296875,39.20086463793942L726.4194532433036,37.96464279939314L726.6944406529018,36.2162694240151L727.8656430334821,36.8279683895539L728.5254107912946,41.407022168221054L729.9226483158482,41.2068189064518L730.0186879988839,38.70644773118822L731.682987328125,38.245594302940304L732.9791345390626,35.78057881410864L734.3874057488839,33.84565402157153L735.2400298928571,36.855790729987426L736.2412202779018,40.27875912730744L736.5423155625,41.43041247937109L736.802306484375,40.3464737125705L739.1832514419643,35.63925647598557L741.42666384375,36.62568359265368L743.676370108259,40.32776728951084L743.8520543504463,37.68785090785023L744.2435170714285,39.66175819122863L744.7087967008928,39.67783855981885L747.36402975,43.6239277343646L748.6130895435268,43.83139403598501L749.0082042589286,43.35598090348806L750.234885873884,43.85743619896937L752.9731823705357,44.79537213335239L753.3412567868303,46.21233615447072L753.9722748013393,49.69560766694986L755.7263976529017,54.54290816550748L755.7448130290179,48.02900561827372L756.0476954598215,45.45878685720271L756.3681385446429,49.001187418588614L759.1694513705357,51.23038195914543L759.2114104553572,51.75127179307666L760.2740631294643,50.35327998590527L762.0768274386161,47.53369737913996L762.2150593125,44.93543326690714L763.4940343794642,37.9903751605402L764.8605796104911,38.9032177920064L765.4013855926339,43.33319557149575L767.2871356473215,38.767830151916264L768.0585611919644,36.77022982849452L769.9493618772321,37.60934635582021L771.3789234374999,38.304718164804044L771.8612198069196,36.72402045992643L772.3006246674107,34.87271725731057L772.6971380189732,35.34813796949247L773.0967594508928,41.80172699372314L773.3172777522321,40.68679281934375L773.5222556517858,40.47728852096045L773.691568329241,37.33441816243664L774.5448140892858,37.51157374939688L774.8932298973215,36.06524554562523L775.5827575245536,34.32699327662289L776.0221623850447,34.76926501837553L776.2569778560268,37.96305725657405L776.8991849598215,38.08981895240636L778.1900484341518,38.83366638018677L779.7140179352679,39.804123743100334L779.7468081830357,39.30632969516391L780.2720737633929,42.97712914222205L780.7964846216518,44.29143074820846L781.2880275301338,44.383278701524354L781.3428074464285,46.354116857703914L781.8408773236607,50.4407623146369L781.8445293180804,49.32794018269446L782.4782669029019,48.693334615986814L783.0652278783482,46.515097511079034L783.7678871450893,43.02964545271091L785.6466440189732,42.08785668199295L786.3511681339286,40.73006956451879L787.348318014509,43.768238870434864L787.8843841741071,43.676645038347104L787.9937886026786,42.62031440016703L788.6141614419643,40.364598055952456L789.123653514509,45.5943993048345L790.5867046406249,50.66941100183362L793.3393760089286,53.09342417848977L793.7032545167411,60.48741263903896L794.1998480558036,56.17363335394186L794.2154661595982,57.073996862596864L795.0418270245536,53.86281321273377L796.2429446785713,50.921741179492315L796.37068678125,51.2450418257785L797.2707091506696,53.04164662416217L798.1091915290178,50.04062229200553L798.1098131450892,48.54984193237674L798.4782760714286,50.60772007300106L798.8285567276786,49.85475984659139L800.1204303281249,47.726943318644565L801.7778141785714,49.254696962742116L801.7894694799107,51.29769207075175L803.9979936796874,47.781900256071225L804.0866516718751,42.00677879337535L804.3196799966518,48.664122113941396L805.590185544643,48.20211255408562L805.6009084218749,47.483209251904164L808.3155058058036,48.97897658993009L809.4086176674107,48.749587500145765L809.8051310189732,44.544434448010044L811.0482854598214,40.50196972114518L811.2419965680804,50.309445584568216L813.1187331897322,48.98332540163199L816.021291733259,48.074568123342424L816.1648850457589,41.4251584964767L817.0207726741072,41.12777485103185L817.836954575893,42.71939678686624L818.3880949252233,41.205593767034834L820.2120718828126,43.765833351030246L820.6027575837054,43.86673297372322L822.1649564732143,45.45881545612703L824.1155100033482,42.96360730090193L825.5993852678571,45.51226998727566L827.8807162500001,45.13423593785345L828.7146919118303,45.207483965126514L829.2288461049108,48.71948594703843L829.4078715334821,48.61773981092316L830.8621423325892,48.65265151757919L831.20294334375,45.376850806522874L831.2937769921874,42.462073449173445L833.679927984375,43.15995416949502L834.5582714933036,37.976477216734416L835.85449640625,41.060059816426L836.0478967064732,40.574340512355356L836.6646175513393,43.51278480961227L841.0745173660714,44.960568576449504L841.1862528549107,41.54339561346152L843.11683696875,38.777221003011114L844.9467192790179,36.17747072853892L845.0885254453125,36.02274944049711L846.6771430178571,41.434171166690305L849.812341376116,48.43871898727241L851.785739296875,47.162455684725835L851.8024452287947,44.65926419116102L851.8763398392857,47.199222745576705L852.2594884453125,46.53188957515829L852.3224270725447,47.89470896062885L852.7329267857143,54.45405805333846L853.8100320334821,48.414038068647294L854.1274447399554,48.69072578136874L855.1873001417412,47.65073601188351L855.3510182745536,46.44949536468262L857.5541810357142,47.877369881834014L859.1504911071429,50.73313627063187L859.6533785089287,51.30614808074931L860.2151640334821,48.101210055698765L860.675548436384,45.914192248486245L862.7193443772321,46.03480213252924L862.747705610491,45.592085829209786L862.7577291696429,45.42174827936955L862.9334134118304,46.4258910769345L863.7556560703125,48.49150675454427L863.7670005636161,50.22607194154696L863.9924140915178,52.577993434933965L865.2347138102679,51.09235799606383L866.6861873370535,52.05913794888793L867.2338310959822,54.50516904964465L867.5393553950894,53.03882420019982L868.0338509799108,49.54737484216323L869.4725813772321,52.54185303360787L871.4064289754464,53.04635430537402L873.6207031238839,50.4100624612845L874.6392987589286,50.92100114962189L875.9046759743303,49.4960485306072L876.9202412310267,54.75007717549015L877.7138118482143,53.72580595513123L878.7613903325894,51.96189201752301L879.7214763549107,54.22670645459459L880.160648109375,56.2269791119527L881.1945510401786,52.76651100649856L884.1647103314732,54.17964204145726L884.1905851004464,56.99184305821468L885.0374592957589,58.80880564948753L886.6598772421875,55.24335448663102L887.161909921875,59.150970602767394L887.302162047991,54.454341436699096L888.0099496473215,57.2240198935697L888.6024274654018,56.36775405746872L888.9436169866071,62.03387553078244L889.1604832935268,61.8624413495702L891.2591368526786,56.63434928937298L891.3374604776786,52.647421709679186L893.2884025178572,56.98619372411886L893.3476891506697,54.08803879800328L894.6453904017858,50.358386382466506L895.3360058571428,50.15132000685216L896.5929912555804,46.54949638285345L897.0881861584821,44.70976098567734L898.8308868147321,45.913276274242214L899.38365890625,54.01065604921377L900.918506688616,51.67864039200075L902.1929750390625,47.482360337805375L902.6743389843749,44.66548556900268L903.5416488080357,43.71767795802724L905.8825772310269,47.826577211392504L906.6123544988839,43.6131509815861L908.3112312220982,47.08962877825852L908.3902541651786,54.683315222662664L911.1642158839286,54.741871904692665L912.8104106450893,57.343586831266705L913.0319390725447,58.595135055136105L913.2300014933036,62.58619453964463L913.4944214296876,58.37255912554242L914.2146413504465,54.76787483252101L914.2953737377231,56.52599413655954L914.5190778214285,54.23375562331713L915.621669328125,57.24958127216101L915.7334048169644,55.77151191975865L915.891373001116,60.59808563008015L915.8990655,62.433538280326644L916.812841125,64.53567675463243L916.9028977533483,66.86049125896544L918.1455082801339,64.42928388067261L919.1341109397322,63.543816901203826L919.1893570680804,64.8651531608557L919.7268995658482,60.93985297999593L921.6731794854911,55.93022693617315L921.8773026629464,53.37575512245973L921.9020896037946,52.527042631205774L921.9999164330358,53.55856451616719L923.4696499319197,53.25992835156376L926.2962936127232,54.19762409953367L928.1118010513393,55.251072280289655L929.756907984375,51.25879300489572L931.2225232767858,55.68318801196627L931.2531378683036,54.94085735537378L934.1688280513392,59.01892903964221L935.0468607522322,57.708649025693994L936.3496126339286,56.459356485133846L940.3995190412946,54.76038608009232L940.9646457522322,57.90974850902361L941.3948817756697,60.76921495363349L942.7323664553571,64.15689191268353L942.8387405055804,69.40389753719205L943.5011501316965,67.16739127542886L943.7760598392857,65.8086177191782L947.389669466518,64.69208000559505L949.9950178258928,65.44729620662451L950.101547280134,63.64384055765453L950.8418143191965,60.120776508449204L952.0304996517857,62.2022848768905L952.0391245747768,60.49305427218759L953.0200347354911,58.35094741119317L955.6998993214286,56.36943900282451L957.1355216383928,56.33418654335895L957.8059345714286,57.44495927235454L958.0172063337054,56.77029367695175L958.5991166785715,56.23241023888983L958.9542148593749,55.862998481813555L960.3585232667411,57.805339537752744L961.46383434375,65.57355878317375L962.5553921651785,61.28880186052341L963.3876583828124,60.09468384856102L964.7865276495536,57.64613079379722L965.9791757845983,59.97965398544936L966.1261102834821,56.945272020844136L966.3613919665179,55.72536922800343L966.6958991149553,52.701846678091925L966.8617152020089,51.69435434355476L967.3171266763393,56.801593050387865L967.9574689319197,57.631055062520105L968.4251573236608,59.53255989648648L968.7975830524554,62.56461703514407L970.1210813705358,60.71516301898438L971.1099948381697,63.562127450622825L971.7434216149554,59.1713520677457L972.0728004308036,59.30322726228112L972.6418899441964,59.87793114890138L973.3383330502232,61.57787298221404L974.5548357020089,61.31597335612559L974.7650196361607,61.71406406349283L977.6321460636161,63.44221052726611L977.8017695491071,61.24717560041919L978.7404098169643,63.348183944342026L979.4655249642857,64.59368592326098L979.9433923191965,66.40630230219001L981.4958784575892,63.288843569046946L982.4142385011161,62.0375535626874L983.6920480379464,58.359442874563975L984.6133607578125,61.19058040089976L985.8826230736606,64.18069144561518L986.2554373125,61.8509446926598L987.1852972533483,61.08626493991887L987.3891096227678,62.91772524364826L988.1122822198661,58.27251234387926L988.865136984375,59.68510573517596L989.3415280011161,56.78138432307382" style="fill: none;" fill="none"></path></g></g></g></g><g opacity="0.2"><g><g><g><path stroke="rgb(255, 112, 67)" stroke-width="2px" d="M88.84517632700893,391.9337677819388L90.30543018080357,367.50261015210833L90.78780425223214,352.9223373958043L92.14999817075892,369.8310732160296L92.55622427343751,386.99796559470036L96.37520031026786,379.56808815002444L97.52425761830358,327.154736001151L97.61345952455358,357.2728162493024L97.68028325223214,344.8037856510707L98.21378524553572,359.2801527295794L100.72511417410715,370.2806360517229L100.79333653794643,359.1917995180402L100.94524396540179,357.15316292898996L101.45341510379464,353.7084868294852L102.71148833035714,368.3104241507394L103.50366031138392,333.81171545301163L103.51679195089285,333.3700007574899L105.12102762723215,347.1718694959368L106.16868381361607,349.50615703037806L106.23721698549107,352.576926776341L106.41911738839286,360.97851491655626L106.66589896875,350.38693613324847L108.08504845982144,350.70775454384943L108.50339607589287,336.5356672559466L109.22835581919644,362.56874945504325L109.3555540078125,329.4733991622925L109.60319031026786,323.14572315216066L109.94344740736607,353.48203100476945L112.42268540625,361.71704134259903L113.67228911383928,327.5073886871338L114.40618458816965,364.13188531058177L114.50478843750001,346.83953568594796L116.12262196540179,369.05890456608364L118.73713916183036,356.68998911721366L120.39374599218749,358.3498502186366L123.38333078571429,370.3757998875209L123.66500056808036,355.3585172108241L126.05542517075892,328.730383682251L126.89678252343751,362.11458456856866L127.0514872232143,353.4805415017264L127.13641551897322,360.91501072474887L127.70581584040178,336.26082826341906L128.05625190066965,351.34241638183596L129.103441875,357.7782405853271L129.4442428861607,354.77819655282156L130.36027186941965,369.90001152583534L131.54981192410713,343.71851318904334L132.88962766406252,374.4848251615252L133.19484115513393,351.87764105115616L133.87286888504465,337.80110795157293L134.39176290066965,353.90583057403563L134.76232378125002,360.42188249315535L135.574931390625,367.84124096461704L136.06313311272322,357.8828139713832L137.25873392410713,349.0410211835589L137.85090093415178,363.2530066081456L138.42480797209822,362.99988354274205L140.14054603124998,343.24199548448837L140.35857786830357,341.9990822383336L141.28657296093752,332.5841903141567L143.9299176026786,330.5335863385882L144.02704511383928,349.7538870675223L144.5377804185268,347.72931344168524L144.9332836439732,333.4044031415667L147.64617158370535,315.7489126750401L149.90527979129462,332.3288792201451L151.1072521674107,334.5808742795672L152.9622322265625,335.31445966448103L152.98849550558037,333.30905440194266L153.2053618125,342.7037712642125L153.358745578125,348.7461303983416L154.1384852377232,300.6838631766183L156.50287966741072,315.0341053009033L158.50588205357144,314.41948498317174L158.5297365703125,295.2037863050188L159.50031236383927,311.7761615208217L159.65843595200892,295.4427231379918L160.38160854910714,346.38545297895155L162.13953879910716,303.66971070425853L162.18950119084823,293.83564180646624L162.5316231361607,299.2186236245292L162.63978433258927,299.5811583927699L163.76149053348215,308.087330191476L166.09604739174108,311.5749039786202L167.11316668861605,295.9677472795759L168.211950796875,317.9767264229911L168.22453852232144,308.74626579284666L169.78743672991072,296.5318066733224L170.47447789285715,301.2738296508789L171.05211462723216,338.7970513207572L171.864877640625,250.92123064313617L172.24623910044645,272.65523725237165L172.44430152120535,266.20864753723146L173.3125437689732,310.3737070901053L174.4136589375,287.83690970284596L175.78067038058037,280.2180708203997L177.61661344754467,273.1385963984898L178.61671600446428,251.77433580671038L179.42155341294642,244.67400834219796L180.07020978348214,249.30124713352748L180.93472233482143,295.19100739615305L182.72000369196428,277.38694670540946L183.35296425669642,251.2975304739816L184.0501843828125,241.36934552873885L184.57692630133928,255.6250401633126L186.05000098660716,227.93160378592353L186.68257304129463,266.3751226152693L187.87957248883927,257.5649278368268L190.96504156138394,231.38770283290322L191.05167930133928,260.2483343396868L192.0172044642857,247.5564946310861L192.46500114174108,256.4899586268834L192.87316979464285,221.18941448756627L194.4704899921875,254.0918587275914L194.84765554352677,236.67317870003836L196.800073921875,236.32884668622697L197.08329774441964,216.34668055943084L197.14196276116073,239.47545781816754L197.59644181138393,228.71939680916924L197.6143909754464,236.85191906520302L199.19671468526786,242.8590540204729L199.68320696316965,204.22666620526994L199.96106934709823,212.64398144313267L201.26459824888394,222.6743360246931L203.3189616629464,201.0725151062012L203.84904476785712,203.97979905264717L208.3642308046875,205.0712657928467L209.32866813950895,149.8801445552281L211.1547430513393,192.55711866106307L212.13876129241072,168.87884832109725L212.46246786160714,182.4361201150077L212.72245878348212,185.74727510724748L212.99169624441964,134.33402666364398L213.4031283816964,187.47437956673758L214.15466221205358,151.33915901184082L214.19125985825895,156.05293279375348L214.41511934598213,181.57654331752232L215.85416055133928,179.2815170288086L215.94794687611608,168.109956577846L216.93818127790178,143.00650918143134L218.78818840848214,172.97095489501953L219.12145232477678,198.42736315046037L219.46155401785714,155.0328800201416L220.38076878348215,131.16613104684012L221.13789715848216,157.2644842965262L222.05882136830357,141.29972359793527L223.10336947433035,127.6090745108468L224.32624369084823,154.88655945914132L225.02369692299106,161.65140974862237L225.08539231808035,156.73150929042274L225.1698544017857,136.77553787231443L228.0680616328125,114.84960109165738L228.26317137723217,126.35448150634767L229.82342771651784,144.87541433061872L231.9222366796875,153.25114675249372L232.6140953671875,152.34409076145718L233.49616857254466,137.83832397460935L235.27049394642856,104.36226697649276L237.30007041964288,151.19711178370883L237.61421964174107,131.0627903529576L238.46948565401786,119.57003141130721L240.0401540625,133.27399357387L241.70686215401787,141.00252151489258L241.7692568671875,133.6558405194964L242.01059930691966,105.04160363333564L244.70266310825892,130.97420087541852L247.3174134107143,102.98954097202844L247.61780937723213,77.2284933907645L248.55730436718753,91.49115273611886L248.72630623660714,114.35611332484653L249.42251623660715,104.2508316040039L249.54272124441962,82.89739815848215L249.9167787154018,125.58922620500839L250.70187981361607,86.88992374965122L250.72386948214285,122.84459599086219L251.2681720546875,93.21971588134767L251.88178481919644,89.05050441196985L252.90869456919643,108.88978097098214L255.6817238638393,112.31847316196988L258.0213313526786,102.23595515659875L258.0932057109375,76.21756253923688L258.67907885825895,103.79826921735493L259.2191078203125,67.07608173915318L259.61196917745536,87.18922140938895L260.1216943560268,45.420926339285735L260.86794444977676,78.76985168457031L261.41069298214285,101.96048954554968L261.4502433046875,124.22833404541018L261.819560953125,96.057825251988L262.32314767299107,107.80649108886718L262.8481024453125,95.14929003034321L263.4457862979911,93.67679813929968L263.54687661160716,70.95067977905273L263.6757065424107,111.4344685145787L263.67889232477677,94.29885569981164L267.88490206808035,101.05836432320733L267.97977622098216,85.32497994559152L268.35196884375,87.75149339948383L270.19925640401783,67.06313847133092L273.3729172566964,62.14264221191405L273.7115426116071,91.67289265223914L276.80532579910715,56.60378646850586L277.35421279017856,69.96736123221262L278.5915395803571,81.14878322056362L278.98020502901784,93.5868937901088L279.70889446875003,88.16460963657923L282.6926516116071,80.68726327078684L283.02474999776786,105.61488767351425L283.0337634308036,73.27294856480191L285.6043789921875,80.14841243198939L285.64253067857146,84.00616367885047L290.51436893638396,82.53543864658901L292.09032108147323,72.01486293247766L293.1675817332589,85.2111202784947L294.5128366138393,60.00252423967633L294.64189965066964,52.999641091482985L295.77906855133926,106.44642072405132L296.8111843359375,70.48624245779855L301.20103703236606,107.55124162946427L304.29987085044644,83.07153647286553L304.7426168973214,70.35779593331472L305.1841197120536,78.09396656581336L305.30766590625,80.52117854527066L306.57871536830356,49.94876905168807L306.9246447120536,50.75651114327569L308.5304344285714,51.51889016287669L308.77744911495535,51.986203765869156L308.83502630357145,63.30548182896203L309.41981162276784,60.970598493303584L311.2730045357143,70.89944087437222L312.00153857142857,65.37533634730747L312.4435075982143,71.47239619663785L314.2939809408482,102.12961491176063L315.04636949330353,66.16302664620535L316.99513587723214,91.4192046029227L318.07907890178575,48.436872100830094L319.0646511830357,71.61941528320312L319.2276699977678,98.63427516392298L320.21541793526785,73.80941619873045L320.3210926674107,49.170899200439464L324.10238322991074,46.449279240199516L324.11792363169644,70.5655456542969L324.68817867522324,90.98657073974607L325.26534919754465,60.74435838971819L326.101500515625,70.27352087838311L327.4019213370536,39.788879067557204L328.0219833683036,55.98978249686105L328.4891278459821,59.66673889160155L330.4403806941964,67.85859473092215L330.5706092611607,69.9441866193499L330.6689800044643,53.16034306117465L331.3532238950893,61.537842341831734L331.7095653080357,68.03006221226283L332.7533363939732,85.25792149135046L333.3938340535714,60.101386151995L333.52305249441963,63.203825814383364L333.59376132254465,75.32344981602259L333.8221275267857,53.931844002859954L336.91847488058033,74.89278826032366L338.52869361160714,47.88433837890625L338.54881843191964,51.82977512904577L338.6074834486607,83.31178817749026L339.05636795424107,66.69986408778598L339.2311197723214,69.16989157540456L339.50781662611604,58.04274913242884L340.4659600982143,69.20136631556919L340.76791010491075,39.6073035103934L341.90002837500003,63.70397011893136L343.3913630323661,97.1174063546317L343.91725022879467,74.08792245047432L344.53645753794643,69.40665065220425L344.6383248716518,60.77838069370815L345.6172924821429,46.008550698416556L347.9518493404018,37.777248709542405L348.650001890625,40.62904096330917L348.8325239095982,64.54914496285573L350.93568418526786,31.54956457955495L351.50834799107145,76.236011832101L351.5887695703125,42.67350202287945L352.3920529386161,55.16009848458428L355.58513929352677,41.43448202950616L358.31185819084817,70.93716125488282L358.6654023314732,51.03156585693358L358.80005991294644,52.4209332057408L358.99851084374995,65.2562171936035L359.17380657589285,96.98222111293248L359.33900104687496,44.771215384347116L361.273159453125,63.37007489885603L361.4751069743304,80.77359281267438L361.7211892366072,77.00134931291852L363.54128109375,65.62532632010324L366.72481010156247,57.71620897565568L366.8966092433036,74.46093510219029L367.3239702924107,65.9099138532366L367.37875020870536,36.816324070521766L368.0419368549107,30.361454772949227L369.80041101897325,73.87331074305942L370.10344885379465,49.94650911603653L370.4568375904018,57.54297463553292L371.41156217410713,54.8045900617327L372.1718763314732,53.0990782601493L373.18223555357145,37.78353543962752L374.2971039776786,64.54063938685826L374.699134171875,60.23016139439173L375.3915367734375,48.6858348301479L377.1242138705357,67.84113159179685L377.4236774129464,71.32587018694197L377.65375306138395,44.26425018310545L378.1375257689732,31.101439884730766L380.9044943069197,41.76829507010325L381.15624881584824,53.93981541224887L381.63364995870535,16.579093388148735L382.56856053013394,40.7578162057059L383.4933698404018,45.12779214041575L384.4119629899553,63.08819928850447L384.7283655703125,70.1552235194615L385.90042267299106,38.026334708077584L386.0148000301339,41.29321550641739L386.9309844174107,48.04877951485769L387.0570170758929,84.88589499337331L387.67544736495535,63.87950548444475L390.20581328571427,32.93367244175502L390.6550863013393,63.63904833112442L390.87280733035715,40.69026467459543L391.28066517522325,23.20214298793249L393.8381490970982,66.5447503226144L394.76629959375,49.55533479963028L394.92131510156247,48.724705723353786L397.09759296763394,55.00847734723773L397.5617847689732,31.49051862444195L397.78517804464286,38.94908697945731L398.01261182477674,37.292595236642015L398.4478207767857,36.56181422642297L399.5692938716518,24.514549255371094L401.0687872399553,31.591763741629485L402.03174823660714,65.8395682198661L403.9694809352679,47.091183144705646L404.51860103236606,47.41673714773994L404.6530255078125,41.077206747872495L405.0111540669643,38.17643552507671L405.14946364285714,86.7508760724749L405.7014587142857,45.410982622419084L406.0739621450893,45.204095785958444L406.9701771160714,53.499662126813604L407.7775009888393,22.89446302141463L408.0036138348214,52.071341705322254L408.9618350089286,48.4936992100307L412.15204638950894,32.98906141008648L412.4747428325893,50.04602846418108L413.38408944308037,75.36092365809849L413.8231834955357,49.155695996965704L414.31558112611606,42.66914651053293L415.58530965401786,56.98933149065292L415.89192178125,63.15217601231168L416.3763161049107,88.80836257934573L417.0212427790179,28.655038997105187L417.4032258549107,64.23164454868859L420.24494372544643,70.26822030203682L420.2872913203125,47.85565774100167L422.0383060915179,57.29807979038784L423.4313477075893,67.50493534633094L426.0171928627232,53.39447239467077L426.57462707477674,48.70539354596817L426.63166034933033,51.74907488141743L427.00587322433034,46.45030648367744L427.2177666026786,37.83082972935269L427.9147536227678,46.177388436453704L428.15897103683034,29.595583125523156L428.3140642466518,-1.3854638235909311L428.7729723113839,40.796358380998896L430.70169157700894,46.69811870029994L433.70106682366077,85.02810658046177L434.10115446763393,64.45098157610214L434.3780067254464,62.609380558558875L434.6816661763393,51.08987219674247L435.59909379575896,32.82823617117744L437.4930802633928,43.338169642857125L437.7700102232143,37.17931082589285L438.7335151339286,41.929983193533744L438.7401198046875,64.72151641845704L438.8091191886161,70.01687436785015L439.48636989843754,23.288184901646222L440.59680930803574,61.591628810337625L441.0240926551339,54.332345690046026L441.30483001339286,56.42615552629744L442.02963435267856,50.40761816842216L443.06143932924107,56.05207454136441L445.6904090993304,35.542172350202264L445.98295716294643,61.12221963065009L447.6089494017857,44.274892425537125L448.73228734486605,49.484003012520944L448.95847789285716,41.38065447126117L449.3844403058036,42.80876944405691L449.50285816741075,41.78629237583706L451.0420572622768,35.73163713727679L451.9115427421875,44.69634987967356L452.7360387589286,20.880860355922145L453.04824543080355,61.91414217267717L453.2667434799107,74.18218231201172L453.78594830357144,50.82089876447403L454.06684106584817,76.59554704938616L454.268322375,53.63287506103517L454.39140235714285,39.158767918178L456.1371333917411,102.70347420828683L456.43512059598214,40.396144321986625L457.4294732042411,63.704093388148735L457.4970739520089,70.34226401192801L459.61981513392857,42.78128040858676L459.88516749441965,57.617757960728234L460.16978995312496,68.80415180751257L460.32752503125,38.489416067940866L460.4614055926339,101.930740574428L462.27916638950893,44.13859776088171L462.61351813392855,39.93174809047154L463.8513111361607,25.90958698817664L463.91673622767854,49.93323713030132L464.30050644977683,108.37681666782922L464.59056804910716,62.71711785452705L467.56531175892854,33.03606807163785L468.067422140625,15.913562883649567L468.46471251227683,15.58969355991908L468.62128206026784,85.20660040719167L470.0294755680804,19.161706760951454L470.59429147098217,47.25591190883094L471.60162031473214,52.61187722342356L472.65471564174106,77.03389238630021L474.0878514944196,41.885893903459845L475.23411153013393,24.918543570382234L476.8141818816964,29.77576163155691L477.64116436272326,52.96459154401506L479.1408908370536,24.681291416713172L479.69949057924106,39.0220623561314L480.19111118973217,62.548608834402884L481.0395394252232,42.76907675606866L481.982919515625,55.9689910888672L483.6382831138393,97.08297315325056L485.5996372232143,22.874822126116076L485.6516198671875,41.522742789132245L486.049298748884,68.55576433454242L488.1669115982143,53.20278876168389L489.74550561160714,32.99341692243304L490.9153093560268,25.23098994663783L492.0752449453125,39.366846357073115L493.1552251674107,18.40627190726145L493.5581100837054,36.12396196637834L494.6020365736607,32.82260687691825L495.1659977544643,51.5784702845982L495.74246895870533,41.56206566946845L496.2506400970982,40.99309605189732L497.5778681116072,54.661556679861896L497.72892081696426,41.56461323329379L498.26646331473216,52.81214861188615L499.35118335937506,37.14775390624999L501.102586640625,47.52809034075055L502.66564025223215,38.89612230573381L504.2256634854911,47.09138859340121L504.3555035424107,60.8188951764788L504.666311578125,60.73992069789344L505.2021446316964,34.784765189034616L505.3166773928571,53.852253178187766L507.82303339285716,30.647233908517034L508.37331902008924,32.87474975585939L508.5770536875,34.32398485456192L511.07975769308035,41.68397892543246L511.5578581540178,43.35152380807061L512.1204206986607,67.95256696428571L512.2466087611607,44.22061288016182L513.0867228816963,48.51370991298129L513.5021178214286,27.98700201851982L513.65721103125,43.2967100960868L514.0907105390626,44.85216217041017L514.9582534687501,25.68577117919921L515.42819521875,55.39776153564452L516.0845440881697,54.099572317940854L517.5568417533482,38.656938934326156L520.4172858080357,44.321693638392844L521.5175462544643,54.85340467180525L521.7703885915179,73.87203696114676L522.4045146863839,36.13152247837612L523.4032963091518,51.47722516741071L524.0478344732143,37.98499843052454L524.4913575401786,55.11752951485771L525.1439767131696,34.56649649483818L525.1972802912946,27.1803693498884L525.3832211986607,20.41247841971262L526.3537969921875,21.834840829031794L527.9708535,50.90529708862306L529.2150180669643,32.83530360630581L529.7727630870536,43.47610789707729L530.0984122064732,25.541710553850443L531.7311645200894,47.13732692173548L532.2033596283482,44.813702174595406L532.2477274754464,38.91066807338169L532.2601597968751,47.53721226283481L533.3723086506697,49.629912676130026L533.3834977399554,30.75168402535575L533.4752638125,38.578087724958124L533.5451956205357,39.01811774117606L534.153990860491,48.2921129499163L535.884803109375,66.70923254830495L536.6782183225446,42.439085061209525L537.2988242678572,39.4947587149484L538.659930358259,41.033363996233255L540.9536159598214,54.1542627607073L542.0088869430804,59.99385430472239L542.0335961819196,55.84494116646902L542.1584633102678,43.884745352608796L542.2960735680804,51.855990382603245L543.4633131462053,84.95599408830917L545.5181427723214,31.54418182373047L547.9880565301339,40.497389439174114L548.988780703125,41.935694667271214L549.9965757589285,31.037545340401792L550.1991448962054,68.3310034615653L550.5383141651786,36.783575548444475L551.0357624263393,37.80182037353517L552.0028416294643,42.234622519356854L553.9633410167411,51.1132522583008L554.2971488470982,50.95735778808592L554.5089645234375,45.85964148385186L555.0215646763393,44.869337681361614L555.376507453125,19.64730529785157L555.7577135089285,52.00157132829939L556.4487951763392,61.64631925310407L557.8031411919643,36.82141919817244L557.8166613415179,23.613122558593766L560.7011930189732,56.781581769670744L561.177972545759,45.15261034284318L561.2503131160714,39.72749099731447L561.2811608136161,54.496663556780135L561.5557597131696,73.6489196777344L563.4365368392857,48.124713352748344L564.5254527924108,25.027965545654297L564.5649254129464,40.44504111153741L564.65459353125,32.00011356898719L566.1500463950892,36.84299131120955L569.6510658113839,45.919098336356036L570.0292414888394,51.148096357073115L571.4035569207589,62.81187079293386L571.9146030334821,39.12926548549107L573.3793636037947,58.66258784702845L575.8163317098214,33.08233511788505L576.2673918716519,30.286671447753914L576.2974625491072,61.215657697405135L577.77815203125,29.410062953404015L578.0377544430803,35.009608241489964L578.36122790625,38.73369456699916L578.7916193337054,25.967071533203125L579.1313325167412,51.71801103864398L580.3632978683036,48.93537281581334L580.7539835691964,37.69531576974053L582.1614000569197,52.57843017578125L582.6560510457589,75.23913367135184L585.3338176774553,42.85429687499999L585.3647430770089,24.576060594831198L585.6868956060267,26.816314261300214L587.0609002299107,53.84654170445034L587.1107072176338,31.403490556989393L587.7860153772322,47.16321345738001L589.0961489497768,43.80696247645787L590.4219783281251,19.574535369873047L590.5288185904018,46.24436471121653L592.4885409575893,73.01761692592075L595.4252106830357,39.41319558279856L595.6673301428572,58.04920022147042L596.3406957522321,45.91198981148857L596.6002204620536,47.05379148210799L599.0330703616072,40.331386893136155L599.0462797031249,56.710373251778734L599.9404744218749,48.54736240931922L601.0617144107143,41.33545575823102L604.0748429129465,46.75963003976005L604.7564449352678,60.62873186383929L607.4892245892856,54.82328589303153L607.6593142868304,32.91115526471818L609.972347688616,54.68801847185408L610.3418207410715,48.597368621826156L610.497768672991,30.20338254656109L610.8837922533482,58.84695750645229L611.9382862165178,32.40838121686661L613.4059994631697,44.26572941371373L617.0310312857143,56.26574118477958L618.2536723962053,30.42226758684431L618.7315397511161,47.34002260480607L619.4689318158482,65.82087238856727L619.5701775334821,42.77363771711079L620.9450368794643,42.0912604195731L621.0634547410715,32.32657154628211L621.5388356316964,38.61058970860071L622.373666015625,44.093234688895095L624.2590275602679,60.13696986607143L624.6528990435268,47.36097837175644L625.2883460725446,36.56978563581193L625.4653512488838,35.41754717145649L627.8346409051339,44.2459241594587L628.2987550044643,49.740937151227655L630.9943153962054,39.42268731253489L631.7927035379464,32.79478912353517L632.0507519095983,51.24995782034739L632.0957413727679,27.3586166381836L632.7938162209821,18.85821794782364L632.9407507198661,23.325412205287407L633.4237464073661,2.6297433035714164L634.5947933839285,14.639328983851835L636.7772874107143,63.099457877022886L639.3705142566964,42.27493155343193L639.972549421875,31.970570046561114L639.9952384084821,42.7389168875558L641.8256646328125,39.820189448765355L642.5405231149554,29.201737976074234L642.8165983526786,21.424600873674677L643.3484686037947,35.12909720284597L643.6163074285714,33.7318817138672L644.2836122812499,50.21876972743443L645.3875247220982,32.784763227190275L645.5607225,63.9718341282436L646.4842108761161,49.02979703630721L646.9299095993305,42.58815863473074L647.493793078125,26.116966901506693L647.6524605803572,23.39411424909317L648.1680134095982,37.03245609828404L650.9300867209821,16.3550310407366L653.1035673147322,10.055398777553014L654.9870640111607,52.02043151855469L655.2125552410714,41.218596540178595L655.531832795759,49.21519393920897L656.4445982946429,57.980991254534025L656.6731199029018,29.6136215209961L657.8621937455357,35.57894766671318L657.9115345212053,37.59785090855191L658.0145673850446,60.791323961530416L659.2405496819197,36.83271887642996L661.1100600167412,35.583672986711775L661.5249887444196,33.968722970145095L662.745065688616,33.82745644705637L662.7902882578124,39.74294073922294L666.2805070948662,48.84863237653459L666.8495966082589,40.44043906075614L667.1283914162947,41.05505937848774L667.5180669910714,29.389435904366636L667.9281781941964,16.862407139369438L668.5587299966518,64.2327128819057L670.0610206372768,32.36967468261719L670.3330553705358,53.28550240652903L670.4248991450893,58.88800615583149L671.8494100747768,74.67147892543247L672.1468533649553,35.47778472900392L673.7826360569197,33.118987165178595L675.4830668203125,36.92554059709822L676.6433909196428,39.02728075299946L678.0539931897322,28.754969242640914L681.5027191540178,47.43477554321288L682.7479715491071,81.19496808733258L682.8888452912946,47.93504311697825L682.9847295703124,23.53801051548547L683.4296512734375,28.144334629603797L684.1849925022321,75.02115260532925L685.0383159642856,65.86997462681362L685.2287635881696,72.4409635271345L685.6406619375,48.24440776279996L685.6968404899553,53.85291061401369L686.846053202009,52.78141348702569L686.9146640758929,69.03704844883511L687.7723388504464,61.77657372610908L688.5389468705357,36.37682822091238L689.2185286406251,37.41487830025811L690.1697566339285,53.44304046630861L690.417159830357,22.617230551583432L692.0134699017857,40.58556801932197L692.0797497154017,37.54632437569755L692.4614219832589,37.26046306065151L692.6096774162946,49.599999346051874L694.1361333816965,45.18482469831192L695.778132234375,42.5016236441476L697.3288312265626,30.324309648786276L697.536062484375,41.12507629394531L698.5496851908482,39.00258581978936L702.0817854107142,37.89895651681081L703.1157660435268,31.785953848702565L704.4453251183036,22.517341395786847L704.5919488091517,42.82594495500835L704.7079579084822,45.44233409336633L705.4164448258929,30.51685616629465L709.4918374921875,54.406307220458984L709.62944775,38.2466578892299L710.5798987232142,53.62149320329938L710.5809865513393,30.29669734409876L711.1306505624999,31.074937002999448L712.5325502075892,46.018206787109364L715.1696009866072,59.49896948678155L716.0209818984374,35.04132952008929L716.52845371875,36.44799564906529L716.8905450803571,46.952669634137834L719.7735227176339,44.57776489257811L720.8984147008928,28.044733101981013L721.2504048013392,40.127129799979095L725.684625344866,20.516024562290745L725.9354474296875,52.23824822562081L726.4194532433036,33.01975544520789L726.6944406529018,29.222775922502795L727.8656430334821,39.27476425170897L728.5254107912946,59.72323728288925L729.9226483158482,40.406005859375L730.0186879988839,28.704963030133932L731.682987328125,36.40218058994836L732.9791345390626,25.920516858782072L734.3874057488839,26.10595485142298L735.2400298928571,48.89633756365093L736.2412202779018,53.97063271658761L736.5423155625,46.03702588762557L736.802306484375,36.01071864536831L739.1832514419643,16.810387529645627L741.42666384375,40.57139205932617L743.676370108259,55.13610207693917L743.8520543504463,27.128185381208162L744.2435170714285,47.55738732474192L744.7087967008928,39.742160034179676L747.36402975,59.408284432547454L748.6130895435268,44.6612592424665L749.0082042589286,41.45432837350028L750.234885873884,45.86325738089426L752.9731823705357,48.54711587088447L753.3412567868303,51.88019223894393L753.9722748013393,63.628693716866636L755.7263976529017,73.93211015973772L755.7448130290179,21.973395429338748L756.0476954598215,35.17791181291851L756.3681385446429,63.17078966413227L759.1694513705357,60.14716012137275L759.2114104553572,53.8348311288016L760.2740631294643,44.7613127572196L762.0768274386161,36.25536695207869L762.2150593125,34.54237681797573L763.4940343794642,10.210142735072555L764.8605796104911,42.554588317871094L765.4013855926339,61.05310668945311L767.2871356473215,20.506368473597938L768.0585611919644,28.779828534807482L769.9493618772321,40.96581246512278L771.3789234374999,41.086205400739374L771.8612198069196,30.401229640415753L772.3006246674107,27.467504446847112L772.6971380189732,37.24982081821988L773.0967594508928,67.61608309064594L773.3172777522321,36.22705612182619L773.5222556517858,39.63927132742744L773.691568329241,24.762936728341245L774.5448140892858,38.22019609723772L774.8932298973215,30.279932730538484L775.5827575245536,27.373984200613833L776.0221623850447,36.53835198538645L776.2569778560268,50.73822620936804L776.8991849598215,38.596865735735236L778.1900484341518,41.809056091308605L779.7140179352679,43.68595319475445L779.7468081830357,37.31515350341795L780.2720737633929,57.66032693045481L780.7964846216518,49.54863717215403L781.2880275301338,44.75067051478797L781.3428074464285,54.237469482421886L781.8408773236607,66.78734414236887L781.8445293180804,44.87665165492465L782.4782669029019,46.154912349155964L783.0652278783482,37.802149091448115L783.7678871450893,29.08783721923828L785.6466440189732,38.320701599121094L786.3511681339286,35.29892109462193L787.348318014509,55.92091609409877L787.8843841741071,43.31026970999581L787.9937886026786,38.394991847446995L788.6141614419643,31.341732679094584L789.123653514509,66.51360430036273L790.5867046406249,70.9694577898298L793.3393760089286,62.7894768851144L793.7032545167411,90.06336648123603L794.1998480558036,38.918516213553275L794.2154661595982,60.67545089721681L795.0418270245536,41.01807861328126L796.2429446785713,39.15745304652623L796.37068678125,52.53824441092355L797.2707091506696,60.2280658176967L798.1091915290178,38.036524963378895L798.1098131450892,42.5867204938616L798.4782760714286,58.839232635498036L798.8285567276786,46.84291894095283L800.1204303281249,39.21567720685688L801.7778141785714,55.36571153913225L801.7894694799107,59.46967250279018L803.9979936796874,33.71873299734933L804.0866516718751,18.906292942592067L804.3196799966518,75.29349539620534L805.590185544643,46.35407431466239L805.6009084218749,44.60759604317802L808.3155058058036,54.96204594203405L809.4086176674107,47.832031141008635L809.8051310189732,27.723822239467086L811.0482854598214,24.332110813685844L811.2419965680804,89.53934903826034L813.1187331897322,43.678844669886985L816.021291733259,44.439539010184134L816.1648850457589,14.82751998901369L817.0207726741072,39.93824026925222L817.836954575893,49.08588453020369L818.3880949252233,35.15038168770927L820.2120718828126,54.006791687011734L820.6027575837054,44.270331464495L822.1649564732143,51.8271453857422L824.1155100033482,32.98277468000141L825.5993852678571,55.70692073277066L827.8807162500001,43.622099740164614L828.7146919118303,45.50047607421874L829.2288461049108,62.76749387468611L829.4078715334821,48.21075526646203L830.8621423325892,48.792298344203395L831.20294334375,32.27364796229771L831.2937769921874,30.8029640197754L833.679927984375,45.95147705078125L834.5582714933036,17.242569405691974L835.85449640625,53.39439021519254L836.0478967064732,38.631463296072845L836.6646175513393,55.26656199863979L841.0745173660714,50.75170364379881L841.1862528549107,27.874703761509476L843.11683696875,27.71252256120953L844.9467192790179,25.778469630650093L845.0885254453125,35.40386428833006L846.6771430178571,63.07985807146347L849.812341376116,76.45691026960101L851.785739296875,42.057402474539614L851.8024452287947,34.646498216901506L851.8763398392857,57.3590569632394L852.2594884453125,43.86255689348494L852.3224270725447,53.34598650251117L852.7329267857143,80.6914544241769L853.8100320334821,24.253958129882797L854.1274447399554,49.79747663225446L855.1873001417412,43.4907769339425L855.3510182745536,41.64453277587892L857.5541810357142,53.588867950439464L859.1504911071429,62.1562018258231L859.6533785089287,53.59819532121933L860.2151640334821,35.281457955496634L860.675548436384,37.16612101963588L862.7193443772321,46.51724166870116L862.747705610491,43.82122061593191L862.7577291696429,44.740398080008376L862.9334134118304,50.44246226719448L863.7556560703125,56.75396946498327L863.7670005636161,57.16433268955776L863.9924140915178,61.985679408482156L865.2347138102679,45.149816240583135L866.6861873370535,55.92625776018416L867.2338310959822,64.2892934526716L867.5393553950894,47.17344480242046L868.0338509799108,35.581577410016756L869.4725813772321,64.51976579938618L871.4064289754464,55.064359392438604L873.6207031238839,39.86489508492605L874.6392987589286,52.964755902971525L875.9046759743303,43.796238054548006L876.9202412310267,75.76619175502233L877.7138118482143,49.628721073695594L878.7613903325894,44.90623626708986L879.7214763549107,63.28596420288085L880.160648109375,64.22806974138534L881.1945510401786,38.92463858468192L884.1647103314732,59.83216618129185L884.1905851004464,68.24064712524415L885.0374592957589,66.07665601457869L886.6598772421875,40.981549835205094L887.161909921875,74.78143506731304L887.302162047991,35.66782477242605L888.0099496473215,68.30273372105191L888.6024274654018,52.942690713065005L888.9436169866071,84.69836142403739L889.1604832935268,61.17670462472097L891.2591368526786,35.721981048583984L891.3374604776786,36.699711390904L893.2884025178572,74.34128178187778L893.3476891506697,42.49541909354072L894.6453904017858,35.43977672031948L895.3360058571428,49.32305450439452L896.5929912555804,32.14220188685826L897.0881861584821,37.35081939697267L898.8308868147321,50.727337428501656L899.38365890625,86.40017514910015L900.918506688616,42.350577763148735L902.1929750390625,30.697240121024016L902.6743389843749,33.397986493791876L903.5416488080357,39.926447514125286L905.8825772310269,64.26217422485354L906.6123544988839,26.75944606236047L908.3112312220982,60.995539964948385L908.3902541651786,85.05806100027901L911.1642158839286,54.976098632812516L912.8104106450893,67.75044653756277L913.0319390725447,63.60132795061382L913.2300014933036,78.55043247767858L913.4944214296876,41.518017469133646L914.2146413504465,40.34913766043526L914.2953737377231,63.558471352713454L914.5190778214285,45.06480157034737L915.621669328125,69.31288386753627L915.7334048169644,49.85923451014927L915.891373001116,79.9043804713658L915.8990655,69.77534888131277L916.812841125,72.94423065185549L916.9028977533483,76.15974927629745L918.1455082801339,54.70445436750141L919.1341109397322,60.00194898332869L919.1893570680804,70.1504981994629L919.7268995658482,45.23865225655691L921.6731794854911,35.89172276088172L921.8773026629464,43.157867867606036L921.9020896037946,49.132192666189994L921.9999164330358,57.68465205601282L923.4696499319197,52.065383693150125L926.2962936127232,57.9484070914132L928.1118010513393,59.46486500331335L929.756907984375,35.2896759033203L931.2225232767858,73.38076804024831L931.2531378683036,51.971534729003906L934.1688280513392,75.33121577671594L935.0468607522322,52.467528969900954L936.3496126339286,51.462186322893416L940.3995190412946,47.96450445992605L940.9646457522322,70.50719822474888L941.3948817756697,72.2070807320731L942.7323664553571,77.70759974888394L942.8387405055804,90.39192003522602L943.5011501316965,58.22136622837612L943.7760598392857,60.373523494175515L947.389669466518,60.22592915126254L949.9950178258928,68.46816101074216L950.101547280134,56.43001796177455L950.8418143191965,46.02852031162806L952.0304996517857,70.52831835065571L952.0391245747768,53.65613185337613L953.0200347354911,49.78251996721541L955.6998993214286,48.443405369349875L957.1355216383928,56.19317670549666L957.8059345714286,61.88805018833707L958.0172063337054,54.071631295340396L958.5991166785715,54.080876486642026L958.9542148593749,54.38535145350866L960.3585232667411,65.57470376150947L961.46383434375,96.6464357648577L962.5553921651785,44.14977416992189L963.3876583828124,55.318211800711516L964.7865276495536,47.8519185747419L965.9791757845983,69.31374675205777L966.1261102834821,44.807744162423276L966.3613919665179,50.84575805664064L966.6958991149553,40.607756478445864L966.8617152020089,47.66438500540597L967.3171266763393,77.23054787772043L967.9574689319197,60.9489031110491L968.4251573236608,67.13857923235211L968.7975830524554,74.69284558977401L970.1210813705358,53.31734695434569L971.1099948381697,74.94998517717634L971.7434216149554,41.60825053623742L972.0728004308036,59.83072804042271L972.6418899441964,62.17674669538225L973.3383330502232,68.37764031546455L974.5548357020089,60.26837485177178L974.7650196361607,63.30642689296176L977.6321460636161,70.3547963823591L977.8017695491071,52.467035893031536L978.7404098169643,71.75221732003348L979.4655249642857,69.57569383893693L979.9433923191965,73.65676781790597L981.4958784575892,50.81900863647462L982.4142385011161,57.03239353724891L983.6920480379464,43.647000122070324L984.6133607578125,72.51513050624303L985.8826230736606,76.14113562447686L986.2554373125,52.53195768083843L987.1852972533483,58.02754592895508L987.3891096227678,70.24356645856587L988.1122822198661,39.691660744803286L988.865136984375,65.3354793003627L989.3415280011161,45.16649867466518" style="fill: none;" fill="none"></path></g></g></g></g></g></g><g transform="translate(41, 377)" clip-path="url(#clip_1)"><clipPath id="clip_1"><rect width="1087" height="23"></rect></clipPath><g><g><line x1="0" y1="0" x2="0" y2="5" style="visibility: inherit;" fill="rgb(0, 0, 0)" stroke="rgb(204, 204, 204)" stroke-width="1px"></line><line x1="77.70200892857143" y1="0" x2="77.70200892857143" y2="5" style="visibility: inherit;" fill="rgb(0, 0, 0)" stroke="rgb(204, 204, 204)" stroke-width="1px"></line><line x1="155.40401785714286" y1="0" x2="155.40401785714286" y2="5" style="visibility: inherit;" fill="rgb(0, 0, 0)" stroke="rgb(204, 204, 204)" stroke-width="1px"></line><line x1="233.10602678571428" y1="0" x2="233.10602678571428" y2="5" style="visibility: inherit;" fill="rgb(0, 0, 0)" stroke="rgb(204, 204, 204)" stroke-width="1px"></line><line x1="310.8080357142857" y1="0" x2="310.8080357142857" y2="5" style="visibility: inherit;" fill="rgb(0, 0, 0)" stroke="rgb(204, 204, 204)" stroke-width="1px"></line><line x1="388.51004464285717" y1="0" x2="388.51004464285717" y2="5" style="visibility: inherit;" fill="rgb(0, 0, 0)" stroke="rgb(204, 204, 204)" stroke-width="1px"></line><line x1="466.21205357142856" y1="0" x2="466.21205357142856" y2="5" style="visibility: inherit;" fill="rgb(0, 0, 0)" stroke="rgb(204, 204, 204)" stroke-width="1px"></line><line x1="543.9140625" y1="0" x2="543.9140625" y2="5" style="visibility: inherit;" fill="rgb(0, 0, 0)" stroke="rgb(204, 204, 204)" stroke-width="1px"></line><line x1="621.6160714285714" y1="0" x2="621.6160714285714" y2="5" style="visibility: inherit;" fill="rgb(0, 0, 0)" stroke="rgb(204, 204, 204)" stroke-width="1px"></line><line x1="699.3180803571429" y1="0" x2="699.3180803571429" y2="5" style="visibility: inherit;" fill="rgb(0, 0, 0)" stroke="rgb(204, 204, 204)" stroke-width="1px"></line><line x1="777.0200892857143" y1="0" x2="777.0200892857143" y2="5" style="visibility: inherit;" fill="rgb(0, 0, 0)" stroke="rgb(204, 204, 204)" stroke-width="1px"></line><line x1="854.7220982142857" y1="0" x2="854.7220982142857" y2="5" style="visibility: inherit;" fill="rgb(0, 0, 0)" stroke="rgb(204, 204, 204)" stroke-width="1px"></line><line x1="932.4241071428571" y1="0" x2="932.4241071428571" y2="5" style="visibility: inherit;" fill="rgb(0, 0, 0)" stroke="rgb(204, 204, 204)" stroke-width="1px"></line><line x1="1010.1261160714286" y1="0" x2="1010.1261160714286" y2="5" style="visibility: inherit;" fill="rgb(0, 0, 0)" stroke="rgb(204, 204, 204)" stroke-width="1px"></line><line x1="1087.828125" y1="0" x2="1087.828125" y2="5" style="visibility: inherit;" fill="rgb(0, 0, 0)" stroke="rgb(204, 204, 204)" stroke-width="1px"></line></g><g transform="translate(0, 8)"><text x="0" y="0" dx="0em" dy="0.95em" style="text-anchor: middle; visibility: hidden; font-family: Roboto, sans-serif; font-size: 12px; font-weight: 200;" fill="rgb(33, 33, 33)" stroke="none" stroke-width="1px">-1M</text><text x="77.70200892857143" y="0" dx="0em" dy="0.95em" style="text-anchor: middle; visibility: inherit; font-family: Roboto, sans-serif; font-size: 12px; font-weight: 200;" fill="rgb(33, 33, 33)" stroke="none" stroke-width="1px">0</text><text x="155.40401785714286" y="0" dx="0em" dy="0.95em" style="text-anchor: middle; visibility: inherit; font-family: Roboto, sans-serif; font-size: 12px; font-weight: 200;" fill="rgb(33, 33, 33)" stroke="none" stroke-width="1px">1M</text><text x="233.10602678571428" y="0" dx="0em" dy="0.95em" style="text-anchor: middle; visibility: inherit; font-family: Roboto, sans-serif; font-size: 12px; font-weight: 200;" fill="rgb(33, 33, 33)" stroke="none" stroke-width="1px">2M</text><text x="310.8080357142857" y="0" dx="0em" dy="0.95em" style="text-anchor: middle; visibility: inherit; font-family: Roboto, sans-serif; font-size: 12px; font-weight: 200;" fill="rgb(33, 33, 33)" stroke="none" stroke-width="1px">3M</text><text x="388.51004464285717" y="0" dx="0em" dy="0.95em" style="text-anchor: middle; visibility: inherit; font-family: Roboto, sans-serif; font-size: 12px; font-weight: 200;" fill="rgb(33, 33, 33)" stroke="none" stroke-width="1px">4M</text><text x="466.21205357142856" y="0" dx="0em" dy="0.95em" style="text-anchor: middle; visibility: inherit; font-family: Roboto, sans-serif; font-size: 12px; font-weight: 200;" fill="rgb(33, 33, 33)" stroke="none" stroke-width="1px">5M</text><text x="543.9140625" y="0" dx="0em" dy="0.95em" style="text-anchor: middle; visibility: inherit; font-family: Roboto, sans-serif; font-size: 12px; font-weight: 200;" fill="rgb(33, 33, 33)" stroke="none" stroke-width="1px">6M</text><text x="621.6160714285714" y="0" dx="0em" dy="0.95em" style="text-anchor: middle; visibility: inherit; font-family: Roboto, sans-serif; font-size: 12px; font-weight: 200;" fill="rgb(33, 33, 33)" stroke="none" stroke-width="1px">7M</text><text x="699.3180803571429" y="0" dx="0em" dy="0.95em" style="text-anchor: middle; visibility: inherit; font-family: Roboto, sans-serif; font-size: 12px; font-weight: 200;" fill="rgb(33, 33, 33)" stroke="none" stroke-width="1px">8M</text><text x="777.0200892857143" y="0" dx="0em" dy="0.95em" style="text-anchor: middle; visibility: inherit; font-family: Roboto, sans-serif; font-size: 12px; font-weight: 200;" fill="rgb(33, 33, 33)" stroke="none" stroke-width="1px">9M</text><text x="854.7220982142857" y="0" dx="0em" dy="0.95em" style="text-anchor: middle; visibility: inherit; font-family: Roboto, sans-serif; font-size: 12px; font-weight: 200;" fill="rgb(33, 33, 33)" stroke="none" stroke-width="1px">10M</text><text x="932.4241071428571" y="0" dx="0em" dy="0.95em" style="text-anchor: middle; visibility: inherit; font-family: Roboto, sans-serif; font-size: 12px; font-weight: 200;" fill="rgb(33, 33, 33)" stroke="none" stroke-width="1px">11M</text><text x="1010.1261160714286" y="0" dx="0em" dy="0.95em" style="text-anchor: middle; visibility: inherit; font-family: Roboto, sans-serif; font-size: 12px; font-weight: 200;" fill="rgb(33, 33, 33)" stroke="none" stroke-width="1px">12M</text><text x="1087.828125" y="0" dx="0em" dy="0.95em" style="text-anchor: middle; visibility: hidden; font-family: Roboto, sans-serif; font-size: 12px; font-weight: 200;" fill="rgb(33, 33, 33)" stroke="none" stroke-width="1px">13M</text></g><line x1="0" y1="0" x2="1087.828125" y2="0" fill="rgb(0, 0, 0)" stroke="rgb(204, 204, 204)" stroke-width="1px"></line></g></g></g></g></svg>