<svg viewBox="0 0 1129 400" xmlns="http://www.w3.org/2000/svg"><g><g><g><g><g><line x1="41.171875" y1="377" x2="36.171875" y2="377" style="visibility: inherit;" fill="rgb(0, 0, 0)" stroke="rgb(204, 204, 204)" stroke-width="1px"></line><line x1="41.171875" y1="350.07142857142856" x2="36.171875" y2="350.07142857142856" style="visibility: inherit;" fill="rgb(0, 0, 0)" stroke="rgb(204, 204, 204)" stroke-width="1px"></line><line x1="41.171875" y1="323.14285714285717" x2="36.171875" y2="323.14285714285717" style="visibility: inherit;" fill="rgb(0, 0, 0)" stroke="rgb(204, 204, 204)" stroke-width="1px"></line><line x1="41.171875" y1="296.2142857142857" x2="36.171875" y2="296.2142857142857" style="visibility: inherit;" fill="rgb(0, 0, 0)" stroke="rgb(204, 204, 204)" stroke-width="1px"></line><line x1="41.171875" y1="269.2857142857143" x2="36.171875" y2="269.2857142857143" style="visibility: inherit;" fill="rgb(0, 0, 0)" stroke="rgb(204, 204, 204)" stroke-width="1px"></line><line x1="41.171875" y1="242.35714285714283" x2="36.171875" y2="242.35714285714283" style="visibility: inherit;" fill="rgb(0, 0, 0)" stroke="rgb(204, 204, 204)" stroke-width="1px"></line><line x1="41.171875" y1="215.42857142857142" x2="36.171875" y2="215.42857142857142" style="visibility: inherit;" fill="rgb(0, 0, 0)" stroke="rgb(204, 204, 204)" stroke-width="1px"></line><line x1="41.171875" y1="188.5" x2="36.171875" y2="188.5" style="visibility: inherit;" fill="rgb(0, 0, 0)" stroke="rgb(204, 204, 204)" stroke-width="1px"></line><line x1="41.171875" y1="161.57142857142858" x2="36.171875" y2="161.57142857142858" style="visibility: inherit;" fill="rgb(0, 0, 0)" stroke="rgb(204, 204, 204)" stroke-width="1px"></line><line x1="41.171875" y1="134.64285714285714" x2="36.171875" y2="134.64285714285714" style="visibility: inherit;" fill="rgb(0, 0, 0)" stroke="rgb(204, 204, 204)" stroke-width="1px"></line><line x1="41.171875" y1="107.71428571428571" x2="36.171875" y2="107.71428571428571" style="visibility: inherit;" fill="rgb(0, 0, 0)" stroke="rgb(204, 204, 204)" stroke-width="1px"></line><line x1="41.171875" y1="80.78571428571429" x2="36.171875" y2="80.78571428571429" style="visibility: inherit;" fill="rgb(0, 0, 0)" stroke="rgb(204, 204, 204)" stroke-width="1px"></line><line x1="41.171875" y1="53.857142857142875" x2="36.171875" y2="53.857142857142875" style="visibility: inherit;" fill="rgb(0, 0, 0)" stroke="rgb(204, 204, 204)" stroke-width="1px"></line><line x1="41.171875" y1="26.928571428571416" x2="36.171875" y2="26.928571428571416" style="visibility: inherit;" fill="rgb(0, 0, 0)" stroke="rgb(204, 204, 204)" stroke-width="1px"></line><line x1="41.171875" y1="0" x2="36.171875" y2="0" style="visibility: inherit;" fill="rgb(0, 0, 0)" stroke="rgb(204, 204, 204)" stroke-width="1px"></line></g><g transform="translate(31.171875, 0)"><text x="0" y="377" dx="0em" dy="0.3em" style="text-anchor: end; visibility: hidden; font-family: Roboto, sans-serif; font-size: 12px; font-weight: 200;" fill="rgb(33, 33, 33)" stroke="none" stroke-width="1px">40</text><text x="0" y="350.07142857142856" dx="0em" dy="0.3em" style="text-anchor: end; visibility: inherit; font-family: Roboto, sans-serif; font-size: 12px; font-weight: 200;" fill="rgb(33, 33, 33)" stroke="none" stroke-width="1px">50</text><text x="0" y="323.14285714285717" dx="0em" dy="0.3em" style="text-anchor: end; visibility: inherit; font-family: Roboto, sans-serif; font-size: 12px; font-weight: 200;" fill="rgb(33, 33, 33)" stroke="none" stroke-width="1px">60</text><text x="0" y="296.2142857142857" dx="0em" dy="0.3em" style="text-anchor: end; visibility: inherit; font-family: Roboto, sans-serif; font-size: 12px; font-weight: 200;" fill="rgb(33, 33, 33)" stroke="none" stroke-width="1px">70</text><text x="0" y="269.2857142857143" dx="0em" dy="0.3em" style="text-anchor: end; visibility: inherit; font-family: Roboto, sans-serif; font-size: 12px; font-weight: 200;" fill="rgb(33, 33, 33)" stroke="none" stroke-width="1px">80</text><text x="0" y="242.35714285714283" dx="0em" dy="0.3em" style="text-anchor: end; visibility: inherit; font-family: Roboto, sans-serif; font-size: 12px; font-weight: 200;" fill="rgb(33, 33, 33)" stroke="none" stroke-width="1px">90</text><text x="0" y="215.42857142857142" dx="0em" dy="0.3em" style="text-anchor: end; visibility: inherit; font-family: Roboto, sans-serif; font-size: 12px; font-weight: 200;" fill="rgb(33, 33, 33)" stroke="none" stroke-width="1px">100</text><text x="0" y="188.5" dx="0em" dy="0.3em" style="text-anchor: end; visibility: inherit; font-family: Roboto, sans-serif; font-size: 12px; font-weight: 200;" fill="rgb(33, 33, 33)" stroke="none" stroke-width="1px">110</text><text x="0" y="161.57142857142858" dx="0em" dy="0.3em" style="text-anchor: end; visibility: inherit; font-family: Roboto, sans-serif; font-size: 12px; font-weight: 200;" fill="rgb(33, 33, 33)" stroke="none" stroke-width="1px">120</text><text x="0" y="134.64285714285714" dx="0em" dy="0.3em" style="text-anchor: end; visibility: inherit; font-family: Roboto, sans-serif; font-size: 12px; font-weight: 200;" fill="rgb(33, 33, 33)" stroke="none" stroke-width="1px">130</text><text x="0" y="107.71428571428571" dx="0em" dy="0.3em" style="text-anchor: end; visibility: inherit; font-family: Roboto, sans-serif; font-size: 12px; font-weight: 200;" fill="rgb(33, 33, 33)" stroke="none" stroke-width="1px">140</text><text x="0" y="80.78571428571429" dx="0em" dy="0.3em" style="text-anchor: end; visibility: inherit; font-family: Roboto, sans-serif; font-size: 12px; font-weight: 200;" fill="rgb(33, 33, 33)" stroke="none" stroke-width="1px">150</text><text x="0" y="53.857142857142875" dx="0em" dy="0.3em" style="text-anchor: end; visibility: inherit; font-family: Roboto, sans-serif; font-size: 12px; font-weight: 200;" fill="rgb(33, 33, 33)" stroke="none" stroke-width="1px">160</text><text x="0" y="26.928571428571416" dx="0em" dy="0.3em" style="text-anchor: end; visibility: inherit; font-family: Roboto, sans-serif; font-size: 12px; font-weight: 200;" fill="rgb(33, 33, 33)" stroke="none" stroke-width="1px">170</text><text x="0" y="0" dx="0em" dy="0.3em" style="text-anchor: end; visibility: hidden; font-family: Roboto, sans-serif; font-size: 12px; font-weight: 200;" fill="rgb(33, 33, 33)" stroke="none" stroke-width="1px">180</text></g><line x1="41.171875" y1="0" x2="41.171875" y2="377" fill="rgb(0, 0, 0)" stroke="rgb(204, 204, 204)" stroke-width="1px"></line></g></g><g transform="translate(41, 0)" clip-path="url(#clip_0)"><clipPath id="clip_0"><rect width="1087" height="377"></rect></clipPath><g><g><g><line x1="0" y1="0" x2="0" y2="377" fill="rgb(0, 0, 0)" stroke="rgb(66, 66, 66)" stroke-width="1px" opacity="0.25"></line><line x1="77.70200892857143" y1="0" x2="77.70200892857143" y2="377" fill="rgb(0, 0, 0)" stroke="rgb(66, 66, 66)" stroke-width="1px" opacity="0.25"></line><line x1="155.40401785714286" y1="0" x2="155.40401785714286" y2="377" fill="rgb(0, 0, 0)" stroke="rgb(66, 66, 66)" stroke-width="1px" opacity="0.25"></line><line x1="233.10602678571428" y1="0" x2="233.10602678571428" y2="377" fill="rgb(0, 0, 0)" stroke="rgb(66, 66, 66)" stroke-width="1px" opacity="0.25"></line><line x1="310.8080357142857" y1="0" x2="310.8080357142857" y2="377" fill="rgb(0, 0, 0)" stroke="rgb(66, 66, 66)" stroke-width="1px" opacity="0.25"></line><line x1="388.51004464285717" y1="0" x2="388.51004464285717" y2="377" fill="rgb(0, 0, 0)" stroke="rgb(66, 66, 66)" stroke-width="1px" opacity="0.25"></line><line x1="466.21205357142856" y1="0" x2="466.21205357142856" y2="377" fill="rgb(0, 0, 0)" stroke="rgb(66, 66, 66)" stroke-width="1px" opacity="0.25"></line><line x1="543.9140625" y1="0" x2="543.9140625" y2="377" fill="rgb(0, 0, 0)" stroke="rgb(66, 66, 66)" stroke-width="1px" opacity="0.25"></line><line x1="621.6160714285714" y1="0" x2="621.6160714285714" y2="377" fill="rgb(0, 0, 0)" stroke="rgb(66, 66, 66)" stroke-width="1px" opacity="0.25"></line><line x1="699.3180803571429" y1="0" x2="699.3180803571429" y2="377" fill="rgb(0, 0, 0)" stroke="rgb(66, 66, 66)" stroke-width="1px" opacity="0.25"></line><line x1="777.0200892857143" y1="0" x2="777.0200892857143" y2="377" fill="rgb(0, 0, 0)" stroke="rgb(66, 66, 66)" stroke-width="1px" opacity="0.25"></line><line x1="854.7220982142857" y1="0" x2="854.7220982142857" y2="377" fill="rgb(0, 0, 0)" stroke="rgb(66, 66, 66)" stroke-width="1px" opacity="0.25"></line><line x1="932.4241071428571" y1="0" x2="932.4241071428571" y2="377" fill="rgb(0, 0, 0)" stroke="rgb(66, 66, 66)" stroke-width="1px" opacity="0.25"></line><line x1="1010.1261160714286" y1="0" x2="1010.1261160714286" y2="377" fill="rgb(0, 0, 0)" stroke="rgb(66, 66, 66)" stroke-width="1px" opacity="0.25"></line><line x1="1087.828125" y1="0" x2="1087.828125" y2="377" fill="rgb(0, 0, 0)" stroke="rgb(66, 66, 66)" stroke-width="1px" opacity="0.25"></line></g><g><line x1="0" y1="377" x2="1087.828125" y2="377" fill="rgb(0, 0, 0)" stroke="rgb(66, 66, 66)" stroke-width="1px" opacity="0.25"></line><line x1="0" y1="350.07142857142856" x2="1087.828125" y2="350.07142857142856" fill="rgb(0, 0, 0)" stroke="rgb(66, 66, 66)" stroke-width="1px" opacity="0.25"></line><line x1="0" y1="323.14285714285717" x2="1087.828125" y2="323.14285714285717" fill="rgb(0, 0, 0)" stroke="rgb(66, 66, 66)" stroke-width="1px" opacity="0.25"></line><line x1="0" y1="296.2142857142857" x2="1087.828125" y2="296.2142857142857" fill="rgb(0, 0, 0)" stroke="rgb(66, 66, 66)" stroke-width="1px" opacity="0.25"></line><line x1="0" y1="269.2857142857143" x2="1087.828125" y2="269.2857142857143" fill="rgb(0, 0, 0)" stroke="rgb(66, 66, 66)" stroke-width="1px" opacity="0.25"></line><line x1="0" y1="242.35714285714283" x2="1087.828125" y2="242.35714285714283" fill="rgb(0, 0, 0)" stroke="rgb(66, 66, 66)" stroke-width="1px" opacity="0.25"></line><line x1="0" y1="215.42857142857142" x2="1087.828125" y2="215.42857142857142" fill="rgb(0, 0, 0)" stroke="rgb(66, 66, 66)" stroke-width="1px" opacity="0.25"></line><line x1="0" y1="188.5" x2="1087.828125" y2="188.5" fill="rgb(0, 0, 0)" stroke="rgb(66, 66, 66)" stroke-width="1px" opacity="0.25"></line><line x1="0" y1="161.57142857142858" x2="1087.828125" y2="161.57142857142858" fill="rgb(0, 0, 0)" stroke="rgb(66, 66, 66)" stroke-width="1px" opacity="0.25"></line><line x1="0" y1="134.64285714285714" x2="1087.828125" y2="134.64285714285714" fill="rgb(0, 0, 0)" stroke="rgb(66, 66, 66)" stroke-width="1px" opacity="0.25"></line><line x1="0" y1="107.71428571428571" x2="1087.828125" y2="107.71428571428571" fill="rgb(0, 0, 0)" stroke="rgb(66, 66, 66)" stroke-width="1px" opacity="0.25"></line><line x1="0" y1="80.78571428571429" x2="1087.828125" y2="80.78571428571429" fill="rgb(0, 0, 0)" stroke="rgb(66, 66, 66)" stroke-width="1px" opacity="0.25"></line><line x1="0" y1="53.857142857142875" x2="1087.828125" y2="53.857142857142875" fill="rgb(0, 0, 0)" stroke="rgb(66, 66, 66)" stroke-width="1px" opacity="0.25"></line><line x1="0" y1="26.928571428571416" x2="1087.828125" y2="26.928571428571416" fill="rgb(0, 0, 0)" stroke="rgb(66, 66, 66)" stroke-width="1px" opacity="0.25"></line><line x1="0" y1="0" x2="1087.828125" y2="0" fill="rgb(0, 0, 0)" stroke="rgb(66, 66, 66)" stroke-width="1px" opacity="0.25"></line></g></g></g><g><g><line x1="0" y1="484.71428571428567" x2="1087.828125" y2="484.71428571428567" fill="rgb(0, 0, 0)" stroke="rgb(153, 153, 153)" stroke-width="1.5px"></line></g></g><g><g><line x1="77.70200892857143" y1="0" x2="77.70200892857143" y2="377" fill="rgb(0, 0, 0)" stroke="rgb(153, 153, 153)" stroke-width="1.5px"></line></g></g><g><g><g><g><g><path stroke="rgb(255, 112, 67)" stroke-width="2px" d="M97.8572107265625,378.29112403462415L98.34766580691964,372.40273413917714L98.37843580245536,369.2735251279364L98.55606259486606,365.3394880415749L99.56308063058036,366.53380469407574L99.65305955691964,359.8612173036741L99.75609242075892,360.6540318439791L100.1957303872768,359.84914979800686L100.62371305245536,367.9865401913354L100.89737952790179,369.50790778036105L101.9319040747768,372.71566419454473L101.95148498102678,371.95308799071097L102.06803799441964,365.34026872243425L102.89696302566963,362.96630866416314L103.63730776674107,360.1760031383008L104.71658867075894,358.26356885772617L105.87605804799107,357.78990199851376L106.12175180022322,356.4454255110187L107.97261365290179,357.284830431839L108.40619086272321,351.0463512824749L109.32742588058036,355.6075490113665L109.35726345200892,356.015892076347L109.78990823772322,354.1091769237184L110.50507752790179,355.60451686088965L111.94707140959822,353.528225450818L114.17370017745536,355.731793920207L114.56112239397322,350.24751107774665L117.61248028459822,345.92305935221106L117.98405129129465,347.64048093277785L118.68663285602679,345.10064821023724L119.11694658147321,344.3110059464019L119.74167073325893,347.3044644453466L120.04470856808035,347.05823403974136L120.32350337611607,343.63834660439113L120.71185801674108,343.66880451158033L120.7179187734375,341.4918968339181L120.94403161941965,341.40183922395164L124.93667164620535,339.7421134081004L125.33341810379464,342.9494489496073L126.14975540959821,345.27545946350057L126.40384097879465,348.25641733081045L126.69056139174108,348.82682018379L127.99175923325893,347.029172528376L128.94562909486606,350.13138105941573L128.99784484486608,349.6581725593307L131.85712336941964,354.0641448161812L133.19328711495535,352.1076596822521L133.41846753683035,352.20408121626355L136.01806594754464,354.01080892309926L137.97662278459822,350.63640759124047L137.98594702566965,347.6476620579806L139.5468249810268,349.4184441189678L140.7198145078125,351.26675239540856L142.13709915066966,349.27534376368385L143.13152946093751,350.542611302053L145.6639933359375,348.805964447071L146.15817811272322,348.3388917915994L148.6561422957589,345.67161057802144L148.71115531808033,345.3865691287531L149.74381501674108,345.9086887411333L149.9424213515625,343.82725718004457L151.25061237388394,339.6779084789718L151.97370726897321,337.2670078905671L152.21660374888395,337.84954846748946L152.33129191406252,347.7385387828967L152.6329311127232,348.59305113211735L153.1914531529018,344.07971092738063L157.1332760658482,340.47399007873713L160.6755552488839,339.1065082046305L160.80422977566963,332.72113813139936L161.2014424453125,334.8597736215535L161.63595207924106,333.5782416361363L162.22524411495536,331.0805138840961L162.41732348102678,323.0050894133014L162.43737059933036,320.2377682116215L164.18473337611607,326.01990874032174L164.32646184040178,317.94569910140063L164.4486093984375,313.77597081467326L166.0798853738839,320.0979533402186L166.72279179575892,323.8185100668263L167.88645708147322,323.5273124349009L168.7041930234375,316.78440423628194L170.79142438727678,311.28793680396666L171.06835434709822,303.41259040325843L171.1909681171875,296.9092477920277L174.26656903459823,294.2972324468425L174.38032477566964,292.0606627187492L174.91693484933035,290.3561380873201L175.8479603203125,288.8288332974296L176.14540361049106,281.4743746648965L176.77851957924108,276.3525827593247L176.8139516953125,275.18358617903044L177.2214210301339,282.61675394647233L177.24519784486608,278.3537124637213L177.2596504185268,277.95669802011827L177.5939244609375,274.3099547121271L177.62049854799105,274.76180773114544L177.98181288950892,282.0146187618276L178.00279243191966,278.87396116851727L179.00281728683035,272.02422411713036L179.12449863281248,272.8993981819058L179.75854702566966,274.4865868307861L179.9795315390625,278.3311317453395L179.98559229575895,275.9616540643967L180.2615898314732,277.34027490949404L180.52966176227676,271.23334407528193L182.2621057533482,268.31298603380213L184.59083496093749,261.0188609862904L185.9941332421875,261.96610858840114L186.25940790066963,260.0589987677806L186.81466645647322,255.5371457501513L187.6319361863839,253.94145107757285L188.57881286718748,253.21901923433788L188.8021284408482,254.31306455216063L188.8203107109375,250.7721523318617L190.12756930915177,251.0766529001224L190.47816077343748,255.71761560056325L191.10381734933034,249.32325911078672L191.7327374095982,246.510085418425L192.33554959486608,247.75883493630252L192.51970335602678,247.1831689142694L192.8180790703125,249.9658450962767L193.1593462935268,244.19000177805373L193.70807788058036,244.98349194455517L193.91880572879467,247.02834832815745L196.1044078359375,245.07903042774984L196.45966142075892,234.10761799061996L196.49509353683035,227.80784593799325L196.68064593415178,229.14089891007995L198.15340981138394,226.9478155527118L200.06021711049107,220.59908459113012L200.12688543415177,227.0956833506559L200.85137896540178,219.73790628222673L202.0751856060268,214.73708221703072L202.74979444754464,206.89279837032163L203.95402018191965,205.88143118806116L205.2440289341518,206.4721950014569L206.7107320546875,198.57078707241968L206.77646795424107,194.43429943376233L207.38207741183035,194.0014444777786L208.0291797421875,192.12474441671293L208.53408739620536,192.9411949169153L210.88379614620536,191.38891698656306L214.79764633593751,188.80934011478058L215.30674989843752,188.18111578166125L217.65412758816962,180.96895583377278L220.03600496986607,170.36536111302829L220.37867082924106,158.7877541091029L220.82157228013392,160.2897543410107L220.85607197209822,162.3738224176851L221.28825054575893,155.40567785079148L222.52184763950893,157.01685359480726L223.7983362421875,155.0801264000157L224.4263238783482,154.64496688190576L224.91724517075892,154.598672164059L225.94477653683035,152.88489151455497L226.3816172310268,147.2963668641621L226.4967716082589,142.84273087274707L227.4483104095982,142.25950203741365L227.94855594308035,139.5121426019594L228.70615053013393,136.92452709600673L229.55232540736606,132.56359133797307L229.61759509486606,136.0340680319263L230.75561871763392,140.6649895634805L230.98965716852678,139.17208845690183L231.07310912611607,139.65801740161248L231.70948857924108,143.8171714547721L233.42747999665178,141.9050352290033L235.15432944308034,134.1476996440355L235.3342872957589,131.30418809221635L235.97020053683036,129.71969468589643L237.2084597511161,135.91967929564444L237.30822913058037,137.98262670895903L237.33713427790178,138.9090121991636L238.60709591183036,131.8974072298596L238.90966753459824,128.75953135726937L240.02671161495536,126.84376631244771L242.89904407700894,127.52820867635327L244.8464118247768,121.99291154993445L245.1023622421875,119.8804668916635L245.3932785636161,120.10762690514167L246.68561837611608,119.49302755386361L247.90522910825894,116.71543548826389L249.49874190736608,116.68023993113842L249.8884951841518,109.50175391739256L250.2157760457589,107.36582240620065L250.71928506361607,109.4010591744374L251.2917934654018,110.1296955843532L251.3057798270089,103.64455323785086L251.60928387388392,100.03982423962496L252.3995133046875,97.91422068930738L252.59951827566965,96.45918329670259L253.2526813627232,96.36061031795637L253.50816556808036,95.40954826064304L254.26156424665177,96.96013614530987L254.87556552120535,95.14850993902274L255.64248434933037,94.38992748857167L257.5539537689732,89.14139202050303L257.6299463337054,93.74273663711949L257.9931255234375,96.83977921448071L260.6938919497768,94.49216303222909L261.2235088426339,91.46094408370735L261.68039665513396,92.0364895983693L261.71629498325893,92.25811244634332L265.6804960747768,89.65501600164777L265.91127104129464,91.84780293193347L268.1989735881696,88.82666517531106L268.3831273493304,84.98207554845202L269.2712613113839,87.41570784999902L269.80554032477676,89.68142897705559L271.6396185435268,87.40337442641285L272.5235565970982,85.27127851190322L274.5394575167411,89.58674422763083L274.5637005435268,86.44030192856114L275.2667483203125,86.86537064092366L277.01830700558037,81.6123889374041L277.86028597433034,77.8313213236119L280.0379624765625,79.89406724304125L281.68042754129465,82.74913018080295L281.7881225256696,80.52874253401176L281.8687772109375,79.41927779272979L282.5121498448661,79.64656101940977L282.8781263069196,84.16527807752557L283.3275547265625,81.32355804202881L284.2194183850446,75.73736288695731L287.5197335122768,74.70384588905104L289.66384274665177,76.65994170583485L289.6946127421875,72.50314614856855L289.89088801674103,71.3505186714358L290.0619878404018,78.4559217905248L291.1613158627232,78.48427456795272L291.19768040290177,75.38980700090234L291.3282197779018,70.76082655339347L291.4806711194197,67.7540886195981L292.3916494720982,70.81699471595614L292.7720785078125,69.13449719662786L293.79308290513393,67.13692275207069L293.8877239520089,72.45528531556558L296.1796224073661,74.81734911078117L296.4183229787946,71.68479856527114L296.5973484073661,68.5986696278866L297.3167136060268,74.0548430771L297.6500552243304,71.01937189820347L297.77313520647317,67.54747994043778L299.909785047991,69.58076946609181L300.2118904587054,72.52878135307716L300.3629431640625,71.70040218381499L301.23336106808034,70.66738990152321L302.9998385390625,70.64143284755782L303.6035831484375,68.85098144824717L304.12993655691963,67.37281348762954L304.2269086640625,66.18687688873645L305.9253191752232,71.47400503358958L306.1090067243304,73.71014024077377L307.51743333816967,68.32236387980515L311.2513256752232,71.45381504532013L311.98840693191966,67.1800483436291L312.2774584051339,67.3744255506008L313.07374859263393,66.51827328524206L313.2285309944196,70.44383386867213L317.3325957020089,71.54591077518329L317.92701607031245,73.76714710333576L319.46971175558036,72.37029897277743L321.8436635323661,76.51195370371721L322.06138456138393,68.04303311678238L322.0665128939732,67.70515488262092L323.67634311495533,63.95563616108419L324.44978891183035,63.63998650716679L324.87450809263396,63.61268786208805L325.43023286049106,66.11756383773127L326.0386395904018,65.94630531648802L327.6904288962054,69.61578618783047L327.72166510379463,66.45580670207801L329.47369000111604,63.57882330530087L334.14373614174104,63.00606270743827L334.7097175747768,61.69250556581808L336.41372263058037,64.11901051257361L337.7396297109375,60.4287671084406L338.2561926662946,58.854393517249115L339.15598192968747,58.91476280835842L340.99378984486606,63.215517522077334L346.26105362611605,68.1994272404925L346.94172322433036,66.18308115571017L346.9771553404018,62.70443973448718L347.5408057131696,54.84781491886765L348.63593782700895,57.15150323427102L349.1865342622768,52.664119370340906L349.5385243627232,55.09680930329702L349.5874766283482,57.037989391228585L352.0891705078125,56.792567067530925L352.73907011049107,55.52454306878477L352.7409349587054,54.53100567520776L352.8859269073661,56.153674125475895L353.64072422209824,54.830554722220846L353.7717298091518,56.01470428890252L354.3945891127232,58.873477516292276L355.16663627343746,58.65094849950144L355.5270181908482,56.93390088944495L355.5685110636161,53.69694174775853L355.69998286272323,55.97301589210332L357.1424429564732,56.265427309804295L357.2249624899553,59.289431909576095L358.5569303270089,61.167434417518564L360.43436626674105,60.21682830619678L360.50709534709824,61.82593936440495L361.1514004051339,54.3493128056981L363.0041271060268,56.22617762667342L363.99063181138393,58.884296331946935L367.06716515290174,55.17184075208104L367.50587069531247,55.980850287211716L367.78886141183034,56.660025732350284L368.95066184933034,58.94700916794641L369.50825146540177,58.22624620677617L370.93299550111607,55.28623622323346L373.0346794386161,55.84778658600864L373.2281574408482,55.98546803833813L374.73169131361607,52.37105845166658L375.48602241629465,57.28206956145187L377.1993517131696,56.2599346931766L377.73456315066966,54.327758022398406L378.44693516852675,55.38517492813772L379.9872997935268,51.91439303786456L381.316470358259,52.14297242938491L383.1855144810268,49.4261659248137L384.9874240680804,46.21679909029738L385.4177377935268,48.87818037418403L386.93292696763393,46.87913901719044L389.16095437165177,42.55088981831429L389.8952383560268,44.44287515857166L390.7563320189732,46.55824731400854L390.9852421372768,48.48780540997493L395.6254507064732,54.0436265911636L397.0236206551339,48.613909713221055L397.4907651328125,47.09645282638038L398.9658600703125,50.6655959246088L400.2353554921875,49.298348016542484L400.9057684252232,50.11630732820328L402.2554523203125,55.86502994110615L402.5132675859375,51.802126666333564L407.89568574441967,47.470995984643324L408.62996972879466,52.16615203848194L408.84209621316967,47.90271031835525L409.32788917299104,44.48548941731679L409.6971291194197,46.315771904947184L410.70741063950896,43.50460232184418L411.88133259040177,46.570583320575224L413.50701402120535,45.13268755576959L413.85900412165176,42.62170066891817L414.5345453872768,43.25315700032702L416.8935783783482,48.296905635662014L417.6702876595982,52.83366778419927L418.8470068828125,50.53948209636054L419.5020348180804,47.339494002283686L419.70110736495536,49.232620439864036L420.1845692645089,47.697063126967976L424.0131026484375,51.64433012367959L424.3394510859375,49.797783304091574L427.4234438203125,51.23970883844616L428.07660690736606,46.62863827785791L428.14886977566965,50.430983655210476L430.9242301305803,54.59885851404699L430.9312233113839,59.0025024257744L432.1480367712054,63.332658351926725L432.7792878917411,65.8873274610475L433.333147811384,61.08044173742762L433.47907218415173,57.01511127219658L437.05212136272326,57.856740877585715L437.4898944810268,61.00141979295863L437.60831234263395,52.96653417595451L438.2456242198661,55.08478190619329L438.4777978225447,49.332505875121974L438.7188294542411,54.73807457663216L439.2465814988839,54.39900850686934L439.47642404129465,50.85817936583306L440.0731754698661,46.04200751244186L443.1203374520089,42.47018958888066L443.3012277287947,45.32288589787633L443.38188241406255,42.78161708534907L444.10404488504463,42.755038650317545L444.4033530234375,48.630071286290594L444.7287690368304,49.62341668305036L445.6817064743304,48.32664171523218L445.8355564520089,45.861583409155664L445.9339271953125,46.99396517005617L446.7609873783482,47.25645457187084L449.0370346238839,47.81321883763763L450.1634029453125,47.25391216727808L450.62308803013394,47.05418865018684L452.7550757511161,46.57169102547872L453.72759409486605,48.04907972293598L454.00359163058033,52.124316442969295L454.1350634296875,49.014667627554914L454.44509444531246,46.77487584311535L454.68659228906245,45.381826551654726L455.2194726662946,46.60406196677024L455.4413896037947,46.08207482104456L455.98639149441965,50.34353805682174L456.23907842745535,49.582313791579L456.28663205691964,48.74065140470577L457.0885167890625,51.01618414866689L458.0694269497768,53.04786091059089L459.5160829520089,53.91797291513566L459.72634458816964,51.548866595919925L459.88485668638396,52.88522377861937L459.9132956216518,55.49846192084472L461.19304770870536,66.07954027990962L461.6117061328125,57.82152014594216L462.47746191629466,56.83047709436252L463.3600013337054,56.41457526592673L469.4091027287946,54.10293087750144L470.09443444754464,57.48248190031309L471.7070619408482,54.084337549233396L477.50767231138394,52.42860817066466L479.4256686997768,51.55167272166012L479.4354591529018,47.15867972570281L479.46622914843755,48.79560730682485L479.98092725558035,50.17719612029253L481.3790972042411,50.03138323028815L481.7217630636161,50.55184575920961L481.8411133493303,46.97629831931665L482.1945020859375,51.79200710899684L485.63048492075893,48.485328099306884L485.80344959263397,51.23260225344108L486.10135909486604,52.67843004319653L486.64869204575893,47.8958827674673L486.69391461495536,51.01759388312847L486.83284580691964,47.56385367967525L487.4846102578125,39.89614371731725L487.9270454966518,39.56506316721318L489.14292653236606,39.879210676941625L489.18441940513395,40.95346576183789L489.39514725334817,41.07108498740003L491.1005509453125,39.54398471093701L491.19519199218746,42.173243057881876L493.7215951104911,45.58734666972911L495.9496225145089,46.45088724963644L496.6153733270089,45.2536297651807L496.6764471060268,44.89454236630896L497.2979077734375,42.62388717586671L499.8900467912946,44.867374402209826L500.13993645200895,42.07793813086387L500.69286394754465,42.15126050399358L501.1987040256696,47.32153125650123L501.85046847656247,48.19648813647888L502.39127445870537,47.25948774167469L503.83233591629465,46.00225657081605L505.24029631808037,47.667904587009915L507.5802146149553,45.62978239240376L507.99980546316965,45.653697238734665L508.5112400859375,48.091560173102685L509.46557615959824,48.27647918706611L510.51548570424103,44.72808008252817L511.8712303560268,49.61202112517428L514.9720067243303,50.37757577552312L515.4321580212053,48.5208713286007L516.6140055770089,50.39802904617429L517.1380279252232,47.84783852014261L517.5496931685268,42.80829950263754L518.6616089162947,40.96357925577908L518.8089319252232,43.5332029257589L519.6728228604911,44.4086237594129L521.5437318314732,43.31050363486708L523.3927288359375,49.21492909197569L524.7582639408482,55.10042153634559L525.7867277310268,52.0280296206083L527.9005331819196,48.50441261424608L530.2521067801339,49.251516672381804L530.315045407366,48.33611136559801L530.3859096395089,54.422029416662305L531.7355935345983,51.729684821346055L535.7375578024554,46.852290838905816L536.6200972198661,44.565753002807156L536.8872367265625,44.09193352232807L538.1296918493304,46.76439919561771L538.7012678270089,43.77304098473777L541.5647422600446,44.81136674775119L544.4529259319196,40.56994283318979L546.491205030134,46.225290204051845L547.910820733259,54.0599629328076L548.2124599319196,51.53747184160741L548.5168964029018,52.57677744364036L550.4237037020089,51.63963737413664L550.9738339252232,52.24789188870671L551.4139381037946,54.03555278185683L552.526320063616,50.0669253274665L552.8787763761161,47.03343781010384L553.1585036082589,47.91862869220981L554.3431484363839,46.95357434920591L555.7553047466519,45.54771343095518L556.4163934386161,41.740489295963926L556.5278181194196,40.34106900111964L557.082144251116,43.23804654611059L560.9521705078125,43.83292483367288L561.2608028872768,41.307345290347904L562.120031702009,43.892022385319585L565.096329452009,43.376550778303105L568.0726272020089,39.6026712431084L568.0959378046875,41.99977048709276L568.3206520145089,40.99232888008297L568.4045701841518,40.460887923576706L568.6432707555804,38.43764837073907L569.3495820167411,43.61311360451537L571.5631568470982,43.28745848266363L571.9193428560268,43.267309359024296L572.3487241573661,45.113549613858666L574.3413144743304,46.486017739356996L575.001004530134,41.99370036091917L575.5418105122768,41.48878403228311L576.7497659430803,42.984914467735L576.9852030301339,44.0914049541406L577.2756531395089,42.35250798779633L577.4285706930804,43.51478898301048L577.8686748716518,48.34421081636095L578.2374486060268,46.793756038865844L578.6551746060268,42.72827542173858L579.6342199185268,45.855500259440234L579.7218677845982,44.917674503904024L580.1223439386162,43.63636189316226L581.0435789564733,47.89486056293939L582.0869615323661,48.668333169938634L582.2762436261161,45.73263515516124L583.9275667198661,44.12247579119097L585.5490522421875,41.006906806571585L586.0311155055804,42.94455005986391L586.3001198604911,43.13292605427369L587.3430362243304,40.66140296848865L587.836288577009,42.30356595214866L589.5435571171874,42.118531668840845L591.1170227979911,42.74949173434727L591.540343342634,44.77139978832187L593.0732485747767,44.75475443497523L593.2643955167412,45.5758557025212L593.5259404787946,44.25634491881107L593.8662752779019,48.22740021919369L599.0724652801339,43.56576037659659L600.2454548069196,48.204694373926586L600.5806612734375,48.80608793583907L602.0883910546875,46.9987426369665L602.7923712555803,49.94448840714573L603.628289467634,47.307613387198174L603.8101121685268,42.1547771895995L603.8217674698661,44.58517110819463L604.9224941283483,43.52409232653201L605.9574848872768,41.223528818152275L606.8101867332589,37.281559740138476L607.3617155926339,38.141679502490256L607.5365451127233,35.43057733612303L609.4433524118303,38.683494897637296L609.963645063616,47.632624012592245L610.5827746707589,43.32877762891452L610.7571379787947,41.04390521644772L611.3902539475447,38.88696887356271L612.0769843024553,37.90912156404263L613.8607116194197,38.22746525050174L616.7712734698662,44.98049065917652L616.7754693783482,48.98263020259927L619.4426685368303,49.262787424495706L621.9201193895088,43.71663182994254L622.6054511082589,43.92116319536448L623.1872837511161,39.96087414672828L624.9402410725447,42.220835765834025L625.2894339006697,41.738824592368736L626.5123081171874,41.09969196323653L628.5902152399553,38.140020882775346L628.634039172991,45.537819340323225L629.2415134787947,43.30571112149823L629.8270758180804,42.681639689260486L630.4928266305803,45.40938985896982L631.9371515725446,41.44050535641414L632.6336723805803,42.7197062696458L633.3810103024553,38.41915168215081L633.7875472131697,36.1466591927491L638.0766981060267,33.724317318275666L641.253933251116,31.62413113123188L644.0176383046875,28.841832109226516L644.4507493024554,26.59996789336616L644.7868881930804,27.18289336463712L645.6088200435267,27.898336176084634L645.6698938225446,26.267688716258384L649.2783751171876,26.003324622385865L650.3930881372768,29.709649574792092L651.5175916104911,40.094678190804636L653.5582017689732,37.79106228966934L654.7125428136161,37.39699377007259L654.7694206841518,40.651393604402145L654.7890015904018,45.02921771468103L657.5307946774553,44.309629577715796L657.6021251216517,41.603110941050964L657.8380284207589,37.06849731520123L657.8921090189732,36.84768817198526L658.0245132421875,35.58675660361081L658.7159057176339,37.164421413608466L660.4385592555803,34.82555535860022L660.4711940993303,35.67988738467594L661.095918251116,32.34773498098295L661.3900980569197,26.94140963831584L661.5448804587054,27.974114409348292L663.4307082154019,33.375102946284464L663.4698700279017,31.275572730911442L663.960325108259,31.863091350361117L664.6120895591517,34.531703134871805L664.7328384810269,38.42224206373587L665.618175170759,39.48870004485727L666.617733813616,41.65183196668941L667.3361665881696,42.408905148546886L667.7543588002233,42.82220618932438L667.9678839207589,39.459725923836764L669.4704853694196,34.89228578754874L670.7017514029018,38.41965312780686L670.8248313850447,38.63277589928786L671.8691463850446,44.815023449445704L673.0384062154018,43.19044893533783L673.192722405134,38.95619302801356L674.6090746238839,37.16058014175376L674.9023220055803,42.90816229455537L677.0301138180804,45.008974468038275L677.1746395546876,46.467180795133736L677.2646184810268,47.89570116163711L681.3239268314732,46.04051147339447L681.3887303069197,44.71482641068405L683.6517236149554,45.64672802831012L684.6713293761161,43.37044416406832L685.1762370301338,48.386987982447394L687.6084653136161,50.35000119615601L688.9977772332588,46.00468915446948L689.7409192466517,48.97915875504182L691.188507672991,51.44230274691849L691.740036532366,47.95684020081328L691.8617178783481,47.51734044678339L692.4085846171874,47.81030716316052L692.7862163805803,46.39948025375666L693.7806466908482,45.99322564762027L694.6174973270089,44.66627332815488L695.1247360412947,44.34827139166737L695.2520119319197,47.99783882789859L695.5042326529018,45.170722953536774L695.5154217421875,44.98208155409619L695.6156573337054,44.35857069110069L695.9056412310267,47.7833554455284L697.3905266216518,45.8099600696621L697.7033549095981,49.24038703155976L697.708017030134,48.39124190238232L697.8646642801339,47.36143032436119L700.0432732064731,50.50054669479169L701.806953405134,50.300862073327785L702.2820234877232,47.98503714924541L702.2964760613839,50.40687702687394L704.3939640904017,49.025259508113336L705.7874719185269,51.23704973469931L707.1674595970982,50.45137401453117L708.2397473203125,45.962312743119014L708.253267469866,43.204092443030376L708.4378874430804,44.91944962232329L710.7204616573662,44.183946800258234L710.8603252734375,42.096985321065944L710.8719805747768,39.966594713500314L710.9689526819197,36.921252847739446L710.9992564654018,38.05340953091202L711.050073579241,42.641950668988855L711.8118640747767,49.94415501761299L712.0309837399553,46.405566607038224L712.4822770078125,46.28743223722104L712.7522137868303,44.393711898698456L715.3429541685267,44.612944503264L717.0306418024554,43.605406305387454L718.3532853984375,47.89818503838083L718.3989741796875,45.95381048187653L718.7169308002232,50.69866627926521L719.5113561395088,49.44380018475421L723.4345305703125,54.282950391246494L726.1679318404018,50.15267664513312L726.2765592488838,44.25941784024152L727.0607279229911,43.987992210251264L727.1637607868304,43.26882549165941L729.4715104520089,43.19719479274165L731.0137399252231,43.50912262932447L731.2874064006696,40.65954528712307L731.9251844899553,41.983502841724174L732.1223921886161,39.41184804974653L732.9531820680804,40.27362146260692L733.1690382488839,41.280729619862285L733.9648622243304,43.68014742095263L733.9779161618304,42.46368811847255L734.3392305033482,47.01692622894373L734.4138244319196,50.711700686001L734.9369143560267,49.553418340374506L735.8357711953125,45.465775269397824L736.6632975904017,44.695881040539184L738.5845574631696,44.11260734620789L739.7258445703125,48.559852766266L739.904869998884,49.87886644850385L741.1007039162946,49.16301924086922L741.612604751116,44.992400648345544L742.5235831037947,41.271371559761874L744.4993897868304,43.71081690461753L744.9660680524553,39.607791903472176L745.662588860491,40.18242462385201L748.1978500078125,43.966701592217746L749.8864700658482,43.37585113757863L751.5046921037946,41.08972444556793L751.7200820725446,50.86178775260385L752.7070529899553,51.63645988260761L752.8049575212053,53.75636752592426L753.243663063616,55.06082347804969L754.150911719866,50.94717399327256L754.2595391283481,47.3535709512099L755.4246030502233,45.73147357353759L756.2083055122769,42.235174128605486L756.3150680725447,42.84201677916782L756.8223067868304,42.580495878342646L758.1808487109374,47.12590435822658L759.9659746640625,43.270511585597696L760.1487297890625,42.82622132379341L761.2681049296874,42.29599336414076L761.444799297991,43.139297961053124L763.331093266741,40.033135037194924L767.8589447310268,43.28207234337203L768.4132708627232,41.48208897472548L768.4631555524554,42.695644760277006L768.9321648783482,40.85358446405312L772.4893628470982,38.77675529271293L773.8833368872768,39.29561212863191L774.5626078493304,40.10803537464108L775.5052886216517,37.60448441717937L775.8894473537946,37.36076934439505L777.3463600212053,39.081902218680085L778.0433470412946,37.175721926660046L778.3524456328125,37.25847947963016L779.7011971037947,37.53081630726715L780.1137947712053,39.85923556534498L781.3511215613838,43.441371105212575L783.1334502421875,40.4590070709377L783.1847335680804,39.99438986521143L784.6304571462053,39.593415552534665L784.7996921216518,40.75412664630361L785.3460926484374,46.145090497253555L786.0253636104911,48.14261091970573L786.3969346171875,44.052550017677255L786.4719947578125,40.24783857196817L786.5004336930804,40.69945847092556L789.2305714787947,45.36743569066348L791.0963521171875,45.616224204734976L791.5620979587053,44.770030668196455L793.7439703694196,49.7125414325762L794.2087837868304,51.80754341304624L794.8819939921875,50.96187592567973L796.3123325725447,49.87219282689979L797.8522309854911,49.71279450112638L798.6587778381696,50.418115544748815L799.4867704453126,52.66964855500946L801.5091983337054,48.23185828318161L802.0737811305803,47.380268643844374L802.7082957354911,47.446978107388546L804.7092778694196,42.985783169504636L804.8957626908482,52.21491677521028L805.0374911551339,51.180349601460065L805.1740912868304,51.08695306460827L805.3465897466518,52.596031611494126L806.3647968716517,48.024622552204505L806.6822872801339,46.778748029556546L808.8263965145089,42.928349593776424L810.823648952009,42.27022987643717L812.0358002912947,41.79121740509086L813.066595141741,41.93785961394437L813.5323409832589,39.18209664239718L814.3109151127231,41.67664853584155L814.5374941707589,40.932122182119116L814.6195474921874,37.64495060998794L814.6661686975447,41.375658429361714L814.9748010770089,38.72919643866238L815.0419356127231,40.85319466662461L815.2941563337054,41.16420106672609L815.3459058716518,40.01728636433233L815.4438104029018,40.05295437048372L815.6191061350447,38.338429170215136L816.6112053850447,41.21894779086661L818.0443412377232,37.02057453605549L819.2494993962054,36.30268059354862L820.4691101283482,36.20387233651579L821.1138813984375,35.69948118743257L821.9306849162947,36.416321094965596L822.6052937578124,40.583287937635376L823.6435480011161,38.27545389747166L824.6678158828125,41.20664132493877L824.6748090636162,40.065192646307025L825.7461643627232,41.143341076448486L829.360240202009,46.1927234418647L829.5327386618303,43.394855655172876L829.6478930390624,48.90727782596581L830.4502439832589,48.32663664414316L830.5085204899553,50.29231879320234L831.2926891640625,47.070267213691395L831.7938671216518,47.56979542291325L832.0348987533482,45.26663356646254L834.2312237377232,44.164385039205214L836.6303509654017,47.529490165502L836.846673358259,51.29173186803222L838.309646782366,54.04418841190623L840.0649351640625,51.80716338647255L840.5428025189733,46.65954196231699L841.1409525837054,49.75097648715973L841.8099668805803,46.26612015282768L842.0286203337054,51.196901488996296L844.6613198002232,45.66287979453832L844.7368461529018,48.05512099174121L847.6763131506697,44.34229052333862L848.8036138962053,46.2457211951776L849.9789344832589,47.39255214535102L851.0959785636161,48.054923587095544L851.2731391439733,50.92156133235781L851.4997182020089,51.57070670748776L852.2629073337054,58.7217918500164L855.1366384319197,53.71586306724111L856.0979676863839,58.42813561806467L856.1590414654019,57.48351422303715L856.430843092634,60.33492094525456L856.6732733604911,59.69611084590793L857.3865778024555,58.4216482854038L857.4243409787946,54.945848683777896L857.6980074542411,55.73260371683253L857.7740000189732,53.6843127141538L859.1978116305803,54.93144516208059L859.5041129497768,56.158826326197705L862.4869376685268,60.39195686522711L864.9727803381696,58.452368222196995L865.1406166774553,54.70081020101377L865.5448225279018,49.98066494547895L867.4740080055803,46.94096726347714L869.0106429341519,45.50951416286734L869.2446813850447,47.77715858022411L869.8101966060267,48.928537711870405L870.3537998604911,50.28490462366765L870.8214105502232,49.66535745399132L870.868497967634,48.578849269729005L871.7095445122768,49.47070785119061L872.1086220301339,52.05224108999966L875.3147623225445,56.80188499148912L875.3553227712054,52.44920685880935L875.692860297991,51.06399700908994L876.5637444140625,50.08637944844103L877.1190029698661,49.87391245331894L877.2635287064733,47.510511057451396L881.540091873884,53.32007279511011L881.8818253091517,51.7428568113532L882.0589858895089,48.6974688466481L882.4953603716518,46.98580067807878L882.7098179162947,47.225877262956935L882.8935054654017,54.19446652419784L883.1107602823661,58.02718230226145L884.1103189252232,58.292933062791334L884.2790876886161,59.16330643296883L884.4646400859375,61.89653033052685L884.5322408337054,62.85546309498792L884.6842259631696,60.85482091544345L888.3826861841518,62.78112165981013L889.0857339609374,62.244739007012456L889.2792119631697,59.89219754280307L889.3934339162946,58.808957117843185L890.1403056261161,56.78754587790316L891.1263441194196,53.092138971086456L891.912377641741,59.1002632136995L892.4517849877232,58.62064163175065L897.0775409832589,57.08308696611476L897.251438079241,58.333910194404105L897.726974373884,56.069200081095246L898.0388702377232,57.50090807338627L898.4304883627233,55.1548793343368L899.087847358259,55.09537332482157L899.2454270323661,53.49262050695549L900.8282169542412,54.38293959316908L901.0221611685268,53.75424766190965L902.5583298850447,51.32794095440915L903.2665059944196,49.24404300139008L905.6982680658482,48.5228268693738L907.874079719866,52.79991633297118L908.3519470747768,57.39931844235349L908.8792329073661,54.858083729887255L911.3916496640625,51.28911220398508L911.4224196595982,53.72723022775282L912.7059014430803,55.84297114160518L914.5329864810268,54.150739087182046L916.7666084296875,51.74960886530929L917.2621918426339,51.75870617009346L917.2715160837054,47.663436537288455L918.1866903448661,51.78181246225265L918.2692098783482,57.51947076971146L919.2393971618304,56.173214882196355L919.4258819832589,53.945163310263226L919.5312459073662,52.85567584910345L919.7405751194196,54.02387914538206L919.9368503939731,53.88254805333129L920.1051529453125,58.46178346394013L920.6012025703126,57.49202429661247L920.9382738850447,53.31846534531875L921.1051778002233,53.86236021047654L924.0735499453125,53.1467004329599L924.288473702009,51.1910098127463L925.2185667488839,52.20778047156973L925.7794198493303,50.710745621849846L925.8586758984375,52.23020961306307L926.2004093337054,48.169603546860884L926.399948092634,49.528470051495425L926.4656839921875,48.325747145409515L927.2815550859375,52.15323535060492L927.4307429430803,51.80531995249847L928.571097626116,51.266084226507715L928.890919094866,50.072464549174946L928.9519928738839,48.096135418462495L930.7949291216518,51.52597401731742L930.8336247220982,50.531516867313755L931.9791077377232,55.29535176027824L932.8238839787947,57.59643750563474L934.0905821283482,56.404291662745806L935.0085536618303,55.557416528090066L935.3181184654018,56.730507872827786L936.2482115122768,61.05157867026275L936.3050893828125,58.90828189198585L936.9060367198662,60.142515340772036L937.4244645234375,59.41783237585424L938.5321843627232,60.44093098334241L938.5480355725447,59.34163669341225L938.7764794787946,58.4620697743029L939.1489829095982,56.95396954450512L939.3224137935268,58.95800325488422L940.4119513627232,57.29675728356002L941.7821485881697,53.5137908889295L942.1103618738839,57.18609714683004L942.7019849698661,57.963164260084L942.8120110145089,61.65350650136385L945.1001797734375,64.48556815362316L945.3244277712054,63.18632923516139L945.5332907712053,65.22018761211066L945.6885393850447,62.887489026630504L945.905794202009,64.45697473309286L946.6135040993304,66.79852401342043L948.1235649408482,69.43002526542386L948.601432295759,73.13870402843149L953.3530655457589,69.8821869340315L953.7358256417411,67.91096327926343L958.0361656238839,66.52332587330616L959.3154514988839,62.45630792416114L959.5327063158483,59.81308985739537L960.297760295759,61.81422803302845L960.6982364497768,64.42200154088992L960.8921806640625,62.3586990807867L961.2325154631696,60.292393311783385L961.4852023962054,60.16430396653058L962.5416389095982,59.80998526132432L963.9202279520089,59.521517348986876L964.0302539966518,64.38405450331759L966.9804438716517,60.5953899213622L967.6009721149554,59.830023201563826L969.844384516741,54.786209679763914L970.4033727689732,61.79538221175896L972.1665867555804,61.76229887679421L974.6002136752232,59.19678217743283L974.7619892578125,60.87498019402497L976.7494512421875,62.453114299611705L976.9116930368303,63.060305988726775L978.1644048247769,62.34964118816336L978.9341209252232,62.30868516209597L979.1905375546876,61.18047611429591L979.2991649631696,61.71139016878051L979.6586144564733,61.20762479545972L980.010138344866,62.57622125273223L981.9360603381696,58.39859458205464L982.5878247890626,55.99197511807116L983.8051044609375,58.04656593430072L984.5557058671875,59.48965491680444L985.2881250033482,58.56510035469073L986.5613501216518,59.31928238859351L986.8410773537946,60.343370508391615L987.2522763850448,67.05493424763826L989.3413725970981,61.72432677520325" style="fill: none;" fill="none"></path></g></g></g></g><g opacity="0.2"><g><g><g><path stroke="rgb(255, 112, 67)" stroke-width="2px" d="M91.82862266183035,390.0965325491769L93.46176348549108,347.7864795412336L94.98254720424107,380.83050874982564L95.5988795390625,388.7289427621024L95.89632282924107,362.97483934674943L97.34437746763393,365.11390953063966L97.8572107265625,368.5038951873779L98.34766580691964,348.9061235700335L98.37843580245536,356.7809001650129L98.55606259486606,349.62769020625524L99.56308063058036,371.30515733446396L99.65305955691964,333.1973005839757L99.75609242075892,363.82277747562955L100.1957303872768,356.63166223253523L100.62371305245536,400.5195971761431L100.89737952790179,375.59090957641604L101.9319040747768,385.542525945391L101.95148498102678,368.90357507978166L102.06803799441964,338.89448536464147L102.89696302566963,353.4720461981637L103.63730776674107,349.0162646157401L104.71658867075894,350.6146451950073L105.87605804799107,355.89539574214393L106.12175180022322,351.06788556235176L107.97261365290179,360.64226730891636L108.40619086272321,326.09352158137733L109.32742588058036,373.85170418875555L109.35726345200892,357.6492188044957L109.78990823772322,346.4824863978795L110.50507752790179,361.5857698985509L111.94707140959822,345.2231783458165L114.17370017745536,364.54596715654645L114.56112239397322,328.31058009011406L117.61248028459822,328.6253788539342L117.98405129129465,354.51012709481375L118.68663285602679,334.9413648332868L119.11694658147321,341.1524487086705L119.74167073325893,359.27826260157997L120.04470856808035,346.0733147757394L120.32350337611607,329.95882306780135L120.71185801674108,343.7906359536307L120.7179187734375,332.78427679879326L120.94403161941965,341.04160913739884L124.93667164620535,333.1032153538295L125.33341810379464,355.77878306252614L126.14975540959821,354.57949684688026L126.40384097879465,360.18024400983535L126.69056139174108,351.10843086242676L127.99175923325893,339.8385837554932L128.94562909486606,362.5402126312256L128.99784484486608,347.76533887045724L131.85712336941964,371.68803152356827L133.19328711495535,344.28171997070314L133.41846753683035,352.5897673198155L136.01806594754464,361.2377192633493L137.97662278459822,337.1388029915946L137.98594702566965,335.6926804406302L139.5468249810268,356.5015721184867L140.7198145078125,358.6599852970668L142.13709915066966,341.309709412711L143.13152946093751,355.6116813659668L145.6639933359375,341.8593771253313L146.15817811272322,346.4706011908395L148.6561422957589,335.0024858202253L148.71115531808033,344.24640333993096L149.74381501674108,347.9971671785627L149.9424213515625,335.50153097425186L151.25061237388394,323.0805137361799L151.97370726897321,327.6234055655343L152.21660374888395,340.1797107696533L152.33129191406252,387.29449996948244L152.6329311127232,352.0111005238124L153.1914531529018,326.02635013035365L157.1332760658482,326.0511066981725L160.6755552488839,333.6365807124547L160.80422977566963,307.1796578543527L161.2014424453125,343.4143155779157L161.63595207924106,328.45211369650707L162.22524411495536,321.0896028791155L162.41732348102678,290.70339153834755L162.43737059933036,309.1684834071568L164.18473337611607,349.14847085135324L164.32646184040178,285.6488605499268L164.4486093984375,297.09705766950333L166.0798853738839,345.3858834402902L166.72279179575892,338.7007369722639L167.88645708147322,322.36252190726145L168.7041930234375,289.8127714429583L170.79142438727678,289.3020670754569L171.06835434709822,271.911204801287L171.1909681171875,270.8958773476737L174.26656903459823,283.84917106628416L174.38032477566964,283.1143838065011L174.91693484933035,283.53803956168036L175.8479603203125,282.719614137922L176.14540361049106,252.0565401349749L176.77851957924108,255.86541513715474L176.8139516953125,270.5075998578753L177.2214210301339,312.34942501613074L177.24519784486608,261.30154653276713L177.2596504185268,276.3686402457101L177.5939244609375,259.72298148018973L177.62049854799105,276.56921980721614L177.98181288950892,311.0258628845215L178.00279243191966,266.3113307952881L179.00281728683035,244.62527591160367L179.12449863281248,276.40009444100514L179.75854702566966,280.8353414263044L179.9795315390625,293.709311403547L179.98559229575895,266.4837433406285L180.2615898314732,282.8547582898821L180.52966176227676,246.80562073843822L182.2621057533482,256.6315538678851L184.59083496093749,231.84236079624722L185.9941332421875,265.7550989968436L186.25940790066963,252.43055948529926L186.81466645647322,237.4497336796352L187.6319361863839,247.55867238725932L188.57881286718748,250.3292918613979L188.8021284408482,258.6892458234515L188.8203107109375,236.60850345066612L190.12756930915177,252.29465517316547L190.47816077343748,274.2814664023263L191.10381734933034,223.74583315168107L191.7327374095982,235.2573906489781L192.33554959486608,252.7538330078125L192.51970335602678,244.880504826137L192.8180790703125,261.09654982430595L193.1593462935268,221.08662850516185L193.70807788058036,248.15745261056082L193.91880572879467,255.20777386256626L196.1044078359375,237.28175882611959L196.45966142075892,190.22196824210033L196.49509353683035,202.60875772748673L196.68064593415178,234.47311079842706L198.15340981138394,218.1754821232387L200.06021711049107,195.2041607448033L200.12688543415177,253.08207838875904L200.85137896540178,190.30679800851004L202.0751856060268,194.73378595624652L202.74979444754464,175.51566298348564L203.95402018191965,201.83596245901924L205.2440289341518,208.83525025503974L206.7107320546875,166.9651553562709L206.77646795424107,177.88834887913296L207.38207741183035,192.27002465384345L208.0291797421875,184.61794417245048L208.53408739620536,196.2069969177246L210.88379614620536,185.17980526515416L214.79764633593751,178.49103262765067L215.30674989843752,185.66821844918388L217.65412758816962,152.1203160422189L220.03600496986607,127.95098223005023L220.37867082924106,112.47732609340122L220.82157228013392,166.29775526864188L220.85607197209822,170.71009472438269L221.28825054575893,127.5330995832171L222.52184763950893,163.46155657087053L223.7983362421875,147.3332176208496L224.4263238783482,152.90432880946568L224.91724517075892,154.41349329267229L225.94477653683035,146.02976891653879L226.3816172310268,124.94226826259067L226.4967716082589,125.02818690708706L227.4483104095982,139.9265866960798L227.94855594308035,128.5227048601423L228.70615053013393,126.57406507219586L229.55232540736606,115.11984830583843L229.61759509486606,149.91597480773925L230.75561871763392,159.18867568969728L230.98965716852678,133.20048403058732L231.07310912611607,141.6017331804548L231.70948857924108,160.45378766741072L233.42747999665178,134.25649032592776L235.15432944308034,103.11835730416435L235.3342872957589,119.93014188494003L235.97020053683036,123.38172106061661L237.2084597511161,160.71961773463656L237.30822913058037,146.23441636221747L237.33713427790178,142.61455415998185L238.60709591183036,103.85098735264367L238.90966753459824,116.20802786690848L240.02671161495536,119.18070613316128L242.89904407700894,130.26597813197546L244.8464118247768,99.8517230442592L245.1023622421875,111.43068825857979L245.3932785636161,121.01626695905414L246.68561837611608,117.03463014875139L247.90522910825894,105.60506722586496L249.49874190736608,116.5394577026367L249.8884951841518,80.78780986240932L250.2157760457589,98.82209636143276L250.71928506361607,117.5420062473842L251.2917934654018,113.04424122401647L251.3057798270089,77.7039838518415L251.60928387388392,85.62090824672154L252.3995133046875,89.41180648803709L252.59951827566965,90.6390337262835L253.2526813627232,95.96631840297155L253.50816556808036,91.60530003138953L254.26156424665177,103.16248768397739L254.87556552120535,87.90200511387414L255.64248434933037,91.35559768676757L257.5539537689732,68.14725014822824L257.6299463337054,112.1481151035854L257.9931255234375,109.22794952392576L260.6938919497768,85.10169830322263L261.2235088426339,79.33606828962054L261.68039665513396,94.3386716570173L261.71629498325893,93.1446038382394L265.6804960747768,79.2426302228655L265.91127104129464,100.61895065307618L268.1989735881696,76.74211414882117L268.3831273493304,69.60371704101561L269.2712613113839,97.15023705618722L269.80554032477676,98.74431348528182L271.6396185435268,78.2911562238421L272.5235565970982,76.74289485386439L274.5394575167411,106.8486070905413L274.5637005435268,73.85453273228237L275.2667483203125,88.5656454903739L277.01830700558037,60.60046212332589L277.86028597433034,62.70705086844306L280.0379624765625,88.1450509207589L281.68042754129465,94.16938193184988L281.7881225256696,71.64719194684712L281.8687772109375,74.98141882760183L282.5121498448661,80.55569392613003L282.8781263069196,102.24014630998884L283.3275547265625,69.95667790004185L284.2194183850446,53.39258226667131L287.5197335122768,70.56977789742608L289.66384274665177,84.48432497297013L289.6946127421875,55.87596391950333L289.89088801674103,66.7400087629046L290.0619878404018,106.87753426688057L291.1613158627232,78.59768567766461L291.19768040290177,63.011936732700875L291.3282197779018,52.244904763358L291.4806711194197,55.727136884416865L292.3916494720982,83.06861910138811L292.7720785078125,62.40450711931502L293.79308290513393,59.146624973842094L293.8877239520089,93.72873556954521L296.1796224073661,84.26560429164343L296.4183229787946,59.15459638323101L296.5973484073661,56.25415387834822L297.3167136060268,95.8795368739537L297.6500552243304,58.87748718261719L297.77313520647317,53.659912109375L299.909785047991,77.71392756870816L300.2118904587054,84.32082890101842L300.3629431640625,68.38688550676618L301.23336106808034,66.5353407723563L302.9998385390625,70.53760463169644L303.6035831484375,61.689175851004485L304.12993655691963,61.46014164515904L304.2269086640625,61.44313049316406L305.9253191752232,92.62251761300223L306.1090067243304,82.65468106951032L307.51743333816967,46.77125843593055L311.2513256752232,83.97961970738001L311.98840693191966,50.08498153686525L312.2774584051339,68.15193437848771L313.07374859263393,63.09366422380718L313.2285309944196,86.14607620239258L317.3325957020089,75.95421840122768L317.92701607031245,82.65209241594589L319.46971175558036,66.78290645054406L321.8436635323661,93.07857262747628L322.06138456138393,34.16735076904297L322.0665128939732,66.35364194597518L323.67634311495533,48.957561274937234L324.44978891183035,62.377387891496916L324.87450809263396,63.50349328177317L325.43023286049106,76.13706774030415L326.0386395904018,65.26127123151505L327.6904288962054,84.29370967320031L327.72166510379463,53.81588875906807L329.47369000111604,52.070889718191985L334.14373614174104,60.71502031598773L334.7097175747768,56.43827699933731L336.41372263058037,73.82503029959543L337.7396297109375,45.66779349190847L338.2561926662946,52.55689915248328L339.15598192968747,59.15623997279576L340.99378984486606,80.41853637695311L346.26105362611605,88.1350661141532L346.94172322433036,58.11769681658062L346.9771553404018,48.78987404959543L347.5408057131696,23.421315656389513L348.63593782700895,66.3662564958845L349.1865342622768,34.714583914620526L349.5385243627232,64.82756903512137L349.5874766283482,64.8027097429548L352.0891705078125,55.810877772739964L352.73907011049107,50.45244707380023L352.7409349587054,50.55685610089985L352.8859269073661,62.64434792654856L353.64072422209824,49.53807710920059L353.7717298091518,60.75130255562919L354.3945891127232,70.30857042585099L355.16663627343746,57.76083243233818L355.5270181908482,50.065710449218734L355.5685110636161,40.74910518101282L355.69998286272323,65.07731246948242L357.1424429564732,57.43507298060828L357.2249624899553,71.38545030866352L358.5569303270089,68.67944444928851L360.43436626674105,56.414403860909616L360.50709534709824,68.26238359723773L361.1514004051339,24.442806570870534L363.0041271060268,63.73363691057476L363.99063181138393,69.51677115304129L367.06716515290174,40.3220184326172L367.50587069531247,59.216888427734375L367.78886141183034,59.376727512904594L368.95066184933034,68.09494291033063L369.50825146540177,55.34319436209542L370.93299550111607,43.52619628906251L373.0346794386161,58.09398803710939L373.2281574408482,56.53619384765625L374.73169131361607,37.91342010498045L375.48602241629465,76.92611400059289L377.1993517131696,52.17139522007531L377.73456315066966,46.59905133928571L378.44693516852675,59.61484255109515L379.9872997935268,38.03126547677175L381.316470358259,53.057289995465936L383.1855144810268,38.55893990652903L384.9874240680804,33.37933175223214L385.4177377935268,59.52370550973074L386.93292696763393,38.882973589215936L389.16095437165177,25.23789302280969L389.8952383560268,52.01081651960102L390.7563320189732,55.019735935756145L390.9852421372768,56.20603779384069L395.6254507064732,76.26691131591798L397.0236206551339,26.89504220145091L397.4907651328125,41.026625279017864L398.9658600703125,64.94216831752234L400.2353554921875,43.82935638427733L400.9057684252232,53.388144574846564L402.2554523203125,78.85992039271763L402.5132675859375,35.55051356724331L407.89568574441967,30.146473257882253L408.62996972879466,70.94677625383649L408.84209621316967,30.84894343784876L409.32788917299104,30.81660581316269L409.6971291194197,53.63690185546875L410.70741063950896,32.25992398943218L411.88133259040177,58.83450731549944L413.50701402120535,39.381104496547145L413.85900412165176,32.57775312151226L414.5345453872768,45.77898232596261L416.8935783783482,68.47190017700194L417.6702876595982,70.98071637834822L418.8470068828125,41.36273934500559L419.5020348180804,34.53954162597655L419.70110736495536,56.80512619018555L420.1845692645089,41.55483387538365L424.0131026484375,67.43339811052594L424.3394510859375,42.411596025739385L427.4234438203125,57.007410975864964L428.07660690736606,28.184356035505026L428.14886977566965,65.64036516462052L430.9242301305803,71.27035794939313L430.9312233113839,76.61707807268417L432.1480367712054,80.65328205653599L432.7792878917411,76.1060038975307L433.333147811384,41.852898842947845L433.47907218415173,40.75378941127232L437.05212136272326,61.223259299142015L437.4898944810268,73.58013545445034L437.60831234263395,20.82699170793806L438.2456242198661,63.557772827148426L438.4777978225447,26.323401750837057L438.7188294542411,76.36034938267298L439.2465814988839,53.04274422781806L439.47642404129465,36.69486280168807L440.0731754698661,26.777320098876945L443.1203374520089,28.182917894635885L443.3012277287947,56.733671133858834L443.38188241406255,32.616541835239964L444.10404488504463,42.64872491019112L444.4033530234375,72.13020183018276L444.7287690368304,53.59679827008928L445.6817064743304,43.13954184395925L445.8355564520089,36.00135018484934L445.9339271953125,51.52349221365792L446.7609873783482,48.306412179129474L449.0370346238839,50.040275900704515L450.1634029453125,45.016685485839844L450.62308803013394,46.255294581822L452.7550757511161,44.64170052664622L453.72759409486605,53.95863451276507L454.00359163058033,68.42526332310266L454.1350634296875,36.57607236589705L454.44509444531246,37.815708705357125L454.68659228906245,39.80962938581196L455.2194726662946,51.493003627232156L455.4413896037947,43.99412623814172L455.98639149441965,67.38939099993023L456.23907842745535,46.53741673060827L456.28663205691964,45.374001857212605L457.0885167890625,60.1183151245117L458.0694269497768,61.17456795828684L459.5160829520089,57.39842093331474L459.72634458816964,42.07244131905691L459.88485668638396,58.23065250941685L459.9132956216518,65.95141448974607L461.19304770870536,108.4038537161691L461.6117061328125,24.789439610072563L462.47746191629466,52.866304888044084L463.3600013337054,54.75096795218332L469.4091027287946,44.856353323800214L470.09443444754464,71.00068599155972L471.7070619408482,40.491760144914885L477.50767231138394,45.805690656389494L479.4256686997768,48.04393092564172L479.4354591529018,29.586707741873607L479.46622914843755,55.343317631312786L479.98092725558035,55.70355137416297L481.3790972042411,49.44813167027066L481.7217630636161,52.63369587489538L481.8411133493303,32.67410855974468L482.1945020859375,71.05484226771765L485.63048492075893,35.25861206054686L485.80344959263397,62.22169886997769L486.10135909486604,58.46174120221817L486.64869204575893,28.76569366455078L486.69391461495536,63.5044383457729L486.83284580691964,33.74889286586219L487.4846102578125,9.22530386788503L487.9270454966518,38.240740966796864L489.14292653236606,41.13580071585518L489.18441940513395,45.25048610142298L489.39514725334817,41.54156188964845L491.1005509453125,33.4355836050851L491.19519199218746,52.690276445661276L493.7215951104911,59.24376111711773L495.9496225145089,49.905049569266204L496.6153733270089,40.46459982735769L496.6764471060268,43.458192770821725L497.2979077734375,33.541266414097386L499.8900467912946,53.84132330758233L500.13993645200895,30.92019304547991L500.69286394754465,42.444549996512286L501.1987040256696,68.00261426653182L501.85046847656247,51.696315656389494L502.39127445870537,43.51148616245816L503.83233591629465,40.97333188738143L505.24029631808037,54.33049665178571L507.5802146149553,37.4772936139788L507.99980546316965,45.74935662405831L508.5112400859375,57.84301191057476L509.46557615959824,49.01615524291992L510.51548570424103,30.534483664376374L511.8712303560268,69.14778529575894L514.9720067243303,53.43979437691825L515.4321580212053,41.094053540911005L516.6140055770089,57.90665991646903L517.1380279252232,37.647076416015636L517.5496931685268,22.650143432617195L518.6616089162947,33.584698268345406L518.8089319252232,53.81169760567802L519.6728228604911,47.910307094029015L521.5437318314732,38.918023136683864L523.3927288359375,72.83263092041017L524.7582639408482,78.64239131382534L525.7867277310268,39.73846195765904L527.9005331819196,34.409944588797416L530.2521067801339,52.23993290492465L530.315045407366,44.67449013846261L530.3859096395089,78.76570162091936L531.7355935345983,40.96030644008093L535.7375578024554,27.34271490914482L536.6200972198661,35.419601658412375L536.8872367265625,42.196655600411546L538.1296918493304,57.45426188877652L538.7012678270089,31.80760814121791L541.5647422600446,48.9646697998047L544.4529259319196,23.604247174944216L546.491205030134,68.8466796875L547.910820733259,85.39865384783063L548.2124599319196,41.447507476806656L548.5168964029018,56.73399985177177L550.4237037020089,47.891077096121634L550.9738339252232,54.68090994698661L551.4139381037946,61.1861963544573L552.526320063616,34.192415509905146L552.8787763761161,34.89948774065292L553.1585036082589,51.459392220633376L554.3431484363839,43.093356977190275L555.7553047466519,39.92426975795203L556.4163934386161,26.51159275599887L556.5278181194196,34.74338782174247L557.082144251116,54.8259567260742L560.9521705078125,46.21243798392159L561.2608028872768,31.205027117047987L562.120031702009,54.23073076520645L565.096329452009,41.314664350237166L568.0726272020089,24.50715310232978L568.0959378046875,51.588167463030146L568.3206520145089,36.96256245204379L568.4045701841518,38.33512409755164L568.6432707555804,30.344690159388954L569.3495820167411,64.31497453962052L571.5631568470982,41.9848379952567L571.9193428560268,43.18671286446708L572.3487241573661,52.49851063319616L574.3413144743304,51.97589024135047L575.001004530134,24.024430847167984L575.5418105122768,39.46911871773857L576.7497659430803,48.9694362095424L576.9852030301339,48.517366899762834L577.2756531395089,35.39692012241906L577.4285706930804,48.163912963867176L577.8686748716518,67.66189814976283L578.2374486060268,40.59193692888532L578.6551746060268,26.466352953229627L579.6342199185268,58.36439961024693L579.7218677845982,41.166371481759214L580.1223439386162,38.5111114501953L581.0435789564733,64.928855242048L582.0869615323661,51.76222359793526L582.2762436261161,33.989843096051885L583.9275667198661,37.68183833530971L585.5490522421875,28.544630868094302L586.0311155055804,50.69512307303292L586.3001198604911,43.88643003191269L587.3430362243304,30.775310625348787L587.836288577009,48.872217886788484L589.5435571171874,41.37839453560967L591.1170227979911,45.27333199637276L591.540343342634,52.85903200422014L593.0732485747767,44.688173021588995L593.2643955167412,48.86026077270509L593.5259404787946,38.97830178397044L593.8662752779019,64.11162142072403L599.0724652801339,24.919201006208162L600.2454548069196,66.76043036324637L600.5806612734375,51.2116621834891L602.0883910546875,39.76936144147602L602.7923712555803,61.72747148786273L603.628289467634,36.760113307407906L603.8101121685268,21.543432399204796L603.8217674698661,54.30674678257534L604.9224941283483,39.27977719988142L605.9574848872768,32.02127478463308L606.8101867332589,21.513683428083162L607.3617155926339,41.58215855189732L607.5365451127233,24.58616867065428L609.4433524118303,51.6951651436942L609.963645063616,83.42914047241209L610.5827746707589,26.113392094203387L610.7571379787947,31.904415566580646L611.3902539475447,30.25922350202287L612.0769843024553,33.99773232596261L613.8607116194197,39.5008399963379L616.7712734698662,71.99259229387557L616.7754693783482,64.99118837629045L619.4426685368303,50.38341631208148L621.9201193895088,21.53200945172991L622.6054511082589,44.73928865705217L623.1872837511161,24.119717952183304L624.9402410725447,51.26068224225726L625.2894339006697,39.81077989850725L626.5123081171874,38.54316144670757L628.5902152399553,26.301336560930537L628.634039172991,75.1290131705148L629.2415134787947,34.37727824619836L629.8270758180804,40.1853539603097L630.4928266305803,56.32039053780692L631.9371515725446,25.5649673461914L632.6336723805803,47.83650992257253L633.3810103024553,21.21693333217078L633.7875472131697,27.056689235142308L638.0766981060267,24.034949820382245L641.253933251116,23.223386383056656L644.0176383046875,17.71263602120535L644.4507493024554,17.63251102992465L644.7868881930804,29.514595249720966L645.6088200435267,30.760107421874984L645.6698938225446,19.745098876953133L649.2783751171876,24.945868246895905L650.3930881372768,44.534949384416876L651.5175916104911,81.6347926548549L653.5582017689732,28.57659868512834L654.7125428136161,35.82071969168528L654.7694206841518,53.66899294172016L654.7890015904018,62.54051415579659L657.5307946774553,41.43127702985489L657.6021251216517,30.77703639439173L657.8380284207589,18.930042811802437L657.8921090189732,35.964451599121105L658.0245132421875,30.543030330112984L658.7159057176339,43.47508065359933L660.4385592555803,25.470091138567255L660.4711940993303,39.0972154889788L661.095918251116,19.019125366210922L661.3900980569197,5.316108267647869L661.5448804587054,32.10493349347794L663.4307082154019,54.97905709402903L663.4698700279017,22.87745186941965L663.960325108259,34.21316582815986L664.6120895591517,45.20615027291433L664.7328384810269,53.98439777919223L665.618175170759,43.75453196934293L666.617733813616,50.304359654017844L667.3361665881696,45.43719787597655L667.7543588002233,44.475410352434416L667.9678839207589,26.009804861886167L669.4704853694196,16.622525242396755L670.7017514029018,52.52912248883929L670.8248313850447,39.48526698521206L671.8691463850446,69.54401365007674L673.0384062154018,36.69215087890626L673.192722405134,22.0191693987165L674.6090746238839,29.978128596714562L674.9023220055803,65.89849090576172L677.0301138180804,53.41222316196987L677.1746395546876,52.300006103515614L677.2646184810268,53.60978262765069L681.3239268314732,38.61975272042411L681.3887303069197,39.41208615984236L683.6517236149554,49.37433449881417L684.6713293761161,34.265308707101L685.1762370301338,68.45316325596401L687.6084653136161,58.202054050990505L688.9977772332588,28.623440987723235L689.7409192466517,60.87703715733121L691.188507672991,61.2948787144252L691.740036532366,34.0149900163923L691.8617178783481,45.75934143066405L692.4085846171874,48.9821740286691L692.7862163805803,40.75617261614119L693.7806466908482,44.3682072230748L694.6174973270089,39.35846405029298L695.1247360412947,43.07626364571706L695.2520119319197,62.59610857282367L695.5042326529018,33.86225945608955L695.5154217421875,44.22751595633372L695.6156573337054,41.8645272391183L695.9056412310267,61.48249446323941L697.3905266216518,37.91637856619697L697.7033549095981,62.962094879150406L697.708017030134,44.994661385672416L697.8646642801339,43.24218401227678L700.0432732064731,63.05701217651369L701.806953405134,49.50212358747208L702.2820234877232,38.72173745291572L702.2964760613839,60.09423653738839L704.3939640904017,43.4987894330706L705.7874719185269,60.08421064104355L707.1674595970982,47.30867113385882L708.2397473203125,28.006067657470687L708.253267469866,32.17121124267578L708.4378874430804,51.78087833949499L710.7204616573662,41.24193551199778L710.8603252734375,33.74913940429689L710.8719805747768,31.445032283238L710.9689526819197,24.739885384695857L710.9992564654018,42.58203626360214L711.050073579241,60.99611522129604L711.8118640747767,79.15297241210936L712.0309837399553,32.2512129647391L712.4822770078125,45.81489475795203L712.7522137868303,36.81883054460796L715.3429541685267,45.48987492152625L717.0306418024554,39.57525351388113L718.3532853984375,65.06929997035436L718.3989741796875,38.176312255859386L718.7169308002232,69.67808946881975L719.5113561395088,44.424335806710374L723.4345305703125,73.63955121721538L726.1679318404018,33.6315816606794L726.2765592488838,20.68638262067522L727.0607279229911,42.90228969029018L727.1637607868304,40.39215861729215L729.4715104520089,42.910671997070324L731.0137399252231,44.75683397565571L731.2874064006696,29.26123591831751L731.9251844899553,47.279333060128366L732.1223921886161,29.125228881835938L732.9531820680804,43.72071511404853L733.1690382488839,45.30916224888394L733.9648622243304,53.27781862531391L733.9779161618304,37.59785090855191L734.3392305033482,65.2298786708287L734.4138244319196,65.4907985142299L734.9369143560267,44.92028895786828L735.8357711953125,29.11520298549109L736.6632975904017,41.61630412510462L738.5845574631696,41.77951256888253L739.7258445703125,66.34883444649834L739.904869998884,55.154921177455364L741.1007039162946,46.29963041033066L741.612604751116,28.30992627825058L742.5235831037947,26.387255205426893L744.4993897868304,53.468598284040155L744.9660680524553,23.195691898890907L745.662588860491,42.48095550537108L748.1978500078125,59.10380946568082L749.8864700658482,41.012449319022025L751.5046921037946,31.945217677525093L751.7200820725446,89.95004098074777L752.7070529899553,54.73514840262278L752.8049575212053,62.235998099190866L753.243663063616,60.27864728655133L754.150911719866,34.49257605416436L754.2595391283481,32.97915878295897L755.4246030502233,39.24308406284879L756.2083055122769,28.249976348876945L756.3150680725447,45.26938738141742L756.8223067868304,41.53441227504184L758.1808487109374,65.30753827776229L759.9659746640625,27.84894049508232L760.1487297890625,41.04906027657647L761.2681049296874,40.175081525530146L761.444799297991,46.51251634870256L763.331093266741,27.60848334176199L767.8589447310268,56.27782156808035L768.4132708627232,34.28215550013951L768.4631555524554,47.54986790248327L768.9321648783482,33.48534327915737L772.4893628470982,30.469438607352107L773.8833368872768,41.3710394723075L774.5626078493304,43.35772835867745L775.5052886216517,27.590280587332575L775.8894473537946,36.38590905325754L777.3463600212053,45.9664337158203L778.0433470412946,29.551000758579796L778.3524456328125,37.58950969151087L779.7011971037947,38.62016361781529L780.1137947712053,49.17291259765625L781.3511215613838,57.7699132646833L783.1334502421875,28.529550933837875L783.1847335680804,38.13592104230607L784.6304571462053,37.98951830182757L784.7996921216518,45.396971021379755L785.3460926484374,67.7089459010533L786.0253636104911,56.13269260951452L786.3969346171875,27.692306409563322L786.4719947578125,25.02899278913226L786.5004336930804,42.50593806675502L789.2305714787947,64.03934456961497L791.0963521171875,46.61137826102119L791.5620979587053,41.38525652204239L793.7439703694196,69.48258449009487L794.2087837868304,60.18755133492606L794.8819939921875,47.57920597621373L796.3123325725447,45.513460431780146L797.8522309854911,49.07520119803292L798.6587778381696,53.23939971923829L799.4867704453126,61.6757805960519L801.5091983337054,30.480697195870526L802.0737811305803,43.973910086495515L802.7082957354911,47.7138159615653L804.7092778694196,25.141003417968758L804.8957626908482,89.1314511980329L805.0374911551339,47.042080906459255L805.1740912868304,50.71336691720147L805.3465897466518,58.632345799037395L806.3647968716517,29.73898631504604L806.6822872801339,41.795249938964844L808.8263965145089,27.526755850655682L810.823648952009,39.63775100708006L812.0358002912947,39.87516751970564L813.066595141741,42.52442844935828L813.5323409832589,28.159044756208143L814.3109151127231,51.654856109619125L814.5374941707589,37.954016767229376L814.6195474921874,24.496264321463443L814.6661686975447,56.29848970685687L814.9748010770089,28.143348475864972L815.0419356127231,49.34918757847376L815.2941563337054,42.40822666713169L815.3459058716518,35.42962755475726L815.4438104029018,40.19562639508929L815.6191061350447,31.480328369140633L816.6112053850447,52.741022273472375L818.0443412377232,20.22708151681081L819.2494993962054,33.4311048235212L820.4691101283482,35.8086393083845L821.1138813984375,33.68191659109932L821.9306849162947,39.28368072509767L822.6052937578124,57.25115530831475L823.6435480011161,29.044117736816414L824.6678158828125,52.93139103480749L824.6748090636162,35.49939793178013L825.7461643627232,45.45593479701452L829.360240202009,66.39025290352957L829.5327386618303,32.20338450840543L829.6478930390624,70.95696650913784L830.4502439832589,46.004071916852666L830.5085204899553,58.15504738943918L831.2926891640625,34.18206089564732L831.7938671216518,49.56790825980051L832.0348987533482,36.05398614065986L834.2312237377232,39.75539093017579L836.6303509654017,60.989910670689156L836.846673358259,66.34069867815292L838.309646782366,65.05401458740232L840.0649351640625,42.85906328473773L840.5428025189733,26.069056265694734L841.1409525837054,62.11671458653043L841.8099668805803,32.32669481549944L842.0286203337054,70.92002683367046L844.6613198002232,23.52679301670619L844.7368461529018,57.62408578055245L847.6763131506697,29.49096864972797L848.8036138962053,53.85944388253347L849.9789344832589,51.979875946044906L851.0959785636161,50.70440935407364L851.2731391439733,62.38811231340683L851.4997182020089,54.1672882080078L852.2629073337054,87.32613242013115L855.1366384319197,33.692147936139776L856.0979676863839,77.27722582135881L856.1590414654019,53.70502864292691L856.430843092634,71.74054783412387L856.6732733604911,57.1408704485212L857.3865778024555,53.32379804338727L857.4243409787946,41.04265027727398L857.6980074542411,58.87962384905135L857.7740000189732,45.491148703438874L859.1978116305803,59.91997495378767L859.5041129497768,61.068350982666004L862.4869376685268,77.32447902134484L864.9727803381696,50.69401365007671L865.1406166774553,39.69457811628071L865.5448225279018,31.10008392333986L867.4740080055803,34.782176535470136L869.0106429341519,39.783701760428286L869.2446813850447,56.84773624965121L869.8101966060267,53.534054238455646L870.3537998604911,55.71037227085659L870.8214105502232,47.18716877528599L870.868497967634,44.23281653267997L871.7095445122768,53.03814217703684L872.1086220301339,62.37837404523579L875.3147623225445,75.800460597447L875.3553227712054,35.03849432809011L875.692860297991,45.52315761021205L876.5637444140625,46.17590920584542L877.1190029698661,49.024044472830646L877.2635287064733,38.05690547398157L881.540091873884,76.55831974574497L881.8818253091517,45.433992876325334L882.0589858895089,36.51591698782784L882.4953603716518,40.13912800380163L882.7098179162947,48.18618360246931L882.8935054654017,82.06882356916154L883.1107602823661,73.3580454145159L884.1103189252232,59.3559361049107L884.2790876886161,62.64479991367884L884.4646400859375,72.82942592075894L884.5322408337054,66.69119415283205L884.6842259631696,52.852252197265614L888.3826861841518,70.48632463727678L889.0857339609374,60.0992083958217L889.2792119631697,50.482031685965396L889.3934339162946,54.47599541800362L890.1403056261161,48.701900918143146L891.1263441194196,38.310511343819734L891.912377641741,83.13276018415179L892.4517849877232,56.70215530395507L897.0775409832589,50.93286830357143L897.251438079241,63.33720310756141L897.726974373884,47.01035962785993L898.0388702377232,63.2277400425502L898.4304883627233,45.77076437813894L899.087847358259,54.85734928676059L899.2454270323661,47.08160923549107L900.8282169542412,57.944215938023156L901.0221611685268,51.239479936872186L902.5583298850447,41.62271412440711L903.2665059944196,40.90845118931363L905.6982680658482,45.637962341308594L907.874079719866,69.90827418736049L908.3519470747768,75.79692687988279L908.8792329073661,44.693144880022345L911.3916496640625,37.013226100376656L911.4224196595982,63.479702322823655L912.7059014430803,64.3059347970145L914.5329864810268,47.381810869489385L916.7666084296875,42.14508797781809L917.2621918426339,51.79509538922993L917.2715160837054,31.28235800606864L918.1866903448661,68.25531616210935L918.2692098783482,80.47010399954661L919.2393971618304,50.78819133213588L919.4258819832589,45.03295702253071L919.5312459073662,48.497726004464276L919.7405751194196,58.696692330496646L919.9368503939731,53.317223685128354L920.1051529453125,76.77872510637557L920.6012025703126,53.61298762730191L920.9382738850447,36.62422954014371L921.1051778002233,56.03793967110771L924.0735499453125,50.2840613228934L924.288473702009,43.368247331891745L925.2185667488839,56.27486310686383L925.7794198493303,44.722606222970136L925.8586758984375,58.308065577915734L926.2004093337054,31.92717928205219L926.399948092634,54.96393607003347L926.4656839921875,43.514855521065854L927.2815550859375,67.46318817138672L927.4307429430803,50.41365836007253L928.571097626116,49.10914132254465L928.890919094866,45.29798583984376L928.9519928738839,40.19081889561246L930.7949291216518,65.24532841273717L930.8336247220982,46.553688267299094L931.9791077377232,74.35069133213588L932.8238839787947,66.80078048706054L934.0905821283482,51.63570829119002L935.0085536618303,52.16991598946708L935.3181184654018,61.42287325177872L936.2482115122768,78.33586186000278L936.3050893828125,50.33509477887834L936.9060367198662,65.07944913591659L937.4244645234375,56.51910051618303L938.5321843627232,64.53332541329519L938.5480355725447,54.94445953369142L938.7764794787946,54.9438020978655L939.1489829095982,50.921568625313874L939.3224137935268,66.97413809640067L940.4119513627232,50.65177339826313L941.7821485881697,38.381925310407354L942.1103618738839,71.87532217843192L942.7019849698661,61.071432713099895L942.8120110145089,76.414875466483L945.1001797734375,75.81381476266044L945.3244277712054,57.98937356131417L945.5332907712053,73.35562111990794L945.6885393850447,53.55669468470982L945.905794202009,70.7349175589425L946.6135040993304,76.16472113473075L948.1235649408482,79.95603027343748L948.601432295759,87.97341908046177L953.3530655457589,56.856118556431355L953.7358256417411,60.026068660191136L958.0361656238839,60.972776249476844L959.3154514988839,46.1882361275809L959.5327063158483,49.240217590332016L960.297760295759,69.81878073556082L960.6982364497768,74.85309557233536L960.8921806640625,54.105489240373885L961.2325154631696,52.02717023577007L961.4852023962054,59.651946585518964L962.5416389095982,58.39271044049942L963.9202279520089,58.367645699637286L964.0302539966518,83.83420312064034L966.9804438716517,45.44073159354072L967.6009721149554,56.768556322370245L969.844384516741,34.61095559256417L970.4033727689732,89.83207233973914L972.1665867555804,61.62996553693497L974.6002136752232,48.93471537998746L974.7619892578125,67.58777226039341L976.7494512421875,68.7656507219587L976.9116930368303,65.48907274518696L978.1644048247769,59.506981985909604L978.9341209252232,62.14486105782645L979.1905375546876,56.66763992309569L979.2991649631696,63.835046386718766L979.6586144564733,59.19256330217636L980.010138344866,68.05060708182198L981.9360603381696,41.68808789934432L982.5878247890626,46.36549726213728L983.8051044609375,66.26492919921873L984.5557058671875,65.26201084681921L985.2881250033482,54.86688210623606L986.5613501216518,62.33601052420478L986.8410773537946,64.4397229875837L987.2522763850448,93.90118920462471L989.3413725970981,40.40189688546319" style="fill: none;" fill="none"></path></g></g></g></g></g></g><g transform="translate(41, 377)" clip-path="url(#clip_1)"><clipPath id="clip_1"><rect width="1087" height="23"></rect></clipPath><g><g><line x1="0" y1="0" x2="0" y2="5" style="visibility: inherit;" fill="rgb(0, 0, 0)" stroke="rgb(204, 204, 204)" stroke-width="1px"></line><line x1="77.70200892857143" y1="0" x2="77.70200892857143" y2="5" style="visibility: inherit;" fill="rgb(0, 0, 0)" stroke="rgb(204, 204, 204)" stroke-width="1px"></line><line x1="155.40401785714286" y1="0" x2="155.40401785714286" y2="5" style="visibility: inherit;" fill="rgb(0, 0, 0)" stroke="rgb(204, 204, 204)" stroke-width="1px"></line><line x1="233.10602678571428" y1="0" x2="233.10602678571428" y2="5" style="visibility: inherit;" fill="rgb(0, 0, 0)" stroke="rgb(204, 204, 204)" stroke-width="1px"></line><line x1="310.8080357142857" y1="0" x2="310.8080357142857" y2="5" style="visibility: inherit;" fill="rgb(0, 0, 0)" stroke="rgb(204, 204, 204)" stroke-width="1px"></line><line x1="388.51004464285717" y1="0" x2="388.51004464285717" y2="5" style="visibility: inherit;" fill="rgb(0, 0, 0)" stroke="rgb(204, 204, 204)" stroke-width="1px"></line><line x1="466.21205357142856" y1="0" x2="466.21205357142856" y2="5" style="visibility: inherit;" fill="rgb(0, 0, 0)" stroke="rgb(204, 204, 204)" stroke-width="1px"></line><line x1="543.9140625" y1="0" x2="543.9140625" y2="5" style="visibility: inherit;" fill="rgb(0, 0, 0)" stroke="rgb(204, 204, 204)" stroke-width="1px"></line><line x1="621.6160714285714" y1="0" x2="621.6160714285714" y2="5" style="visibility: inherit;" fill="rgb(0, 0, 0)" stroke="rgb(204, 204, 204)" stroke-width="1px"></line><line x1="699.3180803571429" y1="0" x2="699.3180803571429" y2="5" style="visibility: inherit;" fill="rgb(0, 0, 0)" stroke="rgb(204, 204, 204)" stroke-width="1px"></line><line x1="777.0200892857143" y1="0" x2="777.0200892857143" y2="5" style="visibility: inherit;" fill="rgb(0, 0, 0)" stroke="rgb(204, 204, 204)" stroke-width="1px"></line><line x1="854.7220982142857" y1="0" x2="854.7220982142857" y2="5" style="visibility: inherit;" fill="rgb(0, 0, 0)" stroke="rgb(204, 204, 204)" stroke-width="1px"></line><line x1="932.4241071428571" y1="0" x2="932.4241071428571" y2="5" style="visibility: inherit;" fill="rgb(0, 0, 0)" stroke="rgb(204, 204, 204)" stroke-width="1px"></line><line x1="1010.1261160714286" y1="0" x2="1010.1261160714286" y2="5" style="visibility: inherit;" fill="rgb(0, 0, 0)" stroke="rgb(204, 204, 204)" stroke-width="1px"></line><line x1="1087.828125" y1="0" x2="1087.828125" y2="5" style="visibility: inherit;" fill="rgb(0, 0, 0)" stroke="rgb(204, 204, 204)" stroke-width="1px"></line></g><g transform="translate(0, 8)"><text x="0" y="0" dx="0em" dy="0.95em" style="text-anchor: middle; visibility: hidden; font-family: Roboto, sans-serif; font-size: 12px; font-weight: 200;" fill="rgb(33, 33, 33)" stroke="none" stroke-width="1px">-1M</text><text x="77.70200892857143" y="0" dx="0em" dy="0.95em" style="text-anchor: middle; visibility: inherit; font-family: Roboto, sans-serif; font-size: 12px; font-weight: 200;" fill="rgb(33, 33, 33)" stroke="none" stroke-width="1px">0</text><text x="155.40401785714286" y="0" dx="0em" dy="0.95em" style="text-anchor: middle; visibility: inherit; font-family: Roboto, sans-serif; font-size: 12px; font-weight: 200;" fill="rgb(33, 33, 33)" stroke="none" stroke-width="1px">1M</text><text x="233.10602678571428" y="0" dx="0em" dy="0.95em" style="text-anchor: middle; visibility: inherit; font-family: Roboto, sans-serif; font-size: 12px; font-weight: 200;" fill="rgb(33, 33, 33)" stroke="none" stroke-width="1px">2M</text><text x="310.8080357142857" y="0" dx="0em" dy="0.95em" style="text-anchor: middle; visibility: inherit; font-family: Roboto, sans-serif; font-size: 12px; font-weight: 200;" fill="rgb(33, 33, 33)" stroke="none" stroke-width="1px">3M</text><text x="388.51004464285717" y="0" dx="0em" dy="0.95em" style="text-anchor: middle; visibility: inherit; font-family: Roboto, sans-serif; font-size: 12px; font-weight: 200;" fill="rgb(33, 33, 33)" stroke="none" stroke-width="1px">4M</text><text x="466.21205357142856" y="0" dx="0em" dy="0.95em" style="text-anchor: middle; visibility: inherit; font-family: Roboto, sans-serif; font-size: 12px; font-weight: 200;" fill="rgb(33, 33, 33)" stroke="none" stroke-width="1px">5M</text><text x="543.9140625" y="0" dx="0em" dy="0.95em" style="text-anchor: middle; visibility: inherit; font-family: Roboto, sans-serif; font-size: 12px; font-weight: 200;" fill="rgb(33, 33, 33)" stroke="none" stroke-width="1px">6M</text><text x="621.6160714285714" y="0" dx="0em" dy="0.95em" style="text-anchor: middle; visibility: inherit; font-family: Roboto, sans-serif; font-size: 12px; font-weight: 200;" fill="rgb(33, 33, 33)" stroke="none" stroke-width="1px">7M</text><text x="699.3180803571429" y="0" dx="0em" dy="0.95em" style="text-anchor: middle; visibility: inherit; font-family: Roboto, sans-serif; font-size: 12px; font-weight: 200;" fill="rgb(33, 33, 33)" stroke="none" stroke-width="1px">8M</text><text x="777.0200892857143" y="0" dx="0em" dy="0.95em" style="text-anchor: middle; visibility: inherit; font-family: Roboto, sans-serif; font-size: 12px; font-weight: 200;" fill="rgb(33, 33, 33)" stroke="none" stroke-width="1px">9M</text><text x="854.7220982142857" y="0" dx="0em" dy="0.95em" style="text-anchor: middle; visibility: inherit; font-family: Roboto, sans-serif; font-size: 12px; font-weight: 200;" fill="rgb(33, 33, 33)" stroke="none" stroke-width="1px">10M</text><text x="932.4241071428571" y="0" dx="0em" dy="0.95em" style="text-anchor: middle; visibility: inherit; font-family: Roboto, sans-serif; font-size: 12px; font-weight: 200;" fill="rgb(33, 33, 33)" stroke="none" stroke-width="1px">11M</text><text x="1010.1261160714286" y="0" dx="0em" dy="0.95em" style="text-anchor: middle; visibility: inherit; font-family: Roboto, sans-serif; font-size: 12px; font-weight: 200;" fill="rgb(33, 33, 33)" stroke="none" stroke-width="1px">12M</text><text x="1087.828125" y="0" dx="0em" dy="0.95em" style="text-anchor: middle; visibility: hidden; font-family: Roboto, sans-serif; font-size: 12px; font-weight: 200;" fill="rgb(33, 33, 33)" stroke="none" stroke-width="1px">13M</text></g><line x1="0" y1="0" x2="1087.828125" y2="0" fill="rgb(0, 0, 0)" stroke="rgb(204, 204, 204)" stroke-width="1px"></line></g></g></g></g></svg>