<svg viewBox="0 0 1129 400" xmlns="http://www.w3.org/2000/svg"><g><g><g><g><g><line x1="51.5625" y1="377" x2="46.5625" y2="377" style="visibility: inherit;" fill="rgb(0, 0, 0)" stroke="rgb(204, 204, 204)" stroke-width="1px"></line><line x1="51.5625" y1="348" x2="46.5625" y2="348" style="visibility: inherit;" fill="rgb(0, 0, 0)" stroke="rgb(204, 204, 204)" stroke-width="1px"></line><line x1="51.5625" y1="319" x2="46.5625" y2="319" style="visibility: inherit;" fill="rgb(0, 0, 0)" stroke="rgb(204, 204, 204)" stroke-width="1px"></line><line x1="51.5625" y1="290" x2="46.5625" y2="290" style="visibility: inherit;" fill="rgb(0, 0, 0)" stroke="rgb(204, 204, 204)" stroke-width="1px"></line><line x1="51.5625" y1="261" x2="46.5625" y2="261" style="visibility: inherit;" fill="rgb(0, 0, 0)" stroke="rgb(204, 204, 204)" stroke-width="1px"></line><line x1="51.5625" y1="232" x2="46.5625" y2="232" style="visibility: inherit;" fill="rgb(0, 0, 0)" stroke="rgb(204, 204, 204)" stroke-width="1px"></line><line x1="51.5625" y1="203.00000000000003" x2="46.5625" y2="203.00000000000003" style="visibility: inherit;" fill="rgb(0, 0, 0)" stroke="rgb(204, 204, 204)" stroke-width="1px"></line><line x1="51.5625" y1="174" x2="46.5625" y2="174" style="visibility: inherit;" fill="rgb(0, 0, 0)" stroke="rgb(204, 204, 204)" stroke-width="1px"></line><line x1="51.5625" y1="145.00000000000003" x2="46.5625" y2="145.00000000000003" style="visibility: inherit;" fill="rgb(0, 0, 0)" stroke="rgb(204, 204, 204)" stroke-width="1px"></line><line x1="51.5625" y1="116" x2="46.5625" y2="116" style="visibility: inherit;" fill="rgb(0, 0, 0)" stroke="rgb(204, 204, 204)" stroke-width="1px"></line><line x1="51.5625" y1="87.00000000000003" x2="46.5625" y2="87.00000000000003" style="visibility: inherit;" fill="rgb(0, 0, 0)" stroke="rgb(204, 204, 204)" stroke-width="1px"></line><line x1="51.5625" y1="58" x2="46.5625" y2="58" style="visibility: inherit;" fill="rgb(0, 0, 0)" stroke="rgb(204, 204, 204)" stroke-width="1px"></line><line x1="51.5625" y1="28.999999999999982" x2="46.5625" y2="28.999999999999982" style="visibility: inherit;" fill="rgb(0, 0, 0)" stroke="rgb(204, 204, 204)" stroke-width="1px"></line><line x1="51.5625" y1="0" x2="46.5625" y2="0" style="visibility: inherit;" fill="rgb(0, 0, 0)" stroke="rgb(204, 204, 204)" stroke-width="1px"></line></g><g transform="translate(41.5625, 0)"><text x="0" y="377" dx="0em" dy="0.3em" style="text-anchor: end; visibility: hidden; font-family: Roboto, sans-serif; font-size: 12px; font-weight: 200;" fill="rgb(33, 33, 33)" stroke="none" stroke-width="1px">-0.2</text><text x="0" y="348" dx="0em" dy="0.3em" style="text-anchor: end; visibility: inherit; font-family: Roboto, sans-serif; font-size: 12px; font-weight: 200;" fill="rgb(33, 33, 33)" stroke="none" stroke-width="1px">0</text><text x="0" y="319" dx="0em" dy="0.3em" style="text-anchor: end; visibility: inherit; font-family: Roboto, sans-serif; font-size: 12px; font-weight: 200;" fill="rgb(33, 33, 33)" stroke="none" stroke-width="1px">0.2</text><text x="0" y="290" dx="0em" dy="0.3em" style="text-anchor: end; visibility: inherit; font-family: Roboto, sans-serif; font-size: 12px; font-weight: 200;" fill="rgb(33, 33, 33)" stroke="none" stroke-width="1px">0.4</text><text x="0" y="261" dx="0em" dy="0.3em" style="text-anchor: end; visibility: inherit; font-family: Roboto, sans-serif; font-size: 12px; font-weight: 200;" fill="rgb(33, 33, 33)" stroke="none" stroke-width="1px">0.6</text><text x="0" y="232" dx="0em" dy="0.3em" style="text-anchor: end; visibility: inherit; font-family: Roboto, sans-serif; font-size: 12px; font-weight: 200;" fill="rgb(33, 33, 33)" stroke="none" stroke-width="1px">0.8</text><text x="0" y="203.00000000000003" dx="0em" dy="0.3em" style="text-anchor: end; visibility: inherit; font-family: Roboto, sans-serif; font-size: 12px; font-weight: 200;" fill="rgb(33, 33, 33)" stroke="none" stroke-width="1px">1</text><text x="0" y="174" dx="0em" dy="0.3em" style="text-anchor: end; visibility: inherit; font-family: Roboto, sans-serif; font-size: 12px; font-weight: 200;" fill="rgb(33, 33, 33)" stroke="none" stroke-width="1px">1.2</text><text x="0" y="145.00000000000003" dx="0em" dy="0.3em" style="text-anchor: end; visibility: inherit; font-family: Roboto, sans-serif; font-size: 12px; font-weight: 200;" fill="rgb(33, 33, 33)" stroke="none" stroke-width="1px">1.4</text><text x="0" y="116" dx="0em" dy="0.3em" style="text-anchor: end; visibility: inherit; font-family: Roboto, sans-serif; font-size: 12px; font-weight: 200;" fill="rgb(33, 33, 33)" stroke="none" stroke-width="1px">1.6</text><text x="0" y="87.00000000000003" dx="0em" dy="0.3em" style="text-anchor: end; visibility: inherit; font-family: Roboto, sans-serif; font-size: 12px; font-weight: 200;" fill="rgb(33, 33, 33)" stroke="none" stroke-width="1px">1.8</text><text x="0" y="58" dx="0em" dy="0.3em" style="text-anchor: end; visibility: inherit; font-family: Roboto, sans-serif; font-size: 12px; font-weight: 200;" fill="rgb(33, 33, 33)" stroke="none" stroke-width="1px">2</text><text x="0" y="28.999999999999982" dx="0em" dy="0.3em" style="text-anchor: end; visibility: inherit; font-family: Roboto, sans-serif; font-size: 12px; font-weight: 200;" fill="rgb(33, 33, 33)" stroke="none" stroke-width="1px">2.2</text><text x="0" y="0" dx="0em" dy="0.3em" style="text-anchor: end; visibility: hidden; font-family: Roboto, sans-serif; font-size: 12px; font-weight: 200;" fill="rgb(33, 33, 33)" stroke="none" stroke-width="1px">2.4</text></g><line x1="51.5625" y1="0" x2="51.5625" y2="377" fill="rgb(0, 0, 0)" stroke="rgb(204, 204, 204)" stroke-width="1px"></line></g></g><g transform="translate(51, 0)" clip-path="url(#clip_0)"><clipPath id="clip_0"><rect width="1077" height="377"></rect></clipPath><g><g><g><line x1="0" y1="0" x2="0" y2="377" fill="rgb(0, 0, 0)" stroke="rgb(66, 66, 66)" stroke-width="1px" opacity="0.25"></line><line x1="76.95982142857143" y1="0" x2="76.95982142857143" y2="377" fill="rgb(0, 0, 0)" stroke="rgb(66, 66, 66)" stroke-width="1px" opacity="0.25"></line><line x1="153.91964285714286" y1="0" x2="153.91964285714286" y2="377" fill="rgb(0, 0, 0)" stroke="rgb(66, 66, 66)" stroke-width="1px" opacity="0.25"></line><line x1="230.87946428571428" y1="0" x2="230.87946428571428" y2="377" fill="rgb(0, 0, 0)" stroke="rgb(66, 66, 66)" stroke-width="1px" opacity="0.25"></line><line x1="307.8392857142857" y1="0" x2="307.8392857142857" y2="377" fill="rgb(0, 0, 0)" stroke="rgb(66, 66, 66)" stroke-width="1px" opacity="0.25"></line><line x1="384.79910714285717" y1="0" x2="384.79910714285717" y2="377" fill="rgb(0, 0, 0)" stroke="rgb(66, 66, 66)" stroke-width="1px" opacity="0.25"></line><line x1="461.75892857142856" y1="0" x2="461.75892857142856" y2="377" fill="rgb(0, 0, 0)" stroke="rgb(66, 66, 66)" stroke-width="1px" opacity="0.25"></line><line x1="538.71875" y1="0" x2="538.71875" y2="377" fill="rgb(0, 0, 0)" stroke="rgb(66, 66, 66)" stroke-width="1px" opacity="0.25"></line><line x1="615.6785714285714" y1="0" x2="615.6785714285714" y2="377" fill="rgb(0, 0, 0)" stroke="rgb(66, 66, 66)" stroke-width="1px" opacity="0.25"></line><line x1="692.6383928571429" y1="0" x2="692.6383928571429" y2="377" fill="rgb(0, 0, 0)" stroke="rgb(66, 66, 66)" stroke-width="1px" opacity="0.25"></line><line x1="769.5982142857143" y1="0" x2="769.5982142857143" y2="377" fill="rgb(0, 0, 0)" stroke="rgb(66, 66, 66)" stroke-width="1px" opacity="0.25"></line><line x1="846.5580357142857" y1="0" x2="846.5580357142857" y2="377" fill="rgb(0, 0, 0)" stroke="rgb(66, 66, 66)" stroke-width="1px" opacity="0.25"></line><line x1="923.5178571428571" y1="0" x2="923.5178571428571" y2="377" fill="rgb(0, 0, 0)" stroke="rgb(66, 66, 66)" stroke-width="1px" opacity="0.25"></line><line x1="1000.4776785714286" y1="0" x2="1000.4776785714286" y2="377" fill="rgb(0, 0, 0)" stroke="rgb(66, 66, 66)" stroke-width="1px" opacity="0.25"></line><line x1="1077.4375" y1="0" x2="1077.4375" y2="377" fill="rgb(0, 0, 0)" stroke="rgb(66, 66, 66)" stroke-width="1px" opacity="0.25"></line></g><g><line x1="0" y1="377" x2="1077.4375" y2="377" fill="rgb(0, 0, 0)" stroke="rgb(66, 66, 66)" stroke-width="1px" opacity="0.25"></line><line x1="0" y1="348" x2="1077.4375" y2="348" fill="rgb(0, 0, 0)" stroke="rgb(66, 66, 66)" stroke-width="1px" opacity="0.25"></line><line x1="0" y1="319" x2="1077.4375" y2="319" fill="rgb(0, 0, 0)" stroke="rgb(66, 66, 66)" stroke-width="1px" opacity="0.25"></line><line x1="0" y1="290" x2="1077.4375" y2="290" fill="rgb(0, 0, 0)" stroke="rgb(66, 66, 66)" stroke-width="1px" opacity="0.25"></line><line x1="0" y1="261" x2="1077.4375" y2="261" fill="rgb(0, 0, 0)" stroke="rgb(66, 66, 66)" stroke-width="1px" opacity="0.25"></line><line x1="0" y1="232" x2="1077.4375" y2="232" fill="rgb(0, 0, 0)" stroke="rgb(66, 66, 66)" stroke-width="1px" opacity="0.25"></line><line x1="0" y1="203.00000000000003" x2="1077.4375" y2="203.00000000000003" fill="rgb(0, 0, 0)" stroke="rgb(66, 66, 66)" stroke-width="1px" opacity="0.25"></line><line x1="0" y1="174" x2="1077.4375" y2="174" fill="rgb(0, 0, 0)" stroke="rgb(66, 66, 66)" stroke-width="1px" opacity="0.25"></line><line x1="0" y1="145.00000000000003" x2="1077.4375" y2="145.00000000000003" fill="rgb(0, 0, 0)" stroke="rgb(66, 66, 66)" stroke-width="1px" opacity="0.25"></line><line x1="0" y1="116" x2="1077.4375" y2="116" fill="rgb(0, 0, 0)" stroke="rgb(66, 66, 66)" stroke-width="1px" opacity="0.25"></line><line x1="0" y1="87.00000000000003" x2="1077.4375" y2="87.00000000000003" fill="rgb(0, 0, 0)" stroke="rgb(66, 66, 66)" stroke-width="1px" opacity="0.25"></line><line x1="0" y1="58" x2="1077.4375" y2="58" fill="rgb(0, 0, 0)" stroke="rgb(66, 66, 66)" stroke-width="1px" opacity="0.25"></line><line x1="0" y1="28.999999999999982" x2="1077.4375" y2="28.999999999999982" fill="rgb(0, 0, 0)" stroke="rgb(66, 66, 66)" stroke-width="1px" opacity="0.25"></line><line x1="0" y1="0" x2="1077.4375" y2="0" fill="rgb(0, 0, 0)" stroke="rgb(66, 66, 66)" stroke-width="1px" opacity="0.25"></line></g></g></g><g><g><line x1="0" y1="348" x2="1077.4375" y2="348" fill="rgb(0, 0, 0)" stroke="rgb(153, 153, 153)" stroke-width="1.5px"></line></g></g><g><g><line x1="76.95982142857143" y1="0" x2="76.95982142857143" y2="377" fill="rgb(0, 0, 0)" stroke="rgb(153, 153, 153)" stroke-width="1.5px"></line></g></g><g><g><g><g><g><path stroke="rgb(255, 112, 67)" stroke-width="2px" d="M77.53963672321429,112.05520379543307L77.92443583035715,166.18703353404996L78.18840801785714,-252.74028886732515L80.56384986607142,-12.352745430489966L81.5544766875,25.993233569301754L81.76326868303572,102.29478316613769L83.23027679910714,157.76029131757429L83.31601004017858,198.42025775453374L84.93916963392857,231.7545881919772L85.28733586607143,168.32720187861827L85.47950454017857,185.00232924249272L86.66383923214286,116.66348036445875L86.92157767410714,145.360937662279L87.11051403571429,186.4609418659029L87.12090361160715,217.6449725035769L87.99655245982143,215.4647441275489L89.44285838392857,218.6136446279088L89.92062495535714,215.35731135012972L91.26980758482142,240.7955394630826L91.67215353125,232.56185968478937L93.39589961160715,178.9751094499609L95.45465179464286,188.53978143486546L96.59273363392857,83.10970739965859L96.68108350892858,126.6529461101926L96.74726895535714,148.45526908958536L97.27567508928573,148.2345663019776L99.76301651785714,103.92939463787546L99.83058724107144,20.629001248869944L99.98104369196429,68.681943656258L100.48436092410715,109.93637971333642L101.73041739285713,154.87332523031188L102.51502277232143,124.48567012826503L102.52802898214286,-3.1745981299159336L104.11694145535715,58.59841770707254L105.15459072767857,116.37206471066285L105.22246929017858,87.04617942382096L105.40263223214286,118.37537296063746L105.647056625,147.3427964439517L107.05265080357144,72.88728391206311L107.46700248214286,121.70089891112033L108.18503761607143,130.5587428020287L108.31102084375,164.06433419375836L108.55629179464286,124.25056363940912L108.89329885267857,80.9707306782437L111.348855875,-127.07635022678234L126.83309498660714,-45.68061690636138L127.87028249999999,14.65973462152605L128.2078282767857,22.25192057658335L129.11510761160716,-11.291522361311896L135.94767751785716,-21.837770099035566L136.53418831696428,41.45135562597963L137.10261355803573,-174.49053031917356L143.5489221205357,-7.88163469662574L146.23589732589286,5.572481749160534L148.47342717410712,22.429689414966948L149.6639186517857,9.574951132623607L151.50118046875,69.0309312968457L151.52719288839288,116.91978790521381L151.74198775,108.03246725413108L151.8939064375,125.66023784786803L152.6661982455357,137.93467059590782L155.00800865178573,-17.240446171635657L156.99187892857142,51.889519117708744L157.01550559375002,75.34092416625361L157.97681072321427,119.32233744968293L158.13342395982144,-8.271403363279525L158.84968901785714,-7.2167334001120365L160.59082801785715,36.998427266743334L160.64031318303572,13.194806466857495L160.97916727678572,50.515585561837234L161.08629534821426,63.14293205284371L162.19728733035714,116.11329039753298L164.50954516517857,162.23281324574816L165.51694922767857,161.024053793348L166.60523806249998,134.9787422957254L166.61770555357143,177.3713231797036L168.16567540178573,156.78084233583792L168.84615414285716,191.7552345383508L169.41827345535717,179.90770368432797L170.22327318749998,213.2014023383625L170.60099199107145,200.96234192975018L170.79716257589286,200.40452148537733L171.65711162053572,179.601723376712L172.74770925,170.590436652217L174.10166338839286,25.554058800435058L175.92007004910715,32.50088351597333L176.91061991071427,-12.713232282088802L177.70776974107144,-29.445741751517694L178.35023033035714,34.702613168274844L179.20648530357144,-103.77837949381178L181.60162886607145,-17.740188670820384L182.29218934374998,54.72497706239809L182.8138999732143,69.44605721337139L184.27290426785714,85.51080056273906L184.89943417410714,76.19127528065718L186.08500022321428,121.83138553856769L189.14099777232144,122.83708764361575L189.22680797321428,158.90822889605735L190.1831107142857,160.28570448716198L190.62663016517857,192.56965925185676L191.03090010714286,56.99966289110583L192.61296315625,45.56201783424469L192.9865261294643,89.37548406606308L194.9202955625,141.06402622907345L195.20081411160714,170.0598777472922L195.25891877678572,175.31848961829778L195.70905677232142,189.4764583048801L195.72683449107143,119.68106293181845L197.29404429464287,164.36312809115057L197.77588973660716,200.8767701837713L198.05109805803573,183.60294245507632L199.34217602232144,208.03158325812322L201.37691674107143,184.93474181382697L201.90193664285712,212.46998985420774L206.37399490625,229.4782197321346L207.32922020982144,233.47390266616276L209.1378529732143,256.36132295030995L210.1124721517857,264.77394219914L210.43308676785713,261.7046416495555L210.69059433035713,274.0375769749732L210.95726011160716,209.57212009552708L211.36476236607143,229.9379937789726L212.1091177589286,244.50701780254744L212.14536583482143,263.526647652766L212.36708708035712,238.1284265006231L213.7923829732143,249.47428210454356L213.88527347767857,238.72652658523856L214.86604944196426,260.5792037196212L216.69838583035713,276.1559223431152L217.0284665044643,286.81511270485737L217.36531964285714,297.6774902302616L218.27575433035716,272.1401615825171L219.02565083035716,285.8010820442934L219.9377786339286,279.0439528699318L220.97234951339286,278.96489341462456L222.18354318303574,287.40510920806565L222.87433454017855,274.49131303726705L222.93544063839286,274.7729139184878L223.0190959642857,289.3414098147356L225.88962034374998,300.887769783814L226.08286645535716,282.88352292400936L227.62821966964285,286.75802297292023L229.70698140625,297.49591013534166L230.39223165625,275.93944134508206L231.26587954910715,289.6988337422978L233.02325707142856,299.2916262754258L235.03344760714288,291.8377911693618L235.34459616517856,236.5895369725836L236.19169291964286,188.6055670799742L237.74735875,154.60601376072012L239.39814691964287,154.7289630061423L239.45994565625,193.38303622678802L239.69898286160716,217.2332524633478L242.36533283482143,238.86164167631233L244.9551077857143,260.6594507603454L245.25263445535714,276.83239775542273L246.18315565625002,288.62515461161814L246.35054326785715,293.46531502378053L247.04010326785715,301.9776770341163L247.15916011160715,308.51848370127004L247.52964469196428,290.2015427016586L248.30724672767857,295.0211462796426L248.32902635714285,304.37963599180745L248.86812990625,312.9482476911876L249.47588161607143,307.62619017179276L250.49298261607143,315.1732855910298L253.2395247232143,312.2509002943227L255.5567849464286,303.95119809781625L255.62797278125,312.75283640767697L256.2082498348214,317.22418209430026L256.74312059375,219.80168153855365L257.13222945089285,242.95735401024947L257.6370858794643,263.7239625153533L258.3762080044643,280.54681040115605L258.9137723571429,287.7994509380456L258.95294490625,298.811675060105L259.3187349375,306.0627123262975L259.8175115401786,312.27179610701353L260.33745209375,297.3210869310057L260.9294270401786,305.90179600414683L261.02955176785713,314.3197737229445L261.15715115178574,321.0558179848251L261.1603065044643,308.80095796051484L265.32614163839287,316.19730487668556L265.4201095803571,273.6294705645564L265.788747125,280.02680685530686L267.6183899196429,293.61342445445626L270.7617368660714,295.1846838389442L271.09712776785716,295.79144770658854L274.16136001785713,300.33235036736204L274.70500419642855,309.7382149208586L275.9305123928571,314.8304396268925L276.31546541964286,318.0895953429501L277.03719462500004,315.5107348166116L279.9924517678571,294.29629434762063L280.32137804464287,272.98413897846274L280.3303053839286,277.4321868999333L282.87636715625,287.0755172269369L282.91415442857146,299.2271262578859L287.73945827232143,303.0864297050392L289.3003573705357,310.4691547894005L290.3673283348214,317.8582054235482L291.69973372321425,321.2748339718933L291.8275639866071,310.75536707213365L292.9538709732143,317.9199994221869L293.97612828125,322.1747307134106L298.32405035267857,323.2480499527799L301.3932849910714,327.3652774868466L301.8318020535714,326.22820507808984L302.2690877589286,330.31326697211284L302.391453875,333.7253557699065L303.6503626339286,331.63197333174077L303.99298775892856,328.61572653795974L305.58343942857147,308.08238880034844L305.82809470089285,304.30572237131247L305.88512192857144,313.03126241527593L306.46432154464287,312.20780250638796L308.29981328571427,318.7516314597732L309.02138857142853,323.61545711725404L309.4591360357143,318.9873953816847L311.2919341830357,324.77187307861067L312.0371361339285,328.8256076155781L313.96728845535716,331.8686118290269L315.0408779642857,332.638436393177L316.01703633928577,327.1521947632118L316.1784980446428,327.7581414793836L317.15681129464286,330.8350243947829L317.2614766517857,334.2461198488399L321.00664940178575,280.5757602150858L321.02204136607145,292.9365122404194L321.5868494955357,290.6698958108025L322.1585070491072,298.3683164252199L322.9866716875,308.16849057951924L324.2746712589286,314.2600697518735L324.8888106339286,319.1380331916689L325.3514930803571,323.2305656634234L327.2841081160714,328.082777162359L327.4130927767857,326.311973796261L327.5105239107143,327.79810393231924L328.18823209821426,328.7810401678309L328.5411698392857,331.0925945896089L329.57497112053574,329.21122336055276L330.20935092857144,332.7951117570932L330.3373351116071,334.2945855106004L330.40736854910716,336.317474557069L330.6335534642857,320.49380396454103L333.70032538839286,323.71752671717456L335.29516376785716,327.91952456613467L335.3150963616071,330.9945114820109L335.3732010267857,334.3561394596907L335.8177979151786,324.03081096488734L335.9908805535714,326.0632184413354L336.2649344776786,326.21626022198046L337.2139260357143,323.5603973546683L337.5129919017857,328.3579225749365L338.6342965,320.87465050702025L340.1113863526786,319.3255694797415L340.63225042410716,323.91288550273805L341.24554324107146,318.91187610090753L341.3464375669643,320.7540759055692L342.3160543571429,324.06395466348556L344.6283121919643,322.1428713806155L345.3197961875,327.2641333901608L345.5005748080357,330.0658639178653L347.58364629464285,332.53615440897977L348.15084017857146,335.62069370762083L348.23049359375,307.1087296916292L349.0261042276786,314.7890630203581L352.1886911294643,318.0724071642237L354.8893651830357,319.73614172680993L355.2395323705357,303.35330932175174L355.37290374107147,312.19615323535083L355.569459125,319.0692041795396L355.74308048214283,321.92602034357736L355.9066970625,325.741726353596L357.8223809375,329.7816031730317L358.0223995133929,333.20831522906593L358.2661312678572,326.44584752174035L360.068838125,328.0692845010901L363.22195896874996,326.54838951421937L363.3921171339286,320.0925323883149L363.8153961517857,323.5050262163641L363.86965282589284,327.9282746394922L364.5265049017857,331.5375000363822L366.26818262053575,333.4549263689407L366.56832592410717,336.36252979351934L366.91833919196426,322.84801023732706L367.86394451785713,326.9692510105656L368.6169963705357,327.25491341948407L369.6177049285714,331.19077525036323L370.7219244464286,334.38762094903666L371.1201145625,336.7198942034239L371.80590353125,338.96780956638474L373.5220305892857,337.56515189937846L373.81863374107144,339.2367860961897L374.0465117723214,340.44956217059536L374.5256636205357,340.5076990634623L377.26620286160716,341.9223784433269L377.5155526830357,341.8970920549006L377.98839382589284,339.5415630871988L378.9143743973214,340.76274602566656L379.83035019196427,338.01343643430465L380.74016920089286,336.76129167637106L381.05354959375,338.95972528857754L382.21441154017856,338.43591562054763L382.3276963973214,340.34513146364867L383.2351296517857,337.3131676728263L383.3599584821429,338.85266212876013L383.97248170089284,338.46806062712574L386.4786782857143,335.1846622165386L386.9236599732143,336.91932454944407L387.13930139285713,337.5553274233401L387.5432634955357,338.3272840056229L390.0763190580357,340.20801335829856L390.995604125,340.2471073349981L391.14913896875,341.6495928744634L393.30462964732146,341.60322529813925L393.76438762053573,331.8949411391519L393.9856471071429,333.8446830534381L394.21090850446427,335.9743203502152L394.6419604642857,338.23698988314743L395.7527215669643,338.87537790045167L397.2378922008928,339.88380113692597L398.19165526785713,341.04551101760285L400.11087929464287,341.2936614528693L400.65475435267854,339.07328449639857L400.78789484375,313.79128668668415L401.1426026607143,319.3511281388008L401.2795911428571,324.0043546797437L401.82631371428573,325.5412202073417L402.1952590982143,329.93437844677214L403.0829136785714,333.5327555070582L403.88252622321426,328.81712984285855L404.1064793035714,331.5136457889645L405.0555478214286,331.53675515825495L408.21528720982144,333.80270972078L408.5349013482143,318.6833473740018L409.43556213839287,309.56271584018043L409.8704620892857,313.5822972332158L410.35815647767856,313.7732258389169L411.6157569196429,311.7483792920728L411.91944037499997,318.26874063768537L412.3992079017857,315.5129507649625L413.03797441964286,288.24770130067543L413.41630890178567,295.51676576315936L416.23088349107144,305.2693559908237L416.27282659375,313.812333854522L418.00711616964287,315.63787744540826L419.3868518482143,320.2722496760794L421.94799774553576,325.79156794391713L422.50010750446427,327.5085728883159L422.55659601339283,329.8525711459944L422.9272345133928,326.44897073610855L423.13710394642857,330.6970859952638L423.8274335446428,334.04261157133766L424.06931826339286,336.0910532290724L424.2229300669643,338.4545201424623L424.6774547723214,340.03578481585697L426.58775145982145,341.0808988522364L429.55847752678574,338.31415983524903L429.95474364732144,334.9612515676974L430.2289514910714,331.86156290443415L430.5297104732143,334.5611825950428L431.4383750848215,336.9180133545386L433.31427073214286,338.34139969256415L433.58855553571425,338.2811615531198L434.5428573214286,339.6221497609358L434.54939890625,338.1276133158121L434.6177392276786,334.03568145221976L435.28852103125,322.2319390860121L436.38835383928574,302.42542725300154L436.8115558973214,311.0314369876811L437.0896117321428,318.3852495738724L437.80749294642857,303.2720983178504L438.8294424151786,309.9724205464989L441.43330101339285,317.01398913584114L441.72305474107145,322.8037256607668L443.3335159642857,327.20074000432146L444.44612410267854,324.6961525785848L444.67015414285714,326.04741637670395L445.0920478839286,321.7137799403142L445.20933465178575,326.93620243506797L446.7338317544643,330.9712829629988L447.59501215625,334.3464874971177L448.4116328214286,334.02633165653674L448.7208573839286,331.28611313173076L448.9372684017857,320.77447920138763L449.45151392857144,324.12996381398136L449.7297236830357,316.2216376413989L449.9292805,322.4702182799803L450.0511848571428,326.26814380260123L451.78024116517855,325.4771694747354L452.07538208035714,329.4795944133099L453.0602369151786,314.03261560509173L453.12719195982146,317.2584992820785L455.2296573214286,323.36823791306307L455.4924751116072,324.58491805824514L455.7743789375,328.5370468845596L455.93060737499997,324.9283448617164L456.0632091473214,329.1001575023833L457.86360720982145,330.19597305603054L458.1947653214286,333.7565907028408L459.4207352767857,319.8733816454483L459.48553544642857,319.3515787311135L459.8656400044643,307.89184794725884L460.15293101785716,309.5170145315083L463.0992608214286,316.835844823231L463.59657518750004,301.37239871701377L463.9900707544643,298.84125300471607L464.1451447946428,306.3614294944177L465.5398876383929,309.32349532588086L466.09930858035716,315.68252494206035L467.09701570535714,321.9306873249549L468.14005216517853,326.0921425281992L469.5594991116071,329.63227786183097L470.6948103973215,330.62665940719637L472.2597883660714,334.0704949197386L473.07887174553576,333.5653410611323L474.5642732589286,334.92911842999035L475.11753741517856,335.45267718414203L475.60446220535715,337.92957364856926L476.4447864955357,339.0797151297011L477.3791556875,339.68535599691097L479.0187077232143,340.93495650009254L480.9613275357143,340.1094246102646L481.01281365625,337.0093940560639L481.40669402232146,338.16260024673704L483.5040800357143,339.4552534449952L485.06759576785714,317.3971445027079L486.2262258794643,323.35564871549917L487.37508209375,328.21737999062674L488.44474665178575,284.4211313036357L488.8437833258929,296.9215356693486L489.8777385267857,295.91018046624026L490.4363129107143,306.08361559136955L491.00727782589286,312.9155176725924L491.51059505803573,319.78785671371855L492.8251457678572,323.72286407563007L492.97475566071427,320.04782905509404L493.5071637053572,325.60096018238505L494.58152281250005,329.1892628169697L496.31619718750005,332.9017486043011L497.86432095535713,334.5772979722706L499.4094432901786,337.2431181022687L499.5380431517857,337.1973959435354L499.8458824375,339.16200313313817L500.37659736607145,336.78106132423096L500.4900361428571,332.87489329497186L502.97245214285715,334.218195571265L503.51748159821426,327.80890442034513L503.71927024999997,331.55996779258777L506.19806913839284,317.17739044948996L506.67160291964285,322.5470364416357L507.22879202678575,325.6811031048271L507.3537747767857,326.07856035091663L508.1858643660714,330.19795552379435L508.59729157142857,333.411675482571L508.750903375,334.8236933228015L509.18026221875004,295.3033086917114L510.039518625,301.37607094338034L510.504971625,310.3144795002033L511.15505123660716,306.18532955658355L512.6132859330357,312.78574984381135L515.4464078392857,316.61423965282864L516.5361589107142,322.8148112138836L516.7865861696429,323.03380870447387L517.4146552723214,328.00109847583303L518.4038968169642,329.4424419473444L519.0422785357142,332.2118466180233L519.4815651964285,334.7361066378985L520.1279507366072,336.44621476012145L520.1807451741071,336.50373089494445L520.3649100267857,338.7866844311862L521.32621515625,333.9909186780857L522.927826,336.7746895331188L524.1601066607143,338.6506042978352L524.7125242589285,340.1569072579665L525.0350628705357,323.2291864256321L526.6522195982143,328.18334309176424L527.1199044330357,331.93330993001814L527.1638484910715,334.9358655073606L527.1761620625,337.1325284472793L528.2776879866071,339.17445465053515L528.2887702008928,338.42906758090174L528.37965975,340.3389201007254L528.4489235892856,341.32520848337043L529.0519037901786,340.4345344618816L530.7661838125,338.2266472233024L531.5520205491072,340.16281904925137L532.1666986428571,320.3808569840529L533.5148038348215,321.96388100142786L535.7865808035714,327.04707328069367L536.8317721383929,331.23422172027074L536.8562453616072,334.47816321306414L536.9799197946428,334.54591902685553L537.1162156383929,326.9940358069927L538.2723060758929,331.19373809100375L540.3075085535714,332.18779893458833L542.7538303973214,333.6517879751102L543.7449959375,336.51590155635364L544.7431648214285,338.3628314408464L544.9437990758929,340.0658191083736L545.2797286964286,327.81445504537163L545.7724254732143,329.31400206832836L546.7302674107143,332.66180897138014L548.6720406651785,333.3372497916738L549.0026600580358,335.59141294766624L549.21245253125,336.93370956194724L549.7201564732143,334.753762319782L550.0717089375,335.1076862529704L550.4492738214285,335.295662218097L551.1337544732143,336.32416216831456L552.4751641607144,337.93475629380185L552.488555169643,336.08622265152803L555.3455346205358,335.55500373923917L555.8177600848214,335.50327089078536L555.8894096785714,332.36035751718134L555.9199627276786,334.6973327892202L556.1919387366071,337.3086518944715L558.0547512142857,335.3674560369185L559.1332661517857,323.07222575196676L559.1723617410714,322.5680792858128L559.261173375,325.26117620209254L560.7423420982143,329.7327050056273L564.2099207723214,333.20600341079466L564.5844842232143,323.1138126239605L565.9456725848214,326.28189762267885L566.4518373303571,329.4118201133284L567.9026069241071,329.96032189849404L570.3162978035714,330.93081519821L570.7630495669644,334.3159425679001L570.7928330178571,337.0511826451559L572.259379375,338.6481866261116L572.5165021383928,339.7468231079828L572.836885875,339.1800140143713L573.2631663258928,329.968709528548L573.5996346651787,332.3145217412034L574.8198326339286,327.8544273704942L575.2067866160713,327.74267151897396L576.6007598616071,326.6810948456943L577.0906860848214,326.9898411288356L579.7428754508928,327.72443424250645L579.7735054598214,331.77326111421206L580.0925808794643,331.9747107112425L581.4534614017857,335.09839292305475L581.5027926473214,335.79835617145113L582.1716504553572,338.23142457573647L583.4692700044642,340.05542352968433L584.7824354375,339.3014064057587L584.8882551919643,340.4352320118879L586.8292588482143,341.8649427612276L589.7378783392858,342.41492271057973L589.9776851428571,338.1084548563338L590.6446189553571,340.0581563623475L590.9016647589286,341.1736532014491L593.3112767678572,329.6065868565942L593.3243599374999,333.24562088640045L594.2100135625,336.1784572990014L595.3205437857143,329.62608156929605L598.3048917410714,332.6818830297803L598.9799832946428,334.2939667099349L601.6866602142857,332.4872494901127L601.8551252633929,328.19033060390996L604.1460652276785,332.08130697239585L604.5120091785715,334.36477063621896L604.6664675401786,336.82519492024585L605.0488039330357,339.05279350851197L606.0932256696428,339.5187770293094L607.5469197366072,339.8013835979253L611.1373262857144,340.8033649736345L612.3482890758928,340.08492516735794L612.8215919776786,337.13266178377154L613.5519406830358,336.82804396128796L613.6522193303572,339.02633612628694L615.0139464107143,340.81607487056976L615.1312331785714,337.5230591655121L615.6020733660715,339.61203179105314L616.4289296875,340.3353872043427L618.2962827946428,337.15332300703017L618.6863921294643,338.9491046098841L619.3157695491071,336.7333388291178L619.4910840223214,338.54988282284666L621.8377428973214,326.5028588959497L622.2974239107143,327.5312102140126L624.9672370758929,331.443464330488L625.7579992410714,334.6411790106238L626.0135828080357,337.2059304220622L626.0581425446428,336.09132483825243L626.7495495803571,337.87705743342764L626.8950806026786,338.66404200294716L627.3734628526786,340.29728693716754L628.5333243214285,341.39300702599115L630.6949717857143,341.03233382696845L633.2634288660714,342.00904147930146L633.8597135625,337.6795667636967L633.8821858303572,333.5443734767895L635.69512834375,335.15792668603746L636.403158700893,335.45990480178904L636.6765969464286,331.33564942236194L637.2033869241071,334.54016050928567L637.4686674285714,325.9413155574301L638.129598375,330.31674250171113L639.2229665580356,329.1331205215496L639.39451,331.97760574565865L640.3091774776785,334.4302098683986L640.7506190133929,336.6870654283442L641.3091164375,333.37433670329875L641.4662683928572,330.1750315238462L641.9768968080357,333.6407551269864L644.7125875803571,332.9798184028176L646.8653077053572,335.87153948007534L648.7308137767857,334.27946139799366L648.9541511785715,335.5798747913683L649.2703790848215,335.34523669196324L650.174426107143,332.78132209430663L650.4007649419643,335.7209181120506L651.5784810892858,336.02879115684914L651.6273505758929,338.071295884453L651.7293992991072,339.5132788535328L652.9436713616071,324.84398191900027L654.7953246651786,323.8007656552869L655.2062901116071,326.4520034680547L656.4147132276785,330.7446232363067L656.45950384375,318.2035098969525L659.9163851026786,322.5974494874148L660.4800388348215,327.03739045065987L660.7561706741071,330.7674896804182L661.1421241785714,330.85716461193067L661.5483181160715,333.01714289701187L662.1728470669643,333.5670542608992L663.6607882544643,333.7429641532935L663.9302245892858,335.9379416891366L664.0211910982143,337.5025775735074L665.4320955044643,339.23552741034274L665.7266977008928,338.3841074073191L667.3468558616072,336.99649853121247L669.0310445937499,337.25399588981077L670.1802856071428,339.38291587162405L671.5774142053572,319.28541783275915L674.9931989196429,324.2371571424223L676.2265570178571,328.52533655552503L676.3660851741071,331.5917974180306L676.46105359375,334.3249694452246L676.90172553125,332.9481030768601L677.6498519553571,335.7992260777114L678.4950247142857,337.90879954637603L678.6836532366071,339.9252890884833L679.0916172499999,341.4924293256609L679.1472592008928,338.3947025197195L680.2854949598214,338.95156008263007L680.3534504821429,339.41118846369443L681.2029329910714,340.9950432675071L681.9622185892857,340.83945692406L682.6353091875001,340.85819781333925L683.5774513214285,341.680306358969L683.822491392857,339.72706735339625L685.4035539642856,341.2935232649699L685.4692006919643,342.58180283227205L685.8472273348215,343.65871123058616L685.9940666741071,344.50379061874713L687.5059423660715,344.20292295283645L689.1322573125001,343.58357006721945L690.66814446875,343.7104524026871L690.8733963125,342.17708433324583L691.8773371830357,337.8701585464039L695.3756997857142,338.77068750991293L696.3998041294643,333.72700739847716L697.7166636339285,333.0670430810022L697.8618868169642,312.9305763841285L697.9767878303571,319.91994424634834L698.6785074821429,322.1401778959128L702.71497315625,322.93164171698834L702.851269,327.78884371184824L703.7926415357143,329.5157751232466L703.7937189732144,325.5699998629158L704.33813275,326.1979510638766L705.7266418482143,330.3860235244144L708.3385042678572,333.8730729886743L709.18175303125,331.7307641829135L709.684377625,334.42961974529584L710.0430103928571,336.7820266488495L712.8984506473214,338.68876361277125L714.0125979821428,340.55002167852655L714.3612259732142,332.1932569506322L718.7530921026786,335.3539487922263L719.00151840625,332.36270708573437L719.4809011339286,334.37966563464266L719.7532619419643,336.6041199714328L720.9132773303571,338.69782602706255L721.566743174107,340.5561032351834L722.9506346830357,339.50651209807256L723.0457570223215,340.850054730149L724.6941594375,339.9154843721166L725.97792621875,338.68772973385455L727.3727460223214,339.56223837572935L728.2172261428572,335.93813969424247L729.2088534419644,331.14003686194326L729.50707275,321.0366236176865L729.7645803125,317.67757733319417L732.1227831607143,322.5087294561005L734.344767125,327.54970277435405L736.5729848348215,327.7504446324652L736.7469909910714,331.6675772057654L737.1347145714285,334.8391346969767L737.5955499821429,337.38656701244486L740.225421,337.0004747696525L741.4625501294643,332.6333631992583L741.8538908214285,333.962123485525L743.0688555223214,336.7668828097966L745.7809965892857,338.4185785271118L746.1455552633928,339.2453982987912L746.7705459732142,340.31526386808645L748.5079139419643,341.7157066972073L748.5261534196429,342.6251325571972L748.8261428035714,336.90454429999494L749.1435251071429,338.19090201971335L751.9180805892858,339.8549589349719L751.9596388928571,341.39428332701834L753.0121414107143,340.15381299758366L754.7976862276786,338.3817336235794L754.93459775,339.3086649606111L756.2013564107142,338.93575564906854L757.5548487901785,333.9900468121835L758.0904891473215,335.43580254909347L759.9582270535715,335.01629657444914L760.7222841607144,337.5534164584327L762.5950244553571,339.6348316843748L764.01093125,340.1584503797543L764.488620861607,341.58667682690236L764.9238286517857,342.8050741633152L765.3165546205356,343.67184671504305L765.7123589821429,343.27038808335266L765.9307709553572,342.3626862494699L766.1337909642858,341.6057687484067L766.3014864151785,327.71593826475475L767.1465822142857,330.49732978587537L767.4916700535715,332.56549432085103L768.1746115089286,335.649683849312L768.6098192991071,332.3250384698686L768.8423918794642,333.57111657821156L769.4784648035715,336.43990711076134L770.7569983169643,338.1878411848094L772.2664112946429,338.5812498080727L772.2988883392857,339.5533051782248L772.8191367321429,339.10274130500534L773.3385385669643,339.981270766062L773.8253863973214,341.41097442428713L773.8796430714285,341.33912730958417L774.3729555267857,333.5591635167309L774.3765726383929,333.99913992313213L775.0042569419643,334.56517349443965L775.5856114330358,334.808240505156L776.2815590982143,336.22425974029073L778.1423706205356,337.69320398724784L778.8401653214286,338.41787045424553L779.8277907098214,338.2713483227322L780.3587365178572,339.4417082820012L780.4670959464286,341.15034782605017L781.0815431607142,338.93565553499576L781.5861687098214,340.73042744281764L783.0352451875,339.1682891717185L785.7616238214285,336.5976409809295L786.1220266651786,338.72669914101095L786.6138768839286,339.14137496141217L786.6293458080357,340.903606426964L787.4478135089287,340.5669762872655L788.6374584285714,338.218294844667L788.763980375,330.0366467719395L789.6554059866071,331.5437720267073L790.4858794196429,334.0078830326325L790.4864950982143,335.508753657965L790.8514385714285,334.6729185571298L791.1983734464286,335.41481754402514L792.4779074375,336.5318106110012L794.1194604285714,337.1232172269218L794.1310044017857,337.1790384843821L796.3184334062499,336.17925864814714L796.4062445625,338.2255882926876L796.6370470669642,336.6849262154575L797.8954171071429,334.4060976474663L797.9060375624999,336.78316279702824L800.5947058839286,338.9136475499124L801.6773766517857,339.35900392512684L802.0701026205356,340.792312554746L803.3013828035714,341.76882710733344L803.4932436383928,338.5552874599165L805.3520542053571,339.7549953386598L808.2268883348215,341.40393090826325L808.3691100848214,342.7209620793449L809.2168225178572,343.16504749961985L810.025208482143,343.9807017619077L810.5710844955357,342.14331307160165L812.37763934375,343.31187858034707L812.7645933258929,339.19782304445533L814.3118705357143,337.5133505765965L816.2437929330357,339.08564139564794L817.7134946428571,340.8074371254988L819.9730350000001,317.9295268207031L820.7990447633929,323.9436084064524L821.3082879017857,328.7285878124542L821.4856033303571,332.1453035207009L822.9259833482142,332.56268055986686L823.2635291250001,317.2167012592262L823.35349515625,319.72291395168355L825.7168543125,324.9122887135116L826.5868081339286,329.4194274609987L827.870651875,332.171121374524L828.0622048705358,333.91583199263124L828.6730349732143,336.7021228214925L833.0408126785715,338.90304799454015L833.1514809017857,338.3382346189149L835.063624625,339.5842352894348L836.8760284196429,339.8030706490002L837.01648009375,341.4419603504574L838.5899236428571,333.70685758056925L841.6951754776785,332.40946594466914L843.6497240625,335.51682083777706L843.6662704241072,334.2584159799188L843.7394592142857,336.91504503758904L844.1189480937501,334.8341058043413L844.1812855491072,336.88227385041296L844.5878642857143,339.10581630927055L845.6546813303571,324.96586658129473L845.969062200893,328.61081685777015L847.0187941651786,331.2543559051991L847.1809485089285,334.38050391010466L849.3630672857142,334.9979701239429L850.9441298571428,327.52610761313133L851.4422138214286,331.4101539704159L851.9986333303572,334.08916805633544L852.4546202723214,336.63164418317535L854.4788944553571,338.2342106155021L854.5069847901785,339.57763895093603L854.5169126071428,339.88234161197505L854.6909187633929,340.02876595469803L855.50530759375,341.3144124404837L855.5165437276786,342.57742399672657L855.7398041696429,342.411941875865L856.9702377946428,341.62263423738875L858.4078472589285,341.69140608142214L858.9502600803571,341.4923203132979L859.2528660982143,342.31411932460423L859.7426384017857,329.7250411753015L861.1676264553571,330.79331360611565L863.0830024910714,332.6125282395144L865.2761265223214,335.63338521436617L866.2849928214287,338.0527760523321L867.5382835133928,338.54692359618434L868.5441483794642,340.1186435630587L869.3301390357143,334.6424552528594L870.3677113482144,337.0861432750103L871.3186269017857,331.1514555314443L871.7536038125,332.22745829864436L872.7776311964286,330.8655353668856L875.7194203705357,328.75706557301896L875.7450479910714,331.2917271176435L876.5838330848214,334.4717182717538L878.19075415625,336.9401428720184L878.6879915625,339.0249445684043L878.8269040401785,340.8148374854255L879.5279310535715,337.1175424425783L880.1147496919643,336.5590754841949L880.4526802678571,335.29944810431687L880.6674751294643,336.85610358917904L882.7460829464286,338.50952853737624L882.8236584464286,340.1075637907553L884.7559656428572,341.1248962330684L884.8146859866072,342.42519301211877L886.0999919642858,343.3377077641036L886.7840108571428,343.72195932500625L888.0289898883929,342.75168752110454L888.5194548303572,343.80123729154144L890.2455097053571,339.10148986494283L890.793001875,334.9053432171801L892.3131892276785,336.1029917794175L893.57548421875,338.4356928993678L894.0522503125,335.75724724566265L894.9112758392856,333.0434831133312L897.2298443794643,335.61199198098586L897.9526510223214,338.046638940484L899.6353005580357,339.9578582109602L899.7135686964286,341.5311552488765L902.4610343214285,341.72232540529654L904.0915050982143,342.96086491025164L904.3109175491071,341.5290825645262L904.5070881339285,341.9390276446052L904.7689824062501,339.0885912685877L905.4823229910714,340.8612301451995L905.5622842455357,336.03393905981653L905.7838515714285,337.97790934703664L906.8759114375,339.7587058498478L906.9865796607144,339.1158435770087L907.1430389776785,340.8915746679451L907.150658,341.1617630706665L908.0557054999999,341.95343385007476L908.1449019330357,342.8830860467573L909.3756433973214,343.87924004730326L910.3548032053571,343.083786787186L910.4095216383929,343.8905430120977L910.9419296830357,334.45392840963615L912.8696192901787,336.63433421405267L913.0717927410714,335.31771543474684L913.0963429241071,332.76820488156227L913.1932353392858,334.4711407957483L914.6489303616072,336.58831264927056L917.4485747455357,336.76268455319854L919.2467409732143,332.4163115138471L920.8761343125,331.6510705502558L922.3277504642857,334.8412718330486L922.3580726339286,336.1780487496387L925.2459129732142,338.24923157501814L926.1155589553572,336.297871132164L927.4058673214286,337.66733229515455L931.4170901741071,339.4221451025928L931.9768189553572,337.4461095902701L932.4029454866071,338.90186187897666L933.7276548928571,332.6506619594458L933.8330128883929,333.6563333087733L934.4890953660715,326.90692398258614L934.7613792142857,330.9391825381975L938.3404726696428,334.1102663238593L940.9209354821428,334.6323994381029L941.0264473973215,337.304160072122L941.7596436160715,335.1135893364461L942.9369749642857,326.42604022421136L942.9455175044643,328.39708583760415L943.9170582901786,324.1347318228734L946.5713255714285,328.8950069827965L947.9932352321429,332.4174514526133L948.6572445714286,335.5036683518005L948.8664983258928,331.91659936514003L949.4428504285714,328.7188229160031L949.7945568125,332.5468678359592L951.1854516651786,318.75102740799616L952.2802051250001,317.61608458976133L953.3613366964286,321.6259055414413L954.18565334375,326.82727629973095L955.5711610089286,311.7989802323469L956.7524173080358,318.0427134253234L956.8979483303572,322.18700281621227L957.1309826696429,327.3482919563584L957.4622947008928,331.46457669891316L957.6265269598214,328.7976440668694L958.0775884732143,332.2291605809801L958.7118143616071,335.34152140546905L959.1750355267857,337.68118468427537L959.5439039508929,338.8954346301963L960.8547605892857,339.9517899066953L961.8342282366071,312.02393714672314L962.461604700893,318.1016989213108L962.7878373839286,323.9989447565411L963.3514911160714,328.78120245386003L964.0412819955358,330.6483371613331L965.2461649598214,331.95741257382684L965.4543412767857,334.45009803424875L968.2940817276785,336.8856349760839L968.4620850178571,338.39836353742965L969.3917596607143,339.22325551606326L970.1099487142857,339.36135439875414L970.5832516160715,340.13329004140843L972.1209088482143,337.5898721219472L973.0304969776786,337.10730058263715L974.2961012410714,333.3845443571486L975.2086138437501,334.48593903292243L976.4657525267856,335.27618743297677L976.8350057499999,333.4367014512795L977.7559839330357,334.77961570981165L977.9578495446428,337.4236911574895L978.6741146026786,335.66880867798284L979.4197783125001,335.05617640003885L979.8916189776786,336.93174829761944" style="fill: none;" fill="none"></path></g></g></g></g><g opacity="0.2"><g><g><g><path stroke="rgb(255, 112, 67)" stroke-width="2px" d="M77.53963672321429,112.05520379543307L77.92443583035715,209.49249732494354L78.18840801785714,-855.995633125305L79.7580805357143,156.7532788515091L80.56384986607142,227.75162297487262L81.5544766875,129.11630797386172L81.76326868303572,327.4930078834295L83.23027679910714,333.0944833829999L83.31601004017858,333.77368192374706L84.93916963392857,347.1956775588915L85.28733586607143,-58.14048838615422L85.47950454017857,245.97330856323242L86.66383923214286,-137.90707540512082L86.92157767410714,253.8401292562485L87.11051403571429,343.63056947663426L87.12090361160715,337.99233290553093L87.99655245982143,206.9893025159836L89.44285838392857,230.92561888694763L89.92062495535714,202.5666217803955L91.26980758482142,341.0820379033685L91.67215353125,200.00685203075412L93.39589961160715,-33.39488935470581L95.45465179464286,226.5161700844765L96.59273363392857,-336.12119150161743L96.68108350892858,300.0033924281597L96.74726895535714,235.33509361743927L97.27567508928573,147.35442328453064L99.76301651785714,-72.86279869079591L99.83058724107144,-311.92806673049927L99.98104369196429,260.59627997875214L100.48436092410715,274.7498418688774L101.73041739285713,334.44309371709824L102.51502277232143,3.031352043151833L102.52802898214286,-513.4920139312744L104.11694145535715,305.5651904940605L105.15459072767857,347.3729096231982L105.22246929017858,-30.219294548034668L105.40263223214286,243.65961301326755L105.647056625,263.1884251832962L107.05265080357144,-224.8852820396424L107.46700248214286,316.92940513789654L108.18503761607143,165.98635065555573L108.31102084375,298.07529839873314L108.55629179464286,-34.99368023872378L111.348855875,-959.2284269332883L112.58652372321428,213.26664048433307L113.31340923660714,-468.31074428558344L117.60299576339287,-214.13901638984683L119.24377915625,291.5027180612087L122.2048082857143,-372.3583312034607L122.48378763839285,43.45185685157776L124.85137958482143,-17.388588905334498L125.68470053125,299.5050947666169L125.83792753571429,-160.20185422897336L126.48600619196428,-142.43282866477966L126.83309498660714,41.043005466461175L127.87028249999999,256.02077084779745L128.2078282767857,52.6206271648407L129.11510761160716,-145.46516251564026L130.29328551785716,-1707.1186513900755L131.62030371875,175.6356017589569L131.9226018973214,202.62037920951843L132.59415329910715,125.3506432771683L133.10809098660715,280.9281607270241L133.475112375,7.011061191558828L134.2799581875,-298.2654519081116L134.76349674553572,56.69329690933226L135.94767751785716,80.64909386634827L136.53418831696428,294.60783186554914L137.10261355803573,-1038.2580013275144L138.80196337499999,-288.9581913948059L139.01791263392857,201.79142582416534L139.93704378125,-389.7063894271851L142.55513994642857,-531.1295671463013L142.65133972321428,93.48401713371277L143.1571966294643,271.9144054055214L143.5489221205357,307.3848189711571L146.23589732589286,59.38894677162168L148.47342717410712,89.85851931571962L149.6639186517857,-41.84400153160099L151.50118046875,306.85485023260117L151.52719288839288,308.4752132296562L151.74198775,72.48318481445311L151.8939064375,196.17131996154785L152.6661982455357,187.0324014425278L155.00800865178573,-637.940911769867L156.99187892857142,328.4093797504902L157.01550559375002,169.14654421806335L157.97681072321427,295.24799036979675L158.13342395982144,-518.6463661193847L158.84968901785714,-2.9980535507201953L160.59082801785715,213.85906982421878L160.64031318303572,-82.01967668533324L160.97916727678572,199.79870188236237L161.08629534821426,113.65231800079346L162.19728733035714,327.9947237223387L164.50954516517857,346.71090460103005L165.51694922767857,156.18901598453522L166.60523806249998,30.79749631881712L166.61770555357143,346.941646697931L168.16567540178573,74.418918967247L168.84615414285716,331.6528033390641L169.41827345535717,132.5175802707672L170.22327318749998,346.3761969488114L170.60099199107145,152.00610029697418L170.79716257589286,198.1732397079468L171.65711162053572,96.39053094387057L172.74770925,134.54528975486758L174.10166338839286,-554.5914525985717L175.92007004910715,60.28818237781522L176.91061991071427,-193.56969547271726L177.70776974107144,-96.37577962875369L178.35023033035714,291.29603284597397L179.20648530357144,-657.7023501396178L180.97471416071429,273.05739897489553L181.60162886607145,24.94395184516905L182.29218934374998,344.5856399945915L182.8138999732143,128.33037781715396L184.27290426785714,149.76977396011355L184.89943417410714,38.91317415237427L186.08500022321428,304.391826570034L189.14099777232144,126.85989606380463L189.22680797321428,303.192793905735L190.1831107142857,165.7956068515778L190.62663016517857,321.705478310585L191.03090010714286,-485.2803225517273L192.61296315625,-0.18856239318846368L192.9865261294643,264.6293489933014L194.9202955625,347.8181948810816L195.20081411160714,286.0432838201523L195.25891877678572,196.3529371023178L195.70905677232142,246.1083330512047L195.72683449107143,-159.50051856040955L197.29404429464287,343.0913887284696L197.77588973660716,346.9313385542482L198.05109805803573,114.50763154029849L199.34217602232144,305.7461464703083L201.37691674107143,92.54737603664398L201.90193664285712,322.61098201572895L206.37399490625,297.51113924384117L207.32922020982144,249.45663440227509L209.1378529732143,347.9110040868982L210.1124721517857,298.4244191944599L210.43308676785713,249.42743945121768L210.69059433035713,323.36931827664375L210.95726011160716,-48.28970742225646L211.36476236607143,311.40148851275444L212.1091177589286,302.78311389684677L212.14536583482143,339.6051670536399L212.36708708035712,136.53554189205173L213.7923829732143,294.8577045202255L213.88527347767857,195.7355045080185L214.86604944196426,347.98991225715145L216.69838583035713,338.46279683709145L217.0284665044643,329.4518741518259L217.36531964285714,341.12700033187866L218.27575433035716,169.99084699153903L219.02565083035716,340.4447638913989L219.9377786339286,252.01543617248538L220.97234951339286,278.64865559339523L222.18354318303574,321.1659723818302L222.87433454017855,222.8361283540726L222.93544063839286,275.8993174433708L223.0190959642857,347.6153933997266L225.88962034374998,347.07320966012776L226.08286645535716,210.8665354847908L227.62821966964285,302.25602316856384L229.70698140625,340.44745878502727L230.39223165625,189.71356618404388L231.26587954910715,344.73640333116055L233.02325707142856,337.662796407938L235.03344760714288,262.02245074510574L235.34459616517856,15.596520185470556L236.19169291964286,-3.3303124904632826L237.74735875,18.60780048370358L239.39814691964287,155.22075998783112L239.45994565625,347.99932910937105L239.69898286160716,312.6341174095869L242.36533283482143,325.3751985281706L244.9551077857143,347.8506870964775L245.25263445535714,341.5241857357323L246.18315565625002,335.79618203639984L246.35054326785715,312.82595667243004L247.04010326785715,336.0271250754595L247.15916011160715,334.68171036988497L247.52964469196428,216.93377870321274L248.30724672767857,314.2995605915785L248.32902635714285,341.813594840467L248.86812990625,347.22269448870793L249.47588161607143,286.33796009421354L250.49298261607143,345.3616672679782L253.2395247232143,300.56135910749435L255.5567849464286,270.7523893117905L255.62797278125,347.9593896471197L256.2082498348214,335.1095648407936L256.74312059375,-169.888320684433L257.13222945089285,335.58004389703274L257.6370858794643,346.7903965357691L258.3762080044643,347.83820194436703L258.9137723571429,316.8100130856037L258.95294490625,342.8605715483427L259.3187349375,335.0668613910675L259.8175115401786,337.1081312298775L260.33745209375,237.51825022697452L260.9294270401786,340.2246322967112L261.02955176785713,347.9916845981352L261.15715115178574,347.9999950323478L261.1603065044643,259.7815178632736L265.32614163839287,345.7826925413683L265.4201095803571,103.35813331604007L265.788747125,305.61615201830864L267.6183899196429,347.95989485105383L270.7617368660714,301.4697213768959L271.09712776785716,298.218503177166L274.16136001785713,318.4959610104561L274.70500419642855,347.36167313484475L275.9305123928571,335.19933845102787L276.31546541964286,331.1262182071805L277.03719462500004,305.19529271125793L279.9924517678571,209.4385324716568L280.32137804464287,187.73551750183108L280.3303053839286,295.2243785858155L282.87636715625,325.6488385349512L282.91415442857146,347.833562381682L287.73945827232143,318.52364349365234L289.3003573705357,340.00005512684584L290.3673283348214,347.4144079601392L291.69973372321425,334.94134816527367L291.8275639866071,268.67749947309494L292.9538709732143,346.5785288223997L293.97612828125,339.19365587830544L298.32405035267857,327.54132691025734L301.3932849910714,343.8341876231134L301.8318020535714,321.6799154430628L302.2690877589286,346.65351454820484L302.391453875,347.3737109610811L303.6503626339286,323.2584435790777L303.99298775892856,316.5507393628359L305.58343942857147,225.9490378499031L305.82809470089285,289.19905665516853L305.88512192857144,347.9334225911298L306.46432154464287,308.91396287083626L308.29981328571427,344.926947273314L309.02138857142853,343.07075974717736L309.4591360357143,300.47514843940735L311.2919341830357,347.9097838663147L312.0371361339285,345.0405457634479L313.96728845535716,344.040628682822L315.0408779642857,335.7177346497774L316.01703633928577,305.207228243351L316.1784980446428,330.1819283440709L317.15681129464286,343.1425560563803L317.2614766517857,347.89050166506786L321.00664940178575,65.89432168006894L321.02204136607145,342.37952034175396L321.5868494955357,281.60343009233475L322.1585070491072,329.16199888288975L322.9866716875,347.36918719671667L324.2746712589286,338.6263864412904L324.8888106339286,338.6498869508505L325.3514930803571,339.60069555044174L327.2841081160714,347.491623158101L327.4130927767857,319.2287603318691L327.5105239107143,333.742624476552L328.18823209821426,332.7127851098776L328.5411698392857,340.338812276721L329.57497112053574,321.6857384443283L330.20935092857144,347.1306653432548L330.3373351116071,340.29248052462935L330.40736854910716,344.4090307429433L330.6335534642857,257.199121594429L333.70032538839286,336.6124177277088L335.29516376785716,344.72751596197486L335.3150963616071,343.29445914551616L335.3732010267857,347.8026513704099L335.8177979151786,282.7294969856739L335.9908805535714,334.19284834712744L336.2649344776786,326.8284273445606L337.2139260357143,312.93694588541985L337.5129919017857,347.5480234560091L338.6342965,290.9415622353554L340.1113863526786,313.12924537062645L340.63225042410716,342.2621495947242L341.24554324107146,298.9078384935856L341.3464375669643,328.1228751242161L342.3160543571429,337.30346969515085L344.6283121919643,314.458538249135L345.3197961875,347.7491814283421L345.5005748080357,341.2727860286832L347.58364629464285,342.41731637343764L348.15084017857146,347.9588509021851L348.23049359375,193.0608736276627L349.0261042276786,345.510396335274L352.1886911294643,331.205783739686L354.8893651830357,326.39107997715473L355.2395323705357,237.82197970151904L355.37290374107147,347.56752888974734L355.569459125,346.5614079562947L355.74308048214283,333.3532849997282L355.9066970625,341.0045503936708L357.8223809375,345.94111045077443L358.0223995133929,346.9151634532027L358.2661312678572,299.3959766924381L360.068838125,334.56303241848946L363.22195896874996,320.4648095667362L363.3921171339286,294.26910388469696L363.8153961517857,337.1550015285611L363.86965282589284,345.62126833200455L364.5265049017857,345.97440162394196L366.26818262053575,341.12463169917464L366.56832592410717,347.992943491834L366.91833919196426,268.789932012558L367.86394451785713,343.4542141035199L368.6169963705357,328.39756305515766L369.6177049285714,346.9342225738801L370.7219244464286,347.1750037437305L371.1201145625,346.0489872209728L371.80590353125,347.9594710182282L373.5220305892857,331.9545212313533L373.81863374107144,345.9233228834346L374.0465117723214,345.30066646821797L374.5256636205357,340.7402466349304L377.26620286160716,347.5810959627852L377.5155526830357,341.79594650119543L377.98839382589284,330.11944721639156L378.9143743973214,345.64747777953744L379.83035019196427,327.0161980688572L380.74016920089286,331.75271264463663L381.05354959375,347.7534597374033L382.21441154017856,336.34067694842815L382.3276963973214,347.98199483605276L383.2351296517857,325.18531250953674L383.3599584821429,345.0106399524957L383.97248170089284,336.9296546205878L386.4786782857143,322.05106857419014L386.9236599732143,343.85797388106585L387.13930139285713,340.09933891892433L387.5432634955357,341.415110334754L390.0763190580357,347.73093076900113L390.995604125,340.4034832417965L391.14913896875,347.2595350323245L393.30462964732146,341.4177549928427L393.76438762053573,293.06180450320244L393.9856471071429,341.64365071058273L394.21090850446427,344.4928695373237L394.6419604642857,347.28766801487654L395.7527215669643,341.4289299696684L397.2378922008928,343.9174940828234L398.19165526785713,345.69235054031014L400.11087929464287,342.28626319393516L400.65475435267854,330.19177667051554L400.78789484375,212.6632954478264L401.1426026607143,341.59049394726753L401.2795911428571,342.6172608435154L401.82631371428573,331.68868231773376L402.1952590982143,347.5070114044938L403.0829136785714,347.9262637482025L403.88252622321426,309.95462718605995L404.1064793035714,342.2997095733881L405.0555478214286,331.629192635417L408.21528720982144,342.86652797088027L408.5349013482143,258.20589798688894L409.43556213839287,273.080189704895L409.8704620892857,329.660622805357L410.35815647767856,314.5369402617216L411.6157569196429,303.6489931046963L411.91944037499997,344.3501860201359L412.3992079017857,304.48979127407074L413.03797441964286,179.18670344352722L413.41630890178567,324.5930236130953L416.23088349107144,344.27971690148115L416.27282659375,347.98424530931516L418.00711616964287,322.9400518089533L419.3868518482143,338.80973859876394L421.94799774553576,347.8688410152681L422.50010750446427,334.3765926659107L422.55659601339283,339.22856417670846L422.9272345133928,312.83456909656525L423.13710394642857,347.689547031885L423.8274335446428,347.42471387563273L424.06931826339286,344.28481986001134L424.2229300669643,347.908387796022L424.6774547723214,346.36084350943565L426.58775145982145,345.2613549977541L429.55847752678574,327.24720376729965L429.95474364732144,321.5496184974909L430.2289514910714,319.4628082513809L430.5297104732143,345.3596613574773L431.4383750848215,346.34533639252186L433.31427073214286,344.03494504466653L433.58855553571425,338.04020899534225L434.5428573214286,344.98610259220004L434.54939890625,332.14946753531694L434.6177392276786,317.6679539978504L435.28852103125,275.0169696211815L436.38835383928574,223.19937992095947L436.8115558973214,345.45547592639923L437.0896117321428,347.8004999186378L437.80749294642857,242.8194932937622L438.8294424151786,336.77370946109295L441.43330101339285,345.1802634932101L441.72305474107145,345.9626717604697L443.3335159642857,344.78879737854004L444.44612410267854,314.677802875638L444.67015414285714,331.4524715691805L445.0920478839286,304.37923419475555L445.20933465178575,347.8258924140828L446.7338317544643,347.1116050747223L447.59501215625,347.84730563359335L448.4116328214286,332.7457082942128L448.7208573839286,320.32523903250694L448.9372684017857,278.72794348001486L449.45151392857144,337.5519022643566L449.7297236830357,284.5883329510689L449.9292805,347.4645408343058L450.0511848571428,341.459845893085L451.78024116517855,322.3132721632719L452.07538208035714,345.489294167608L453.0602369151786,252.2447003722191L453.12719195982146,330.1620339900255L455.2296573214286,347.8071924370015L455.4924751116072,329.45163863897324L455.7743789375,344.34556218981743L455.93060737499997,310.4935367703438L456.0632091473214,345.78740806505084L457.86360720982145,334.5792352706194L458.1947653214286,347.99906129008195L459.4207352767857,264.3405454158783L459.48553544642857,317.26436707377434L459.8656400044643,262.0529248118401L460.15293101785716,316.01768086850643L463.0992608214286,346.11116599012166L463.59657518750004,239.5186142921448L463.9900707544643,288.7166701555252L464.1451447946428,336.4421354532242L465.5398876383929,321.1717586517334L466.09930858035716,341.1186434067786L467.09701570535714,346.92333685653284L468.14005216517853,342.7379633411765L469.5594991116071,343.7928191963583L470.6948103973215,334.60418558865786L472.2597883660714,347.8458369699074L473.07887174553576,331.5447256267071L474.5642732589286,340.38422790542245L475.11753741517856,337.5469122007489L475.60446220535715,347.8371595062781L476.4447864955357,343.68028105422854L477.3791556875,342.10791946575046L479.0187077232143,345.9333585128188L480.9613275357143,336.8072970509529L481.01281365625,324.60927183926105L481.40669402232146,342.77542500942945L483.5040800357143,344.6258662380278L485.06759576785714,229.16470873355868L486.2262258794643,347.1896655666642L487.37508209375,347.66430509113707L488.44474665178575,109.23613655567172L488.8437833258929,346.92315313220024L489.8777385267857,291.8647596538067L490.4363129107143,346.77735609188676L491.00727782589286,340.24312599748373L491.51059505803573,347.2772128782235L492.8251457678572,339.46289352327585L492.97475566071427,305.34768897295L493.5071637053572,347.8134846915491L494.58152281250005,343.5424733553082L496.31619718750005,347.7516917536268L497.86432095535713,341.2794954441488L499.4094432901786,347.9063986222609L499.5380431517857,337.01450730860233L499.8458824375,347.0204318915494L500.37659736607145,327.25729408860207L500.4900361428571,317.2502211779356L502.97245214285715,339.5914046764374L503.51748159821426,302.17173981666565L503.71927024999997,346.5642212815583L506.19806913839284,259.64708107709885L506.67160291964285,344.02562041021883L507.22879202678575,338.2173697575927L507.3537747767857,327.6683893352747L508.1858643660714,346.6755362153053L508.59729157142857,346.26655531767756L508.750903375,340.47176468372345L509.18026221875004,137.2217701673508L510.039518625,325.6671199500561L510.504971625,346.0681137274951L511.15505123660716,289.6687297821045L512.6132859330357,339.1874309927225L515.4464078392857,331.9281988888979L516.5361589107142,347.6170974581037L516.7865861696429,323.90979866683483L517.4146552723214,347.8702575612697L518.4038968169642,335.20781583338976L519.0422785357142,343.2894653007388L519.4815651964285,344.83314671739936L520.1279507366072,343.2866472490132L520.1807451741071,336.7337954342365L520.3649100267857,347.91849857615307L521.32621515625,314.80785566568375L522.927826,347.9097729532514L524.1601066607143,346.15426335670054L524.7125242589285,346.18211909849197L525.0350628705357,255.51830309629443L526.6522195982143,347.99996975629284L527.1199044330357,346.93317728303373L527.1638484910715,346.94608781673014L527.1761620625,345.9191802069545L528.2776879866071,347.34215946355835L528.2887702008928,335.44751930236816L528.37965975,347.97833018001984L528.4489235892856,345.27036201395094L529.0519037901786,336.871838375926L530.7661838125,329.39509826898575L531.5520205491072,347.9075063530472L532.1666986428571,241.25300872325894L533.5148038348215,328.2959770709276L535.7865808035714,347.3798423977569L536.8317721383929,347.98281547857914L536.8562453616072,347.4539291842375L536.9799197946428,334.81694228202105L537.1162156383929,296.7865029275418L538.2723060758929,347.9925472270479L540.3075085535714,336.1640423089266L542.7538303973214,339.50774413719773L543.7449959375,347.97235588132753L544.7431648214285,345.75055097881705L544.9437990758929,346.8777697784826L545.2797286964286,278.80899879336357L545.7724254732143,335.3121901601553L546.7302674107143,346.0530365835875L548.6720406651785,336.0390130728483L549.0026600580358,344.60806557163596L549.21245253125,342.30289601907134L549.7201564732143,326.03397335112095L550.0717089375,336.523381985724L550.4492738214285,336.04756607860327L551.1337544732143,340.4381619691849L552.4751641607144,344.3771327957511L552.488555169643,328.69208808243275L555.3455346205358,333.4301280900836L555.8177600848214,335.2963394969702L555.8894096785714,319.78870402276516L555.9199627276786,344.0452338773757L556.1919387366071,347.7539283154765L558.0547512142857,327.6026726067066L559.1332661517857,273.89130461215973L559.1723617410714,320.55149342119694L559.261173375,336.03356386721134L560.7423420982143,347.61882021976635L564.2099207723214,347.0991970314644L564.5844842232143,282.74504947662354L565.9456725848214,338.9542376175523L566.4518373303571,341.9315100759268L567.9026069241071,332.15432903915644L570.3162978035714,334.81278839707375L570.7630495669644,347.8564520466607L570.7928330178571,347.99214295417914L572.259379375,345.0362025499344L572.5165021383928,344.1413690354675L572.836885875,336.9127776399255L573.2631663258928,293.12349158525467L573.5996346651787,341.69777059182525L574.8198326339286,310.01404988765717L575.2067866160713,327.2956481128931L576.6007598616071,322.4347881525755L577.0906860848214,328.2248262614012L579.7428754508928,330.6628066971898L579.7735054598214,347.96856860103435L580.0925808794643,332.7805090993643L581.4534614017857,347.5931217703037L581.5027926473214,338.5982091650367L582.1716504553572,347.9636981928779L583.4692700044642,347.35141934547573L584.7824354375,336.2853379100561L584.8882551919643,344.9705344364047L586.8292588482143,347.5837857585866L589.7378783392858,344.6148425079882L589.9776851428571,320.8825834393501L590.6446189553571,347.8569623864023L590.9016647589286,345.63564055785537L593.3112767678572,283.33832147717476L593.3243599374999,347.8017570056254L594.2100135625,347.9098029494053L595.3205437857143,303.41657865047455L598.3048917410714,344.90508887171745L598.9799832946428,340.7423014305532L601.6866602142857,325.26038061082363L601.8551252633929,311.0026550590992L604.1460652276785,347.64521244633943L604.5120091785715,343.4986252915114L604.6664675401786,346.6668920563534L605.0488039330357,347.96318786157644L606.0932256696428,341.38271111249924L607.5469197366072,340.93180987238884L611.1373262857144,344.8112904764712L612.3482890758928,337.2111659422517L612.8215919776786,325.3236082494259L613.5519406830358,335.6095726713538L613.6522193303572,347.8195047862828L615.0139464107143,347.9750298477011L615.1312331785714,324.3509963452816L615.6020733660715,347.96792229321727L616.4289296875,343.22880885750055L618.2962827946428,324.4250662177801L618.6863921294643,346.13223102129996L619.3157695491071,327.8702757060528L619.4910840223214,345.8160587977618L621.8377428973214,278.3147631883622L622.2974239107143,331.64461548626423L624.9672370758929,347.0924807963893L625.7579992410714,347.43203773116693L626.0135828080357,347.46493606781587L626.0581425446428,331.6329025030136L626.7495495803571,345.0199878141284L626.8950806026786,341.81198028102517L627.3734628526786,346.8302666740492L628.5333243214285,345.77588738128543L630.6949717857143,339.58964103087783L633.2634288660714,345.9158720886335L633.8597135625,320.36166790127754L633.8821858303572,317.0036003291607L635.69512834375,341.6121395230293L636.403158700893,336.6678172647953L636.6765969464286,314.83862790465355L637.2033869241071,347.3582048569806L637.4686674285714,291.54593575000763L638.129598375,347.81845027883537L639.2229665580356,324.3986326009035L639.39451,343.35554664209485L640.3091774776785,344.24062635935843L640.7506190133929,345.7144876681268L641.3091164375,320.1234218031168L641.4662683928572,317.377810806036L641.9768968080357,347.50364953954704L644.7125875803571,330.3360715061426L646.8653077053572,347.4384237891063L648.7308137767857,327.91114906966686L648.9541511785715,340.781528364867L649.2703790848215,334.406684294343L650.174426107143,322.52566370368004L650.4007649419643,347.47930218302645L651.5784810892858,337.26028333604336L651.6273505758929,346.24131479486823L651.7293992991072,345.2812107298523L652.9436713616071,266.1667941808701L654.7953246651786,319.62790060043335L655.2062901116071,337.0569547191262L656.4147132276785,347.91510230931453L656.45950384375,268.0390565395355L659.9163851026786,340.17320784926414L660.4800388348215,344.7971543036401L660.7561706741071,345.6878865994513L661.1421241785714,331.21586433798075L661.5483181160715,341.6570560373366L662.1728470669643,335.7666997164488L663.6607882544643,334.44660372287035L663.9302245892858,344.71785183250904L664.0211910982143,343.76112111099064L665.4320955044643,346.16732675768435L665.7266977008928,334.97842739522457L667.3468558616072,331.44606302678585L669.0310445937499,338.28398532420397L670.1802856071428,347.89859579887707L671.5774142053572,238.8954256772995L674.9931989196429,344.0441143810749L676.2265570178571,345.67805420793593L676.3660851741071,343.85764086805284L676.46105359375,345.2576575540006L676.90172553125,327.44063760340214L677.6498519553571,347.2037180811167L678.4950247142857,346.3470934210345L678.6836532366071,347.9912472569122L679.0916172499999,347.7609902743716L679.1472592008928,326.00379529595375L680.2854949598214,341.1789903342724L680.3534504821429,341.249701987952L681.2029329910714,347.33046248275787L681.9622185892857,340.2171115502715L682.6353091875001,340.9331613704562L683.5774513214285,344.96874054148793L683.822491392857,331.91411133110523L685.4035539642856,347.5593469112646L685.4692006919643,347.7349211014807L685.8472273348215,347.9663448238425L685.9940666741071,347.88410817139084L687.5059423660715,342.99945228919387L689.1322573125001,341.10615852475166L690.66814446875,344.2179817445576L690.8733963125,336.0436120554805L691.8773371830357,320.6424553990364L695.3756997857142,342.37280336394906L696.3998041294643,313.552286952734L697.7166636339285,330.4271858111024L697.8618868169642,232.38470959663394L697.9767878303571,347.8774156952277L698.6785074821429,331.02111249417067L702.71497315625,326.0974970012903L702.851269,347.21765169128776L703.7926415357143,336.4235007688403L703.7937189732144,309.78689882159233L704.33813275,328.70975586771965L705.7266418482143,347.13831336656585L708.3385042678572,347.821270845714L709.18175303125,323.16152895987034L709.684377625,345.225041994825L710.0430103928571,346.19165426306427L712.8984506473214,346.3157114684582L714.0125979821428,347.99505394154767L714.3612259732142,298.76619803905487L718.7530921026786,347.9967161586028L719.00151840625,320.3977402597666L719.4809011339286,342.4474998302758L719.7532619419643,345.50193731859326L720.9132773303571,347.0726502495818L721.566743174107,347.9892120676668L722.9506346830357,335.3081475496292L723.0457570223215,346.2242252584547L724.6941594375,336.1772029399872L725.97792621875,333.77671118080616L727.3727460223214,343.0602729432285L728.2172261428572,321.4417449682951L729.2088534419644,311.9476255327463L729.50707275,280.62297064065933L729.7645803125,304.24139219522476L732.1227831607143,341.83333794772625L734.344767125,347.7135960473679L736.5729848348215,328.55341206490993L736.7469909910714,347.33610749896616L737.1347145714285,347.5253646618221L737.5955499821429,347.57629627431743L740.225421,335.4561057984829L741.4625501294643,315.1649169176817L741.8538908214285,339.27716463059187L743.0688555223214,347.985920106883L745.7809965892857,345.0253613963723L746.1455552633928,342.552677385509L746.7705459732142,344.5947261452675L748.5079139419643,347.31747801369056L748.5261534196429,346.2628359971568L748.8261428035714,314.0221912711859L749.1435251071429,343.336332898587L751.9180805892858,346.51118659600616L751.9596388928571,347.5515808952041L753.0121414107143,335.19193167984486L754.7976862276786,331.2934161275625L754.93459775,343.01639030873775L756.2013564107142,337.4441184028983L757.5548487901785,314.2072114646435L758.0904891473215,341.2188254967332L759.9582270535715,333.33827267587185L760.7222841607144,347.7018959943671L762.5950244553571,347.9604925881431L764.01093125,342.2529251612723L764.488620861607,347.2995826154947L764.9238286517857,347.67866350896657L765.3165546205356,347.13893692195415L765.7123589821429,341.6645535565913L765.9307709553572,338.731878913939L766.1337909642858,338.578098744154L766.3014864151785,272.1566163301468L767.1465822142857,341.62289587035775L767.4916700535715,340.8381524607539L768.1746115089286,347.9864419631558L768.6098192991071,319.02645695209503L768.8423918794642,338.5554290115833L769.4784648035715,347.9150692409603L770.7569983169643,345.1795774810016L772.2664112946429,340.154884301126L772.2988883392857,343.441526658833L772.8191367321429,337.3004858121276L773.3385385669643,343.4953886102885L773.8253863973214,347.12978905718774L773.8796430714285,341.0517388507724L774.3729555267857,302.43930834531784L774.3765726383929,335.75904554873705L775.0042569419643,336.82930777966976L775.5856114330358,335.7805085480213L776.2815590982143,341.8883366808295L778.1423706205356,343.56898097507656L778.8401653214286,341.31653632223606L779.8277907098214,337.685259796679L780.3587365178572,344.1231481190771L780.4670959464286,347.98490600224613L781.0815431607142,330.0768863707781L781.5861687098214,347.909515074105L783.0352451875,332.91973608732224L785.7616238214285,326.31504821777344L786.1220266651786,347.24293178133667L786.6138768839286,340.8000782430172L786.6293458080357,347.95253228917136L787.4478135089287,339.2204557284713L788.6374584285714,328.8235690742731L788.763980375,297.3100544810295L789.6554059866071,337.5722730457783L790.4858794196429,343.8643270563334L790.4864950982143,341.51223615929484L790.8514385714285,331.32957815378904L791.1983734464286,338.3824134916067L792.4779074375,340.99978287890553L794.1194604285714,339.48884369060397L794.1310044017857,337.4023235142231L796.3184334062499,332.1801393032074L796.4062445625,346.41090687084943L796.6370470669642,330.52227790653706L797.8954171071429,325.29078337550163L797.9060375624999,346.29142339527607L800.5947058839286,347.4355865614489L801.6773766517857,341.1404294259846L802.0701026205356,346.5255470732227L803.3013828035714,345.6748853176832L803.4932436383928,325.7011288702488L805.3520542053571,344.5538268536329L808.2268883348215,347.999673186677L808.3691100848214,347.98908676367137L809.2168225178572,344.94138918071985L810.025208482143,347.243318811059L810.5710844955357,334.7937583103776L812.37763934375,347.9861406153286L812.7645933258929,322.74160090088844L814.3118705357143,330.7754607051611L816.2437929330357,345.3748046718538L817.7134946428571,347.69462004490197L819.9730350000001,226.41788560152057L820.7990447633929,347.99993474944955L821.3082879017857,347.8685054364614L821.4856033303571,345.81216635368764L822.9259833482142,334.2321887165308L823.2635291250001,255.83278405666354L823.35349515625,329.7477647215128L825.7168543125,345.66978776082397L826.5868081339286,347.44798245094717L827.870651875,343.177897028625L828.0622048705358,340.89467446506023L828.6730349732143,347.8472861369373L833.0408126785715,347.70674868673086L833.1514809017857,336.07898111641407L835.063624625,344.56823797151446L836.8760284196429,340.6784120872617L837.01648009375,347.9975191562862L838.5899236428571,302.7664465010166L841.6951754776785,327.2198994010687L843.6497240625,347.9462404102087L843.6662704241072,329.22479654848576L843.7394592142857,347.54156126827L844.1189480937501,326.5103488713503L844.1812855491072,345.0749460346997L844.5878642857143,347.99998614470087L845.6546813303571,268.40606766939163L845.969062200893,343.1906179636717L847.0187941651786,341.8285120949149L847.1809485089285,346.88509592972696L849.3630672857142,337.46783497929573L850.9441298571428,297.6386575698853L851.4422138214286,346.94633939955384L851.9986333303572,344.8052244000137L852.4546202723214,346.8015486905351L854.4788944553571,344.64447634480894L854.5069847901785,344.9513522926718L854.5169126071428,341.1011522561312L854.6909187633929,340.6144633255899L855.50530759375,346.45699838362634L855.5165437276786,347.6294702216983L855.7398041696429,341.7500133924186L856.9702377946428,338.4654036834836L858.4078472589285,341.96649345755577L858.9502600803571,340.69597724080086L859.2528660982143,345.60131536982954L859.7426384017857,279.36872857809067L861.1676264553571,335.0664033293724L863.0830024910714,339.88938677310944L865.2761265223214,347.71681311377324L866.2849928214287,347.73033940419555L867.5382835133928,340.52351377159357L868.5441483794642,346.40552343055606L869.3301390357143,312.7377020120621L870.3677113482144,346.86089536361396L871.3186269017857,307.4127045571804L871.7536038125,336.5314693674445L872.7776311964286,325.4178436398506L875.7194203705357,320.3231863975525L875.7450479910714,341.4303732961416L876.5838330848214,347.1916828881949L878.19075415625,346.81384127307683L878.6879915625,347.3641513539478L878.8269040401785,347.97440915351035L879.5279310535715,322.3283622711897L880.1147496919643,334.32520765066147L880.4526802678571,330.26093858480453L880.6674751294643,343.08272552862763L882.7460829464286,345.12322833016515L882.8236584464286,346.49970480427146L884.7559656428572,345.19422600232065L884.8146859866072,347.6263801283203L886.0999919642858,346.98776677204296L886.7840108571428,345.258965568617L888.0289898883929,338.87060030549765L888.5194548303572,347.999436373289L890.2455097053571,320.30250015854836L890.793001875,318.12075662612915L892.3131892276785,340.8935860283673L893.57548421875,347.76649737916887L894.0522503125,325.0434646308422L894.9112758392856,322.18842658400536L897.2298443794643,345.8860274516046L897.9526510223214,347.7852267784765L899.6353005580357,347.60273529286496L899.7135686964286,347.8243434005417L902.4610343214285,342.4870060309768L904.0915050982143,347.91502293007215L904.3109175491071,335.8019531816244L904.5070881339285,343.578807964921L904.7689824062501,327.6868457645178L905.4823229910714,347.9517856516468L905.5622842455357,316.7247747182846L905.7838515714285,345.7537904959172L906.8759114375,346.8818918610923L906.9865796607144,336.54439448565245L907.1430389776785,347.9944990316908L907.150658,342.24251668155193L908.0557054999999,345.1201169677079L908.1449019330357,346.6016948334873L909.3756433973214,347.86385604948737L910.3548032053571,339.901973746717L910.4095216383929,347.1175679117441L910.9419296830357,296.7074699997902L912.8696192901787,345.3559574317187L913.0717927410714,330.0512403175235L913.0963429241071,322.5701626688242L913.1932353392858,341.282884452492L914.6489303616072,345.05700006335974L917.4485747455357,337.4601721689105L919.2467409732143,315.0308193564415L920.8761343125,328.5901066958904L922.3277504642857,347.60207696422003L922.3580726339286,341.52515641599894L925.2459129732142,346.53396287653595L926.1155589553572,328.49242936074734L927.4058673214286,343.14517694711685L931.4170901741071,346.4413963323459L931.9768189553572,329.5419675409794L932.4029454866071,344.72487103380263L933.7276548928571,307.6458622813225L933.8330128883929,337.6790187060833L934.4890953660715,299.9092866778374L934.7613792142857,347.0682167606428L938.3404726696428,346.7946014665067L940.9209354821428,336.72093189507723L941.0264473973215,347.99120260819836L941.7596436160715,326.35130639374256L942.9369749642857,291.67584377527237L942.9455175044643,336.28126829117537L943.9170582901786,307.08531576395035L946.5713255714285,347.93610762248863L947.9932352321429,346.5072293318808L948.6572445714286,347.8485359485494L948.8664983258928,317.56832341849804L949.4428504285714,315.92771711945534L949.7945568125,347.85904751578346L951.1854516651786,263.5676656961441L952.2802051250001,313.07631331682205L953.3613366964286,337.6651893481612L954.18565334375,347.6327593328897L955.5711610089286,251.68579596281054L956.7524173080358,343.0176461972296L956.8979483303572,338.7641603797674L957.1309826696429,347.9934485169433L957.4622947008928,347.92971566913184L957.6265269598214,318.1299135386944L958.0775884732143,345.95522663742304L958.7118143616071,347.79096470342483L959.1750355267857,347.0398377995007L959.5439039508929,343.7524344138801L960.8547605892857,344.17721101269126L961.8342282366071,200.31252610683444L962.461604700893,342.4127460196614L962.7878373839286,347.5879280974623L963.3514911160714,347.91023324313574L964.0412819955358,338.11687599122524L965.2461649598214,337.1937142238021L965.4543412767857,344.4208398759365L968.2940817276785,346.6277827434242L968.4620850178571,344.4492777828127L969.3917596607143,342.5228234305978L970.1099487142857,339.9137499295175L970.5832516160715,343.22103261202574L972.1209088482143,327.4162004441023L973.0304969776786,335.1770144253969L974.2961012410714,318.4935194551945L975.2086138437501,338.8915177360177L976.4657525267856,338.43718103319407L976.8350057499999,326.07875752449036L977.7559839330357,340.15127274394035L977.9578495446428,347.9999929482009L978.6741146026786,328.64927875995636L979.4197783125001,332.60564728826284L979.8916189776786,344.4340358879417" style="fill: none;" fill="none"></path></g></g></g></g></g></g><g transform="translate(51, 377)" clip-path="url(#clip_1)"><clipPath id="clip_1"><rect width="1077" height="23"></rect></clipPath><g><g><line x1="0" y1="0" x2="0" y2="5" style="visibility: inherit;" fill="rgb(0, 0, 0)" stroke="rgb(204, 204, 204)" stroke-width="1px"></line><line x1="76.95982142857143" y1="0" x2="76.95982142857143" y2="5" style="visibility: inherit;" fill="rgb(0, 0, 0)" stroke="rgb(204, 204, 204)" stroke-width="1px"></line><line x1="153.91964285714286" y1="0" x2="153.91964285714286" y2="5" style="visibility: inherit;" fill="rgb(0, 0, 0)" stroke="rgb(204, 204, 204)" stroke-width="1px"></line><line x1="230.87946428571428" y1="0" x2="230.87946428571428" y2="5" style="visibility: inherit;" fill="rgb(0, 0, 0)" stroke="rgb(204, 204, 204)" stroke-width="1px"></line><line x1="307.8392857142857" y1="0" x2="307.8392857142857" y2="5" style="visibility: inherit;" fill="rgb(0, 0, 0)" stroke="rgb(204, 204, 204)" stroke-width="1px"></line><line x1="384.79910714285717" y1="0" x2="384.79910714285717" y2="5" style="visibility: inherit;" fill="rgb(0, 0, 0)" stroke="rgb(204, 204, 204)" stroke-width="1px"></line><line x1="461.75892857142856" y1="0" x2="461.75892857142856" y2="5" style="visibility: inherit;" fill="rgb(0, 0, 0)" stroke="rgb(204, 204, 204)" stroke-width="1px"></line><line x1="538.71875" y1="0" x2="538.71875" y2="5" style="visibility: inherit;" fill="rgb(0, 0, 0)" stroke="rgb(204, 204, 204)" stroke-width="1px"></line><line x1="615.6785714285714" y1="0" x2="615.6785714285714" y2="5" style="visibility: inherit;" fill="rgb(0, 0, 0)" stroke="rgb(204, 204, 204)" stroke-width="1px"></line><line x1="692.6383928571429" y1="0" x2="692.6383928571429" y2="5" style="visibility: inherit;" fill="rgb(0, 0, 0)" stroke="rgb(204, 204, 204)" stroke-width="1px"></line><line x1="769.5982142857143" y1="0" x2="769.5982142857143" y2="5" style="visibility: inherit;" fill="rgb(0, 0, 0)" stroke="rgb(204, 204, 204)" stroke-width="1px"></line><line x1="846.5580357142857" y1="0" x2="846.5580357142857" y2="5" style="visibility: inherit;" fill="rgb(0, 0, 0)" stroke="rgb(204, 204, 204)" stroke-width="1px"></line><line x1="923.5178571428571" y1="0" x2="923.5178571428571" y2="5" style="visibility: inherit;" fill="rgb(0, 0, 0)" stroke="rgb(204, 204, 204)" stroke-width="1px"></line><line x1="1000.4776785714286" y1="0" x2="1000.4776785714286" y2="5" style="visibility: inherit;" fill="rgb(0, 0, 0)" stroke="rgb(204, 204, 204)" stroke-width="1px"></line><line x1="1077.4375" y1="0" x2="1077.4375" y2="5" style="visibility: inherit;" fill="rgb(0, 0, 0)" stroke="rgb(204, 204, 204)" stroke-width="1px"></line></g><g transform="translate(0, 8)"><text x="0" y="0" dx="0em" dy="0.95em" style="text-anchor: middle; visibility: hidden; font-family: Roboto, sans-serif; font-size: 12px; font-weight: 200;" fill="rgb(33, 33, 33)" stroke="none" stroke-width="1px">-1M</text><text x="76.95982142857143" y="0" dx="0em" dy="0.95em" style="text-anchor: middle; visibility: inherit; font-family: Roboto, sans-serif; font-size: 12px; font-weight: 200;" fill="rgb(33, 33, 33)" stroke="none" stroke-width="1px">0</text><text x="153.91964285714286" y="0" dx="0em" dy="0.95em" style="text-anchor: middle; visibility: inherit; font-family: Roboto, sans-serif; font-size: 12px; font-weight: 200;" fill="rgb(33, 33, 33)" stroke="none" stroke-width="1px">1M</text><text x="230.87946428571428" y="0" dx="0em" dy="0.95em" style="text-anchor: middle; visibility: inherit; font-family: Roboto, sans-serif; font-size: 12px; font-weight: 200;" fill="rgb(33, 33, 33)" stroke="none" stroke-width="1px">2M</text><text x="307.8392857142857" y="0" dx="0em" dy="0.95em" style="text-anchor: middle; visibility: inherit; font-family: Roboto, sans-serif; font-size: 12px; font-weight: 200;" fill="rgb(33, 33, 33)" stroke="none" stroke-width="1px">3M</text><text x="384.79910714285717" y="0" dx="0em" dy="0.95em" style="text-anchor: middle; visibility: inherit; font-family: Roboto, sans-serif; font-size: 12px; font-weight: 200;" fill="rgb(33, 33, 33)" stroke="none" stroke-width="1px">4M</text><text x="461.75892857142856" y="0" dx="0em" dy="0.95em" style="text-anchor: middle; visibility: inherit; font-family: Roboto, sans-serif; font-size: 12px; font-weight: 200;" fill="rgb(33, 33, 33)" stroke="none" stroke-width="1px">5M</text><text x="538.71875" y="0" dx="0em" dy="0.95em" style="text-anchor: middle; visibility: inherit; font-family: Roboto, sans-serif; font-size: 12px; font-weight: 200;" fill="rgb(33, 33, 33)" stroke="none" stroke-width="1px">6M</text><text x="615.6785714285714" y="0" dx="0em" dy="0.95em" style="text-anchor: middle; visibility: inherit; font-family: Roboto, sans-serif; font-size: 12px; font-weight: 200;" fill="rgb(33, 33, 33)" stroke="none" stroke-width="1px">7M</text><text x="692.6383928571429" y="0" dx="0em" dy="0.95em" style="text-anchor: middle; visibility: inherit; font-family: Roboto, sans-serif; font-size: 12px; font-weight: 200;" fill="rgb(33, 33, 33)" stroke="none" stroke-width="1px">8M</text><text x="769.5982142857143" y="0" dx="0em" dy="0.95em" style="text-anchor: middle; visibility: inherit; font-family: Roboto, sans-serif; font-size: 12px; font-weight: 200;" fill="rgb(33, 33, 33)" stroke="none" stroke-width="1px">9M</text><text x="846.5580357142857" y="0" dx="0em" dy="0.95em" style="text-anchor: middle; visibility: inherit; font-family: Roboto, sans-serif; font-size: 12px; font-weight: 200;" fill="rgb(33, 33, 33)" stroke="none" stroke-width="1px">10M</text><text x="923.5178571428571" y="0" dx="0em" dy="0.95em" style="text-anchor: middle; visibility: inherit; font-family: Roboto, sans-serif; font-size: 12px; font-weight: 200;" fill="rgb(33, 33, 33)" stroke="none" stroke-width="1px">11M</text><text x="1000.4776785714286" y="0" dx="0em" dy="0.95em" style="text-anchor: middle; visibility: inherit; font-family: Roboto, sans-serif; font-size: 12px; font-weight: 200;" fill="rgb(33, 33, 33)" stroke="none" stroke-width="1px">12M</text><text x="1077.4375" y="0" dx="0em" dy="0.95em" style="text-anchor: middle; visibility: hidden; font-family: Roboto, sans-serif; font-size: 12px; font-weight: 200;" fill="rgb(33, 33, 33)" stroke="none" stroke-width="1px">13M</text></g><line x1="0" y1="0" x2="1077.4375" y2="0" fill="rgb(0, 0, 0)" stroke="rgb(204, 204, 204)" stroke-width="1px"></line></g></g></g></g></svg>